<svg width="20" height="16" viewBox="0 0 20 16" fill="none" xmlns="http://www.w3.org/2000/svg">
<path d="M4.67148 9.90196C4.22695 9.37164 4.01443 8.70094 4.07487 8.0127C4.13531 7.32446 4.46091 6.70055 4.98928 6.25602L8.0854 3.65902C8.19458 3.56739 8.33301 3.5167 8.47729 3.5167H10.2418C10.4036 3.5167 10.5576 3.58104 10.6726 3.69607L12.8817 5.90508C13.41 6.43345 14.262 6.43929 14.7982 5.92262C15.3519 5.3884 15.3383 4.48959 14.7924 3.94757L12.4703 1.64889C11.9711 1.15171 11.3102 0.876801 10.6064 0.876801H6.84149C5.91928 0.876801 5.05167 1.23555 4.40047 1.88869L4.1938 2.09536H0.608311C0.271013 2.09536 0 2.36833 0 2.70368V9.20201C0 9.53931 0.272963 9.81032 0.608311 9.81032H2.33184C3.07078 10.8203 4.26399 11.4344 5.52739 11.4344H6.07331C5.96413 11.2024 5.89004 10.9548 5.85494 10.6994C5.39871 10.5512 4.98928 10.2782 4.67343 9.90196H4.67148Z" fill="#7E828E"/>
<path d="M19.3994 3.61609H16.0713C16.3053 4.00993 16.43 4.45835 16.432 4.92823C16.432 5.62037 16.1649 6.27352 15.6755 6.76289C15.1705 7.26786 14.5096 7.51938 13.8467 7.51938C13.1838 7.51938 12.5229 7.26786 12.0179 6.76289L9.98825 4.73326H8.69755L5.77105 7.18794C5.19199 7.67536 5.11596 8.53907 5.60143 9.11813C6.08691 9.69719 6.95257 9.77323 7.53163 9.28775C6.95257 9.77518 6.87653 10.6389 7.36201 11.218C7.84748 11.797 8.71315 11.8731 9.29221 11.3876L9.60416 11.1263C9.0251 11.6137 8.94906 12.4775 9.43454 13.0565C9.92196 13.6356 10.7857 13.7116 11.3647 13.2261L11.9867 12.7036C11.4076 13.1911 11.3316 14.0548 11.8171 14.6338C12.3045 15.2129 13.1682 15.2889 13.7473 14.8035L17.8845 11.331H19.3916C19.7289 11.331 19.9999 11.0581 19.9999 10.7227V4.22439C19.9999 3.8871 19.727 3.61609 19.3916 3.61609H19.3994Z" fill="#7E828E"/>
</svg>
