<svg width="86" height="80" viewBox="0 0 86 80" fill="none" xmlns="http://www.w3.org/2000/svg">
<g clip-path="url(#clip0_3576_21183)">
<path d="M49.0486 31.4307H33.6104V49.8085H49.0486V31.4307Z" fill="#46C0FF"/>
<path d="M33.613 16.6904C33.613 12.5475 36.973 9.1875 41.1159 9.1875C45.2588 9.1875 48.6157 12.5475 48.6157 16.6904C48.6157 20.8332 45.2588 24.1932 41.1159 24.1932C36.973 24.1932 33.613 20.8332 33.613 16.6904ZM44.6434 43.2352C41.1921 44.7156 37.4147 45.7514 33.61 46.2997V76.8229C33.61 78.5775 35.0326 79.997 36.7872 79.997C38.5418 79.997 39.9644 78.5744 39.9644 76.8229V51.5514C40.4061 51.6306 40.86 51.6763 41.323 51.6763C41.7861 51.6763 42.243 51.6306 42.6877 51.5514V65.9356C42.6877 67.6903 44.1103 69.1129 45.865 69.1129C47.6196 69.1129 49.0422 67.6903 49.0422 65.9356V41.3556C47.6622 41.8979 46.2397 42.501 44.7653 43.1834L44.6434 43.2352ZM32.6748 32.5917C32.952 32.8689 33.2719 33.076 33.61 33.2314V39.8051C35.9251 39.3634 38.1976 38.6872 40.2934 37.7946C43.3366 36.3903 46.2214 35.248 49.0422 34.3432V33.1004C49.0422 32.7866 49.0148 32.4789 48.9813 32.1774L65.2542 15.9075C66.494 14.6677 66.494 12.6572 65.2542 11.4143C64.0174 10.1745 62.0039 10.1745 60.7641 11.4143L45.536 26.6393C44.3236 25.8504 42.8827 25.3873 41.3291 25.3873C39.4131 25.3873 37.6645 26.088 36.3181 27.2455L20.4869 11.4143C19.247 10.1745 17.2365 10.1745 15.9937 11.4143C14.7508 12.6541 14.7508 14.6646 15.9937 15.9075L32.6748 32.5917Z" fill="#46C0FF"/>
<path d="M66.9692 29.9593C58.2052 30.4862 50.6475 32.7557 41.7007 37.5504C35.7636 40.5144 28.4648 41.7938 22.5734 40.88C19.0794 40.3956 15.826 37.9008 12.3838 35.2627C10.9856 34.1905 9.54168 33.0847 8.06122 32.1038L4.06152 38.1597C5.3318 39.0005 6.61121 39.9813 7.96679 41.0201C11.8172 43.978 16.1855 47.3258 21.5225 48.063C23.8407 48.4224 26.299 48.5199 28.806 48.3706C34.271 48.0416 39.9765 46.5399 44.9998 44.0176L45.0911 43.9719C53.1758 39.6371 59.6399 37.6753 67.4078 37.2123C72.9337 36.8803 74.7675 37.9922 79.675 40.9683L81.0854 41.8182L84.817 35.5917L83.4401 34.7571C78.2128 31.589 74.7614 29.4962 66.9722 29.9623L66.9692 29.9593Z" fill="#7E828E"/>
<path d="M72.0374 4.9348L70.0801 7.00391L72.1492 8.96125L74.1065 6.89214L72.0374 4.9348Z" fill="#D8DDE4"/>
<path d="M72.0935 14.582H70.6709V16.0077H72.0935V14.582Z" fill="#D8DDE4"/>
<path d="M65.5313 26.1885L67.2921 24.4248L65.5313 22.6641L63.7676 24.4309L65.5313 26.1885Z" fill="#D8DDE4"/>
<path d="M1.94068 2.49077L0.808594 5.6543L3.97212 6.78638L5.1042 3.62285L1.94068 2.49077Z" fill="#D8DDE4"/>
<path d="M9.50304 9.96601L5.85742 12.1436L8.03652 15.7918L11.6821 13.6143L9.50304 9.96601Z" fill="#D8DDE4"/>
<path d="M17.0341 25.3761L13.7422 26.5742L14.9403 29.8661L18.2322 28.668L17.0341 25.3761Z" fill="#D8DDE4"/>
<path d="M5.90527 18.8898L7.00801 19.691L7.80612 18.5883L6.70643 17.7871L5.90527 18.8898Z" fill="#D8DDE4"/>
<path d="M54.3226 9.35184L53.792 10.6025L55.0455 11.1344L55.5761 9.88366L54.3226 9.35184Z" fill="#D8DDE4"/>
<path d="M9.89519 3.18647C11.7656 4.84971 13.6999 6.57387 12.9384 8.21884L13.7639 8.59961C14.8057 6.34236 12.518 4.30748 10.5014 2.51021C9.50527 1.62376 8.56399 0.786043 8.06441 -0.00292969L7.2998 0.484467C7.86945 1.37701 8.85338 2.25432 9.89824 3.18342L9.89519 3.18647Z" fill="#D8DDE4"/>
<path d="M80.8971 15.977L80.8818 16.1506L81.7866 16.2329L81.8018 16.0593C82.076 13.0496 82.4994 10.7466 85.1923 10.7466V9.83887C81.4515 9.83887 81.1194 13.5339 80.8971 15.977Z" fill="#D8DDE4"/>
</g>
<defs>
<clipPath id="clip0_3576_21183">
<rect width="84.3835" height="80" fill="white" transform="translate(0.808594)"/>
</clipPath>
</defs>
</svg>
