<svg width="26" height="26" viewBox="0 0 26 26" fill="none" xmlns="http://www.w3.org/2000/svg">
<g clip-path="url(#clip0_3366_10377)">
<path d="M13.0002 18.5694C15.5645 18.5694 17.6434 16.4906 17.6434 13.9262C17.6434 11.3618 15.5645 9.28296 13.0002 9.28296C10.4358 9.28296 8.35693 11.3618 8.35693 13.9262C8.35693 16.4906 10.4358 18.5694 13.0002 18.5694Z" fill="#7E828E"/>
<path d="M23.2112 5.57124H20.6439C20.2933 5.57124 19.9702 5.3719 19.8121 5.05914L18.9804 3.39913C18.5164 2.45055 17.5507 1.85253 16.4921 1.85597H9.50151C8.44639 1.85253 7.48062 2.45055 7.00977 3.39569L6.17461 5.05571C6.01995 5.36846 5.70032 5.5678 5.34976 5.5678H2.78241C1.24612 5.57124 -0.00146484 6.81883 -0.00146484 8.35511V21.3568C-0.00146484 22.8966 1.24612 24.1441 2.78584 24.1441H23.2147C24.7544 24.1441 26.002 22.8966 26.002 21.3568V8.35511C26.002 6.81539 24.7544 5.5678 23.2147 5.5678L23.2112 5.57124ZM13.0003 20.4289C9.40871 20.4289 6.50111 17.5178 6.50111 13.9297C6.50111 10.3416 9.41215 7.43059 13.0003 7.43059C16.5884 7.43059 19.4994 10.3416 19.4994 13.9297C19.496 17.5178 16.5884 20.4254 13.0003 20.4289ZM22.2833 10.2145C21.7712 10.2145 21.3553 9.7986 21.3553 9.28651C21.3553 8.77441 21.7712 8.35855 22.2833 8.35855C22.7954 8.35855 23.2112 8.77441 23.2112 9.28651C23.2112 9.7986 22.7954 10.2145 22.2833 10.2145Z" fill="#7E828E"/>
</g>
<defs>
<clipPath id="clip0_3366_10377">
<rect width="26" height="26" fill="white"/>
</clipPath>
</defs>
</svg>
