<svg width="26" height="26" viewBox="0 0 26 26" fill="none" xmlns="http://www.w3.org/2000/svg">
<path d="M2.1665 9.07541C2.1665 8.69589 2.1665 8.50614 2.18234 8.34631C2.33507 6.80479 3.55454 5.58532 5.09607 5.43258C5.25589 5.41675 5.45589 5.41675 5.85589 5.41675C6.01001 5.41675 6.08708 5.41675 6.15251 5.41279C6.988 5.36219 7.71962 4.83486 8.03183 4.05825C8.05628 3.99743 8.07913 3.92887 8.12484 3.79175C8.17054 3.65463 8.1934 3.58607 8.21785 3.52525C8.53006 2.74863 9.26168 2.22131 10.0972 2.17071C10.1626 2.16675 10.2349 2.16675 10.3794 2.16675H15.6203C15.7648 2.16675 15.8371 2.16675 15.9025 2.17071C16.738 2.22131 17.4696 2.74863 17.7818 3.52525C17.8063 3.58607 17.8291 3.65463 17.8748 3.79175C17.9205 3.92887 17.9434 3.99743 17.9678 4.05825C18.2801 4.83486 19.0117 5.36219 19.8472 5.41279C19.9126 5.41675 19.9897 5.41675 20.1438 5.41675C20.5438 5.41675 20.7438 5.41675 20.9036 5.43258C22.4451 5.58532 23.6646 6.80479 23.8173 8.34631C23.8332 8.50614 23.8332 8.69589 23.8332 9.07541V17.5501C23.8332 19.3703 23.8332 20.2803 23.4789 20.9756C23.1674 21.5871 22.6702 22.0843 22.0586 22.3959C21.3634 22.7501 20.4533 22.7501 18.6332 22.7501H7.3665C5.54633 22.7501 4.63625 22.7501 3.94103 22.3959C3.32951 22.0843 2.83232 21.5871 2.52073 20.9756C2.1665 20.2803 2.1665 19.3703 2.1665 17.5501V9.07541Z" stroke="#B1B1B1" stroke-width="2" stroke-linecap="round" stroke-linejoin="round"/>
<path d="M12.9998 17.8751C15.3931 17.8751 17.3332 15.935 17.3332 13.5417C17.3332 11.1485 15.3931 9.20841 12.9998 9.20841C10.6066 9.20841 8.6665 11.1485 8.6665 13.5417C8.6665 15.935 10.6066 17.8751 12.9998 17.8751Z" stroke="#B1B1B1" stroke-width="2" stroke-linecap="round" stroke-linejoin="round"/>
</svg>
