<svg width="24" height="24" viewBox="0 0 24 24" fill="none" xmlns="http://www.w3.org/2000/svg">
<path d="M13.4071 13.2018L22.487 13.2018C22.9019 13.2018 23.2376 12.8661 23.2376 12.4512L23.2376 11.5488C23.2376 11.1339 22.9019 10.7982 22.487 10.7982L13.4071 10.7982C13.2916 10.7982 13.1997 10.7062 13.2018 10.5929L13.2018 1.51296C13.2018 1.0981 12.8661 0.76236 12.4512 0.76236L11.5488 0.762366C11.1339 0.762366 10.7982 1.0981 10.7982 1.51296L10.7982 10.5929C10.7982 10.7084 10.7062 10.8003 10.5929 10.7982L1.51296 10.7982C1.0981 10.7982 0.762366 11.1339 0.762366 11.5488L0.76236 12.4512C0.76236 12.8661 1.0981 13.2018 1.51296 13.2018L10.5929 13.2018C10.7084 13.2018 10.8003 13.2938 10.7982 13.4071L10.7982 22.487C10.7982 22.9019 11.1339 23.2376 11.5488 23.2376H12.4512C12.8661 23.2376 13.2018 22.9019 13.2018 22.487V13.4071C13.2018 13.2916 13.2938 13.1997 13.4071 13.2018Z" fill="#333439"/>
</svg>
