<svg width="24" height="24" viewBox="0 0 24 24" fill="none" xmlns="http://www.w3.org/2000/svg">
<g clip-path="url(#clip0_3576_18169)">
<path d="M13.5658 10.3054H8.31532C8.04185 10.3054 7.80191 10.1225 7.72961 9.85828C7.6573 9.5941 7.77081 9.31457 8.00631 9.17562C10.2938 7.82403 11.4822 6.24704 11.639 4.35497C11.6935 3.69856 12.2784 3.17384 12.9425 3.18273C13.6199 3.19363 14.2545 3.46508 14.7299 3.94739C15.2058 4.4301 15.4679 5.06954 15.4679 5.74736V5.95135C15.4679 7.60751 14.9775 8.66342 14.0723 10.0328C13.96 10.2028 13.7698 10.305 13.5658 10.305V10.3054Z" fill="#FEBEB5"/>
<path d="M20.0006 10.994C20.0006 9.94533 19.1475 9.0918 18.0985 9.0918H8.3154C8.20674 9.0918 8.10009 9.12088 8.00638 9.17622C7.31968 9.58218 6.62611 9.91665 6.06907 10.1853C5.87477 10.279 5.69139 10.3674 5.52415 10.4511C5.31855 10.5541 5.18848 10.7641 5.18848 10.994V18.7642C5.18848 18.994 5.31855 19.2045 5.52415 19.3071C7.97689 20.5335 10.016 20.6817 12.3936 20.6817C12.7616 20.6817 13.1385 20.6781 13.5254 20.6744C13.9536 20.6704 14.3963 20.6664 14.8605 20.6664H16.7796C17.8282 20.6664 18.6818 19.8132 18.6818 18.7642C18.6818 18.4116 18.5852 18.0811 18.4172 17.7976C18.9637 17.4631 19.3293 16.8604 19.3293 16.1741C19.3293 15.8215 19.2327 15.4911 19.0647 15.2075C19.6112 14.873 19.9768 14.2703 19.9768 13.584C19.9768 13.0908 19.7882 12.6408 19.4792 12.3023C19.8156 11.9477 20.0002 11.4852 20.0002 10.994H20.0006Z" fill="#FEBEB5"/>
<path d="M18.7381 5.6996H17.4431C17.1078 5.6996 16.8359 5.42775 16.8359 5.09248C16.8359 4.7572 17.1078 4.48535 17.4431 4.48535H18.7381C19.0734 4.48535 19.3452 4.7572 19.3452 5.09248C19.3452 5.42775 19.0734 5.6996 18.7381 5.6996Z" fill="#333439"/>
<path d="M9.67267 5.6996H8.37763C8.04236 5.6996 7.77051 5.42775 7.77051 5.09248C7.77051 4.7572 8.04236 4.48535 8.37763 4.48535H9.67267C10.0079 4.48535 10.2798 4.7572 10.2798 5.09248C10.2798 5.42775 10.0079 5.6996 9.67267 5.6996Z" fill="#333439"/>
<path d="M11.6157 2.33586C11.4056 2.33586 11.202 2.2272 11.0893 2.0321L10.4418 0.910752C10.2742 0.620318 10.3735 0.249094 10.664 0.0814583C10.9544 -0.0861778 11.3256 0.0131921 11.4933 0.303627L12.1408 1.42497C12.3084 1.71541 12.2091 2.08663 11.9186 2.25427C11.8229 2.30961 11.7187 2.33586 11.6157 2.33586Z" fill="#333439"/>
<path d="M15.4992 2.33586C15.3962 2.33586 15.2919 2.30961 15.1962 2.25427C14.9058 2.08663 14.8064 1.71541 14.974 1.42497L15.6216 0.303627C15.7892 0.0131921 16.1604 -0.0861778 16.4509 0.0814583C16.7413 0.249094 16.8407 0.620318 16.673 0.910752L16.0255 2.0321C15.9132 2.2268 15.7092 2.33586 15.4992 2.33586Z" fill="#333439"/>
<path d="M3.80409 17.4763V20.6735H2.58984V17.4763C2.58984 17.141 2.8617 16.8691 3.19697 16.8691C3.53224 16.8691 3.80409 17.141 3.80409 17.4763Z" fill="#333439"/>
<path d="M18.7381 5.6996H17.4431C17.1078 5.6996 16.8359 5.42775 16.8359 5.09248C16.8359 4.7572 17.1078 4.48535 17.4431 4.48535H18.7381C19.0734 4.48535 19.3452 4.7572 19.3452 5.09248C19.3452 5.42775 19.0734 5.6996 18.7381 5.6996Z" fill="#F9F9F9"/>
<path d="M9.67267 5.6996H8.37763C8.04236 5.6996 7.77051 5.42775 7.77051 5.09248C7.77051 4.7572 8.04236 4.48535 8.37763 4.48535H9.67267C10.0079 4.48535 10.2798 4.7572 10.2798 5.09248C10.2798 5.42775 10.0079 5.6996 9.67267 5.6996Z" fill="#F9F9F9"/>
<path d="M11.6157 2.33586C11.4056 2.33586 11.202 2.2272 11.0893 2.0321L10.4418 0.910752C10.2742 0.620318 10.3735 0.249094 10.664 0.0814583C10.9544 -0.0861778 11.3256 0.0131921 11.4933 0.303627L12.1408 1.42497C12.3084 1.71541 12.2091 2.08663 11.9186 2.25427C11.8229 2.30961 11.7187 2.33586 11.6157 2.33586Z" fill="#F9F9F9"/>
<path d="M15.4992 2.33586C15.3962 2.33586 15.2919 2.30961 15.1962 2.25427C14.9058 2.08663 14.8064 1.71541 14.974 1.42497L15.6216 0.303627C15.7892 0.0131921 16.1604 -0.0861778 16.4509 0.0814583C16.7413 0.249094 16.8407 0.620318 16.673 0.910752L16.0255 2.0321C15.9132 2.2268 15.7092 2.33586 15.4992 2.33586Z" fill="#F9F9F9"/>
<path d="M3.80409 17.4763V20.6735H2.58984V17.4763C2.58984 17.141 2.8617 16.8691 3.19697 16.8691C3.53224 16.8691 3.80409 17.141 3.80409 17.4763Z" fill="#333439"/>
<path d="M5.78826 9.0918H0.608102C0.27283 9.0918 0.000976562 9.36365 0.000976562 9.69892V20.0592C0.000976562 20.3945 0.27283 20.6664 0.608102 20.674H4.49322C5.23728 20.6664 5.88278 20.237 6.19503 19.6129C6.32348 19.3576 6.39539 19.0692 6.39539 18.7642V9.69892C6.39539 9.36365 6.12353 9.0918 5.78826 9.0918Z" fill="#E7EBEF"/>
</g>
<defs>
<clipPath id="clip0_3576_18169">
<rect width="20" height="20.6819" fill="white"/>
</clipPath>
</defs>
</svg>
