<svg width="36" height="36" viewBox="0 0 36 36" fill="none" xmlns="http://www.w3.org/2000/svg">
<rect width="36" height="36" rx="18" fill="#27C467"/>
<path d="M17.9989 14.7276C16.1902 14.7276 14.7253 16.1924 14.7253 18.0011C14.7253 19.8098 16.1902 21.2747 17.9989 21.2747C19.8076 21.2747 21.2724 19.8098 21.2724 18.0011C21.2724 16.1924 19.8076 14.7276 17.9989 14.7276ZM25.3141 17.1816C24.9367 13.7696 22.2304 11.061 18.8184 10.6859V9.50688C18.8184 9.22776 18.5906 9 18.3115 9H17.6885C17.4094 9 17.1816 9.22776 17.1816 9.50688V10.6859C13.7696 11.0633 11.061 13.7696 10.6859 17.1816H9.50688C9.22776 17.1816 9 17.4094 9 17.6885V18.3115C9 18.5906 9.22776 18.8184 9.50688 18.8184H10.6859C11.0633 22.2304 13.7696 24.939 17.1816 25.3141V26.4931C17.1816 26.7722 17.4094 27 17.6885 27H18.3115C18.5906 27 18.8184 26.7722 18.8184 26.4931V25.3141C22.2304 24.9367 24.939 22.2304 25.3141 18.8184H26.4931C26.7722 18.8184 27 18.5906 27 18.3115V17.6885C27 17.4094 26.7722 17.1816 26.4931 17.1816H25.3141ZM17.9989 23.7265C14.837 23.7265 12.2713 21.1608 12.2713 17.9989C12.2713 14.837 14.837 12.2713 17.9989 12.2713C21.1608 12.2713 23.7265 14.837 23.7265 17.9989C23.7265 21.1608 21.1608 23.7265 17.9989 23.7265Z" fill="white"/>
</svg>
