<svg width="76" height="80" viewBox="0 0 76 80" fill="none" xmlns="http://www.w3.org/2000/svg">
<g clip-path="url(#clip0_3576_21176)">
<path d="M21.3242 18.0215L25.3836 24.1262L47.132 59.0277L75.332 64.6699L75.6508 69.5434L61.7211 76.7965L38.5289 70.623L14.5883 48.5527L5.87891 34.334L8.27109 30.2105L21.3242 18.0215Z" fill="#D8DDE4"/>
<path d="M35.2572 0L25.3525 15.4125C27.7916 21.8594 34.0869 25.8766 40.2494 27.0219C42.8275 27.5016 45.3729 27.5359 48.0447 27.0781L56.6682 13.6625L35.2572 0Z" fill="#46C0FF"/>
<path d="M18.3762 37.7674L21.5559 18.5424C21.398 18.2096 21.3246 18.0205 21.3246 18.0205C14.2449 20.3924 10.2449 26.258 8.27148 30.2111C12.8449 31.9189 15.6668 34.4533 18.3762 37.7674Z" fill="#46C0FF"/>
<path d="M61.0116 72.1314C56.0225 72.1314 51.1022 71.2111 46.2787 69.3674C36.0241 65.4502 28.4772 58.158 23.9506 52.7314C21.5069 49.8002 19.6256 47.2377 17.9647 44.9752C13.9194 39.4627 11.5334 36.2143 5.87874 34.333C0.43655 36.1283 -0.793137 42.133 1.33655 45.9299L25.9678 67.5361C35.1272 75.5705 46.8959 80.0002 59.0787 80.0002C65.1287 80.0002 70.9897 77.8877 75.6506 74.0299V69.5439C70.7272 71.2674 65.8366 72.1314 61.01 72.1314H61.0116Z" fill="#7E828E"/>
<path d="M47.2447 31.9582C47.2447 31.9582 46.251 32.1082 44.6088 32.1082C41.8666 32.1082 37.3197 31.6895 32.59 29.4566C29.4791 27.9879 27.1182 26.0176 25.3838 24.127L22.2744 42.9238C23.765 44.9504 25.451 47.2129 27.5494 49.7285C31.7182 54.727 38.64 61.4316 47.951 64.9879C56.7541 68.3504 65.9604 68.2426 75.3322 64.6691C74.5025 61.6145 72.1166 59.1395 68.951 58.2754C64.7447 57.127 59.4354 55.0551 55.7307 51.4316L49.6432 55.6379L46.9775 51.7816L52.8791 47.7035C52.2604 46.591 51.7963 45.4535 51.4494 44.3441L43.7729 45.3426L43.1682 40.6941L50.5619 39.7332C50.3478 37.1816 50.6197 35.3879 50.6197 35.3879L47.2447 31.9582Z" fill="#46C0FF"/>
</g>
<defs>
<clipPath id="clip0_3576_21176">
<rect width="75.3016" height="80" fill="white" transform="translate(0.349609)"/>
</clipPath>
</defs>
</svg>
