<svg width="91" height="70" viewBox="0 0 91 70" fill="none" xmlns="http://www.w3.org/2000/svg">
<path fill-rule="evenodd" clip-rule="evenodd" d="M59.9512 10.3895C57.6372 4.62347 51.995 0.551758 45.4017 0.551758C36.7468 0.551758 29.7307 7.56793 29.7307 16.2228C29.7307 17.0686 29.7977 17.8988 29.9267 18.7083C27.6406 17.9929 25.1811 17.6037 22.6192 17.6037C10.4889 17.6037 0.655273 26.3294 0.655273 37.0932C0.655273 47.857 10.4889 56.5828 22.6192 56.5828C23.8935 56.5828 25.1424 56.4865 26.3573 56.3016H60.7386C61.4137 56.3421 62.0955 56.3627 62.7832 56.3627C78.1764 56.3627 90.655 46.0449 90.655 33.3174C90.655 20.5898 78.1764 10.272 62.7832 10.272C61.8272 10.272 60.8824 10.3118 59.9512 10.3895Z" fill="#27C467"/>
<path d="M35.0953 64.6537C36.0606 60.322 37.4536 56.1003 39.2437 52.0497C39.0909 51.8969 38.9565 51.6953 38.8465 51.4448C35.1869 42.8059 34.912 33.0733 38.4494 24.3366C39.3903 22.0089 43.2149 23.0292 42.2557 25.3875C39.4147 32.4013 39.0604 40.2643 41.4859 47.4186C45.6221 39.6717 51.2429 32.7128 58.0306 27.092C59.9735 25.4852 62.7839 28.259 60.8227 29.8841C49.129 39.5678 41.1804 53.1005 38.4189 68.0262C37.9912 70.3234 34.6737 69.6086 34.5393 67.5008C34.5088 67.0548 34.4843 66.6088 34.4538 66.1628C34.411 65.4663 34.6737 64.9653 35.0831 64.6537H35.0953Z" fill="#5D5F67"/>
</svg>
