<svg width="24" height="24" viewBox="0 0 24 24" fill="none" xmlns="http://www.w3.org/2000/svg">
<path d="M22.4285 16.4447C22.7517 17.5906 22.143 18.7446 21.2884 19.72C21.4585 20.4876 21.3261 21.1688 20.9566 21.8151C20.4889 22.6349 19.5972 23.1282 18.6537 23.1282L12.8446 23.1282C11.7306 23.1282 10.6398 22.8282 9.68182 22.2625L6.17558 20.2021L4.88574 20.2021L4.88574 10.7795L6.17558 10.7795L9.62433 7.09116C11.1828 5.3134 12.3171 3.38589 13.0412 1.31635C13.1538 0.990266 13.5088 0.808625 13.8465 0.8922L15.1595 1.22118C16.5532 1.57625 17.3354 3.06512 16.8247 4.41293L16.5334 5.18635C16.3373 5.70567 16.0803 6.20228 15.7687 6.66411L14.1151 9.09693L22.0976 9.09693C22.9401 9.09693 23.6995 9.65683 23.9044 10.4761C24.1498 11.4283 23.9333 12.3375 23.1222 13.1945C23.3474 14.0949 23.0126 15.2205 22.4295 16.4442L22.4285 16.4447Z" fill="#D8DDE4"/>
<path d="M6.63229 22.1909L0.695645 22.1909C0.311592 22.1909 -2.72401e-08 21.8793 -6.08151e-08 21.4953L-1.09881e-06 9.62198C-1.13243e-06 9.23745 0.311591 8.92634 0.695644 8.91764L5.14825 8.91764C6.00138 8.92634 6.74098 9.4186 7.09847 10.1336C7.24533 10.4263 7.32793 10.7568 7.32793 11.106L7.32794 21.4953C7.32794 21.8793 7.01635 22.1909 6.63229 22.1909Z" fill="#D8DDE4"/>
</svg>
