<svg width="313" height="177" viewBox="0 0 313 177" fill="none" xmlns="http://www.w3.org/2000/svg">
<g clip-path="url(#clip0_3351_9945)">
<path d="M109.857 72.1655C107.932 70.9395 105.846 69.9867 103.671 69.3015C105.381 61.9261 104.818 53.9984 101.66 46.9232C97.9905 38.7048 88.9828 32.6266 79.8618 33.2849C68.8351 34.0798 61.7542 43.0045 58.6652 52.9687C57.5164 56.6737 56.9958 60.4403 56.871 64.2261C56.6789 64.4475 56.4906 64.6727 56.2966 64.8921C55.872 65.3675 55.4341 65.8275 54.9768 66.2721C54.6061 66.0507 54.2392 65.8217 53.8799 65.5831C52.0838 64.3878 50.4144 63.0078 48.5894 61.8549C42.0003 57.6976 33.7169 57.1394 27.3525 62.0666C20.9056 67.0574 18.9999 74.7041 19.7875 82.3586C14.741 83.4461 10.0499 85.6402 6.53824 89.6975C-2.0276 99.5942 0.0221338 113.639 8.07698 123.133C14.5739 130.791 24.8341 134.312 34.4699 135.684C44.5976 137.126 54.998 137.857 65.2274 137.79C76.523 137.715 87.7226 136.04 98.0539 131.328C101.529 129.743 104.674 127.435 107.014 124.478C107.354 124.298 107.694 124.111 108.03 123.916C116.613 118.932 122.228 110.448 123.081 100.537C124.02 89.6128 119.193 78.107 109.86 72.1655H109.857ZM23.1628 109.531C23.0571 109.418 22.9553 109.295 22.8535 109.171C22.8228 109.129 22.7939 109.087 22.7651 109.044C22.7574 109.035 22.7517 109.023 22.7459 109.012C23.4759 109.735 23.5931 109.93 23.4663 109.841C23.3645 109.737 23.2608 109.637 23.1628 109.531ZM21.6471 106.935C21.6433 106.925 21.6413 106.916 21.6375 106.906C22.1043 107.539 22.2407 107.911 22.2157 108.007C22.0371 107.636 21.8603 107.264 21.6471 106.935ZM21.3954 103.576C21.4665 103.501 21.5318 103.419 21.6048 103.345C21.6874 103.263 21.7777 103.182 21.868 103.103C21.8815 103.095 21.8911 103.088 21.9045 103.078C21.9372 103.057 21.9737 103.039 22.0063 103.02C21.7201 103.32 21.5126 103.513 21.3782 103.623C21.382 103.607 21.3897 103.592 21.3935 103.576H21.3954ZM51.7976 77.0946C51.6823 77.1716 51.5728 77.2467 51.4863 77.3082C51.471 77.314 51.4595 77.3198 51.4441 77.3236C51.3788 77.2871 51.3154 77.2505 51.252 77.2159C51.3961 77.1581 51.5766 77.1139 51.7976 77.0946Z" fill="#27C467"/>
<path d="M94.3215 82.0834C91.0288 93.3602 80.8128 102.094 69.1887 103.565C69.7996 94.2494 71.1828 84.984 73.3285 75.886C73.9413 73.2876 69.9475 72.1809 69.3347 74.7831C66.0421 88.7506 64.5226 103.041 64.7588 117.328C58.3292 113.791 53.0848 108.584 49.5347 102.106C45.6274 94.9731 43.7813 86.9337 42.0197 79.0578C41.4376 76.4518 37.4419 77.5547 38.0259 80.1607C39.9123 88.6004 41.9736 97.1749 46.2709 104.76C50.3761 112.007 56.5868 117.896 64.0231 121.624C64.3209 121.772 64.6129 121.847 64.8933 121.861C65.1584 128.076 65.7559 134.285 66.6856 140.459C67.0814 143.092 71.0752 141.974 70.6794 139.356C69.1042 128.896 68.5433 118.3 68.9716 107.747C82.5514 106.231 94.4617 96.3993 98.321 83.1882C99.0702 80.6188 95.0745 79.5217 94.3272 82.0854L94.3215 82.0834Z" fill="#7E828E"/>
<path d="M301.609 134.02C300.241 127.389 293.958 123.203 287.782 121.675C285.011 120.99 282.091 120.643 279.221 120.745C278.19 115.312 275.212 110.343 269.38 109.251C265.029 108.437 260.912 109.63 257.51 112.413C254.625 114.773 252.782 118.27 251.653 121.769C251.507 122.226 251.374 122.686 251.251 123.147C250.162 123.571 249.144 124.185 248.28 124.962C246.627 124.381 244.902 124.054 243.116 124.16C238.528 124.433 234.431 127.141 232.502 131.366C230.587 135.562 230.458 140.094 232.375 144.319C234.16 148.247 238.836 149.968 242.662 151.182C245.947 152.224 290.116 151.677 292.745 150.746C295.838 149.648 298.537 147.912 300.328 145.099C302.122 142.279 302.266 137.225 301.607 134.024L301.609 134.02Z" fill="#27C467"/>
<path d="M252.339 151.319C252.853 148.996 253.601 146.732 254.557 144.561C254.475 144.479 254.404 144.373 254.346 144.238C252.389 139.607 252.239 134.387 254.135 129.705C254.64 128.458 256.684 129.004 256.173 130.267C254.652 134.028 254.461 138.241 255.762 142.079C257.975 137.925 260.981 134.197 264.616 131.181C265.655 130.319 267.159 131.808 266.11 132.678C259.854 137.869 255.599 145.123 254.121 153.126C253.895 154.358 252.116 153.975 252.047 152.845C252.031 152.607 252.016 152.366 252.002 152.127C251.979 151.756 252.122 151.486 252.341 151.317L252.339 151.319Z" fill="#7E828E"/>
<path d="M152.518 172.106C151.972 170.448 147.779 169.288 145.821 168.62C144.263 168.089 142.665 167.686 141.092 167.196C139.587 166.726 137.778 165.687 136.518 163.583C136.074 162.844 134.449 157.998 134.328 157.455C133.469 157.474 133.123 157.495 132.264 157.526C130.645 157.584 129.018 157.655 127.402 157.799C127.4 158.825 127.366 159.847 127.287 160.862C127.039 164.035 125.26 165.91 124.054 168.743C123.284 170.55 121.68 174.846 125.987 176.527C127.443 177.094 129.312 176.975 130.847 176.748C134.268 176.242 136.954 176.654 140.402 176.9C144.455 177.191 147.976 176.817 149.36 176.294C151.094 175.639 153.157 174.055 152.516 172.106H152.518Z" fill="#D8DDE4"/>
<path d="M81.5047 171.734C81.0648 170.425 79.8546 169.719 78.6712 169.192C76.925 168.416 75.4939 167.646 74.5564 165.893C72.6527 162.328 73.8264 158.254 75.3844 154.806C75.3882 154.799 75.394 154.787 75.3978 154.78C74.8983 154.142 74.3835 153.517 73.8379 152.918C72.937 151.933 71.9246 150.934 70.7297 150.301C68.5282 152.129 65.7946 153.403 63.1551 154.475C60.7846 155.438 54.6834 157.01 55.2655 160.658C55.4019 161.52 56.0685 162.192 56.6217 162.815C57.4266 163.725 58.2661 164.605 59.1191 165.469C60.9498 167.323 62.8612 169.093 64.7746 170.86C66.3306 172.296 67.9231 173.745 69.8922 174.59C71.8708 175.439 74.0281 175.751 76.1547 175.864C79.3205 176.036 82.4883 174.667 81.5047 171.736V171.734Z" fill="#D8DDE4"/>
<path d="M112.585 111.605C112.436 112.069 112.284 112.532 112.128 112.996C110.08 119.099 108.088 124.569 105.9 128.64C103.174 133.714 98.8693 138.554 96.2644 141.782C94.0264 144.557 92.0804 147.827 89.1585 149.91C87.5026 151.09 85.6834 152.025 83.7144 152.547C82.0642 152.987 81.2074 152.787 79.6226 153.463C77.9782 154.165 75.7863 156.209 74.4685 157.551C71.6811 156.334 68.982 154.887 67.0303 152.672C69.8177 149.069 71.4544 148.172 72.8932 143.762C73.7135 141.241 73.8307 138.608 74.3321 136.023C74.8565 133.34 76.9639 130.032 78.7485 127.963C82.1026 124.073 90.023 111.724 90.8586 109.588C91.8076 107.157 92.2783 104.58 92.8123 102.037C93.6268 98.1782 94.6335 94.373 95.8264 90.6218C95.9359 90.2792 96.0473 89.9347 96.1587 89.5921C96.6256 88.1755 97.1135 86.7686 97.6303 85.3713C101.038 84.7381 104.527 84.2049 107.992 84.5648C111.948 84.9748 113.873 85.429 116.391 88.4873C117.88 90.2946 115.964 101.082 112.582 111.605H112.585Z" fill="#151513"/>
<path d="M136.23 153.176C135.274 157.308 135.652 155.642 135.568 160.476C133.345 160.73 129.563 161.09 127.375 161.554C126.074 157.576 125.638 155.311 123.577 152.595C122.62 151.334 119.619 150.245 118.726 148.534C117.02 145.26 115.971 138.731 115.606 135.044C115.236 131.281 113.341 115.021 112.585 111.605C111.826 108.177 98.027 92.1981 96.0887 89.0956C92.2006 82.8711 91.0672 75.4053 91.194 68.1607C98.7685 65.4334 106.547 63.3298 114.463 61.8708C116.307 74.3563 125.198 84.6322 131.378 95.3739C134.661 101.079 136.011 104.27 137.694 112.998C139.095 120.256 136.861 128.532 138.249 135.744C138.647 137.811 139.196 140.337 139.05 142.442C138.609 148.819 136.703 151.121 136.227 153.176H136.23Z" fill="#151513"/>
<path d="M115.527 18.1093C115.283 18.6059 115.344 18.9697 115.703 19.2025C116.009 19.5836 116.52 19.9051 116.898 20.2111C117.935 21.0445 119.021 21.8143 120.147 22.5169C120.99 21.0329 121.852 19.5644 122.738 18.1035C124.194 15.6996 125.693 13.3188 127.201 10.9456C127.181 10.9129 127.174 10.8725 127.187 10.8302C127.362 10.2027 127.815 9.87358 128.132 9.33467C128.401 8.8766 128.253 8.42622 128.005 7.99509C127.835 7.69869 127.612 7.41383 127.443 7.14053C126.722 5.96454 126.002 4.78664 125.283 3.6145C124.749 4.12069 124.273 4.70195 123.831 5.31785C123.007 6.46881 122.302 7.74296 121.553 8.88622C120.988 9.74848 120.427 10.6107 119.862 11.473C119.223 12.4546 118.579 13.4362 117.937 14.4178C117.334 15.3416 116.731 16.2655 116.13 17.1874C115.982 17.4126 115.799 17.6378 115.678 17.8784C115.626 17.9573 115.576 18.0323 115.528 18.1093H115.527Z" fill="#ED8778"/>
<path d="M120.459 7.66025C120.499 7.87774 120.555 8.09331 120.62 8.30887C120.868 9.12494 121.297 9.87364 121.825 10.5685C122.04 10.8572 122.274 11.1382 122.52 11.4095C122.505 11.7406 122.497 12.0716 122.493 12.3988C122.484 13.825 122.232 15.3802 123.031 16.612C123.696 17.634 125.014 18.6464 126.224 18.962C127.515 19.3046 129.532 19.1025 130.468 18.0305C132.302 15.9268 132.926 10.9553 133.247 10.0546C133.585 9.10954 133.814 7.81423 133.728 6.68251C133.728 6.62285 133.728 6.56126 133.724 6.50159C133.71 6.13398 133.658 5.77021 133.553 5.40644C133.28 4.46335 132.633 3.6723 131.88 3.03523C129.067 0.66209 123.869 0.055813 121.452 3.23732C120.484 4.51146 120.167 6.11858 120.461 7.66218L120.459 7.66025Z" fill="#ED8778"/>
<path d="M133.843 4.66725C130.403 0.629258 126.808 0.113442 123.502 1.25863C119.578 2.61746 119.897 7.66976 119.885 11.0611C119.885 11.3555 120.162 11.5403 120.434 11.4806C121.823 11.1727 123.474 10.8243 124.593 9.90048C125.619 9.05361 126.392 8.24139 127.884 8.58784C128.631 8.76106 129.31 9.13637 130.086 9.19604C132.646 9.38851 135.418 6.51688 133.845 4.66918L133.843 4.66725Z" fill="#333439"/>
<path d="M117.568 0.257836C115.121 1.36646 114.585 4.62303 116.471 6.37449C115.717 7.77759 117.328 9.01131 118.831 8.82654C119.076 8.79575 119.324 8.74571 119.57 8.68219C119.172 9.096 118.709 9.45399 118.177 9.72922C116.529 10.5819 114.735 10.1353 112.979 10.4125C111.006 10.7243 111.826 12.366 113.206 12.724C113.075 14.4389 116.885 13.2264 117.618 12.8896C119.922 11.831 121.683 9.89282 122.392 7.44654C122.436 7.29064 122.398 7.16169 122.317 7.0693C122.897 6.42453 123.278 5.63156 123.299 4.71734C123.301 4.61725 123.274 4.53449 123.23 4.47098C123.268 4.43056 123.303 4.38052 123.326 4.32085C124.511 1.38955 119.831 -0.764173 117.568 0.25976V0.257836Z" fill="#333439"/>
<path d="M133.524 4.44202C131.55 3.45466 129.373 5.65072 128.666 7.29056C128.662 7.29056 128.659 7.28863 128.657 7.28671C128.13 7.09424 127.904 7.93533 128.426 8.12587C129.277 8.43767 129.83 9.27491 129.175 10.2584C129.052 10.4432 128.839 10.5914 128.705 10.7762C128.459 11.1111 128.232 11.5114 128.171 11.9291C128.086 12.4968 128.265 13.1801 128.891 13.3456C130.856 13.8653 131.834 9.86964 132.551 8.79566C133.323 7.63893 135.872 5.61416 133.524 4.4401V4.44202Z" fill="#333439"/>
<path d="M127.051 49.6377C125.906 39.6736 122.903 22.3937 122.55 21.7605C122.688 21.5757 123.476 20.7885 123.616 20.5999C123.977 20.1091 124.307 19.7761 124.1 19.1583C123.892 18.5309 122.899 17.8476 122.423 17.4319C121.603 16.7178 120.729 16.0634 119.814 15.4745C118.742 14.7874 117.019 13.3246 115.751 14.3062C115.013 14.874 114.451 15.9095 113.895 16.6408C113.525 17.1259 113.158 17.6089 112.787 18.094C111.469 18.1575 110.19 18.4038 108.956 18.7907C108.013 19.0833 107.091 19.4643 106.198 19.907C104.079 20.9541 102.11 22.3706 100.302 23.92C95.9704 27.6327 91.9458 31.8593 88.1095 36.0782C84.5768 39.9661 81.3379 44.3005 79.7262 49.3682C78.9674 51.7529 78.441 54.4398 78.9597 56.9284C79.4438 59.2611 80.8077 61.4475 82.2811 63.2875C83.9582 65.3797 86.056 67.0561 88.5302 68.1089C89.0335 68.3245 89.5503 68.5112 90.0671 68.694C90.0651 68.9096 90.0613 69.127 90.0613 69.3407C90.0613 69.6371 90.0671 69.9316 90.0786 70.228C90.1881 73.6462 90.8892 77.0394 92.1725 80.2633C92.2801 80.5327 92.5375 80.6617 92.8103 80.525C100.94 76.4062 110.215 76.0809 119.222 77.4609C119.486 77.5014 119.787 77.3512 119.772 77.0394C119.628 73.8829 119.716 74.5354 121.701 72.143C123.099 70.4551 124.223 68.7402 124.941 66.6538C126.59 61.8768 128.132 59.0167 127.053 49.6377H127.051Z" fill="#46C0FF"/>
<path d="M130.234 78.0826C126.933 70.6091 123.322 63.0489 117.215 57.4384C116.804 57.0612 116.187 57.6752 116.6 58.0543C122.457 63.4338 125.979 70.6302 129.164 77.7997C121.814 77.101 113.523 69.3388 109.681 63.5012C109.375 63.0373 108.78 63.6359 109.066 64.1171C112.925 70.6148 122.004 78.1365 129.859 78.737C130.222 78.764 130.355 78.354 130.234 78.0826Z" fill="#27C467"/>
<path d="M226.289 111.189C198.605 114.996 170.692 106.753 147.652 91.4092C141.356 87.2172 135.418 82.5056 129.828 77.4109C129.413 77.0337 128.845 77.69 129.258 78.0672C149.546 96.5616 174.924 109.857 202.485 112.511C210.431 113.276 218.439 113.145 226.348 112.057C226.9 111.982 226.844 111.112 226.289 111.189Z" fill="#27C467"/>
<path d="M247.998 123.087C247.885 123.139 247.77 123.18 247.656 123.224C247.224 125.576 246.799 127.93 246.361 130.28C246.361 130.295 246.36 130.309 246.356 130.324C246.3 130.609 246.248 130.896 246.196 131.181C245.877 132.878 245.553 134.576 245.218 136.27C244.631 139.214 243.764 141.99 242.106 144.349C241.474 145.248 240.729 146.087 239.84 146.853C237.55 148.822 234.941 150.114 232.175 150.851C231.639 150.995 231.095 151.119 230.548 151.219C227.751 151.744 224.834 151.744 221.968 151.334C220.743 151.161 219.527 150.911 218.334 150.597C218.174 150.557 218.015 150.512 217.855 150.47C213.998 149.396 210.333 147.731 206.736 145.985C205.799 145.529 203.329 144.911 203.363 143.539C203.379 143.014 203.824 142.588 204.133 142.213C204.762 141.457 205.413 140.72 206.076 139.994C211.197 134.401 217.314 129.62 224.043 126.115C226.646 124.76 229.408 123.605 232.286 123.01C232.816 122.901 233.348 122.81 233.888 122.743H233.892C234.288 122.691 234.687 122.651 235.087 122.624C238.964 122.362 243.128 123.898 246.886 122.601C246.978 122.096 247.074 121.59 247.166 121.086C247.27 120.535 248.108 120.77 248.006 121.319C247.944 121.646 247.885 121.975 247.823 122.302C248.194 122.37 248.413 122.903 247.996 123.087H247.998Z" fill="#5D5F67"/>
<path d="M253.786 169.961C252.324 168.834 250.916 168.089 249.875 166.482C248.853 164.907 248.236 163.113 247.658 161.339C244.667 152.172 241.768 142.975 238.827 133.793C238.894 133.791 238.961 133.789 239.027 133.787C239.586 133.777 239.588 132.907 239.027 132.917C238.846 132.921 238.664 132.927 238.481 132.936C238.301 132.788 238.016 132.823 237.863 132.979C235.68 133.165 233.398 133.814 231.9 135.446C229.673 137.871 229.27 141.326 229.958 144.151C231.617 150.967 235.137 157.853 239.474 163.496C240.491 164.819 241.657 165.975 242.819 167.167C244.296 168.682 245.095 170.487 246.359 172.14C247.969 174.246 250.872 175.354 253.459 174.573C255.928 173.828 255.534 171.309 253.788 169.961H253.786Z" fill="#5D5F67"/>
<path d="M233.767 145.439C232.712 147.379 231.627 149.306 230.538 151.228C230.359 151.544 230.178 151.862 230 152.177C229.293 153.422 228.586 154.666 227.887 155.913C226.031 159.218 222.986 164.717 220.658 167.717C218.639 170.313 215.692 172.094 212.826 173.614C211.018 174.569 207.357 175.918 206.231 173.289C205.105 170.654 208.091 168.737 209.992 167.681C211.466 166.859 213.116 166.085 214.034 164.591C214.931 163.132 216.497 159.285 216.841 157.641C217.213 155.849 217.578 154.054 217.967 152.26C218.028 151.973 218.088 151.686 218.151 151.398C219.184 146.703 220.399 142.059 222.329 137.644C222.185 137.671 222.039 137.696 221.895 137.729C221.369 137.844 221.146 137.036 221.672 136.918C222.028 136.839 222.387 136.78 222.746 136.73C222.796 136.626 222.842 136.514 222.89 136.41C223.09 135.989 223.649 136.245 223.657 136.633C226.269 136.443 228.891 136.984 231.22 138.267C232.445 138.941 234.072 139.959 234.616 141.316C235.181 142.735 234.437 144.205 233.765 145.435L233.767 145.439Z" fill="#5D5F67"/>
<path d="M244.667 98.3592C243.683 99.2215 242.996 100.426 242.231 101.473C241.119 102.996 239.832 104.205 238.18 105.126C237.692 105.4 238.13 106.15 238.618 105.877C238.823 105.764 239.023 105.642 239.221 105.519C239.59 107.111 242.936 106.406 243.985 106.247C245.013 106.089 245.531 105.996 245.92 105.022C246.488 103.594 247.089 101.799 247.266 100.269C247.476 98.4535 246.356 96.8772 244.665 98.3612L244.667 98.3592Z" fill="#5D5F67"/>
<path d="M260.842 112.698C258.951 109.124 253.448 111.401 251.481 108.164C250.989 107.351 250.852 106.374 250.338 105.561C249.94 104.94 249.423 104.407 248.831 103.966C248.799 103.943 248.768 103.92 248.733 103.897C248.255 103.475 247.667 103.194 247.037 103.005C246.265 102.719 245.447 102.549 244.628 102.486C243.852 102.424 243.097 102.47 242.367 102.599C238.298 102.572 235.079 102.978 231.871 106.352C231.346 106.907 230.046 108.354 229.881 108.616C229.241 109.624 228.778 110.302 227.696 110.858C226.926 111.255 226.092 111.774 225.216 111.878C224.215 111.998 223.211 111.539 222.212 111.501C221.937 111.489 221.666 111.495 221.397 111.514C221.228 111.563 221.069 111.607 220.925 111.643C217.938 112.394 215.321 114.084 212.347 114.85C209.264 115.645 206.018 115.633 202.854 115.601C196.151 115.527 189.547 114.806 182.933 113.753C180.526 113.37 177.905 113.068 175.671 114.273C173.877 115.239 172.701 117.071 172.2 119.015C170.869 124.19 178.587 130.309 181.281 134.463C184.21 138.98 187.875 143 192.69 145.518C197.667 148.124 198.825 148.355 204.306 149.317C210.555 150.42 216.871 151.348 223.23 151.342C226.231 151.338 229.062 151.038 231.394 148.978C233.494 147.125 235.202 144.642 236.587 142.223C238.341 139.163 239.595 135.846 240.327 132.415C241.564 132.247 242.815 131.797 243.854 131.437C246.223 130.619 248.416 129.279 249.352 126.839C250.186 124.675 250.124 122.168 249.705 119.818C251.63 119.646 253.553 119.446 255.455 119.167C257.28 118.903 259.155 118.309 260.306 116.775C261.178 115.612 261.545 114.034 260.842 112.698Z" fill="#5D5F67"/>
<path d="M200.291 131.91C200.007 129.352 197.861 127.511 195.95 126.044C193.616 124.254 191.059 122.772 188.346 121.636C185.78 120.56 182.597 119.877 181.181 117.219C181.089 117.048 180.939 116.99 180.793 117.008C180.691 116.8 180.461 116.673 180.222 116.848C172.648 122.437 167.526 131.064 166.389 140.441C166.091 142.893 165.997 145.483 166.754 147.868C167.094 148.934 167.644 149.841 168.241 150.776C168.545 151.252 168.875 151.735 169.038 152.279C169.469 153.729 167.002 155.905 166.059 156.394C163.971 157.476 163.788 159.707 163.104 161.743C162.217 164.386 160.849 166.697 159.256 168.961C158.138 170.548 158.482 171.095 159.963 172.854C161.12 174.227 163.198 174.026 164.57 173.124C166.456 171.88 166.178 171.343 167.311 169.459C168.675 167.194 171.441 163.079 173.193 161.083C175.103 158.902 193.873 142.564 197.558 138.212C199.05 136.449 200.564 134.347 200.291 131.908V131.91Z" fill="#5D5F67"/>
<path d="M200.849 174.446C197.648 176.218 195.064 172.198 193.491 170.083C192.043 168.137 190.581 166.2 189.148 164.245C188.039 162.728 187.499 161.396 187.824 159.505C188.235 157.12 188.007 155.313 187.934 152.853C187.918 152.31 187.473 151.275 186.791 149.987C186.658 149.737 186.518 149.483 186.368 149.215C183.863 144.731 179.226 138.104 179.176 138.023C178.886 137.542 182.76 128.633 183.924 127.47C184.981 126.411 186.36 125.678 187.805 125.309C191.005 124.496 194.388 125.47 196.43 128.121C198.507 130.813 198.947 134.405 199.01 137.702C199.1 142.34 196.069 155.49 195.37 160.053C195.16 161.425 196.959 163.577 199.525 167.935C200.753 170.017 204.164 172.612 200.849 174.444V174.446Z" fill="#5D5F67"/>
<path d="M186.605 109.678C187.76 111.114 187.946 113.081 187.245 114.81C186.256 117.246 183.576 117.566 182.229 119.612C180.364 122.441 181.663 128.282 178.549 130.301C178.533 130.417 178.476 130.53 178.353 130.611C175.252 132.617 171.856 132.44 168.871 131.04C168.607 130.921 168.346 130.788 168.089 130.644C165.835 129.404 163.866 127.482 162.516 125.326C159.507 120.537 157.688 114.067 158.941 108.445C159.513 105.86 160.875 103.252 163.104 101.731C164.36 100.873 165.605 100.652 167.094 100.73C168.269 100.788 168.93 100.65 169.735 99.7469C170.144 99.2908 170.523 98.8327 170.995 98.4381C174.985 95.1104 182.012 95.7686 185.985 98.7884C189.341 101.335 190.499 107.132 186.607 109.676L186.605 109.678Z" fill="#5D5F67"/>
<path d="M228.832 109.384C227.291 109.801 225.827 110.369 224.404 111.091C224.147 111.222 224.141 111.484 224.26 111.672C224.254 111.749 226.344 115.35 227.51 116.975C227.754 117.315 228.308 117.211 228.319 116.755C228.381 114.426 228.73 112.157 229.364 109.917C229.454 109.595 229.147 109.295 228.83 109.382L228.832 109.384Z" fill="#27C467"/>
<path d="M249.026 108.085C248.436 108.008 248.156 108.437 248.129 109.132C248.108 109.73 248.265 110.481 248.978 110.6C249.652 110.714 249.902 110.025 249.913 109.478C249.927 108.878 249.712 108.173 249.024 108.085H249.026Z" fill="#151513"/>
<path d="M116.903 63.8956C117.282 63.5261 117.551 62.9737 117.641 62.5329C117.952 61.0143 116.846 59.823 115.664 59.0589C114.416 58.2505 113.117 57.8598 111.644 58.0984C108.278 58.647 107.527 59.1378 107.552 59.1801C107.271 60.077 107.047 60.9874 106.876 61.9132C106.866 61.9093 106.951 62.4271 107.341 62.9102C107.5 63.1065 107.684 63.2855 107.884 63.4395C108.28 63.7436 108.743 63.9495 109.233 64.0457C110.464 64.2882 111.728 63.8513 112.95 64.1843C113.886 64.4384 114.802 65.1197 115.81 64.8079C116.296 64.6578 116.671 64.319 116.902 63.8956H116.903Z" fill="#ED8778"/>
</g>
<defs>
<clipPath id="clip0_3351_9945">
<rect width="313" height="177" fill="white"/>
</clipPath>
</defs>
</svg>
