<svg width="21" height="19" viewBox="0 0 21 19" fill="none" xmlns="http://www.w3.org/2000/svg">
<path d="M19.4403 6.02271C19.7096 5.06781 19.2024 4.10606 18.4902 3.29327C18.6319 2.65358 18.5216 2.08596 18.2136 1.54732C17.824 0.864151 17.0808 0.453125 16.2946 0.453125H11.4537C10.5253 0.453125 9.61632 0.703122 8.81802 1.17453L5.89616 2.8915H4.82129V10.7437H5.89616L8.77012 13.8173C10.0688 15.2988 11.0141 16.905 11.6175 18.6296C11.7113 18.9014 12.0072 19.0527 12.2886 18.9831L13.3828 18.709C14.5442 18.4131 15.196 17.1723 14.7704 16.0492L14.5277 15.4046C14.3643 14.9719 14.1501 14.558 13.8904 14.1732L12.5124 12.1458H19.1645C19.8666 12.1458 20.4994 11.6792 20.6701 10.9965C20.8746 10.203 20.6943 9.44537 20.0184 8.73121C20.206 7.98081 19.927 7.04282 19.4411 6.02311L19.4403 6.02271Z" fill="#5D5F67"/>
<path d="M6.27691 1.23438H1.3297C1.00966 1.23438 0.75 1.49403 0.75 1.81408V11.7085C0.75 12.0289 1.00966 12.2882 1.3297 12.2954H5.04021C5.75115 12.2882 6.36749 11.878 6.66539 11.2822C6.78777 11.0382 6.85661 10.7628 6.85661 10.4718V1.81408C6.85661 1.49403 6.59695 1.23438 6.27691 1.23438Z" fill="#5D5F67"/>
</svg>
