<svg width="1073" height="920" viewBox="0 0 1073 920" fill="none" xmlns="http://www.w3.org/2000/svg">
<g clip-path="url(#clip0_796_1667)">
<path d="M506.45 894.2C503.61 885.59 481.78 879.56 471.59 876.09C463.48 873.33 455.16 871.24 446.97 868.69C439.14 866.25 429.72 860.85 423.16 849.92C420.85 846.08 412.39 820.9 411.76 818.08C407.29 818.18 405.49 818.29 401.02 818.45C392.59 818.75 384.12 819.12 375.71 819.87C375.7 825.2 375.52 830.51 375.11 835.78C373.82 852.27 364.56 862.01 358.28 876.73C354.27 886.12 345.92 908.44 368.34 917.17C375.92 920.12 385.65 919.5 393.64 918.32C411.45 915.69 425.43 917.83 443.38 919.11C464.48 920.62 482.81 918.68 490.01 915.96C499.04 912.56 509.78 904.33 506.44 894.2H506.45Z" fill="#5D5F67"/>
<path d="M136.79 892.27C134.5 885.47 128.2 881.8 122.04 879.06C112.95 875.03 105.5 871.03 100.62 861.92C90.71 843.4 96.82 822.23 104.93 804.32C104.95 804.28 104.98 804.22 105 804.18C102.4 800.87 99.7199 797.62 96.88 794.51C92.1899 789.39 86.92 784.2 80.7 780.91C69.24 790.41 55.01 797.03 41.27 802.6C28.93 807.6 -2.83004 815.77 0.199957 834.72C0.909957 839.2 4.37996 842.69 7.25996 845.93C11.45 850.66 15.82 855.23 20.26 859.72C29.79 869.35 39.74 878.55 49.7 887.73C57.8 895.19 66.09 902.72 76.34 907.11C86.64 911.52 97.87 913.14 108.94 913.73C125.42 914.62 141.91 907.51 136.79 892.28V892.27Z" fill="#5D5F67"/>
<path d="M298.59 579.86C297.81 582.27 297.02 584.68 296.21 587.09C285.55 618.8 275.18 647.22 263.79 668.37C249.6 694.73 227.19 719.88 213.63 736.65C201.98 751.07 191.85 768.06 176.64 778.88C168.02 785.01 158.55 789.87 148.3 792.58C139.71 794.87 135.25 793.83 127 797.34C118.44 800.99 107.03 811.61 100.17 818.58C85.6599 812.26 71.61 804.74 61.45 793.23C75.96 774.51 84.48 769.85 91.97 746.94C96.24 733.84 96.8499 720.16 99.4599 706.73C102.19 692.79 113.16 675.6 122.45 664.85C139.91 644.64 181.14 580.48 185.49 569.38C190.43 556.75 192.88 543.36 195.66 530.15C199.9 510.1 205.14 490.33 211.35 470.84C211.92 469.06 212.5 467.27 213.08 465.49C215.51 458.13 218.05 450.82 220.74 443.56C238.48 440.27 256.64 437.5 274.68 439.37C295.27 441.5 305.29 443.86 318.4 459.75C326.15 469.14 316.18 525.19 298.57 579.86H298.59Z" fill="#333439"/>
<path d="M421.67 795.85C416.69 817.32 418.66 808.66 418.22 833.78C406.65 835.1 386.96 836.97 375.57 839.38C368.8 818.71 366.53 806.94 355.8 792.83C350.82 786.28 335.2 780.62 330.55 771.73C321.67 754.72 316.21 720.8 314.31 701.64C312.38 682.09 302.52 597.61 298.58 579.86C294.63 562.05 222.8 479.03 212.71 462.91C192.47 430.57 186.57 391.78 187.23 354.14C226.66 339.97 267.15 329.04 308.36 321.46C317.96 386.33 364.24 439.72 396.41 495.53C413.5 525.17 420.53 541.75 429.29 587.1C436.58 624.81 424.95 667.81 432.18 705.28C434.25 716.02 437.11 729.14 436.35 740.08C434.05 773.21 424.13 785.17 421.65 795.85H421.67Z" fill="#333439"/>
<path d="M313.89 94.0898C312.62 96.6698 312.94 98.5598 314.81 99.7698C316.4 101.75 319.06 103.42 321.03 105.01C326.43 109.34 332.08 113.34 337.94 116.99C342.33 109.28 346.82 101.65 351.43 94.0598C359.01 81.5698 366.81 69.1998 374.66 56.8698C374.56 56.6998 374.52 56.4898 374.59 56.2698C375.5 53.0098 377.86 51.2998 379.51 48.4998C380.91 46.1198 380.14 43.7798 378.85 41.5398C377.96 39.9998 376.8 38.5198 375.92 37.0998C372.17 30.9898 368.42 24.8698 364.68 18.7798C361.9 21.4098 359.42 24.4298 357.12 27.6298C352.83 33.6098 349.16 40.2298 345.26 46.1698C342.32 50.6498 339.4 55.1298 336.46 59.6098C333.13 64.7098 329.78 69.8098 326.44 74.9098C323.3 79.7098 320.16 84.5098 317.03 89.2998C316.26 90.4698 315.31 91.6398 314.68 92.8898C314.41 93.2998 314.15 93.6898 313.9 94.0898H313.89Z" fill="#ED8778"/>
<path d="M339.57 39.7998C339.78 40.9298 340.07 42.0498 340.41 43.1698C341.7 47.4098 343.93 51.2998 346.68 54.9098C347.8 56.4098 349.02 57.8698 350.3 59.2798C350.22 60.9998 350.18 62.7198 350.16 64.4198C350.11 71.8298 348.8 79.9098 352.96 86.3098C356.42 91.6198 363.28 96.8798 369.58 98.5198C376.3 100.3 386.8 99.2498 391.67 93.6798C401.22 82.7498 404.47 56.9198 406.14 52.2398C407.9 47.3298 409.09 40.5998 408.64 34.7198C408.64 34.4098 408.64 34.0898 408.62 33.7798C408.55 31.8698 408.28 29.9798 407.73 28.0898C406.31 23.1898 402.94 19.0798 399.02 15.7698C384.38 3.43977 357.32 0.28977 344.74 16.8198C339.7 23.4398 338.05 31.7898 339.58 39.8098L339.57 39.7998Z" fill="#ED8778"/>
<path d="M409.25 24.2498C391.34 3.26983 372.63 0.58983 355.42 6.53983C334.99 13.5998 336.65 39.8498 336.59 57.4698C336.59 58.9998 338.03 59.9598 339.45 59.6498C346.68 58.0498 355.27 56.2398 361.1 51.4398C366.44 47.0398 370.46 42.8198 378.23 44.6198C382.12 45.5198 385.65 47.4698 389.69 47.7798C403.02 48.7798 417.45 33.8598 409.26 24.2598L409.25 24.2498Z" fill="#333439"/>
<path d="M324.53 1.34012C311.79 7.10012 309 24.0201 318.82 33.1201C314.89 40.4101 323.28 46.8201 331.1 45.8601C332.38 45.7001 333.67 45.4401 334.95 45.1101C332.88 47.2601 330.47 49.1201 327.7 50.5501C319.12 54.9801 309.78 52.6601 300.64 54.1001C290.37 55.7201 294.64 64.2501 301.82 66.1101C301.14 75.0201 320.97 68.7201 324.79 66.9701C336.78 61.4701 345.95 51.4001 349.64 38.6901C349.87 37.8801 349.67 37.2101 349.25 36.7301C352.27 33.3801 354.25 29.2601 354.36 24.5101C354.37 23.9901 354.23 23.5601 354 23.2301C354.2 23.0201 354.38 22.7601 354.5 22.4501C360.67 7.22012 336.31 -3.96988 324.53 1.35012V1.34012Z" fill="#333439"/>
<path d="M407.58 23.0798C397.3 17.9498 385.97 29.3598 382.29 37.8798C382.27 37.8798 382.25 37.8698 382.24 37.8598C379.5 36.8598 378.32 41.2298 381.04 42.2198C385.47 43.8398 388.35 48.1898 384.94 53.2998C384.3 54.2598 383.19 55.0298 382.49 55.9898C381.21 57.7298 380.03 59.8098 379.71 61.9798C379.27 64.9298 380.2 68.4798 383.46 69.3398C393.69 72.0398 398.78 51.2798 402.51 45.6998C406.53 39.6898 419.8 29.1698 407.58 23.0698V23.0798Z" fill="#333439"/>
<path d="M373.88 257.9C367.92 206.13 352.29 116.35 350.45 113.06C351.17 112.1 355.27 108.01 356 107.03C357.88 104.48 359.6 102.75 358.52 99.5399C357.44 96.2799 352.27 92.7299 349.79 90.5699C345.52 86.8599 340.97 83.4599 336.21 80.3999C330.63 76.8299 321.66 69.2299 315.06 74.3299C311.22 77.2799 308.29 82.6599 305.4 86.4599C303.47 88.9799 301.56 91.4899 299.63 94.0099C292.77 94.3399 286.11 95.6199 279.69 97.6299C274.78 99.1499 269.98 101.13 265.33 103.43C254.3 108.87 244.05 116.23 234.64 124.28C212.09 143.57 191.14 165.53 171.17 187.45C152.78 207.65 135.92 230.17 127.53 256.5C123.58 268.89 120.84 282.85 123.54 295.78C126.06 307.9 133.16 319.26 140.83 328.82C149.56 339.69 160.48 348.4 173.36 353.87C175.98 354.99 178.67 355.96 181.36 356.91C181.35 358.03 181.33 359.16 181.33 360.27C181.33 361.81 181.36 363.34 181.42 364.88C181.99 382.64 185.64 400.27 192.32 417.02C192.88 418.42 194.22 419.09 195.64 418.38C237.96 396.98 286.24 395.29 333.13 402.46C334.5 402.67 336.07 401.89 335.99 400.27C335.24 383.87 335.7 387.26 346.03 374.83C353.31 366.06 359.16 357.15 362.9 346.31C371.48 321.49 379.51 306.63 373.89 257.9H373.88Z" fill="#4DC3FF"/>
<path d="M390.45 405.69C373.27 366.86 354.47 327.58 322.68 298.43C320.54 296.47 317.33 299.66 319.48 301.63C349.97 329.58 368.3 366.97 384.88 404.22C346.62 400.59 303.46 360.26 283.46 329.93C281.87 327.52 278.77 330.63 280.26 333.13C300.35 366.89 347.61 405.97 388.5 409.09C390.39 409.23 391.08 407.1 390.45 405.69Z" fill="#389167"/>
<path d="M890.47 577.7C746.36 597.48 601.06 554.65 481.12 474.93C448.35 453.15 417.44 428.67 388.34 402.2C386.18 400.24 383.22 403.65 385.37 405.61C490.98 501.7 623.09 570.78 766.56 584.57C807.92 588.54 849.61 587.86 890.78 582.21C893.65 581.82 893.36 577.3 890.47 577.7Z" fill="#04CB55"/>
<path d="M1003.49 639.52C1002.9 639.79 1002.3 640 1001.71 640.23C999.46 652.45 997.25 664.68 994.97 676.89C994.97 676.97 994.96 677.04 994.94 677.12C994.65 678.6 994.38 680.09 994.11 681.57C992.45 690.39 990.76 699.21 989.02 708.01C985.96 723.31 981.45 737.73 972.82 749.99C969.53 754.66 965.65 759.02 961.02 763C949.1 773.23 935.52 779.94 921.12 783.77C918.33 784.52 915.5 785.16 912.65 785.68C898.09 788.41 882.91 788.41 867.99 786.28C861.61 785.38 855.28 784.08 849.07 782.45C848.24 782.24 847.41 782.01 846.58 781.79C826.5 776.21 807.42 767.56 788.7 758.49C783.82 756.12 770.96 752.91 771.14 745.78C771.22 743.05 773.54 740.84 775.15 738.89C778.42 734.96 781.81 731.13 785.26 727.36C811.92 698.3 843.76 673.46 878.79 655.25C892.34 648.21 906.72 642.21 921.7 639.12C924.46 638.55 927.23 638.08 930.04 637.73H930.06C932.12 637.46 934.2 637.25 936.28 637.11C956.46 635.75 978.14 643.73 997.7 636.99C998.18 634.37 998.68 631.74 999.16 629.12C999.7 626.26 1004.06 627.48 1003.53 630.33C1003.21 632.03 1002.9 633.74 1002.58 635.44C1004.51 635.79 1005.65 638.56 1003.48 639.52H1003.49Z" fill="#F4EDE6"/>
<path d="M1033.61 883.06C1026 877.2 1018.67 873.33 1013.25 864.98C1007.93 856.8 1004.72 847.48 1001.71 838.26C986.14 790.63 971.05 742.85 955.74 695.14C956.09 695.13 956.44 695.12 956.78 695.11C959.69 695.06 959.7 690.54 956.78 690.59C955.84 690.61 954.89 690.64 953.94 690.69C953 689.92 951.52 690.1 950.72 690.91C939.36 691.88 927.48 695.25 919.68 703.73C908.09 716.33 905.99 734.28 909.57 748.96C918.21 784.37 936.53 820.15 959.11 849.47C964.4 856.34 970.47 862.35 976.52 868.54C984.21 876.41 988.37 885.79 994.95 894.38C1003.33 905.32 1018.44 911.08 1031.91 907.02C1044.76 903.15 1042.71 890.06 1033.62 883.06H1033.61Z" fill="#F4EDE6"/>
<path d="M929.4 755.65C923.91 765.73 918.26 775.74 912.59 785.73C911.66 787.37 910.72 789.02 909.79 790.66C906.11 797.13 902.43 803.59 898.79 810.07C889.13 827.24 873.28 855.81 861.16 871.4C850.65 884.89 835.31 894.14 820.39 902.04C810.98 907 791.92 914.01 786.06 900.35C780.2 886.66 795.74 876.7 805.64 871.21C813.31 866.94 821.9 862.92 826.68 855.16C831.35 847.58 839.5 827.59 841.29 819.05C843.23 809.74 845.13 800.41 847.15 791.09C847.47 789.6 847.78 788.11 848.11 786.61C853.49 762.22 859.81 738.09 869.86 715.15C869.11 715.29 868.35 715.42 867.6 715.59C864.86 716.19 863.7 711.99 866.44 711.38C868.29 710.97 870.16 710.66 872.03 710.4C872.29 709.86 872.53 709.28 872.78 708.74C873.82 706.55 876.73 707.88 876.77 709.9C890.37 708.91 904.02 711.72 916.14 718.39C922.52 721.89 930.99 727.18 933.82 734.23C936.76 741.6 932.89 749.24 929.39 755.63L929.4 755.65Z" fill="#F4EDE6"/>
<path d="M986.14 511.04C981.02 515.52 977.44 521.78 973.46 527.22C967.67 535.13 960.97 541.41 952.37 546.2C949.83 547.62 952.11 551.52 954.65 550.1C955.72 549.51 956.76 548.88 957.79 548.24C959.71 556.51 977.13 552.85 982.59 552.02C987.94 551.2 990.64 550.72 992.66 545.66C995.62 538.24 998.75 528.91 999.67 520.96C1000.76 511.53 994.93 503.34 986.13 511.05L986.14 511.04Z" fill="#F4EDE6"/>
<path d="M1070.35 585.54C1060.51 566.97 1031.86 578.8 1021.62 561.98C1019.06 557.76 1018.35 552.68 1015.67 548.46C1013.6 545.23 1010.91 542.46 1007.83 540.17C1007.66 540.05 1007.5 539.93 1007.32 539.81C1004.83 537.62 1001.77 536.16 998.49 535.18C994.47 533.69 990.21 532.81 985.95 532.48C981.91 532.16 977.98 532.4 974.18 533.07C953 532.93 936.24 535.04 919.54 552.57C916.81 555.45 910.04 562.97 909.18 564.33C905.85 569.57 903.44 573.09 897.81 575.98C893.8 578.04 889.46 580.74 884.9 581.28C879.69 581.9 874.46 579.52 869.26 579.32C867.83 579.26 866.42 579.29 865.02 579.39C864.14 579.64 863.31 579.87 862.56 580.06C847.01 583.96 833.39 592.74 817.91 596.72C801.86 600.85 784.96 600.79 768.49 600.62C733.6 600.24 699.22 596.49 664.79 591.02C652.26 589.03 638.62 587.46 626.99 593.72C617.65 598.74 611.53 608.26 608.92 618.36C601.99 645.25 642.17 677.04 656.19 698.62C671.44 722.09 690.52 742.98 715.58 756.06C741.49 769.6 747.52 770.8 776.05 775.8C808.58 781.53 841.46 786.35 874.56 786.32C890.18 786.3 904.92 784.74 917.06 774.04C927.99 764.41 936.88 751.51 944.09 738.94C953.22 723.04 959.75 705.81 963.56 687.98C970 687.11 976.51 684.77 981.92 682.9C994.25 678.65 1005.67 671.69 1010.54 659.01C1014.88 647.77 1014.56 634.74 1012.38 622.53C1022.4 621.64 1032.41 620.6 1042.31 619.15C1051.81 617.78 1061.57 614.69 1067.56 606.72C1072.1 600.68 1074.01 592.48 1070.35 585.54Z" fill="#F4EDE6"/>
<path d="M755.15 685.36C753.67 672.07 742.5 662.5 732.55 654.88C720.4 645.58 707.09 637.88 692.97 631.98C679.61 626.39 663.04 622.84 655.67 609.03C655.19 608.14 654.41 607.84 653.65 607.93C653.12 606.85 651.92 606.19 650.68 607.1C611.25 636.14 584.59 680.96 578.67 729.68C577.12 742.42 576.63 755.88 580.57 768.27C582.34 773.81 585.2 778.52 588.31 783.38C589.89 785.85 591.61 788.36 592.46 791.19C594.7 798.72 581.86 810.03 576.95 812.57C566.08 818.19 565.13 829.78 561.57 840.36C556.95 854.09 549.83 866.1 541.54 877.86C535.72 886.11 537.51 888.95 545.22 898.09C551.24 905.22 562.06 904.18 569.2 899.49C579.02 893.03 577.57 890.24 583.47 880.45C590.57 868.68 604.97 847.3 614.09 836.93C624.03 825.6 721.74 740.71 740.92 718.1C748.69 708.94 756.57 698.02 755.15 685.35V685.36Z" fill="#F4EDE6"/>
<path d="M758.05 906.36C741.39 915.57 727.94 894.68 719.75 883.69C712.21 873.58 704.6 863.52 697.14 853.36C691.37 845.48 688.56 838.56 690.25 828.73C692.39 816.34 691.2 806.95 690.82 794.17C690.74 791.35 688.42 785.97 684.87 779.28C684.18 777.98 683.45 776.66 682.67 775.27C669.63 751.97 645.49 717.54 645.23 717.12C643.72 714.62 663.89 668.33 669.95 662.29C675.45 656.79 682.63 652.98 690.15 651.06C706.81 646.84 724.42 651.9 735.05 665.67C745.86 679.66 748.15 698.32 748.48 715.45C748.95 739.55 733.17 807.87 729.53 831.58C728.44 838.71 737.8 849.89 751.16 872.53C757.55 883.35 775.31 896.83 758.05 906.35V906.36Z" fill="#F4EDE6"/>
<path d="M683.9 569.85C689.91 577.31 690.88 587.53 687.23 596.51C682.08 609.17 668.13 610.83 661.12 621.46C651.41 636.16 658.17 666.51 641.96 677C641.88 677.6 641.58 678.19 640.94 678.61C624.8 689.03 607.12 688.11 591.58 680.84C590.21 680.22 588.85 679.53 587.51 678.78C575.78 672.34 565.53 662.35 558.5 651.15C542.84 626.27 533.37 592.65 539.89 563.44C542.87 550.01 549.96 536.46 561.56 528.56C568.1 524.1 574.58 522.95 582.33 523.36C588.45 523.66 591.89 522.94 596.08 518.25C598.21 515.88 600.18 513.5 602.64 511.45C623.41 494.16 659.99 497.58 680.67 513.27C698.14 526.5 704.17 556.62 683.91 569.84L683.9 569.85Z" fill="#F4EDE6"/>
<path d="M903.72 568.32C895.7 570.49 888.08 573.44 880.67 577.19C879.33 577.87 879.3 579.23 879.92 580.21C879.89 580.61 890.77 599.32 896.84 607.76C898.11 609.53 900.99 608.99 901.05 606.62C901.37 594.52 903.19 582.73 906.49 571.09C906.96 569.42 905.36 567.86 903.71 568.31L903.72 568.32Z" fill="#04CB55"/>
<path d="M1008.83 561.57C1005.76 561.17 1004.3 563.4 1004.16 567.01C1004.05 570.12 1004.87 574.02 1008.58 574.64C1012.09 575.23 1013.39 571.65 1013.45 568.81C1013.52 565.69 1012.4 562.03 1008.82 561.57H1008.83Z" fill="#241F1A"/>
<path d="M321.07 331.98C323.04 330.06 324.44 327.19 324.91 324.9C326.53 317.01 320.77 310.82 314.62 306.85C308.12 302.65 301.36 300.62 293.69 301.86C276.17 304.71 272.26 307.26 272.39 307.48C270.93 312.14 269.76 316.87 268.87 321.68C268.82 321.66 269.26 324.35 271.29 326.86C272.12 327.88 273.08 328.81 274.12 329.61C276.18 331.19 278.59 332.26 281.14 332.76C287.55 334.02 294.13 331.75 300.49 333.48C305.36 334.8 310.13 338.34 315.38 336.72C317.91 335.94 319.86 334.18 321.06 331.98H321.07Z" fill="#ED8778"/>
</g>
<defs>
<clipPath id="clip0_796_1667">
<rect width="1072.28" height="919.63" fill="white"/>
</clipPath>
</defs>
</svg>
