<svg width="231" height="85" viewBox="0 0 231 85" fill="none" xmlns="http://www.w3.org/2000/svg">
<path d="M216.805 54.4679C215.653 54.4679 214.717 54.8279 213.997 55.4759C213.205 56.1599 212.845 57.0239 212.845 58.0319C212.845 59.0399 213.205 59.8679 213.997 60.5159C214.717 61.2359 215.653 61.5599 216.805 61.5599C217.885 61.5599 218.821 61.2359 219.613 60.5159C220.369 59.8679 220.765 59.0399 220.765 58.0319C220.765 57.0239 220.369 56.1599 219.613 55.4759C218.821 54.8279 217.885 54.4679 216.805 54.4679ZM216.805 66.0239C215.509 66.0239 214.321 65.8079 213.241 65.3759C212.125 64.9799 211.153 64.4039 210.361 63.6839C209.497 62.9639 208.849 62.1359 208.381 61.1279C207.877 60.1919 207.661 59.1479 207.661 58.0319C207.661 56.9159 207.877 55.8719 208.381 54.8639C208.849 53.9279 209.497 53.0639 210.361 52.3439C211.153 51.6239 212.125 51.0479 213.241 50.6159C214.321 50.2199 215.509 50.0039 216.805 50.0039C218.029 50.0039 219.217 50.2199 220.369 50.6159C221.449 51.0479 222.421 51.6239 223.285 52.3439C224.077 53.0639 224.689 53.9279 225.193 54.8639C225.661 55.8719 225.913 56.9159 225.913 58.0319C225.913 59.1479 225.661 60.1919 225.193 61.1279C224.689 62.1359 224.077 62.9639 223.285 63.6839C222.421 64.4039 221.449 64.9799 220.369 65.3759C219.217 65.8079 218.029 66.0239 216.805 66.0239ZM230.197 66.9599V71.6399H203.377V66.9599H230.197ZM226.885 73.5479V84.7079H206.761V73.5479H226.885ZM221.593 77.6519H212.017V80.6399H221.593V77.6519Z" fill="white"/>
<path d="M183.411 68.3641V58.4281H172.971V53.7481H188.559V58.6081H194.499V51.3721H199.791V68.4721H194.499V63.3601H188.559V68.3641H183.411ZM186.903 80.7841H200.763V84.7081H181.827V75.6001H193.851V74.3041H182.799V70.4521H198.927V79.5241H186.903V80.7841Z" fill="white"/>
<path d="M158.174 68.9401H141.794V52.8121H146.762V57.4921H153.206V54.0001H158.174V68.9401ZM153.206 61.8121H146.762V64.6201H153.206V61.8121ZM167.822 58.4281H172.97V63.1801H167.822V68.4721H162.566V51.3721H167.822V58.4281ZM154.934 80.7841H168.794V84.7081H149.822V75.6001H161.846V74.3041H150.83V70.4521H166.922V79.5241H154.934V80.7841Z" fill="white"/>
<path d="M127.4 67.8239V72.4319H100.58V67.8239H127.4ZM109.616 74.1239V80.3519H124.484V84.7079H104.396V74.1239H109.616ZM124.196 64.9799H104.108V51.5879H109.184V60.1919H124.196V64.9799Z" fill="white"/>
<path d="M79.4523 59.9401H86.2563V64.6201H83.7003C84.5643 66.0601 85.0323 67.6081 85.0323 69.3001C85.0323 70.5241 84.8163 71.6401 84.3843 72.6841C83.9523 73.7641 83.3763 74.6641 82.6563 75.4201C81.9003 76.2121 81.0363 76.8241 80.0283 77.2561C79.0203 77.7241 77.9403 77.9401 76.8603 77.9401C75.7083 77.9401 74.6283 77.7241 73.6203 77.2561C72.6123 76.8241 71.7483 76.2121 71.0283 75.4201C70.2723 74.6641 69.6963 73.7641 69.2643 72.6841C68.8323 71.6401 68.6163 70.5241 68.6163 69.3001C68.6163 67.6081 69.0483 66.0601 69.9483 64.6201H67.3923V59.9401H74.1963V54.4321H79.4523V59.9401ZM94.1403 62.2801H99.2523V67.0681H94.1403V78.5881H88.8483V51.3721H94.1403V62.2801ZM76.8603 73.2601C77.3283 73.2601 77.7963 73.1521 78.2283 72.9361C78.6603 72.7201 79.0203 72.4321 79.3803 72.0001C79.6683 71.6401 79.8843 71.1721 80.1003 70.6681C80.2443 70.1641 80.3523 69.6241 80.3523 69.0481C80.3523 68.4721 80.2443 67.9321 80.1003 67.4281C79.8843 66.9601 79.6683 66.5281 79.3803 66.1321C79.0203 65.7361 78.6603 65.4121 78.2283 65.1961C77.7963 64.9801 77.3283 64.8721 76.8603 64.8721C76.3203 64.8721 75.8523 64.9801 75.4563 65.1961C75.0243 65.4121 74.6283 65.7361 74.3403 66.1321C73.9803 66.5281 73.7283 66.9601 73.5843 67.4281C73.3683 67.9321 73.2963 68.4721 73.2963 69.0481C73.2963 69.6241 73.3683 70.1641 73.5843 70.6681C73.7283 71.1721 73.9803 71.6401 74.3403 72.0001C74.6283 72.4321 75.0243 72.7201 75.4563 72.9361C75.8523 73.1521 76.3203 73.2601 76.8603 73.2601Z" fill="white"/>
<path d="M35.0867 53.7121H51.6827V58.2121H46.4627L53.5547 67.0681L49.3427 70.0921L43.4027 62.3521L37.4267 70.0921L33.2507 67.0681L40.3067 58.2121H35.0867V53.7121ZM60.9347 70.7041H55.6427V51.3721H60.9347V58.8601H66.0467V63.6481H60.9347V70.7041ZM60.0347 84.9241H54.7427V76.9321H42.5027V72.6481H60.0347V84.9241Z" fill="white"/>
<path d="M11.7637 55.0801L22.6357 74.2321L18.4597 77.2201L11.7637 65.2681L5.03171 77.2201L0.855713 74.2321L11.7637 55.0801ZM29.9437 78.5881H24.6517V51.3721H29.9437V78.5881Z" fill="white"/>
<path d="M179.66 27.7601H174.584V13.5401H171.56V27.7601H166.484V11.9921H162.128V7.31207H171.56V8.86007H179.66V16.9601H182.72V3.10007H187.724V28.5881H182.72V21.7481H179.66V27.7601ZM194.276 1.37207V28.5881H189.236V1.37207H194.276Z" fill="white"/>
<path d="M141.351 4.97185H147.903V9.47185H145.635C145.995 10.0839 146.319 10.7319 146.571 11.3799C146.787 12.0999 146.895 12.8199 146.895 13.5399C146.895 14.6199 146.679 15.6279 146.283 16.5639C145.851 17.4999 145.275 18.3279 144.555 19.0119C143.799 19.6959 142.935 20.2359 141.999 20.6319C140.991 21.0639 139.947 21.2439 138.831 21.2439C137.715 21.2439 136.671 21.0639 135.735 20.6319C134.727 20.2359 133.899 19.6959 133.179 19.0119C132.423 18.3279 131.847 17.4999 131.451 16.5639C131.019 15.6279 130.803 14.6199 130.803 13.5399C130.803 12.0999 131.199 10.7319 132.063 9.47185H129.795V4.97185H136.311V1.04785H141.351V4.97185ZM136.779 23.0799H155.175V34.7079H136.779V23.0799ZM156.075 20.7038H150.819V1.37185H156.075V8.85985H161.223V13.6479H156.075V20.7038ZM138.831 16.5639C139.695 16.5639 140.451 16.2399 141.099 15.5199C141.711 14.8719 142.035 14.0079 142.035 12.9999C142.035 12.0639 141.711 11.2359 141.135 10.5519C140.523 9.90385 139.803 9.54385 138.975 9.47185H138.831C137.931 9.47185 137.175 9.83185 136.599 10.4798C135.951 11.1999 135.663 12.0279 135.663 12.9999C135.663 14.0079 135.951 14.8719 136.599 15.5199C137.175 16.2399 137.931 16.5639 138.831 16.5639ZM141.891 30.7479H150.063V27.0399H141.891V30.7479Z" fill="white"/>
<path d="M112.103 12.2801H117.251V17.0681H112.103V28.5881H106.847V1.37207H112.103V12.2801ZM103.967 20.6681H98.8908V9.68807H87.5508V5.00807H103.967V20.6681ZM105.623 23.2601V27.9401H86.3628V23.2601H90.8268V15.9521H96.0828V23.2601H105.623Z" fill="white"/>
<path d="M81.8874 31.5039L77.8914 34.8879L69.3594 28.6239L60.7914 34.8879L56.7954 31.5039L67.1994 23.5119H66.7314V20.8839H55.9314V16.4199H82.7514V20.8839H71.9874V23.5119H71.5194L81.8874 31.5039ZM69.3594 15.6279C68.0634 15.6279 66.8754 15.4479 65.7954 15.0159C64.6794 14.6199 63.7074 14.0439 62.9154 13.3239C62.0514 12.6039 61.4034 11.7759 60.9354 10.8039C60.4314 9.86791 60.2154 8.85991 60.2154 7.77991C60.2154 6.69991 60.4314 5.69191 60.9354 4.75591C61.4034 3.81991 62.0514 2.99191 62.9154 2.27191C63.7074 1.58791 64.6794 1.04791 65.7954 0.615907C66.8754 0.219908 68.0634 0.00390625 69.3594 0.00390625C70.5834 0.00390625 71.7714 0.219908 72.9234 0.615907C74.0034 1.04791 74.9754 1.58791 75.8394 2.27191C76.6314 2.99191 77.2434 3.81991 77.7474 4.75591C78.2154 5.69191 78.4674 6.69991 78.4674 7.77991C78.4674 8.85991 78.2154 9.86791 77.7474 10.8039C77.2434 11.7759 76.6314 12.6039 75.8394 13.3239C74.9754 14.0439 74.0034 14.6199 72.9234 15.0159C71.7714 15.4479 70.5834 15.6279 69.3594 15.6279ZM69.3594 4.32391C68.7834 4.32391 68.2434 4.43191 67.7754 4.57591C67.2714 4.79191 66.8394 5.04391 66.4794 5.33191C66.1194 5.65591 65.8314 6.01591 65.6154 6.41191C65.3994 6.84391 65.2914 7.31191 65.2914 7.77991C65.2914 8.28391 65.3994 8.71591 65.6154 9.14791C65.8314 9.61591 66.1194 9.97591 66.4794 10.2639C66.8394 10.6239 67.2714 10.8759 67.7754 11.0199C68.2434 11.2359 68.7834 11.3079 69.3594 11.3079C69.8994 11.3079 70.4394 11.2359 70.9434 11.0199C71.4474 10.8759 71.8794 10.6239 72.2394 10.2639C72.5994 9.97591 72.8874 9.61591 73.1034 9.14791C73.2834 8.71591 73.3914 8.28391 73.3914 7.77991C73.3914 7.31191 73.2834 6.84391 73.1034 6.41191C72.8874 6.01591 72.5994 5.65591 72.2394 5.33191C71.8794 5.04391 71.4474 4.79191 70.9434 4.57591C70.4394 4.43191 69.8994 4.32391 69.3594 4.32391Z" fill="white"/>
<path d="M34.2425 21.1001C34.7465 21.1001 35.2865 20.9921 35.8265 20.7401C36.3305 20.5241 36.7625 20.2001 37.1585 19.7681C37.5185 19.4081 37.8065 18.9041 38.0585 18.3281C38.2745 17.7521 38.3825 17.1761 38.3825 16.5281C38.3825 15.9161 38.2745 15.3041 38.0585 14.7281C37.8065 14.1881 37.5185 13.7201 37.1585 13.2881C36.7625 12.9281 36.3305 12.6041 35.8265 12.3521C35.2865 12.1361 34.7465 11.9921 34.2425 11.9921C33.6665 11.9921 33.1625 12.1361 32.6945 12.3521C32.1905 12.6041 31.7585 12.9281 31.3985 13.2881C31.0025 13.7201 30.7145 14.1881 30.4985 14.7281C30.2465 15.3041 30.1385 15.9161 30.1385 16.5281C30.1385 17.1761 30.2465 17.7521 30.4985 18.3281C30.7145 18.9041 31.0025 19.4081 31.3985 19.7681C31.7585 20.2001 32.1905 20.5241 32.6945 20.7401C33.1625 20.9921 33.6665 21.1001 34.2425 21.1001ZM34.2425 6.98807C35.4665 6.98807 36.6545 7.24007 37.8065 7.70807C38.8865 8.21207 39.8585 8.89607 40.7225 9.76007C41.5145 10.6601 42.1265 11.6681 42.6305 12.8201C43.0985 13.9721 43.3505 15.2321 43.3505 16.5281C43.3505 17.8601 43.0985 19.0841 42.6305 20.2361C42.1265 21.4241 41.5145 22.4681 40.7225 23.3321C39.8585 24.1961 38.8865 24.8801 37.8065 25.3481C36.6545 25.8521 35.4665 26.1041 34.2425 26.1041C32.9465 26.1041 31.7945 25.8521 30.7145 25.3481C29.5985 24.8801 28.6265 24.1961 27.8345 23.3321C26.9705 22.4681 26.3225 21.4241 25.8545 20.2361C25.3505 19.0841 25.1345 17.8601 25.1345 16.5281C25.1345 15.2321 25.3505 13.9721 25.8545 12.8201C26.3225 11.6681 26.9705 10.6601 27.8345 9.76007C28.6265 8.89607 29.5985 8.21207 30.7145 7.70807C31.7945 7.24007 32.9465 6.98807 34.2425 6.98807ZM52.3505 28.5881H47.0945V1.37207H52.3505V28.5881Z" fill="white"/>
</svg>
