<svg width="16" height="16" viewBox="0 0 16 16" fill="none" xmlns="http://www.w3.org/2000/svg">
<path d="M8.00032 10.4645C9.36044 10.4645 10.463 9.3619 10.463 8.00178C10.463 6.64166 9.36044 5.53906 8.00032 5.53906C6.64019 5.53906 5.5376 6.64166 5.5376 8.00178C5.5376 9.3619 6.64019 10.4645 8.00032 10.4645Z" fill="#7E828E"/>
<path d="M15.7547 7.31937C13.8606 5.03195 10.9946 2.82861 8.00027 2.82861C5.00596 2.82861 2.13849 5.03337 0.245844 7.31937C-0.0819481 7.71414 -0.0819481 8.28849 0.245844 8.68469C0.721855 9.25904 1.71948 10.3693 3.0506 11.3384C6.40549 13.7797 9.58792 13.7854 12.9499 11.3384C14.2825 10.3693 15.2787 9.25904 15.7547 8.68469C16.0811 8.28992 16.0825 7.71699 15.7547 7.31937ZM8.00027 4.55308C9.90146 4.55308 11.4492 6.09941 11.4492 8.00203C11.4492 9.90465 9.90289 11.451 8.00027 11.451C6.09765 11.451 4.55132 9.90465 4.55132 8.00203C4.55132 6.09941 6.09765 4.55308 8.00027 4.55308Z" fill="#7E828E"/>
</svg>
