<svg width="58" height="60" viewBox="0 0 58 60" fill="none" xmlns="http://www.w3.org/2000/svg">
<g clip-path="url(#clip0_3576_21162)">
<path d="M44.7685 0.00299843C32.5015 -0.30911 26.6746 23.818 33.8503 37.9715C34.1958 38.6515 34.8841 39.0862 35.6449 39.1029L51.894 39.5181C52.6854 39.5348 53.3765 39.114 53.7416 38.4787C61.6976 24.5899 56.9017 0.31232 44.7685 0.00299843Z" fill="#46C0FF"/>
<path d="M50.9049 43.6313L36.4225 43.2635C35.28 43.2328 34.3297 44.1385 34.3019 45.2782L34.1681 50.4503C34.0371 55.5834 38.1085 59.8665 43.2415 59.9975C48.3467 60.134 52.6549 56.1017 52.7887 50.924L52.9197 45.752C52.9503 44.6178 52.0502 43.6619 50.9049 43.6313Z" fill="#46C0FF"/>
<path d="M23.7067 38.4364C28.4273 29.7503 28.4607 16.0204 23.7206 7.33706C18.5624 -2.11257 9.31624 -2.32157 3.99926 7.27297C-0.79383 15.9172 -0.857924 29.65 3.81255 38.3723C4.16089 39.0216 4.84084 39.4591 5.62947 39.4647L21.8842 39.5149C22.6449 39.5176 23.3444 39.1024 23.7094 38.4336L23.7067 38.4364Z" fill="#46C0FF"/>
<path d="M23.0464 45.5453C23.0492 44.4028 22.1268 43.4721 20.9843 43.4693L6.4991 43.4219C5.35656 43.4163 4.42581 44.3415 4.42302 45.484L4.4063 50.6589C4.38958 55.7697 8.52501 59.9803 13.6887 59.9999C18.8357 60.0166 23.0157 55.8672 23.0297 50.7174L23.0464 45.5426V45.5453Z" fill="#46C0FF"/>
</g>
<defs>
<clipPath id="clip0_3576_21162">
<rect width="57.2913" height="60" fill="white" transform="translate(0.354492)"/>
</clipPath>
</defs>
</svg>
