<svg width="90" height="66" viewBox="0 0 90 66" fill="none" xmlns="http://www.w3.org/2000/svg">
<path d="M55.9937 13.2105C55.7184 14.4598 55.0006 15.5098 54.6368 16.4295C54.2337 17.3569 54.1845 18.2076 54.4795 19.0813C54.7843 19.955 55.3939 20.8211 56.151 21.6795C57.0065 22.6375 57.7537 23.6339 58.4617 24.6456C61.1853 28.6999 62.7978 33.1375 62.8764 37.6748C62.9551 39.9051 62.4831 42.2963 61.8834 44.3733L60.261 50.6963L58.737 57.027L58.029 60.1846L57.7144 61.7481L57.5767 62.5069L57.5276 62.8365L57.5079 62.9668C57.5374 62.7675 57.4883 62.5452 57.3604 62.3536C57.911 63.4726 57.0163 64.6835 55.3743 65.0514C53.7224 65.427 51.9428 64.8215 51.3921 63.7025C51.2643 63.3806 51.2151 63.0281 51.2446 62.6908L51.2938 62.4226L51.3921 61.9474L51.5986 61.112L52.0411 59.4949L52.9752 56.3142L54.9318 49.9912L56.9868 43.6835C57.7341 41.5682 58.2257 39.6981 58.3043 37.6364C58.5108 33.5821 57.3309 29.4664 55.0596 25.6419C54.4697 24.6915 53.8404 23.7565 53.1226 22.8521C52.3262 21.8481 51.5986 20.7368 51.2643 19.5105C50.9103 18.2842 51.1267 16.92 51.7068 15.8164C52.2672 14.6897 52.9457 13.7777 53.1816 12.9039V12.8886C53.3291 12.3674 54.0764 12.0149 54.8433 12.1145C55.6004 12.2065 56.1019 12.697 55.9937 13.2105Z" fill="#5D5F67"/>
<path d="M53.1274 17.3059C57.3235 38.9349 18.7727 47.3368 7.40298 44.7229C2.88262 43.6911 0.484858 40.9887 0.0721291 38.2568C-0.3406 35.5249 0.995855 31.4075 4.65145 27.2016C13.7315 16.7654 49.0689 -3.66464 53.1373 17.2961L53.1274 17.3059Z" fill="#27C467"/>
<path d="M89.9596 7.44977C90.3527 10.0342 87.9255 13.513 82.5109 16.235C71.7799 21.6299 48.9619 24.1849 47.3995 13.9552C45.837 3.72538 68.3798 -0.657402 80.231 1.28832C86.2058 2.27101 89.5666 4.8653 89.9596 7.44977Z" fill="#27C467"/>
</svg>
