<svg width="16" height="17" viewBox="0 0 16 17" fill="none" xmlns="http://www.w3.org/2000/svg">
<g clip-path="url(#clip0_4367_9798)">
<path d="M9.17188 10.2895V14.0728C9.17188 14.3087 8.98158 14.5003 8.74571 14.5003H2.72024C2.48437 14.5003 2.29272 14.3087 2.29272 14.0728V10.2895C2.29272 9.11412 3.24962 8.15723 4.4263 8.15723H7.03965C7.75397 8.15723 8.38788 8.51103 8.77385 9.05247C9.02446 9.40092 9.17188 9.82843 9.17188 10.2895Z" fill="white"/>
<path d="M9.17188 10.2895V14.0728C9.17188 14.3087 8.98158 14.5003 8.74571 14.5003H2.72024C2.48437 14.5003 2.29272 14.3087 2.29272 14.0728V10.2895C2.29272 9.11412 3.24962 8.15723 4.4263 8.15723H7.03965C7.75397 8.15723 8.38788 8.51103 8.77385 9.05247C9.02446 9.40092 9.17188 9.82843 9.17188 10.2895Z" fill="#333439"/>
<path d="M13.705 10.2153V13.0712C13.705 13.2561 13.5549 13.4062 13.3699 13.4062H10.313V10.289C10.313 9.64971 10.128 9.05333 9.80908 8.54808C9.86403 8.54272 9.92032 8.54004 9.97794 8.54004H12.0298C12.9532 8.54004 13.705 9.29188 13.705 10.2153Z" fill="#333439"/>
<path d="M5.7332 2.5C4.31797 2.5 3.16675 3.65122 3.16675 5.06511C3.16675 6.02468 3.69612 6.8623 4.47879 7.30322C4.85002 7.51229 5.27754 7.63156 5.7332 7.63156C6.18886 7.63156 6.61638 7.51229 6.98761 7.30322C7.77028 6.86364 8.29965 6.02468 8.29965 5.06511C8.29831 3.65122 7.14709 2.5 5.7332 2.5Z" fill="#333439"/>
<path d="M11.0031 4.09863C9.89205 4.09863 8.98877 5.00192 8.98877 6.11293C8.98877 6.86611 9.40423 7.52414 10.0194 7.86991C10.3102 8.03341 10.6466 8.12722 11.0044 8.12722C11.3622 8.12722 11.6973 8.03341 11.9894 7.86991C12.6032 7.52414 13.02 6.86611 13.02 6.11293C13.02 5.00192 12.1168 4.09863 11.0057 4.09863H11.0031Z" fill="#333439"/>
</g>
<defs>
<clipPath id="clip0_4367_9798">
<rect width="11.4117" height="12" fill="white" transform="translate(2.29419 2.5)"/>
</clipPath>
</defs>
</svg>
