<svg width="393" height="404" viewBox="0 0 393 404" fill="none" xmlns="http://www.w3.org/2000/svg">
<g clip-path="url(#clip0_3576_7208)">
<path fill-rule="evenodd" clip-rule="evenodd" d="M117.078 0.5H277.153C292.586 0.5 305.187 13.101 305.187 28.5342V76.9168C307.743 76.9168 309.834 79.0053 309.834 81.5636V120.938C309.834 123.496 307.743 125.585 305.187 125.585V375.466C305.187 390.899 292.586 403.497 277.153 403.497H117.078C101.645 403.497 89.0438 390.896 89.0438 375.466V163.578C88.9123 163.589 88.7809 163.594 88.6495 163.594C86.0913 163.594 84 161.503 84 158.948V119.573C84 117.015 86.0913 114.927 88.6495 114.927C88.7837 114.927 88.9151 114.932 89.0438 114.943V101.546C88.9123 101.557 88.7809 101.562 88.6495 101.562C86.0913 101.562 84 99.4711 84 96.9157V57.5414C84 54.9832 86.0913 52.8919 88.6495 52.8919C88.7837 52.8919 88.9151 52.9003 89.0438 52.9114V28.5342C89.0438 13.101 101.645 0.5 117.078 0.5Z" fill="#E7EBEF"/>
<path d="M117.078 7.97656H277.153C288.499 7.97656 297.708 17.1862 297.708 28.5318V375.466C297.708 386.812 288.499 396.021 277.153 396.021H117.078C105.733 396.021 96.5229 386.812 96.5229 375.466V28.5346C96.5229 17.189 105.733 7.97936 117.078 7.97936V7.97656Z" fill="#F9F9F9"/>
<path d="M116.617 15.5H277.282C283.997 15.5 289.449 21.3555 289.449 28.5671V373.433C289.449 380.645 283.997 386.5 277.282 386.5H116.617C109.902 386.5 104.449 380.645 104.449 373.433V28.5671C104.449 21.3555 109.902 15.5 116.617 15.5Z" fill="#D8DDE4"/>
<path fill-rule="evenodd" clip-rule="evenodd" d="M233.523 11.6053H145.112C144.51 11.6053 144.016 11.9101 144.016 12.2791C144.016 12.651 144.508 12.9529 145.112 12.9529H233.52C234.121 12.9529 234.613 12.6482 234.613 12.2791C234.613 11.9073 234.121 11.6025 233.52 11.6025L233.523 11.6053ZM240.045 11.6053H248.718C249.319 11.6053 249.811 11.9101 249.811 12.2791C249.811 12.651 249.319 12.9529 248.718 12.9529H240.045C239.444 12.9529 238.952 12.6482 238.952 12.2791C238.952 11.9073 239.444 11.6025 240.045 11.6025V11.6053Z" fill="#F9F9F9"/>
<path fill-rule="evenodd" clip-rule="evenodd" d="M155.562 15.3682H238.267C237.445 18.027 234.957 19.973 232.038 19.973H161.792C158.873 19.973 156.384 18.027 155.562 15.3682Z" fill="#F9F9F9"/>
<path fill-rule="evenodd" clip-rule="evenodd" d="M289.448 35.5H104.448V365.943C104.448 366.817 104.532 367.673 104.692 368.5H289.204C289.364 367.673 289.448 366.817 289.448 365.943V35.5Z" fill="#D8DDE4"/>
</g>
<rect x="51" y="111.5" width="291" height="215" fill="url(#paint0_radial_3576_7208)"/>
<g clip-path="url(#clip1_3576_7208)">
<path d="M143.002 216.266C140.794 214.86 138.401 213.767 135.907 212.981C137.868 204.523 137.222 195.43 133.6 187.316C129.392 177.89 119.06 170.919 108.599 171.674C95.9515 172.586 87.83 182.822 84.287 194.249C82.9694 198.499 82.3723 202.818 82.2291 207.16C82.0087 207.414 81.7928 207.673 81.5703 207.924C81.0833 208.469 80.581 208.997 80.0566 209.507C79.6313 209.253 79.2105 208.99 78.7985 208.717C76.7383 207.346 74.8236 205.763 72.7304 204.441C65.173 199.673 55.6721 199.033 48.3725 204.684C40.978 210.408 38.7923 219.178 39.6957 227.956C33.9075 229.204 28.5269 231.72 24.4992 236.373C14.6745 247.724 17.0255 263.831 26.2641 274.72C33.7158 283.504 45.4839 287.541 56.5359 289.115C68.1519 290.768 80.0808 291.607 91.8136 291.53C104.769 291.444 117.615 289.523 129.464 284.12C133.45 282.301 137.057 279.654 139.741 276.263C140.131 276.056 140.521 275.842 140.906 275.619C150.751 269.902 157.191 260.171 158.17 248.805C159.247 236.276 153.71 223.08 143.006 216.266H143.002ZM43.567 259.121C43.4458 258.99 43.329 258.849 43.2122 258.708C43.177 258.659 43.1439 258.611 43.1109 258.562C43.1021 258.551 43.0954 258.538 43.0888 258.525C43.9261 259.355 44.0605 259.578 43.9151 259.476C43.7983 259.357 43.6793 259.242 43.567 259.121ZM41.8285 256.143C41.8241 256.132 41.8219 256.121 41.8175 256.11C42.3529 256.836 42.5094 257.262 42.4807 257.372C42.2758 256.946 42.0731 256.52 41.8285 256.143ZM41.5399 252.291C41.6214 252.205 41.6963 252.11 41.78 252.026C41.8748 251.931 41.9783 251.838 42.0819 251.748C42.0973 251.739 42.1083 251.73 42.1238 251.719C42.1612 251.695 42.2031 251.675 42.2405 251.653C41.9122 251.997 41.6743 252.218 41.5201 252.344C41.5245 252.326 41.5333 252.309 41.5377 252.291H41.5399ZM76.41 221.919C76.2778 222.007 76.1522 222.094 76.0531 222.164C76.0355 222.171 76.0222 222.177 76.0046 222.182C75.9297 222.14 75.857 222.098 75.7843 222.058C75.9495 221.992 76.1566 221.941 76.41 221.919Z" fill="#27C467"/>
<path d="M125.184 227.64C121.407 240.574 109.69 250.591 96.3572 252.277C97.0579 241.593 98.6443 230.967 101.105 220.533C101.808 217.553 97.2275 216.283 96.5246 219.268C92.7481 235.287 91.0053 251.677 91.2763 268.063C83.9017 264.005 77.8865 258.034 73.8148 250.604C69.3332 242.423 67.2157 233.203 65.1953 224.17C64.5277 221.182 59.9447 222.446 60.6145 225.435C62.7782 235.115 65.1424 244.949 70.0713 253.648C74.7798 261.959 81.9032 268.714 90.4324 272.989C90.7739 273.159 91.1088 273.246 91.4305 273.261C91.7346 280.389 92.4198 287.51 93.4862 294.591C93.9401 297.611 98.5209 296.328 98.067 293.326C96.2602 281.329 95.6169 269.177 96.1082 257.074C111.684 255.335 125.344 244.059 129.771 228.908C130.63 225.961 126.047 224.702 125.19 227.643L125.184 227.64Z" fill="#5D5F67"/>
<path d="M362.935 287.207C361.366 279.602 354.159 274.801 347.075 273.049C343.898 272.263 340.549 271.866 337.257 271.983C336.074 265.751 332.659 260.051 325.969 258.8C320.979 257.866 316.257 259.235 312.355 262.427C309.045 265.133 306.932 269.144 305.637 273.157C305.469 273.68 305.317 274.208 305.176 274.737C303.927 275.223 302.759 275.927 301.768 276.819C299.873 276.152 297.894 275.777 295.845 275.898C290.584 276.212 285.884 279.318 283.672 284.163C281.475 288.975 281.327 294.174 283.526 299.019C285.573 303.524 290.936 305.498 295.325 306.89C299.093 308.085 349.752 307.458 352.769 306.389C356.316 305.131 359.412 303.14 361.465 299.913C363.523 296.679 363.688 290.882 362.933 287.211L362.935 287.207Z" fill="#27C467"/>
<path d="M306.424 307.047C307.014 304.382 307.871 301.786 308.968 299.296C308.874 299.202 308.792 299.08 308.726 298.926C306.481 293.615 306.309 287.628 308.484 282.257C309.063 280.827 311.408 281.454 310.821 282.902C309.076 287.215 308.858 292.047 310.35 296.449C312.888 291.685 316.336 287.41 320.505 283.951C321.697 282.962 323.422 284.67 322.219 285.668C315.043 291.621 310.163 299.941 308.468 309.119C308.208 310.532 306.168 310.093 306.089 308.797C306.071 308.523 306.053 308.247 306.038 307.974C306.012 307.548 306.175 307.239 306.426 307.044L306.424 307.047Z" fill="#7E828E"/>
<path d="M191.932 330.887C191.307 328.986 186.497 327.655 184.251 326.889C182.465 326.28 180.631 325.819 178.827 325.256C177.102 324.717 175.026 323.525 173.581 321.112C173.072 320.265 171.208 314.706 171.069 314.084C170.084 314.106 169.687 314.13 168.702 314.166C166.845 314.232 164.979 314.314 163.126 314.479C163.124 315.656 163.084 316.828 162.994 317.991C162.709 321.631 160.669 323.781 159.285 327.03C158.402 329.103 156.562 334.03 161.502 335.957C163.172 336.608 165.316 336.472 167.076 336.211C171.001 335.631 174.081 336.103 178.036 336.385C182.685 336.719 186.724 336.291 188.31 335.69C190.3 334.94 192.666 333.123 191.93 330.887H191.932Z" fill="#333439"/>
<path d="M110.483 330.461C109.979 328.96 108.591 328.149 107.233 327.545C105.231 326.655 103.589 325.772 102.514 323.761C100.33 319.673 101.677 315 103.464 311.046C103.468 311.038 103.475 311.024 103.479 311.016C102.906 310.285 102.316 309.567 101.69 308.881C100.656 307.751 99.4953 306.605 98.1248 305.879C95.5998 307.976 92.4645 309.437 89.4371 310.667C86.7181 311.77 79.7203 313.574 80.3879 317.757C80.5443 318.746 81.3089 319.516 81.9435 320.231C82.8667 321.276 83.8295 322.284 84.8078 323.275C86.9076 325.401 89.0999 327.432 91.2945 329.458C93.0792 331.105 94.9058 332.767 97.1642 333.736C99.4336 334.71 101.908 335.067 104.347 335.198C107.978 335.394 111.612 333.825 110.483 330.463V330.461Z" fill="#333439"/>
<path d="M146.131 261.499C145.96 262.031 145.786 262.563 145.607 263.095C143.258 270.095 140.973 276.368 138.464 281.037C135.337 286.855 130.4 292.407 127.412 296.109C124.845 299.292 122.613 303.042 119.262 305.431C117.362 306.784 115.276 307.857 113.017 308.455C111.125 308.96 110.142 308.731 108.324 309.506C106.438 310.311 103.924 312.656 102.413 314.194C99.2156 312.799 96.1199 311.139 93.8813 308.598C97.0784 304.466 98.9557 303.437 100.606 298.38C101.547 295.489 101.681 292.469 102.256 289.504C102.858 286.427 105.275 282.633 107.322 280.26C111.169 275.798 120.253 261.636 121.212 259.185C122.3 256.398 122.84 253.442 123.452 250.526C124.387 246.1 125.541 241.736 126.91 237.434C127.035 237.041 127.163 236.646 127.291 236.253C127.826 234.628 128.386 233.014 128.978 231.412C132.887 230.686 136.888 230.074 140.863 230.487C145.4 230.957 147.608 231.478 150.496 234.986C152.204 237.058 150.007 249.431 146.127 261.499H146.131Z" fill="#151513"/>
<path d="M173.252 309.177C172.155 313.917 172.589 312.005 172.492 317.55C169.943 317.841 165.605 318.254 163.095 318.786C161.603 314.223 161.103 311.625 158.739 308.511C157.642 307.065 154.2 305.815 153.176 303.853C151.219 300.098 150.016 292.611 149.597 288.381C149.172 284.066 147 265.418 146.131 261.499C145.261 257.568 129.434 239.242 127.211 235.684C122.752 228.545 121.452 219.982 121.597 211.674C130.285 208.546 139.206 206.133 148.286 204.46C150.402 218.779 160.599 230.565 167.687 242.884C171.452 249.427 173.001 253.087 174.931 263.098C176.538 271.422 173.975 280.914 175.568 289.185C176.024 291.556 176.654 294.452 176.487 296.867C175.98 304.18 173.794 306.82 173.248 309.177H173.252Z" fill="#151513"/>
<path d="M149.505 154.27C149.225 154.839 149.295 155.256 149.707 155.523C150.058 155.96 150.644 156.329 151.078 156.68C152.268 157.636 153.513 158.519 154.804 159.324C155.771 157.623 156.76 155.938 157.776 154.263C159.446 151.506 161.165 148.775 162.894 146.054C162.872 146.016 162.864 145.97 162.879 145.921C163.079 145.201 163.599 144.824 163.963 144.206C164.271 143.681 164.102 143.164 163.818 142.67C163.621 142.33 163.366 142.003 163.172 141.689C162.346 140.341 161.519 138.99 160.695 137.646C160.083 138.226 159.536 138.893 159.03 139.599C158.084 140.919 157.276 142.38 156.417 143.692C155.769 144.681 155.125 145.669 154.478 146.658C153.744 147.784 153.006 148.91 152.27 150.036C151.578 151.095 150.886 152.155 150.196 153.212C150.027 153.47 149.817 153.729 149.679 154.005C149.619 154.095 149.562 154.181 149.507 154.27H149.505Z" fill="#ED8778"/>
<path d="M155.163 142.286C155.209 142.535 155.273 142.782 155.348 143.03C155.632 143.966 156.123 144.824 156.729 145.621C156.976 145.952 157.245 146.275 157.527 146.586C157.509 146.965 157.501 147.345 157.496 147.72C157.485 149.356 157.196 151.14 158.113 152.552C158.875 153.725 160.387 154.886 161.775 155.248C163.256 155.641 165.569 155.409 166.642 154.179C168.746 151.767 169.462 146.065 169.83 145.032C170.218 143.948 170.48 142.462 170.381 141.164C170.381 141.096 170.381 141.025 170.377 140.957C170.361 140.535 170.302 140.118 170.181 139.701C169.868 138.619 169.125 137.712 168.262 136.981C165.036 134.26 159.074 133.564 156.302 137.213C155.191 138.674 154.828 140.518 155.165 142.288L155.163 142.286Z" fill="#ED8778"/>
<path d="M170.514 138.854C166.567 134.222 162.445 133.631 158.653 134.944C154.151 136.503 154.517 142.297 154.504 146.187C154.504 146.524 154.821 146.736 155.134 146.668C156.727 146.315 158.62 145.915 159.904 144.855C161.081 143.884 161.967 142.953 163.679 143.35C164.536 143.549 165.314 143.979 166.204 144.048C169.141 144.268 172.32 140.975 170.516 138.856L170.514 138.854Z" fill="#333439"/>
<path d="M151.847 133.796C149.04 135.068 148.425 138.803 150.589 140.811C149.723 142.421 151.572 143.836 153.295 143.624C153.577 143.588 153.861 143.531 154.143 143.458C153.687 143.933 153.156 144.343 152.545 144.659C150.655 145.637 148.597 145.125 146.583 145.443C144.32 145.8 145.261 147.683 146.843 148.094C146.693 150.06 151.063 148.67 151.904 148.283C154.546 147.069 156.567 144.847 157.38 142.041C157.43 141.862 157.386 141.714 157.294 141.608C157.959 140.869 158.395 139.959 158.42 138.911C158.422 138.796 158.391 138.701 158.34 138.628C158.384 138.582 158.424 138.525 158.45 138.456C159.81 135.094 154.442 132.624 151.847 133.798V133.796Z" fill="#333439"/>
<path d="M170.148 138.596C167.883 137.463 165.386 139.982 164.576 141.863C164.571 141.863 164.567 141.86 164.565 141.858C163.961 141.637 163.701 142.602 164.3 142.821C165.276 143.178 165.911 144.138 165.159 145.266C165.018 145.478 164.774 145.648 164.62 145.86C164.338 146.244 164.078 146.703 164.007 147.182C163.91 147.834 164.115 148.617 164.833 148.807C167.087 149.403 168.209 144.82 169.031 143.589C169.917 142.262 172.84 139.94 170.148 138.593V138.596Z" fill="#333439"/>
<path d="M162.723 190.43C161.409 179.002 157.966 159.184 157.56 158.458C157.719 158.246 158.622 157.343 158.783 157.127C159.197 156.564 159.576 156.182 159.338 155.473C159.1 154.754 157.961 153.97 157.415 153.493C156.474 152.674 155.471 151.924 154.423 151.248C153.193 150.46 151.217 148.783 149.762 149.908C148.916 150.56 148.271 151.747 147.634 152.586C147.209 153.142 146.788 153.696 146.363 154.253C144.851 154.325 143.384 154.608 141.969 155.052C140.887 155.387 139.83 155.824 138.805 156.332C136.375 157.533 134.116 159.157 132.043 160.934C127.075 165.193 122.459 170.04 118.058 174.879C114.007 179.338 110.292 184.309 108.443 190.121C107.573 192.856 106.969 195.937 107.564 198.792C108.119 201.467 109.684 203.975 111.374 206.085C113.297 208.484 115.703 210.407 118.541 211.614C119.118 211.862 119.711 212.076 120.304 212.285C120.302 212.533 120.297 212.782 120.297 213.027C120.297 213.367 120.304 213.705 120.317 214.045C120.443 217.965 121.247 221.857 122.719 225.554C122.842 225.863 123.137 226.011 123.45 225.854C132.775 221.131 143.412 220.757 153.744 222.34C154.046 222.387 154.392 222.214 154.374 221.857C154.209 218.237 154.31 218.985 156.586 216.241C158.19 214.305 159.479 212.338 160.303 209.946C162.194 204.467 163.963 201.187 162.725 190.43H162.723Z" fill="#46C0FF"/>
<path d="M166.373 223.053C162.588 214.482 158.446 205.811 151.441 199.377C150.97 198.944 150.262 199.648 150.736 200.083C157.454 206.253 161.493 214.506 165.146 222.729C156.716 221.928 147.206 213.025 142.8 206.33C142.449 205.798 141.766 206.485 142.095 207.036C146.521 214.489 156.934 223.115 165.944 223.804C166.36 223.835 166.512 223.365 166.373 223.053Z" fill="#27C467"/>
<path d="M276.545 261.022C244.793 265.388 212.778 255.934 186.351 238.337C179.131 233.529 172.321 228.125 165.909 222.282C165.433 221.849 164.781 222.602 165.254 223.035C188.524 244.246 217.632 259.495 249.244 262.539C258.357 263.415 267.543 263.265 276.614 262.018C277.246 261.932 277.182 260.934 276.545 261.022Z" fill="#27C467"/>
<path d="M301.445 274.668C301.315 274.728 301.183 274.774 301.053 274.825C300.557 277.522 300.07 280.222 299.568 282.917C299.568 282.935 299.566 282.951 299.561 282.968C299.497 283.295 299.438 283.624 299.378 283.95C299.013 285.897 298.64 287.844 298.257 289.787C297.583 293.164 296.589 296.347 294.688 299.054C293.963 300.084 293.108 301.047 292.088 301.925C289.461 304.184 286.469 305.665 283.296 306.51C282.681 306.676 282.058 306.817 281.43 306.932C278.222 307.534 274.877 307.534 271.59 307.064C270.184 306.866 268.789 306.579 267.421 306.219C267.238 306.172 267.055 306.122 266.872 306.073C262.448 304.841 258.244 302.932 254.12 300.93C253.044 300.407 250.211 299.698 250.25 298.124C250.268 297.522 250.779 297.034 251.134 296.603C251.854 295.736 252.601 294.89 253.362 294.058C259.236 287.643 266.251 282.16 273.969 278.141C276.955 276.587 280.123 275.262 283.424 274.58C284.032 274.454 284.642 274.35 285.262 274.273H285.266C285.72 274.214 286.178 274.167 286.636 274.136C291.083 273.836 295.86 275.598 300.169 274.11C300.275 273.531 300.385 272.951 300.491 272.373C300.61 271.741 301.571 272.011 301.454 272.64C301.383 273.015 301.315 273.392 301.245 273.768C301.67 273.845 301.921 274.456 301.443 274.668H301.445Z" fill="#564B33"/>
<path d="M308.084 328.428C306.407 327.134 304.792 326.28 303.598 324.437C302.425 322.631 301.718 320.574 301.055 318.539C297.624 308.025 294.3 297.478 290.926 286.946C291.003 286.944 291.08 286.942 291.155 286.94C291.797 286.929 291.799 285.931 291.155 285.942C290.948 285.946 290.739 285.953 290.53 285.964C290.323 285.794 289.996 285.834 289.82 286.013C287.317 286.227 284.7 286.971 282.981 288.843C280.427 291.624 279.965 295.586 280.753 298.827C282.657 306.643 286.694 314.541 291.669 321.013C292.834 322.53 294.172 323.856 295.505 325.223C297.199 326.96 298.116 329.031 299.566 330.927C301.412 333.342 304.741 334.613 307.709 333.717C310.54 332.863 310.089 329.973 308.086 328.428H308.084Z" fill="#564B33"/>
<path d="M285.123 300.303C283.913 302.528 282.668 304.738 281.419 306.943C281.214 307.305 281.007 307.669 280.802 308.031C279.991 309.46 279.181 310.886 278.379 312.316C276.25 316.106 272.758 322.413 270.087 325.854C267.772 328.832 264.392 330.874 261.104 332.618C259.031 333.712 254.831 335.26 253.54 332.245C252.249 329.223 255.673 327.024 257.854 325.812C259.544 324.87 261.437 323.982 262.49 322.269C263.519 320.596 265.315 316.183 265.709 314.298C266.137 312.243 266.555 310.184 267 308.126C267.071 307.798 267.139 307.469 267.212 307.137C268.397 301.754 269.79 296.427 272.004 291.363C271.839 291.394 271.672 291.423 271.506 291.46C270.903 291.593 270.647 290.666 271.251 290.531C271.658 290.441 272.07 290.372 272.482 290.315C272.54 290.196 272.593 290.068 272.648 289.948C272.877 289.465 273.518 289.759 273.527 290.204C276.523 289.986 279.531 290.606 282.201 292.079C283.607 292.851 285.473 294.019 286.097 295.575C286.745 297.202 285.892 298.888 285.121 300.299L285.123 300.303Z" fill="#564B33"/>
<path d="M297.624 246.308C296.496 247.297 295.707 248.678 294.831 249.879C293.555 251.625 292.079 253.012 290.184 254.069C289.624 254.382 290.126 255.243 290.686 254.93C290.922 254.8 291.151 254.661 291.378 254.519C291.801 256.345 295.639 255.537 296.842 255.354C298.021 255.173 298.616 255.067 299.061 253.95C299.713 252.312 300.403 250.252 300.606 248.497C300.846 246.416 299.561 244.608 297.622 246.31L297.624 246.308Z" fill="#564B33"/>
<path d="M316.177 262.753C314.009 258.654 307.696 261.265 305.44 257.553C304.876 256.621 304.72 255.5 304.129 254.568C303.673 253.855 303.08 253.244 302.402 252.738C302.364 252.712 302.329 252.685 302.289 252.659C301.741 252.175 301.066 251.853 300.344 251.637C299.458 251.308 298.519 251.114 297.581 251.041C296.691 250.97 295.825 251.023 294.987 251.171C290.321 251.14 286.628 251.606 282.948 255.475C282.347 256.111 280.855 257.771 280.666 258.071C279.932 259.228 279.401 260.005 278.16 260.643C277.277 261.098 276.321 261.694 275.316 261.813C274.168 261.95 273.016 261.424 271.87 261.38C271.555 261.367 271.244 261.374 270.936 261.396C270.742 261.451 270.559 261.502 270.394 261.544C266.968 262.404 263.967 264.343 260.556 265.221C257.019 266.133 253.296 266.12 249.667 266.082C241.979 265.998 234.404 265.17 226.818 263.963C224.057 263.524 221.052 263.177 218.489 264.559C216.432 265.667 215.083 267.768 214.508 269.998C212.981 275.934 221.834 282.951 224.923 287.715C228.283 292.895 232.487 297.507 238.009 300.394C243.718 303.383 245.046 303.648 251.333 304.751C258.5 306.016 265.745 307.08 273.038 307.074C276.479 307.069 279.727 306.725 282.402 304.363C284.81 302.237 286.769 299.39 288.358 296.615C290.369 293.105 291.808 289.302 292.647 285.366C294.066 285.174 295.501 284.657 296.693 284.245C299.41 283.306 301.926 281.77 302.999 278.971C303.955 276.49 303.885 273.614 303.404 270.918C305.612 270.722 307.818 270.492 309.999 270.172C312.092 269.87 314.243 269.188 315.562 267.429C316.563 266.095 316.983 264.285 316.177 262.753Z" fill="#564B33"/>
<path d="M246.727 284.788C246.401 281.854 243.94 279.742 241.748 278.06C239.071 276.007 236.138 274.307 233.027 273.005C230.083 271.771 226.432 270.987 224.808 267.939C224.703 267.742 224.531 267.676 224.363 267.696C224.247 267.458 223.982 267.312 223.709 267.513C215.021 273.923 209.147 283.817 207.843 294.571C207.501 297.383 207.393 300.355 208.261 303.09C208.651 304.312 209.281 305.352 209.967 306.425C210.315 306.97 210.694 307.524 210.881 308.149C211.375 309.811 208.546 312.308 207.464 312.868C205.069 314.109 204.859 316.667 204.075 319.003C203.057 322.034 201.488 324.685 199.662 327.281C198.379 329.102 198.774 329.729 200.472 331.746C201.799 333.32 204.183 333.09 205.756 332.055C207.92 330.629 207.6 330.013 208.9 327.852C210.465 325.254 213.637 320.535 215.647 318.246C217.837 315.745 239.366 297.006 243.592 292.015C245.304 289.993 247.04 287.583 246.727 284.786V284.788Z" fill="#564B33"/>
<path d="M247.366 333.571C243.695 335.604 240.732 330.993 238.927 328.567C237.266 326.335 235.589 324.114 233.946 321.872C232.674 320.132 232.055 318.605 232.427 316.435C232.899 313.7 232.637 311.627 232.553 308.806C232.535 308.183 232.024 306.996 231.242 305.519C231.09 305.232 230.929 304.941 230.757 304.634C227.884 299.491 222.565 291.891 222.508 291.798C222.175 291.246 226.619 281.028 227.955 279.695C229.166 278.481 230.748 277.64 232.405 277.216C236.076 276.284 239.956 277.401 242.298 280.441C244.68 283.529 245.185 287.648 245.257 291.429C245.361 296.749 241.884 311.83 241.082 317.064C240.842 318.638 242.904 321.106 245.848 326.103C247.256 328.492 251.169 331.467 247.366 333.569V333.571Z" fill="#564B33"/>
<path d="M231.031 259.29C232.355 260.937 232.569 263.193 231.765 265.175C230.63 267.97 227.556 268.336 226.012 270.683C223.872 273.927 225.362 280.627 221.79 282.942C221.772 283.075 221.706 283.205 221.565 283.298C218.009 285.598 214.114 285.395 210.69 283.79C210.388 283.653 210.088 283.501 209.793 283.335C207.208 281.914 204.95 279.709 203.401 277.236C199.95 271.744 197.864 264.323 199.3 257.875C199.957 254.911 201.519 251.92 204.075 250.176C205.516 249.191 206.944 248.937 208.651 249.028C210 249.094 210.758 248.935 211.681 247.9C212.15 247.377 212.584 246.851 213.126 246.399C217.703 242.582 225.763 243.337 230.319 246.801C234.168 249.721 235.497 256.37 231.033 259.288L231.031 259.29Z" fill="#564B33"/>
<path d="M279.463 258.952C277.696 259.431 276.017 260.082 274.384 260.91C274.089 261.06 274.082 261.36 274.219 261.577C274.212 261.665 276.609 265.795 277.947 267.658C278.227 268.049 278.861 267.93 278.874 267.407C278.945 264.736 279.346 262.133 280.073 259.564C280.177 259.195 279.824 258.851 279.46 258.95L279.463 258.952Z" fill="#27C467"/>
<path d="M302.624 257.462C301.947 257.374 301.626 257.866 301.595 258.663C301.571 259.35 301.751 260.211 302.569 260.347C303.342 260.478 303.629 259.687 303.642 259.061C303.657 258.372 303.41 257.564 302.622 257.462H302.624Z" fill="#151513"/>
<path d="M151.084 206.782C151.518 206.358 151.827 205.725 151.93 205.219C152.287 203.478 151.018 202.111 149.663 201.235C148.231 200.308 146.742 199.86 145.052 200.133C141.191 200.762 140.33 201.325 140.358 201.374C140.037 202.403 139.779 203.447 139.583 204.508C139.572 204.504 139.669 205.098 140.116 205.652C140.299 205.877 140.51 206.082 140.74 206.259C141.193 206.608 141.725 206.844 142.286 206.954C143.699 207.232 145.148 206.731 146.55 207.113C147.623 207.405 148.674 208.186 149.831 207.828C150.388 207.656 150.818 207.268 151.082 206.782H151.084Z" fill="#ED8778"/>
<path d="M218.6 204.5C218.6 204.5 234.257 193.658 234.2 181.1C234.2 172.499 227.202 165.5 218.6 165.5C209.999 165.5 203 172.499 203 181.09C202.944 193.658 218.007 204.079 218.6 204.5Z" fill="#27C467"/>
<path d="M218.6 186.95C222.908 186.95 226.4 183.457 226.4 179.15C226.4 174.842 222.908 171.35 218.6 171.35C214.292 171.35 210.8 174.842 210.8 179.15C210.8 183.457 214.292 186.95 218.6 186.95Z" fill="white"/>
</g>
<circle cx="36" cy="61.5" r="16" fill="#D9D9D9"/>
<path d="M60 45.5H256C264.284 45.5 271 52.2157 271 60.5V75.5C271 83.7843 264.284 90.5 256 90.5H75C66.7157 90.5 60 83.7843 60 75.5V45.5Z" fill="#F9F9F9"/>
<path d="M254 118.5C254 110.216 260.716 103.5 269 103.5H372V126.5C372 134.784 365.284 141.5 357 141.5H269C260.716 141.5 254 134.784 254 126.5V118.5Z" fill="#46C0FF"/>
<defs>
<radialGradient id="paint0_radial_3576_7208" cx="0" cy="0" r="1" gradientUnits="userSpaceOnUse" gradientTransform="translate(196.5 219) rotate(90) scale(107.5 145.5)">
<stop stop-color="white"/>
<stop offset="1" stop-color="white" stop-opacity="0"/>
</radialGradient>
<clipPath id="clip0_3576_7208">
<rect width="225.834" height="403" fill="white" transform="translate(84 0.5)"/>
</clipPath>
<clipPath id="clip1_3576_7208">
<rect width="359" height="203" fill="white" transform="translate(17 133.5)"/>
</clipPath>
</defs>
</svg>
