<svg width="115" height="38" viewBox="0 0 115 38" fill="none" xmlns="http://www.w3.org/2000/svg">
<rect x="3" y="3.40039" width="31.2" height="31.2" rx="7.0994" fill="white"/>
<g filter="url(#filter0_d_3366_12185)">
<rect x="3.33691" y="3.47754" width="30.8922" height="30.8922" rx="7.02933" fill="white" shape-rendering="crispEdges"/>
<path d="M30.1783 13.7286C28.2164 13.4583 26.7159 14.9901 26.3258 16.3079C25.1554 20.3927 30.7935 21.1699 32.1139 17.209C32.6541 15.5119 31.8026 13.9801 30.1783 13.7286Z" fill="#46C0FF"/>
<path d="M23.099 15.617C25.0646 15.617 26.6626 14.0101 26.6626 12.0427C26.4676 7.30086 19.7304 7.30086 19.5391 12.0427C19.5391 14.0138 21.1371 15.617 23.099 15.617Z" fill="#46C0FF"/>
<path d="M11.3399 16.6012C10.9535 15.2872 9.44556 13.7591 7.47617 14.0294C3.82998 14.6714 5.37548 20.0966 8.93914 20.1116C10.9573 20.0666 11.8913 18.4296 11.3399 16.605V16.6012Z" fill="#46C0FF"/>
<path d="M14.4865 15.617C16.4484 15.617 18.0464 14.0101 18.0464 12.0427C17.8551 7.30086 11.1179 7.30086 10.9229 12.0427C10.9229 14.0138 12.5209 15.617 14.4865 15.617Z" fill="#46C0FF"/>
<path d="M13.0418 20.7072L10.5097 23.8197C8.57035 26.2037 10.2621 29.7742 13.3344 29.7742H24.1041C27.1764 29.7742 28.8719 26.2037 26.9288 23.8197L24.3967 20.7072C21.467 17.1067 15.9715 17.1067 13.0418 20.7072Z" fill="#46C0FF"/>
</g>
<path d="M113.114 5.32031H110.758C110.26 5.32031 109.862 5.72253 109.862 6.21513V10.9016C109.862 11.3988 109.46 11.7965 108.967 11.7965H106.067C105.57 11.7965 105.172 11.3942 105.172 10.9016V8.06352C105.172 7.5664 104.769 7.1687 104.276 7.1687H93.1309C92.6334 7.1687 92.2354 7.57092 92.2354 8.06352V18.9731C92.2354 19.4702 92.6379 19.8679 93.1309 19.8679H104.276C104.774 19.8679 105.172 19.4657 105.172 18.9731V16.3926C105.172 15.8955 105.574 15.4978 106.067 15.4978H108.967C109.464 15.4978 109.862 15.9 109.862 16.3926V19.6871C109.862 20.1843 110.265 20.582 110.758 20.582H113.114C113.612 20.582 114.01 20.1797 114.01 19.6871V6.21513C114.01 5.71801 113.607 5.32031 113.114 5.32031ZM101.3 15.6469C101.3 16.144 100.897 16.5417 100.404 16.5417H97.0525C96.555 16.5417 96.1569 16.1395 96.1569 15.6469V11.3897C96.1569 10.8926 96.5595 10.4949 97.0525 10.4949H100.404C100.902 10.4949 101.3 10.8971 101.3 11.3897V15.6469Z" fill="white"/>
<path d="M71.3907 10.743H82.6941V13.4411H72.8698C72.3722 13.4411 71.9742 13.8433 71.9742 14.3359V16.3198C71.9742 16.817 72.3768 17.2147 72.8698 17.2147H82.6941V21.0244C82.6941 21.5216 83.0967 21.9193 83.5897 21.9193H85.8061C86.3036 21.9193 86.7017 21.517 86.7017 21.0244V7.9456C86.7017 7.44848 86.2991 7.05078 85.8061 7.05078H71.3907C70.8932 7.05078 70.4951 7.453 70.4951 7.9456V9.84822C70.4951 10.3453 70.8977 10.743 71.3907 10.743Z" fill="white"/>
<path d="M46.8663 16.5694C47.4633 17.1388 48.1735 17.5908 49.0012 17.9071C49.7973 18.2461 50.6793 18.3907 51.6473 18.3907C52.6152 18.3907 53.4656 18.2506 54.3205 17.9071C55.1165 17.5953 55.8267 17.1388 56.4554 16.5694C57.0796 16 57.5636 15.3492 57.9345 14.5809C58.2737 13.8443 58.4456 12.9901 58.4456 12.0818C58.4456 11.1734 58.2737 10.378 57.9345 9.58259C57.5636 8.84594 57.0796 8.16353 56.4554 7.5941C55.8402 7.03371 55.1437 6.61341 54.3657 6.27899L54.2797 6.24283C53.4384 5.94004 52.5745 5.77734 51.6518 5.77734C50.729 5.77734 49.8018 5.94908 49.0057 6.26091C48.1825 6.59986 47.4678 7.02919 46.8708 7.59862C45.8892 8.48892 45.2605 9.65942 44.9756 10.8887L44.9529 11.0062C44.7765 12.3168 44.9032 13.5596 45.4188 14.5854C45.7581 15.3537 46.2421 16.0045 46.8708 16.5739L46.8663 16.5694ZM49.4806 10.1204C50.0506 9.63682 50.7878 9.38374 51.6427 9.38374C52.4976 9.38374 53.2078 9.64134 53.832 10.1204C54.429 10.6311 54.7411 11.2864 54.7411 12.0818C54.7411 12.8772 54.429 13.5324 53.832 14.016C53.2078 14.5267 52.4931 14.7527 51.6427 14.7527C50.7924 14.7527 50.0506 14.5267 49.4806 14.016C48.8564 13.5324 48.5715 12.8817 48.5715 12.0818C48.5715 11.2818 48.8564 10.6311 49.4806 10.1204Z" fill="white"/>
<path d="M64.4782 5.32031H62.2075C61.71 5.32031 61.3119 5.72253 61.3119 6.21513V24.0121H57.5577C57.0602 24.0121 56.6621 24.4143 56.6621 24.9069V26.805C56.6621 27.3022 57.0647 27.6998 57.5577 27.6998H64.4827C64.9802 27.6998 65.3783 27.2976 65.3783 26.805V6.21513C65.3783 5.71801 64.9757 5.32031 64.4827 5.32031H64.4782Z" fill="white"/>
<path d="M60.2597 21.6666V19.764C60.2597 19.2668 59.8571 18.8691 59.3641 18.8691H44.6954C44.1978 18.8691 43.7998 19.2714 43.7998 19.764V21.6666C43.7998 22.1637 44.2024 22.5614 44.6954 22.5614H48.4451C48.9427 22.5614 49.3407 22.9636 49.3407 23.4562V28.4546C49.3407 28.9517 49.7433 29.3494 50.2363 29.3494H52.5929C53.0904 29.3494 53.4885 28.9472 53.4885 28.4546V23.4562C53.4885 22.9591 53.891 22.5614 54.384 22.5614H59.3595C59.8571 22.5614 60.2551 22.1592 60.2551 21.6666H60.2597Z" fill="white"/>
<path d="M88.4795 23.9258H69.0841C68.5894 23.9258 68.1885 24.3264 68.1885 24.8206V26.8091C68.1885 27.3033 68.5894 27.7039 69.0841 27.7039H88.4795C88.9741 27.7039 89.3751 27.3033 89.3751 26.8091V24.8206C89.3751 24.3264 88.9741 23.9258 88.4795 23.9258Z" fill="white"/>
<path d="M112.452 24.5314C112.112 23.867 111.665 23.2615 111.113 22.7327C110.529 22.2311 109.864 21.8424 109.118 21.5035L109.014 21.4628C108.231 21.1916 107.399 21.0244 106.562 21.0244C105.68 21.0244 104.857 21.1961 104.088 21.4809C103.292 21.8198 102.609 22.2175 102.039 22.7327C101.442 23.2705 100.985 23.8987 100.673 24.5811C100.334 25.3177 100.162 26.0589 100.162 26.8543C100.162 27.6497 100.334 28.4451 100.673 29.1546C100.985 29.837 101.442 30.4607 102.039 30.9714C102.609 31.4821 103.292 31.9069 104.088 32.2232C104.857 32.5079 105.68 32.6797 106.562 32.6797C107.444 32.6797 108.268 32.5079 109.064 32.2232C109.833 31.9114 110.516 31.4866 111.113 30.9714C111.683 30.4607 112.135 29.837 112.479 29.1546C112.791 28.4451 112.963 27.6768 112.963 26.8543C112.963 26.077 112.8 25.3539 112.501 24.6353L112.456 24.5314H112.452ZM108.381 28.5038C107.87 28.9603 107.245 29.1863 106.562 29.1863C105.825 29.1863 105.224 28.9603 104.744 28.5038C104.233 28.0474 104.007 27.5096 104.007 26.8543C104.007 26.199 104.233 25.6883 104.744 25.2364C105.228 24.7799 105.825 24.554 106.562 24.554C107.245 24.554 107.87 24.7799 108.381 25.2364C108.865 25.6928 109.118 26.2306 109.118 26.8543C109.118 27.478 108.86 28.0474 108.381 28.5038Z" fill="white"/>
<defs>
<filter id="filter0_d_3366_12185" x="0.446562" y="0.587187" width="36.6733" height="36.6733" filterUnits="userSpaceOnUse" color-interpolation-filters="sRGB">
<feFlood flood-opacity="0" result="BackgroundImageFix"/>
<feColorMatrix in="SourceAlpha" type="matrix" values="0 0 0 0 0 0 0 0 0 0 0 0 0 0 0 0 0 0 127 0" result="hardAlpha"/>
<feOffset/>
<feGaussianBlur stdDeviation="1.44518"/>
<feComposite in2="hardAlpha" operator="out"/>
<feColorMatrix type="matrix" values="0 0 0 0 0 0 0 0 0 0 0 0 0 0 0 0 0 0 0.1 0"/>
<feBlend mode="normal" in2="BackgroundImageFix" result="effect1_dropShadow_3366_12185"/>
<feBlend mode="normal" in="SourceGraphic" in2="effect1_dropShadow_3366_12185" result="shape"/>
</filter>
</defs>
</svg>
