<svg width="18" height="18" viewBox="0 0 18 18" fill="none" xmlns="http://www.w3.org/2000/svg">
<path d="M17.3213 8.22075C17.6649 7.88631 17.7846 7.39846 17.6373 6.94129C17.49 6.4872 17.1035 6.16196 16.6309 6.09139L12.4183 5.48081C12.2403 5.4532 12.0838 5.34274 12.004 5.18013L10.1201 1.36324C9.90843 0.933685 9.47888 0.666748 9.00023 0.666748C8.52159 0.666748 8.09204 0.933685 7.88033 1.36324L5.99643 5.18013C5.91665 5.34274 5.76017 5.45627 5.58222 5.48081L1.36953 6.09139C0.897018 6.15889 0.51042 6.48413 0.363144 6.94129C0.215869 7.39539 0.33553 7.88631 0.679173 8.22075L3.72593 11.1908C3.8548 11.3166 3.91616 11.5007 3.88548 11.6787L3.16751 15.8729C3.10308 16.2411 3.20126 16.6001 3.44059 16.8855C3.81184 17.3273 4.45924 17.4623 4.97777 17.1892L8.74557 15.2102C8.90205 15.1274 9.10149 15.1274 9.25797 15.2102L13.0258 17.1892C13.2099 17.2843 13.4032 17.3334 13.6057 17.3334C13.9738 17.3334 14.3236 17.1708 14.5629 16.8855C14.8023 16.6032 14.8974 16.2411 14.836 15.8729L14.1181 11.6787C14.0874 11.5007 14.1457 11.3166 14.2776 11.1908L17.3244 8.22075H17.3213Z" fill="#333439"/>
</svg>
