<svg width="20" height="20" viewBox="0 0 20 20" fill="none" xmlns="http://www.w3.org/2000/svg">
<path id="Vector" d="M17.3653 8.54853L15.4871 6.6637L17.6277 4.52408L18.6994 5.59526C18.9974 5.89388 19.4785 5.89388 19.7765 5.59526C20.0745 5.29665 20.0745 4.81448 19.7765 4.51586L15.4871 0.214716C15.1919 -0.0702006 14.7244 -0.0729402 14.4291 0.214716C14.1257 0.507852 14.1175 0.99002 14.41 1.29411L15.4817 2.37351L13.3411 4.51313L11.4602 2.62829C11.1622 2.33241 10.6811 2.33241 10.3831 2.62829C10.0878 2.93238 10.0878 3.41455 10.3831 3.71864L11.1513 4.50217L4.88262 10.784C4.5901 11.0772 4.37139 11.4169 4.22103 11.7758C4.20736 11.7949 4.19642 11.8169 4.18822 11.8415C3.88477 12.4579 3.86836 13.162 4.11168 13.7784C4.17729 14.0113 4.27844 14.2332 4.40146 14.4469L0.123022 18.7343C-0.0410074 18.8987 -0.0410074 19.1672 0.123022 19.3343L0.308921 19.5206C0.336259 19.5589 0.363602 19.5973 0.399141 19.6302C0.434681 19.6685 0.472956 19.6986 0.511229 19.7233L0.664323 19.8767C0.828353 20.0411 1.09627 20.0411 1.26303 19.8767L5.54693 15.5838C5.73283 15.6879 5.92967 15.7756 6.12924 15.8386C7.23644 16.3673 8.28897 16.0166 9.29228 15.014L15.4735 8.81701L16.2854 9.62519C16.4248 9.77313 16.6217 9.85257 16.824 9.84983C17.0263 9.84983 17.2204 9.77039 17.3625 9.62519C17.6578 9.32658 17.6578 8.84441 17.3625 8.5458L17.3653 8.54853Z" fill="#ED8778"/>
</svg>
