<svg width="103" height="73" viewBox="0 0 103 73" fill="none" xmlns="http://www.w3.org/2000/svg">
<path d="M73.0028 54.6688L69.7196 61.4442C56.7655 44.8495 30.1606 60.4023 30.1606 60.4023C31.5751 58.5244 33.0653 56.901 34.5403 55.5138C49.9659 40.7424 66.8362 50.3618 71.6217 53.6602C72.5061 54.269 73.0028 54.6718 73.0028 54.6718V54.6688Z" fill="#27C467"/>
<path d="M102.337 66.6509C78.7699 82.2794 65.5371 60.2935 65.5371 60.2935C65.5371 60.2935 65.525 60.2511 65.4553 60.1814C65.4452 60.1531 65.4361 60.1249 65.4281 60.0966C65.1858 58.8699 64.9768 57.4494 65.1343 56.0077C65.4281 52.0158 67.8935 47.9996 76.7709 48.1693C87.8471 48.3994 95.8159 57.0224 100.189 63.3253C101.034 64.5489 101.752 65.6726 102.337 66.6509Z" fill="#5D5F67"/>
<path d="M100.189 63.3254C100.105 63.3527 100.074 63.4072 99.9895 63.4314C79.8299 74.4744 68.5871 61.2931 65.1343 56.0048C65.4281 52.0129 67.8935 47.9967 76.7709 48.1663C87.8471 48.3965 95.8159 57.0195 100.189 63.3224V63.3254Z" fill="#7E828E"/>
<path d="M72.3093 3.12702L72.279 3.29057C70.383 12.595 63.3289 32.1216 37.869 36.2922L35.979 34.375C41.1431 32.3275 54.2395 26.7939 59.549 21.0029C66.1851 13.7641 72.4516 0.52832 72.4516 0.52832C72.4789 0.619184 72.4244 1.58234 72.3093 3.12702Z" fill="#27C467"/>
<path d="M42.0456 40.6231L42.0335 40.6655C39.2834 44.2485 34.3888 47.9739 28.1586 51.0784C17.8638 56.2183 5.30039 51.1117 0.163574 48.5554C1.12067 47.0471 2.22921 45.357 3.46495 43.7064C6.40893 39.8144 9.92838 36.0132 13.4933 34.6564C21.7861 31.5216 35.8941 31.4458 39.4711 33.4933C40.3434 33.9628 40.9946 34.5473 41.4762 35.2167C42.5817 36.6947 42.721 38.5574 42.0486 40.6261L42.0456 40.6231Z" fill="#5D5F67"/>
<path d="M41.4737 35.2137C38.9991 37.9518 35.613 40.7685 31.5635 43.3248C21.8623 49.4975 8.82032 45.7236 3.4624 43.7034C6.40638 39.8114 9.92583 36.0103 13.4907 34.6534C21.7835 31.5186 35.8916 31.4429 39.4686 33.4904C40.3409 33.9598 40.9921 34.5444 41.4737 35.2137Z" fill="#7E828E"/>
</svg>
