<svg width="12" height="14" viewBox="0 0 12 14" fill="none" xmlns="http://www.w3.org/2000/svg">
<g id="&#236;&#156;&#132;&#236;&#185;&#152;" clip-path="url(#clip0_711_1614)">
<g id="01 location">
<path id="Vector" d="M11.3012 3.94648C10.6019 1.59857 8.45379 0 6.00597 0C3.55816 0 1.41008 1.59857 0.7107 3.94648C0.460923 4.84567 0.460923 5.79483 0.660745 6.74398C1.01043 7.89295 2.00954 9.89117 4.60722 12.9884C4.70713 13.1383 4.857 13.2881 4.95691 13.388C5.10678 13.5879 5.3066 13.7377 5.50642 13.8876C5.80615 14.0375 6.15584 14.0375 6.45557 13.8876C6.65539 13.7377 6.85521 13.5879 7.00508 13.388C7.10499 13.2382 7.25486 13.0883 7.35477 12.9884C9.95245 9.94112 10.9516 7.89295 11.2513 6.74398C11.551 5.79483 11.551 4.84567 11.3012 3.94648ZM8.50374 5.49509C8.50374 6.89385 7.40472 7.99286 6.00597 7.99286C4.60722 7.99286 3.5082 6.89385 3.5082 5.49509C3.5082 4.09634 4.60722 2.99732 6.00597 2.99732C7.40472 2.99732 8.50374 4.09634 8.50374 5.49509Z" fill="#46C0FF"/>
</g>
</g>
<defs>
<clipPath id="clip0_711_1614">
<rect width="10.9661" height="14" fill="white" transform="translate(0.516602)"/>
</clipPath>
</defs>
</svg>
