<svg width="212" height="30" viewBox="0 0 212 30" fill="none" xmlns="http://www.w3.org/2000/svg">
<rect width="212" height="30" rx="15" fill="#27C467"/>
<path d="M17.6719 12.4531C17.6641 14.7969 19.2031 17.2188 21.3594 18.1406L20.5469 19.2969C18.8984 18.5703 17.5859 17.0234 16.9375 15.1562C16.2891 17.1562 14.9766 18.8594 13.3438 19.6562L12.4844 18.4844C14.5938 17.4922 16.1562 14.8672 16.1719 12.4531V10.9688H12.9688V9.73438H20.8594V10.9688H17.6719V12.4531ZM22.625 22.3281V8.32812H24.1094V22.3281H22.625ZM37.3683 14.7812V15.9688H33.1339V19.3906H38.8371V20.6094H26.0246V19.3906H31.6652V15.9688H27.6183V9.40625H37.2433V10.6094H29.1027V14.7812H37.3683ZM52.3304 14.75V15.8906H39.5179V14.75H52.3304ZM41.0335 17.9375V16.875H50.7523V19.9531H42.5335V21.1094H51.1898V22.1562H41.0491V18.9688H49.2835V17.9375H41.0335ZM41.1273 9.73438V8.6875H50.721V11.7188H42.6273V12.7812H50.9554V13.8281H41.1585V10.7344H49.2366V9.73438H41.1273ZM63.0045 8.5625C66.0748 8.57031 67.9967 9.55469 68.0045 11.2344C67.9967 12.8828 66.0748 13.8594 63.0045 13.8594C59.942 13.8594 57.9967 12.8828 58.0045 11.2344C57.9967 9.55469 59.942 8.57031 63.0045 8.5625ZM56.6295 16.0156V14.8125H69.3952V16.0156H63.7389V17.4844H67.8327V22.1562H58.1608V17.4844H62.2702V16.0156H56.6295ZM59.5358 11.2344C59.528 12.1719 60.8483 12.7031 63.0045 12.7031C65.1452 12.7031 66.4811 12.1719 66.4733 11.2344C66.4811 10.2656 65.1452 9.71875 63.0045 9.71875C60.8483 9.71875 59.528 10.2656 59.5358 11.2344ZM59.6295 20.9531H66.3952V18.6719H59.6295V20.9531ZM75.326 10.8438C75.326 12.6406 76.6619 14.3672 78.826 15.0469L78.0604 16.2031C76.451 15.6719 75.2322 14.5703 74.5994 13.1641C73.9666 14.6797 72.7244 15.8828 71.0604 16.4688L70.2947 15.3281C72.4744 14.5703 73.8182 12.7422 73.826 10.8438V10.4531H70.6854V9.25H78.4041V10.4531H75.326V10.8438ZM72.2635 18.6875V17.4844H81.7479V22.3281H80.2635V18.6875H72.2635ZM80.2635 16.7812V8.32812H81.7479V16.7812H80.2635ZM87.4443 9.375C88.7255 9.38281 89.7724 10.1094 90.3896 11.375H93.8505V8.32812H95.3193V22.3594H93.8505V16.9844H90.4912C89.8896 18.3906 88.7959 19.2109 87.4443 19.2031C85.3584 19.2109 83.8818 17.3047 83.8974 14.2812C83.8818 11.2891 85.3584 9.38281 87.4443 9.375ZM85.3037 14.2812C85.3115 16.5078 86.1787 17.875 87.4443 17.875C88.7099 17.875 89.5771 16.5078 89.5849 14.2812C89.5771 12.0859 88.7099 10.7109 87.4443 10.7031C86.1787 10.7109 85.3115 12.0859 85.3037 14.2812ZM90.8115 12.5938C90.9209 13.1094 90.9912 13.6719 90.9912 14.2812C90.9912 14.8125 90.9443 15.3047 90.8505 15.7656H93.8505V12.5938H90.8115ZM102.203 11.8906C102.203 14.4531 103.641 17.0078 105.781 17.9688L104.875 19.1562C103.289 18.3594 102.086 16.7812 101.469 14.8672C100.852 16.8828 99.6329 18.5859 98.0157 19.4219L97.0782 18.2188C99.2501 17.1797 100.695 14.4844 100.703 11.8906V9.5H102.203V11.8906ZM104.234 14.1875V12.9844H107.359V8.32812H108.828V22.3594H107.359V14.1875H104.234ZM119.19 10.8906C119.198 12.7891 120.456 14.6172 122.565 15.3594L121.752 16.5156C120.229 15.9297 119.081 14.7734 118.479 13.3281C117.877 14.9375 116.682 16.2109 115.034 16.8438L114.237 15.6719C116.416 14.8984 117.713 12.9531 117.721 10.8438V9.1875H119.19V10.8906ZM116.784 22.0312V17.6094H118.284V20.8281H126.237V22.0312H116.784ZM121.487 12.75V11.5312H124.44V8.34375H125.924V18.7812H124.44V12.75H121.487ZM133.808 9.32812V10.5312H129.761V12.0938H133.652V13.2344H129.761V14.9375C131.636 14.9219 132.863 14.8516 134.308 14.5781L134.449 15.7969C132.808 16.1016 131.472 16.1641 129.246 16.1562H128.339V9.32812H133.808ZM130.183 18.7188V17.5156H139.699V22.3281H138.23V18.7188H130.183ZM135.183 16.7344V8.59375H136.574V11.9062H138.293V8.34375H139.699V16.8438H138.293V13.1094H136.574V16.7344H135.183ZM148.192 10.6406V11.8438H141.239V10.6406H143.989V8.73438H145.458V10.6406H148.192ZM141.692 15.9062C141.684 14.0234 142.966 12.6875 144.723 12.6875C146.497 12.6875 147.762 14.0234 147.77 15.9062C147.762 17.8203 146.497 19.1641 144.723 19.1562C142.966 19.1641 141.684 17.8203 141.692 15.9062ZM143.005 15.9062C142.997 17.0938 143.716 17.8906 144.723 17.8906C145.731 17.8906 146.458 17.0938 146.458 15.9062C146.458 14.7422 145.731 13.9297 144.723 13.9219C143.716 13.9297 142.997 14.7422 143.005 15.9062ZM148.833 21.6719V8.64062H150.239V14.1562H151.848V8.32812H153.255V22.3281H151.848V15.375H150.239V21.6719H148.833ZM167.592 19.3594V20.5938H154.779V19.3594H160.42V16.4844H156.248V9.28125H157.732V11.6875H164.607V9.28125H166.076V16.4844H161.889V19.3594H167.592ZM157.732 15.2812H164.607V12.8906H157.732V15.2812ZM172.554 12.1562C172.554 14.3906 173.491 16.7734 175.366 17.9219L174.538 19.0625C173.226 18.2734 172.343 16.875 171.858 15.2578C171.351 17.0312 170.382 18.5469 169.023 19.375L168.101 18.2656C170.077 17.0781 171.124 14.6016 171.116 12.2188V9.60938H172.554V12.1562ZM173.851 14.4844V13.25H176.023V8.59375H177.429V21.6406H176.023V14.4844H173.851ZM178.913 22.3281V8.32812H180.335V22.3281H178.913ZM194.61 19.3438V20.5781H181.797V19.3438H184.86V15.6875C183.711 15.0547 183.008 14.0547 183.016 12.7969C183.008 10.5938 185.172 9.14844 188.172 9.14062C191.18 9.14844 193.344 10.5938 193.344 12.7969C193.344 14.0312 192.672 15.0234 191.547 15.6562V19.3438H194.61ZM184.453 12.7969C184.453 14.2969 185.977 15.2734 188.172 15.2812C190.352 15.2734 191.899 14.2969 191.906 12.7969C191.899 11.2891 190.352 10.3281 188.172 10.3281C185.977 10.3281 184.453 11.2891 184.453 12.7969ZM186.328 19.3438H190.047V16.2344C189.477 16.3672 188.844 16.4375 188.172 16.4375C187.516 16.4375 186.891 16.3672 186.328 16.2344V19.3438ZM196.9 21.1094C196.29 21.1016 195.783 20.6094 195.79 20C195.783 19.3906 196.29 18.8906 196.9 18.8906C197.501 18.8906 198.001 19.3906 198.009 20C198.001 20.6094 197.501 21.1016 196.9 21.1094Z" fill="white"/>
</svg>
