<svg width="393" height="400" viewBox="0 0 393 400" fill="none" xmlns="http://www.w3.org/2000/svg">
<path d="M285.504 187.846C283.648 178.61 275.121 172.78 266.741 170.651C262.982 169.697 259.02 169.214 255.125 169.356C253.726 161.789 249.685 154.867 241.771 153.347C235.867 152.213 230.281 153.875 225.665 157.751C221.749 161.038 219.25 165.909 217.717 170.783C217.519 171.418 217.339 172.059 217.172 172.702C215.694 173.292 214.312 174.147 213.139 175.23C210.898 174.42 208.557 173.965 206.133 174.112C199.908 174.493 194.348 178.265 191.731 184.149C189.132 189.993 188.957 196.306 191.559 202.19C193.98 207.662 200.325 210.058 205.518 211.75C209.975 213.2 269.908 212.439 273.477 211.141C277.673 209.613 281.336 207.195 283.765 203.276C286.2 199.349 286.395 192.309 285.501 187.851L285.504 187.846Z" fill="#27C467"/>
<path d="M222.032 210.19C222.73 206.954 223.744 203.802 225.042 200.778C224.93 200.663 224.834 200.515 224.756 200.327C222.1 193.878 221.896 186.607 224.469 180.085C225.155 178.348 227.928 179.109 227.235 180.868C225.17 186.106 224.912 191.974 226.677 197.32C229.68 191.535 233.759 186.342 238.691 182.141C240.101 180.94 242.142 183.015 240.719 184.227C232.229 191.457 226.455 201.561 224.451 212.707C224.143 214.423 221.729 213.889 221.636 212.316C221.615 211.983 221.594 211.648 221.576 211.316C221.544 210.799 221.737 210.423 222.034 210.187L222.032 210.19Z" fill="#5D5F67"/>
<path d="M168.207 240.832C165.595 239.125 162.764 237.798 159.813 236.843C162.133 226.571 161.369 215.529 157.084 205.674C152.105 194.227 139.882 185.761 127.506 186.678C112.543 187.785 102.935 200.216 98.7436 214.094C97.1848 219.255 96.4784 224.501 96.309 229.774C96.0483 230.082 95.7929 230.396 95.5296 230.702C94.9535 231.364 94.3592 232.005 93.7388 232.624C93.2357 232.316 92.7378 231.997 92.2504 231.664C89.8131 229.999 87.5479 228.077 85.0715 226.471C76.1306 220.681 64.8905 219.904 56.2545 226.766C47.5065 233.718 44.9207 244.368 45.9894 255.03C39.1416 256.544 32.7761 259.6 28.011 265.251C16.3878 279.036 19.1691 298.597 30.099 311.821C38.9148 322.488 52.8372 327.391 65.9123 329.303C79.6548 331.311 93.7675 332.329 107.648 332.235C122.975 332.131 138.172 329.799 152.191 323.236C156.907 321.027 161.174 317.813 164.349 313.695C164.81 313.443 165.272 313.183 165.728 312.913C177.375 305.969 184.994 294.153 186.151 280.349C187.426 265.133 180.875 249.108 168.212 240.832H168.207ZM50.5694 292.877C50.426 292.718 50.2878 292.547 50.1497 292.375C50.108 292.316 50.0689 292.257 50.0298 292.198C50.0193 292.185 50.0115 292.169 50.0037 292.153C50.9942 293.161 51.1533 293.431 50.9812 293.308C50.8431 293.163 50.7023 293.024 50.5694 292.877ZM48.5127 289.26C48.5075 289.247 48.5049 289.233 48.4996 289.22C49.1331 290.102 49.3181 290.619 49.2843 290.753C49.0418 290.236 48.802 289.719 48.5127 289.26ZM48.1712 284.582C48.2676 284.478 48.3563 284.362 48.4553 284.261C48.5674 284.145 48.6899 284.033 48.8124 283.923C48.8307 283.912 48.8437 283.901 48.862 283.888C48.9063 283.858 48.9558 283.834 49.0001 283.808C48.6117 284.226 48.3302 284.494 48.1477 284.647C48.1529 284.625 48.1634 284.604 48.1686 284.582H48.1712ZM89.4247 247.7C89.2683 247.808 89.1197 247.912 89.0024 247.998C88.9816 248.006 88.9659 248.014 88.9451 248.019C88.8565 247.968 88.7704 247.918 88.6844 247.869C88.8799 247.789 89.1249 247.727 89.4247 247.7Z" fill="#27C467"/>
<path d="M147.125 254.646C142.657 270.352 128.795 282.517 113.022 284.566C113.851 271.591 115.728 258.686 118.639 246.014C119.471 242.395 114.051 240.853 113.22 244.478C108.752 263.932 106.69 283.836 107.011 303.736C98.2862 298.808 91.1699 291.557 86.3528 282.534C81.0508 272.599 78.5457 261.401 76.1554 250.431C75.3656 246.802 69.9437 248.338 70.7361 251.968C73.2959 263.723 76.0928 275.665 81.924 286.23C87.4945 296.323 95.9219 304.527 106.012 309.719C106.416 309.926 106.813 310.03 107.193 310.049C107.553 318.705 108.364 327.353 109.625 335.953C110.162 339.62 115.582 338.063 115.045 334.417C112.907 319.847 112.146 305.089 112.727 290.391C131.154 288.278 147.315 274.585 152.552 256.184C153.569 252.606 148.147 251.078 147.133 254.648L147.125 254.646Z" fill="#5D5F67"/>
<path d="M232.837 346.647C233.212 345.009 234.972 344.695 236.405 344.894C236.408 344.894 236.413 344.894 236.413 344.894C236.64 344.926 236.856 344.969 237.06 345.022C237.589 345.162 238.12 345.373 238.642 345.636C240.404 346.524 242.051 348.017 243.217 349.451C244.051 350.472 244.666 351.636 245.177 352.842C245.185 352.861 245.192 352.885 245.205 352.906C245.229 352.963 245.255 353.019 245.276 353.078C245.758 354.247 246.154 355.461 246.569 356.646C246.582 356.681 246.592 356.713 246.605 356.751C247.213 358.488 247.825 360.22 248.433 361.954C248.988 363.536 249.543 365.12 250.098 366.702C250.197 366.986 250.088 367.208 249.903 367.332C250.004 367.503 250.103 367.669 250.213 367.836C250.643 368.479 249.642 369.101 249.212 368.466C248.459 367.334 247.883 366.139 247.124 365.023C247.124 365.023 247.124 365.018 247.119 365.021C246.342 363.889 245.344 363.182 244.517 362.107C243.86 361.252 243.725 360.284 243.394 359.279C242.875 357.7 241.694 357.737 240.568 356.944C240.201 356.684 239.94 356.348 239.718 355.987C239.377 355.153 239.426 354.174 239.043 353.341C238.72 352.636 238.201 352.078 237.563 351.668C236.653 351.083 235.707 350.542 234.789 349.971C234.669 349.896 234.552 349.832 234.435 349.778C233.681 349.21 233.024 348.679 232.824 347.869C232.735 347.521 232.732 347.124 232.837 346.652V346.647Z" fill="#241F1A"/>
<path d="M244.442 360.841C244.734 361.16 245.088 361.404 245.487 361.578C246.337 361.956 247.387 362.029 248.44 361.954C249.757 361.863 251.078 361.536 252.027 361.286C252.184 361.243 252.329 361.203 252.462 361.171C254.905 360.517 257.175 360.04 258.161 357.608C258.794 356.037 258.799 354.611 258.531 353.064V353.059C258.427 352.467 258.283 351.855 258.116 351.209C258.095 351.118 258.069 351.022 258.046 350.925C257.553 349.038 257.493 347.175 257.465 346.829C257.342 345.352 257.553 342.419 258.341 339.54C258.419 339.266 256.419 338.513 254.908 338.047C254.066 337.784 253.38 337.607 253.276 337.647C253.213 337.639 253.145 337.642 253.078 337.655C250.904 338.068 248.289 338.69 247.411 340.797C246.504 342.971 248.949 345.483 250.255 347.708C250.403 347.957 250.536 348.204 250.651 348.448C251.125 349.475 249.861 351.075 249.076 352.04C248.936 352.22 248.808 352.375 248.714 352.501C248.615 352.627 248.55 352.729 248.526 352.791C248.459 352.984 248.393 353.212 248.32 353.458C247.992 354.584 247.564 356.128 246.582 356.649C246.535 356.673 246.488 356.694 246.438 356.716C245.615 357.048 244.533 357.686 244.056 358.536C243.68 359.198 243.67 359.986 244.452 360.844L244.442 360.841Z" fill="#241F1A"/>
<path d="M218.27 334.183C219.279 335.993 220.833 336.564 222.321 338.022C222.532 338.229 222.775 338.087 223.014 337.896C223.322 337.66 223.63 337.349 223.864 337.583C224.224 338.266 224.677 338.926 225.149 339.577C225.454 339.993 225.764 340.406 226.064 340.818C226.312 341.164 226.557 341.505 226.781 341.85C227.029 342.231 227.328 342.636 227.67 343.051C228.817 344.456 230.443 346.03 232.297 347.467C232.466 347.601 232.641 347.735 232.816 347.863C235.367 349.769 238.287 351.383 240.943 351.978C241.003 351.994 241.058 352.005 241.115 352.016C241.597 352.12 242.072 352.182 242.528 352.212C243.672 352.622 244.426 352.82 245.169 352.842C245.184 352.844 245.203 352.844 245.218 352.844C246.042 352.86 246.86 352.67 248.19 352.311C248.318 352.276 248.453 352.238 248.591 352.195C248.742 352.147 248.894 352.096 249.053 352.037C250.551 351.52 252.256 350.646 253.489 349.718C253.713 349.378 253.88 349.089 254.013 348.828C254.6 347.657 254.394 347.105 254.774 345.362C255.121 343.765 255.066 342.078 255.017 340.456C254.991 339.65 254.946 338.845 254.886 338.044C254.811 337.033 254.704 336.022 254.576 335.015C254.555 334.862 254.409 334.805 254.3 334.835C254.081 334.425 253.839 333.886 253.573 333.28C252.222 330.195 250.275 325.337 248.185 326.688C245.502 328.425 243.61 329.374 241.866 328.908C241.577 328.833 241.287 328.712 241.003 328.557C240.964 328.532 240.92 328.511 240.881 328.49C239.384 327.664 237.919 326.94 236.509 326.34C236.504 326.34 236.501 326.337 236.496 326.337C232.922 324.798 229.732 324.026 227.43 324.249C224.847 324.501 222.582 325.82 220.945 327.876C219.498 329.685 218.666 331.891 218.26 334.178L218.27 334.183Z" fill="#241F1A"/>
<path d="M208.927 353.027C210.984 352.899 211.182 352.424 212.399 350.199C213.233 348.676 213.895 347.256 215.392 346.379C216.632 345.65 219.002 345.272 220.29 344.626C222.383 343.572 224.781 343.334 226.09 343.781C226.113 343.789 226.136 343.797 226.157 343.806C226.384 343.889 226.926 343.602 227.68 343.055C228.219 342.658 228.871 342.13 229.596 341.505C231.3 340.031 233.401 338.037 235.39 336.077C236.681 334.809 237.921 333.552 238.982 332.461C240.893 330.49 242.215 329.051 242.134 329.018C242.05 328.989 241.964 328.954 241.881 328.919C241.555 328.788 241.224 328.651 240.898 328.504C239.462 327.866 238.007 327.102 236.527 326.354C236.522 326.354 236.519 326.351 236.514 326.351C232.351 324.249 227.982 322.311 223.225 323.866C223.107 323.904 223.001 323.946 222.886 323.984C220.772 324.601 219.054 324.965 217.441 326.507C216.476 327.423 215.418 329.469 214.889 330.721C214.341 332.016 214.492 333.292 214.417 334.664C214.367 335.677 214.067 336.425 213.351 337.112C212.962 337.49 212.67 337.779 212.571 338.323C212.454 338.956 212.717 339.262 212.204 339.918C212.029 340.146 211.753 340.337 211.547 340.538C211.109 340.975 210.718 341.465 210.379 341.985C209.897 342.725 209.503 343.521 209.17 344.347C209.039 344.674 208.914 345.012 208.799 345.347C207.937 347.13 207.092 348.272 206.698 350.1C206.388 351.553 207.267 353.14 208.93 353.041L208.927 353.027Z" fill="#241F1A"/>
<path d="M238.642 345.639V345.688C238.634 346.278 238.936 347.269 239.442 348.543C239.45 348.561 239.458 348.583 239.465 348.602C239.747 349.304 240.086 350.09 240.472 350.942C240.477 350.95 240.479 350.958 240.487 350.969C240.633 351.299 240.787 351.634 240.951 351.982C241.097 352.301 241.248 352.623 241.405 352.958C241.952 354.129 242.549 355.381 243.162 356.676C243.454 357.29 243.746 357.912 244.043 358.537C244.525 359.555 245.007 360.579 245.482 361.579C246.05 362.778 246.605 363.941 247.119 365.021C247.124 365.021 247.124 365.024 247.124 365.024C248.373 367.624 249.407 369.729 249.937 370.635C250.742 372.024 251.98 374.31 254.227 373.407C256.38 372.544 255.442 369.817 254.829 368.244C253.917 365.909 252.96 363.601 252.022 361.287C250.948 358.641 249.9 355.993 248.972 353.298C248.881 353.036 248.792 352.768 248.701 352.505C248.667 352.406 248.636 352.301 248.602 352.202C248.459 351.754 248.313 351.307 248.172 350.859C247.804 349.661 247.465 348.452 247.163 347.232C247.15 347.176 247.134 347.133 247.111 347.087C247.137 346.993 247.142 346.889 247.111 346.779C246.801 345.505 244.783 344.953 243.253 345.042C242.14 343.889 240.808 342.889 239.4 342.557C237.161 342.018 238.634 343.851 238.642 345.639Z" fill="#241F1A"/>
<path d="M222.737 336.854C222.82 337.198 222.917 337.546 223.023 337.897C223.229 338.584 223.477 339.283 223.772 339.97C224.358 341.374 225.127 342.723 226.091 343.782C226.107 343.8 226.123 343.816 226.144 343.838C226.363 344.079 226.597 344.304 226.84 344.508C227.812 345.334 228.372 345.899 229.058 346.964C229.355 347.425 229.691 347.856 230.103 348.216C230.833 348.854 231.552 349.114 232.358 349.304C232.699 349.387 233.057 349.457 233.437 349.534C233.528 349.553 233.617 349.575 233.703 349.601C234.073 349.593 234.425 349.741 234.795 349.971C235.713 350.545 236.659 351.087 237.569 351.674C237.897 351.886 238.189 352.132 238.442 352.416C239.339 352.725 240.288 352.869 241.226 352.947C241.288 352.955 241.351 352.958 241.414 352.96C241.609 352.982 241.802 352.993 242 353.001H242.003C243.032 353.07 244.08 353.095 245.11 353.084C245.167 353.086 245.227 353.084 245.282 353.081C245.55 353.081 245.816 353.076 246.082 353.068C247 353.038 247.612 353.481 248.314 353.462C248.501 353.459 248.697 353.422 248.905 353.33C248.929 353.317 248.955 353.309 248.978 353.301C250.209 352.816 251.358 353.615 252.625 353.081C253.18 352.851 253.321 351.32 253.655 350.872C254.34 352.146 255.32 353.963 256.459 353.939C257.549 353.92 258.597 353.963 258.534 353.065V353.06C258.467 352.1 258.399 351.341 258.357 350.711C258.271 349.615 258.253 348.918 258.404 348.264C258.594 347.443 259.058 346.814 259.29 346.015C259.389 345.68 259.462 345.336 259.512 344.985C259.561 344.65 259.587 344.304 259.601 343.959C259.601 343.9 259.601 343.843 259.601 343.787C259.627 342.731 259.517 341.642 259.434 340.602C259.509 340.524 259.572 340.428 259.606 340.321C259.945 339.342 258.805 337.68 258.381 336.787C257.797 335.549 257.103 334.549 255.863 333.959C255.148 333.619 254.387 333.407 253.597 333.286C250.803 332.855 247.654 333.522 244.995 333.554C243.976 333.565 242.949 333.439 241.919 333.225C240.947 333.026 239.97 332.753 238.992 332.455C237.668 332.053 236.344 331.595 235.017 331.206C231.758 330.244 228.5 329.673 225.315 331.203C224.337 331.673 223.613 332.335 223.156 333.136C222.549 334.184 222.4 335.466 222.747 336.857L222.737 336.854Z" fill="#241F1A"/>
<path d="M243.53 344.191C244.82 348.636 250.56 347.746 254.014 347.282C255.888 347.03 258.325 347.387 259.939 346.271C261.524 345.178 261.599 342.743 261.618 340.98C261.62 340.661 261.425 340.478 261.193 340.427C261.112 340.229 260.937 340.076 260.666 340.081C255.518 340.181 251.115 337.004 246.069 336.583C244.83 336.481 243.655 336.685 243.196 338.015C242.537 339.926 242.977 342.288 243.527 344.188L243.53 344.191Z" fill="#389167"/>
<path d="M208.321 305.385C208.522 304.916 208.871 304.64 209.22 304.345C209.166 304.259 209.093 304.149 208.996 303.993C208.535 303.232 208.368 302.246 209.153 301.64C210.753 300.401 213.581 302.095 214.835 303.095C216.816 304.68 217.262 305.559 218.143 307.958C218.743 309.591 220.312 312.765 221.258 314.221C222.022 315.223 222.845 316.172 223.706 317.07C226.659 320.15 233.507 324.724 236.077 326.163C236.739 326.533 234.964 326.26 234.226 326.094C234.01 326.045 233.799 325.986 233.59 325.925C233.549 326.011 233.489 326.088 233.4 326.155C229.646 328.93 224.352 327.598 220.408 325.93C217.374 324.649 212.906 321.212 214.726 317.384C212.977 315.944 211.008 314.186 210.662 311.797C210.599 311.374 210.62 310.958 210.696 310.572C209.648 309.596 208.477 308.511 208.188 307.103C208.071 306.535 208.092 305.924 208.324 305.387L208.321 305.385Z" fill="#241F1A"/>
<path d="M223.139 333.136C223.577 334.954 224.784 337.369 225.605 339.492C225.78 339.956 225.941 340.398 226.069 340.822C226.387 341.862 226.525 342.763 226.309 343.393C226.259 343.535 226.207 343.669 226.152 343.805C226.15 343.814 226.144 343.827 226.137 343.838C225.774 344.741 225.378 345.687 226.293 348.113C227.427 351.137 227.589 353.909 228.905 356.89C229.52 358.274 230.534 360.493 232.359 360.287C234.332 360.067 234.027 357.973 233.816 356.424C233.485 354.014 232.601 351.69 232.348 349.301C232.288 348.695 232.265 348.084 232.302 347.47C232.325 347.052 232.38 346.628 232.468 346.202C232.565 345.722 232.703 345.245 232.857 344.768C233.657 342.286 235.065 339.814 235.317 337.248C235.357 336.854 235.377 336.463 235.383 336.074C235.414 334.423 235.198 332.82 234.997 331.206C234.853 329.986 234.721 328.764 234.718 327.515C234.715 326.895 233.967 326.785 233.667 327.163C231.882 325.614 229.872 324.3 227.469 325.26C225.024 326.236 223.725 328.898 223.04 331.335C222.907 331.806 222.962 332.426 223.134 333.133L223.139 333.136Z" fill="#241F1A"/>
<path d="M208.924 353.027C210.981 352.898 211.179 352.424 212.397 350.199C213.231 348.676 213.893 347.255 215.389 346.379C216.63 345.65 218.999 345.272 220.287 344.625C222.38 343.572 224.737 343.411 226.045 343.859C226.061 343.878 226.077 343.894 226.097 343.915C226.095 343.928 226.087 343.939 226.082 343.953C225.944 344.293 225.813 344.633 225.753 345.06C225.652 345.741 225.738 346.644 226.295 348.116C227.429 351.14 227.591 353.912 228.907 356.893C229.523 358.276 230.537 360.496 232.361 360.289C234.335 360.069 234.03 357.976 233.818 356.426C233.555 354.501 232.937 352.63 232.572 350.74C232.481 350.276 232.408 349.81 232.356 349.341C232.356 349.33 232.351 349.317 232.351 349.306C232.692 349.389 233.049 349.459 233.43 349.537C233.513 349.555 233.592 349.582 233.67 349.604H233.696C234.066 349.596 234.418 349.743 234.788 349.974C235.706 350.547 236.652 351.089 237.562 351.676C237.89 351.888 238.182 352.134 238.435 352.418C238.682 352.692 238.886 353 239.045 353.349C239.425 354.185 239.376 355.166 239.723 356.005C239.728 356.013 239.73 356.021 239.736 356.029C239.952 356.378 240.213 356.697 240.567 356.952C241.693 357.748 242.874 357.71 243.393 359.287C243.724 360.292 243.859 361.26 244.516 362.115C245.343 363.19 246.341 363.897 247.118 365.029C247.123 365.029 247.123 365.031 247.123 365.031C248.372 367.632 249.406 369.736 249.936 370.642C250.741 372.031 251.979 374.318 254.226 373.414C256.379 372.551 255.441 369.825 254.828 368.251C253.916 365.916 252.959 363.608 252.021 361.294C252.177 361.252 252.323 361.211 252.456 361.179C252.699 361.115 252.936 361.053 253.168 360.989C255.331 360.41 257.266 359.809 258.154 357.614C258.788 356.043 258.793 354.617 258.525 353.07V353.064C258.457 352.105 258.389 351.346 258.347 350.716C258.293 350.901 258.217 351.067 258.11 351.215C257.972 351.413 257.779 351.571 257.516 351.662C256.637 351.976 255.571 351.295 254.943 350.689C254.354 350.118 253.997 348.885 253.502 348.421C252.214 347.215 250.741 347.44 249.727 348.805C248.708 350.169 247.655 350.075 246.101 350.234C244.602 350.386 243.815 351.995 240.81 350.684C240.041 350.349 239.652 349.097 239.535 348.786C239.511 348.727 239.491 348.665 239.464 348.606C239.457 348.588 239.449 348.566 239.441 348.547C239.225 348.006 238.99 347.51 238.732 347.07C238.422 346.529 238.07 346.065 237.666 345.692C237.661 345.69 237.653 345.684 237.65 345.682C237.285 345.344 236.879 345.081 236.415 344.904C236.415 344.904 236.409 344.904 236.407 344.904C236.386 344.896 236.363 344.888 236.344 344.88C235.627 344.62 234.791 344.556 233.782 344.709C233.438 344.762 233.135 344.784 232.862 344.773C231.259 344.738 230.719 343.722 229.921 342.135C229.817 341.929 229.71 341.717 229.593 341.51C229.249 340.88 228.834 340.283 228.232 339.897C227.419 339.374 226.514 339.344 225.607 339.497C225.48 339.519 225.347 339.543 225.214 339.572C225.195 339.578 225.175 339.58 225.156 339.586C224.692 339.69 224.231 339.851 223.767 339.977C223.342 340.09 222.915 340.173 222.474 340.165C221.379 340.141 220.404 339.548 219.456 339.055C217.422 337.996 214.904 337.232 213.317 339.435C212.634 340.379 212.412 341.559 211.867 342.577C211.213 343.794 210.241 344.105 209.17 344.341C209.039 344.668 208.914 345.006 208.799 345.341C207.937 347.124 207.092 348.266 206.698 350.094C206.388 351.547 207.267 353.134 208.93 353.035L208.924 353.027Z" fill="#AB5629"/>
<path d="M243.387 335.991C241.723 339.911 242.756 343.323 246.403 344.5C249.872 345.615 251.718 344.366 255.138 344.425C255.797 344.438 256.662 344.189 257.431 344.06C257.729 344.012 258.013 343.983 258.266 343.988C258.753 344.007 259.196 343.996 259.59 343.956C259.999 343.921 260.359 343.846 260.672 343.739H260.674C262.225 343.224 262.702 341.905 262.783 339.562C262.838 338.026 262.17 336.42 261.761 335.814C261.683 335.656 261.6 335.503 261.508 335.353C261.508 335.351 261.511 335.348 261.511 335.345C261.513 335.34 261.519 335.332 261.519 335.329C261.735 334.943 261.868 334.544 261.925 334.136C261.933 334.08 261.938 334.018 261.946 333.962V333.957C262.092 332.447 261.255 330.909 260.022 329.852C260.067 329.678 260.106 329.501 260.135 329.327C260.382 328.064 260.393 326.786 260.181 325.464C260.002 324.376 259.72 322.199 258.224 322.226C257.173 322.244 255.419 324.563 254.963 327.26C253.967 327.048 251.96 327.067 250.925 327.174C250.839 326.89 249.531 321.912 247.774 322.212C246.293 322.47 245.939 324.33 245.743 325.418C245.589 326.292 245.657 327.389 245.701 328.233C244.604 328.74 243.791 329.212 243.045 330.15C242.211 331.193 242.36 332.573 242.341 333.509C242.333 333.807 242.427 334.131 242.558 334.445C242.615 334.592 242.683 334.739 242.756 334.884C242.956 335.27 243.183 335.619 243.319 335.857C243.347 335.9 243.363 335.94 243.384 335.978C243.384 335.983 243.389 335.981 243.389 335.986L243.387 335.991Z" fill="#AB5629"/>
<path d="M186.652 359.968C186.146 357.434 182.588 354.976 179.716 352.306C176.061 348.91 173.006 344.612 172.516 339.146C172.341 337.197 172.581 334.602 172.691 332.192C171.523 332.514 170.345 332.785 169.146 332.981C164.847 333.68 160.53 333.428 156.232 333.131C155.466 339.642 153.018 346.127 153.701 352.722C153.881 354.448 154.168 355.874 155.385 357.105C156.615 358.349 162.3 359.394 163.33 359.56C164.743 359.785 165.551 360.911 166.56 361.871C167.92 363.163 170.85 365.627 172.542 366.337C179.916 369.436 184.533 366.514 185.609 365.305C186.728 364.048 186.965 361.52 186.655 359.962L186.652 359.968Z" fill="#333439"/>
<path d="M195.026 131.502C194.826 130.666 194.62 129.832 194.609 128.966C194.596 127.98 194.813 127.015 194.998 126.052C195.506 123.379 195.722 120.945 194.13 118.693C192.539 116.444 190.282 115.922 187.782 115.05C184.933 114.056 180.486 113.764 177.843 115.117C176.553 115.779 175.38 116.691 174.491 117.865C173.43 119.267 172.783 120.994 172.051 122.589C171.944 122.822 172.283 123.028 172.39 122.792C172.491 122.573 172.59 122.353 172.692 122.133C172.968 122.65 173.912 122.69 174.446 122.666C175.197 122.634 175.935 122.422 176.688 122.463C177.645 122.514 178.531 122.875 179.373 123.328C180.812 124.101 182.595 125.023 182.957 126.805C183.278 128.384 182.751 129.982 182.616 131.553C182.368 134.421 180.971 134.161 182.663 136.456C183.479 137.563 182.311 141.499 183.599 141.769C185.009 142.067 189.307 142.483 190.762 142.265C193.321 141.882 195.31 138.405 195.31 136.1C195.31 134.454 195.407 133.094 195.026 131.499V131.502Z" fill="#333439"/>
<path d="M202.944 255.954C202.42 244.888 197.254 205.955 195.333 196.846C188.767 204.569 181.911 208.295 175.123 215.825C168.033 223.696 165.186 233.703 164.305 243.882C163.341 255.015 164.019 266.218 163.088 277.368C162.64 282.74 161.975 288.099 161.104 293.428C160.2 298.977 158.399 304.623 158.255 310.25C158.107 316.027 161.18 320.429 165.338 324.329C169.141 327.9 173.215 331.243 177.258 334.572C178.259 333.138 179.494 331.106 180.868 328.667C181.262 327.975 181.663 327.249 182.073 326.498C189.087 313.676 198.878 292.669 201.401 285.423C204.735 275.845 203.419 265.948 202.944 255.959V255.954Z" fill="#D8DDE4"/>
<path d="M183.335 208.937C179.448 208.111 175.484 207.567 171.579 207.06C164.4 206.13 157.135 206.109 149.912 205.701C148.004 212.663 144.198 209.505 143.236 217.628C141.917 228.756 144.026 246.457 146.779 263.78C147.788 270.125 149.456 287.99 149.503 305.176C149.529 315.175 147.967 323.941 148.124 332.705C148.345 345.05 149.946 353.719 150.029 355.746C150.042 356.078 150.29 356.346 150.621 356.354C155.277 356.438 159.888 355.598 164.218 353.824C166.17 353.022 168.023 352.036 169.822 350.923C171.316 349.998 173.177 348.854 174.939 348.854C176.662 349.661 178.265 350.76 179.678 352.132C180.079 352.521 180.629 352.213 180.687 351.703C181.059 348.267 180.327 295.785 179.094 282.167C178.249 272.833 177.452 263.474 177.535 254.097C177.621 244.326 179.133 234.787 180.887 225.182C181.87 219.797 182.824 214.379 183.338 208.937H183.335Z" fill="#D8DDE4"/>
<path d="M202.309 171.73C200.56 175.738 198.665 179.678 197.184 183.801C195.083 189.651 193.634 195.72 192.083 201.741C191.288 204.827 190.441 207.883 189.846 211.016C189.244 214.185 188.678 221.697 188.566 222.418C184.255 222.836 179.32 223.434 174.988 223.544C173.059 223.592 171.125 223.608 169.199 223.597C168.166 223.589 167.139 223.576 166.107 223.552C165.395 223.536 163.652 223.83 163.021 223.45C162.744 223.289 162.559 222.916 162.426 222.442C160.891 222.943 159.262 223.198 157.573 223.171C156.478 223.15 155.021 223.139 154.226 222.219C153.433 221.3 153.371 219.632 153.136 218.504C152.294 214.504 151.622 210.467 151.106 206.411C150.011 197.843 149.591 189.133 150.042 180.501C150.735 167.344 154.541 153.222 165.296 145.231C165.458 144.745 165.612 144.255 165.753 143.762C165.982 143.708 166.209 143.66 166.438 143.617C174.694 141.928 183.241 143.03 191.293 145.786C193.67 146.601 196.008 147.558 198.281 148.633C198.467 149.697 198.631 150.761 198.808 151.801C199.379 155.133 199.918 158.468 200.515 161.798C201.11 165.1 201.743 168.414 202.306 171.733L202.309 171.73Z" fill="#333439"/>
<path d="M166.443 143.614C166.876 144.651 167.437 145.584 167.979 146.257C171.128 150.131 176.059 152.377 180.942 152.471C185.272 152.557 190.248 150.924 191.251 146.043C191.272 145.954 191.288 145.868 191.298 145.783C183.244 143.027 174.699 141.925 166.443 143.614Z" fill="#ED8778"/>
<path d="M186.071 134.221C183.366 133.401 180.652 132.567 178.022 131.519C177.876 131.46 177.732 131.399 177.586 131.337C177.459 131.884 177.331 132.431 177.203 132.975C176.76 134.878 176.309 136.782 175.861 138.682C175.441 140.473 175.022 142.261 174.604 144.049C174.5 144.489 174.344 144.942 174.289 145.389C174.253 145.542 174.216 145.69 174.185 145.837C174.083 146.754 174.375 147.293 175.053 147.454C175.728 147.883 176.687 148.097 177.433 148.365C179.476 149.092 181.556 149.689 183.665 150.164C184.148 147.36 184.666 144.564 185.224 141.773C185.714 139.318 186.228 136.865 186.754 134.417C186.527 134.35 186.301 134.286 186.074 134.216L186.071 134.221Z" fill="#ED8778"/>
<path d="M176.31 125.68C176.372 125.983 176.456 126.28 176.552 126.58C176.917 127.712 177.527 128.738 178.267 129.69C178.57 130.087 178.478 131.848 178.486 132.306C178.523 134.296 179.696 136.719 180.824 138.411C181.763 139.813 183.29 140.834 184.943 141.231C186.708 141.662 188.613 141.384 190.096 140.107C191.515 138.882 192.224 137.097 192.695 135.322C192.995 134.191 193.178 133.089 193.159 131.918C193.136 130.585 193.368 129.835 193.772 128.564C194.199 127.234 194.465 125.42 194.306 123.843C194.306 123.76 194.301 123.672 194.296 123.591C194.265 123.079 194.181 122.573 194.025 122.071C193.621 120.766 192.714 119.683 191.668 118.822C187.763 115.611 180.676 114.951 177.504 119.476C176.231 121.289 175.859 123.543 176.307 125.685L176.31 125.68Z" fill="#ED8778"/>
<path d="M174.099 149.858C173.421 148.113 172.671 146.389 171.844 144.687C169.847 148.882 166.959 153.018 163.333 156.018C163.015 156.281 162.692 156.535 162.361 156.782C161.853 157.157 161.329 157.514 160.794 157.846C158.315 159.372 155.709 160.726 153.35 162.447C152.808 162.843 152.278 163.261 151.767 163.701C150.98 164.382 150.245 165.119 149.547 165.891C147.333 167.393 145.259 169.087 143.538 171.159C140.014 175.395 139.102 180.66 138.546 186.045C137.535 195.892 137.066 205.891 136.873 215.847C136.87 215.968 136.87 216.094 136.865 216.215C136.855 216.788 136.844 217.365 136.836 217.944C136.789 220.785 136.766 223.624 136.753 226.452C136.745 229.921 136.784 233.39 136.891 236.862C136.943 238.462 137.006 240.065 137.089 241.663C137.133 242.566 137.037 243.743 137.577 244.537C138.002 245.161 138.734 245.395 139.396 245.647C140.885 246.218 142.407 246.703 143.94 247.14C146.825 247.957 149.763 248.558 152.729 248.941C158.402 249.681 164.66 249.987 170.189 248.22C172.04 247.633 174.566 246.861 175.173 244.735C175.916 242.124 175.46 238.738 175.452 236.039C175.439 231.873 175.329 227.704 175.22 223.533C175.144 220.67 175.066 217.81 175.019 214.947C175.465 211.432 175.905 207.923 176.346 204.408C177.235 197.355 178.335 190.292 178.854 183.198C179.68 171.944 178.267 160.546 174.099 149.855V149.858Z" fill="#46C0FF"/>
<path d="M174.096 149.858C173.462 147.416 172.42 145.105 170.884 142.977C170.876 142.963 170.863 142.947 170.856 142.937C164.584 143.293 158.797 143.99 154.027 146.676C153.571 146.928 153.122 147.202 152.684 147.502C151.618 148.215 150.609 149.049 149.666 150.019C144.575 155.249 130.168 180.108 128.755 187.855C127.342 195.616 128.653 202.734 132.673 209.663C133.96 211.883 135.366 214.057 136.864 216.212C139.883 220.555 143.277 224.839 146.793 229.316C146.877 229.219 147.015 229.08 147.2 228.911C148.48 227.729 151.991 224.919 154.652 222.579C156.48 220.971 157.908 219.587 157.934 219.11C158.041 217.253 149.231 198.042 152.03 191.986C153.234 189.383 154.848 186.973 156.688 184.719C157.528 183.687 158.414 182.689 159.326 181.727C161.138 179.805 163.054 177.995 164.931 176.274C167.699 173.741 170.433 171.162 172.216 167.768C173.731 164.881 174.586 161.643 174.807 158.375C175.005 155.423 174.807 152.56 174.098 149.853L174.096 149.858Z" fill="#46C0FF"/>
<path d="M207.406 162.096C207.359 159.19 206.788 156.262 205.42 153.67C201.65 146.531 191.231 144.756 185.557 143.826C191.521 155.364 195.642 165.232 194.151 178.29C193.974 179.839 193.731 181.582 193.455 183.418C188.779 202.393 186.61 221.997 187.126 241.572C187.16 242.899 186.743 245.483 187.556 246.649C188.374 247.821 190.165 247.231 191.273 247.027C193.755 246.572 196.21 245.947 198.608 245.143C200.016 244.671 203.715 243.754 204.669 242.516C205.675 241.21 205.855 239.476 205.944 237.867C206.103 235.001 204.327 218.984 204.497 213.625C204.69 207.548 204.885 201.471 205.078 195.393C206.199 184.756 207.482 167.068 207.403 162.096H207.406Z" fill="#46C0FF"/>
<path d="M191.551 118.262C189.648 116.699 186.619 115.992 184.028 115.943C183.781 115.887 183.533 115.841 183.288 115.807C183.051 115.745 182.819 115.697 182.61 115.673C181.925 115.595 179.579 115.496 178.896 115.64C177.691 115.809 176.065 116.627 174.623 118.061C172.728 119.643 171.704 121.782 170.124 123.975C168.49 126.243 163.54 127.803 164.585 131.446C165.072 133.146 166.884 133.58 167.4 135.304C167.791 136.615 167.937 137.724 169.118 138.59C169.791 139.084 170.575 139.258 171.386 139.309C171.873 139.467 172.431 139.518 173.109 139.435C173.805 139.349 174.334 139.373 174.978 139.419C175.306 139.625 175.611 139.88 175.942 140.113C176.803 140.722 177.863 141.129 178.919 140.925C181.289 140.47 181.424 137.974 180.447 136.143C179.787 134.907 178.922 133.864 178.648 132.441C178.58 132.095 178.552 131.746 178.546 131.401C178.559 131.304 178.578 131.208 178.599 131.114C178.601 131.095 178.606 131.076 178.609 131.057C178.627 130.972 178.648 130.888 178.672 130.803C178.679 130.773 178.687 130.744 178.698 130.714C178.718 130.639 178.745 130.564 178.768 130.489C178.781 130.452 178.794 130.414 178.81 130.374C178.836 130.307 178.862 130.242 178.888 130.175C178.909 130.13 178.93 130.084 178.95 130.041C178.977 129.985 179.005 129.926 179.034 129.87C179.063 129.819 179.091 129.768 179.122 129.717C179.151 129.669 179.177 129.621 179.209 129.575C179.248 129.513 179.292 129.454 179.334 129.395C179.36 129.36 179.383 129.323 179.412 129.288C179.485 129.194 179.56 129.103 179.644 129.017C179.899 128.749 180.191 128.532 180.488 128.32C181.857 127.873 183.233 127.484 184.221 126.178C184.995 125.157 185.36 123.921 185.965 122.806C186.752 121.353 190.811 119.694 191.543 119.967C192.2 120.211 193.321 120.629 193.793 121.058C193.319 120.09 192.388 118.948 191.554 118.262H191.551Z" fill="#333439"/>
<path d="M243.761 328.366C233.336 316.652 221.812 306.073 210.476 295.315C198.863 284.297 187.625 272.877 176.524 261.318C173.375 258.039 170.236 254.75 167.098 251.461C164.095 248.314 160.896 245.247 159.129 241.151C158.822 240.438 157.802 241.054 158.11 241.765C159.512 245.014 161.793 247.614 164.181 250.137C166.928 253.037 169.694 255.919 172.457 258.803C178.116 264.715 183.794 270.607 189.536 276.432C200.802 287.858 212.525 298.755 224.077 309.864C230.566 316.105 236.928 322.485 242.929 329.227C243.443 329.806 244.277 328.943 243.763 328.369L243.761 328.366Z" fill="#7E828E"/>
<path d="M220.524 240.47C203.388 241.065 186.29 238.564 169.996 233.076C169.271 232.832 168.961 234.004 169.683 234.248C186.069 239.765 203.294 242.285 220.524 241.684C221.282 241.657 221.285 240.443 220.524 240.47Z" fill="#7E828E"/>
<path d="M230.269 243.228C230.306 242.437 230.308 241.641 230.269 240.837C230.23 240.06 229.049 240.054 229.088 240.837C229.104 241.164 229.109 241.491 229.112 241.816C229.041 241.909 229 242.033 229.01 242.188C229.031 242.526 229.055 242.861 229.086 243.196C228.836 248.383 227.037 253.305 225.666 258.297C224.918 261.02 222.342 268.21 226.304 269.701C230.858 271.416 232.274 264.127 232.456 261.13C232.824 255.072 230.809 249.214 230.272 243.226L230.269 243.228ZM230.83 264.219C230.548 265.417 230.168 266.763 229.326 267.685C227.73 269.435 225.546 268.449 225.421 266.202C225.186 262.055 227.136 257.482 228.273 253.573C228.83 251.657 229.341 249.729 229.711 247.78C230.228 250.753 230.866 253.707 231.156 256.721C231.398 259.216 231.406 261.768 230.827 264.219H230.83Z" fill="#7E828E"/>
<path d="M173.488 234.415C173.42 233.249 173.397 232.061 173.243 230.903C173.009 229.131 172.279 227.764 170.595 227.104C169.982 226.866 169.281 226.764 168.546 226.705C167.892 226.536 167.211 226.432 166.565 226.311C165.238 226.062 164.109 225.531 163.072 224.828C162.767 224.627 162.475 224.41 162.186 224.18C161.693 224.552 161.198 224.912 160.726 225.279C160.246 225.651 159.759 226.011 159.277 226.375C159.25 226.386 159.23 226.397 159.209 226.413C158.622 226.847 157.921 227.364 157.189 227.911C156.936 228.096 156.683 228.279 156.433 228.461C156.605 228.713 156.798 229.059 156.996 229.474C157.189 229.874 157.392 230.337 157.598 230.833C157.65 231.962 157.77 236.777 157.986 237.787C158.586 240.573 159.495 242.827 161.844 244.559C162.9 245.336 164.24 245.366 164.91 244.076C165.032 243.84 165.116 243.586 165.183 243.328C165.806 243.747 166.575 243.862 167.349 243.497C168.184 243.103 168.541 242.393 168.668 241.591C168.744 241.562 168.822 241.535 168.9 241.511C169.596 241.849 170.397 241.755 171.051 240.929C171.572 240.272 171.71 239.406 171.664 238.498C172.511 238.72 173.069 237.94 173.371 237.106C173.371 237.098 173.368 237.088 173.366 237.079C173.658 236.251 173.535 235.257 173.486 234.42L173.488 234.415Z" fill="#ED8778"/>
<path d="M154.232 226.721C154.232 226.721 154.235 226.708 154.24 226.699C154.161 226.675 154.153 226.699 154.232 226.721Z" fill="#ED8778"/>
<path d="M221.213 217.279C220.055 219.713 218.721 222.062 217.287 224.311C217.031 224.71 216.766 225.104 216.497 225.496C217.462 226.742 218.413 228 219.132 229.351C219.44 229.93 219.633 230.522 219.753 231.125C219.443 232.812 218.374 234.283 218.246 236.173C218.105 238.246 218.436 240.645 219.161 242.583C219.492 243.468 220.123 244.146 220.918 243.985C221.304 245.827 223.259 246.54 224.638 245.379C225.548 246.213 226.984 245.575 227.792 244.62C228.556 245.234 229.523 244.602 230.117 243.789C230.644 244.036 231.256 243.947 231.733 243.449C232.883 242.243 232.158 239.508 231.916 238.05C230.787 231.286 221.619 217.84 221.21 217.285L221.213 217.279Z" fill="#ED8778"/>
<path d="M227.487 226.798C224.602 228.272 218.14 231.591 214.558 233.586C213.68 234.073 212.587 233.736 212.113 232.832C205.526 220.246 201.968 215.327 197.033 205.143C194.294 199.492 197.68 190.688 196.103 184.557C194.497 178.311 198.347 173.314 198.738 166.886C199.113 160.736 195.957 153.149 197.278 147.145C201.24 148.855 203.195 150.238 206.021 153.254C210.935 158.498 212.384 179.705 218.679 197.878C220.616 203.47 226.494 219.412 228.366 224.484C228.694 225.374 228.314 226.374 227.482 226.798H227.487Z" fill="#46C0FF"/>
<path d="M252.78 113.328C252.459 113.253 252.217 113.43 252.105 113.668C251.961 113.693 251.823 113.773 251.722 113.928C249.654 117.065 247.6 120.218 245.455 123.298C243.612 125.946 240.711 127.56 239.165 130.469C236.707 135.098 241.816 140.969 246.612 139.468C249.23 138.648 251.946 136.374 253.737 134.292C255.566 132.16 256.416 129.766 256.247 126.933C256.127 124.909 256.171 123.121 256.909 121.204C257.425 119.866 258.395 118.523 258.504 117.044C258.731 113.953 254.886 113.813 252.783 113.323L252.78 113.328Z" fill="#ED8778"/>
<path d="M311.097 38.5484C310.974 35.5004 310.484 31.9752 308.626 29.4928C306.655 26.863 303.233 26.0346 300.151 26.5064C297.62 26.8951 295.355 28.1417 293.28 29.659C290.906 31.1656 288.7 32.9322 287.154 35.3636C284.543 39.4786 284.079 44.6739 282.603 49.258C279.937 57.5523 268.994 73.4116 268.517 74.2695C268.115 74.9906 267.487 75.7841 267.325 76.6178C267.088 77.8295 268.162 77.8483 269.03 77.9234C270.962 78.0896 272.987 78.4595 274.927 78.3818C276.561 78.3174 278.013 77.2478 279.376 76.4221C282.765 74.3633 285.997 72.0498 289.196 69.6961C292 67.6319 297.719 64.7742 300.183 62.2731C301.265 61.1767 302.255 59.9676 303.05 58.6353C303.981 57.0751 302.683 56.1234 303.48 54.5016C304.963 51.483 307.218 50.2177 309.03 47.4592C310.735 44.8696 311.217 41.6179 311.094 38.5511L311.097 38.5484Z" fill="#333439"/>
<path d="M277.285 263.153C274.804 264.866 272.322 266.579 269.841 268.292C267.38 269.992 264.197 272.74 261.374 273.767C258.689 274.74 256.158 274.895 253.458 274.024C250.507 273.07 248.805 272.238 249.628 269.434C250.413 266.767 259.13 256.626 261.189 254.283C262.948 252.28 264.883 250.347 266.408 248.141C268.185 245.568 268.386 240.804 268.704 237.767C269.066 234.327 269.416 230.885 269.752 227.443C270.198 222.902 270.612 218.355 271.011 213.809C273.336 213.307 275.664 212.806 277.989 212.305L280.061 211.857C280.724 211.715 281.936 211.12 282.327 211.999C282.439 212.248 282.319 212.919 282.316 213.197C282.314 213.597 282.308 213.996 282.306 214.396C282.298 215.262 282.288 216.128 282.277 216.993C282.238 220.125 282.188 223.256 282.126 226.389C282.061 229.561 281.975 232.732 281.897 235.904C281.829 238.662 281.818 241.509 282.712 244.15C283.494 246.466 284.232 248.08 285.027 250.388C285.989 253.176 285.981 256.076 283.987 258.132C282.045 260.135 279.556 261.585 277.288 263.153H277.285Z" fill="#5D5F67"/>
<path d="M299.454 59.214C299.376 59.0076 299.298 58.8011 299.22 58.5947C299.212 58.5947 299.202 58.5974 299.194 58.5974C299.045 58.6135 298.842 58.6564 298.594 58.7073C297.452 58.9513 295.972 59.466 295.01 59.7019C288.637 61.2701 283.11 64.4147 278.916 69.4652C274.023 75.3548 271.399 83.0218 268.797 90.1231C266.229 97.1199 264.241 104.28 260.649 110.853C260.51 111.103 260.37 111.357 260.226 111.612C256.944 117.499 253.024 123.008 249.886 128.983C249.018 130.64 248.207 132.329 247.498 134.058C246.797 135.768 245.579 138.39 247.584 139.698C249.064 140.658 251.189 140.929 252.873 141.358C252.998 141.387 253.126 141.422 253.251 141.454C253.686 141.562 254.119 141.671 254.554 141.771C255.889 142.095 257.229 142.398 258.571 142.679C258.66 142.698 258.746 142.714 258.837 142.733C262.796 143.548 266.79 144.189 270.807 144.639C271.81 144.749 272.809 144.853 273.81 144.942C274.766 145.028 276.046 145.352 276.899 144.875C277.811 144.36 278.512 142.905 279.112 142.047C279.662 141.261 280.209 140.476 280.754 139.685C289.072 127.638 297.648 115.084 301.342 100.734C301.454 100.289 301.563 99.8462 301.67 99.4012C304.78 86.1261 304.232 71.9798 299.465 59.2113L299.454 59.214Z" fill="#27C467"/>
<path d="M362.156 213.401C362.044 216.473 361.932 219.545 361.82 222.617C361.707 225.663 361.999 229.928 361.144 232.879C360.331 235.686 359.101 238.254 356.692 239.616C353.981 241.15 351.901 241.125 350.181 238.79C348.544 236.568 346.346 224.668 345.713 221.577C345.171 218.937 344.79 216.189 343.951 213.626C342.97 210.634 339.342 207.667 337.142 205.613C334.65 203.289 332.148 200.976 329.64 198.67C326.329 195.63 322.998 192.612 319.656 189.604C320.629 187.374 321.603 185.146 322.576 182.915L323.444 180.929C323.72 180.294 323.965 178.937 324.888 179.128C325.149 179.181 325.607 179.674 325.826 179.841C326.139 180.079 326.452 180.318 326.762 180.556C327.437 181.074 328.115 181.591 328.79 182.109C331.23 183.982 333.665 185.864 336.089 187.76C338.547 189.679 340.989 191.617 343.437 193.545C345.567 195.223 347.801 196.904 350.4 197.716C352.683 198.426 354.383 198.764 356.666 199.458C359.424 200.297 361.702 202.01 362.145 204.876C362.578 207.67 362.257 210.594 362.153 213.401H362.156Z" fill="#5D5F67"/>
<path d="M351.318 185.799C351.12 184.325 351.028 182.564 350.382 181.212C349.806 180.017 348.583 179.207 347.601 178.392C343.435 174.958 338.936 171.977 334.184 169.476C333.775 169.259 333.363 169.047 332.954 168.838C332.946 168.833 332.935 168.83 332.927 168.825C330.918 147.539 324.675 126.868 317.535 106.84C316.688 104.478 315.298 101.977 313.401 100.267C312.163 99.1518 311.167 98.6102 309.608 98.4145C309.598 98.3663 309.59 98.318 309.574 98.2725C309.319 97.479 308.531 97.4066 307.789 97.3074C304.885 96.9294 301.942 96.7552 298.999 96.7578C296.58 96.7578 290.814 97.5862 290.558 97.6479C288.942 99.3314 287.845 101.168 286.562 103.068C282.433 109.18 279.522 116.244 277.567 123.268C274.376 134.747 272.322 146.502 270.223 158.177C265.988 181.808 261.898 216.22 259.257 240.02C259.103 241.428 258.952 242.835 258.798 244.242C258.673 245.441 258.355 246.819 258.592 248.009C258.996 250.022 261.452 250.33 263.157 250.719C267.492 251.711 272.046 251.81 276.498 251.092C280.934 250.376 285.275 248.845 289.2 246.575C291.213 245.414 293.115 244.049 294.865 242.516C296.611 240.977 298.146 239.353 298.566 237.023C298.79 235.766 298.769 234.476 298.811 233.206C298.858 231.656 300.412 196.82 300.704 190.751C300.727 190.257 300.753 189.764 300.779 189.268C300.852 187.807 300.928 186.341 301.006 184.88C301.006 184.783 301.014 184.692 301.019 184.596C305.161 197.477 311.417 209.634 319.49 220.389C321.051 222.467 322.678 224.493 324.37 226.461C325.217 227.445 326.08 228.413 326.958 229.364C327.722 230.193 328.504 231.286 329.474 231.865C331.376 232.997 333.733 230.705 335.161 229.605C337.142 228.085 338.967 226.359 340.63 224.477C347.653 216.515 351.365 206.047 351.779 195.367C351.902 192.171 351.737 188.965 351.315 185.794L351.318 185.799Z" fill="#D8DDE4"/>
<path d="M323.12 57.1263C321.759 55.9522 319.862 55.5554 317.92 55.4294C316.546 55.3436 315.144 55.3919 313.895 55.3973C312.743 55.3999 304.68 56.9253 298.836 58.3434C298.445 58.4372 298.07 58.5337 297.702 58.6249C297.395 58.6999 297.097 58.7804 296.811 58.8581C296.237 59.0109 295.705 59.1557 295.234 59.2978C294.801 59.4291 294.42 59.5524 294.084 59.6677C293.873 59.7401 293.68 59.8125 293.511 59.8822C291.662 60.6355 289.814 61.4531 288.699 63.1741C287.596 64.8791 286.85 66.8682 285.985 68.6992C285.067 70.6347 284.129 72.5702 283.232 74.5191C282.304 76.5243 281.395 78.7601 281.734 81.0119C281.898 82.0922 282.346 83.0654 282.917 83.9822C283.368 84.7006 283.889 85.3869 284.403 86.0517C285.323 87.2554 286.423 88.4912 286.553 90.0595C286.72 92.0781 286.238 94.2736 286.045 96.2842L285.469 102.305C289.965 100.581 295.106 100.71 300.001 101.388C301.776 101.632 303.52 101.951 305.189 102.273C306.88 102.603 308.572 102.938 310.274 103.217C311.171 103.364 312.07 103.49 312.975 103.597C313.329 103.637 314.547 103.981 314.833 103.702C314.977 103.565 314.982 102.713 315.011 102.512C315.454 99.5467 316.984 81.2317 319.137 75.4225C321.053 70.2379 328.534 61.8069 323.125 57.1317L323.12 57.1263Z" fill="#333439"/>
<path d="M314.502 55.4055C313.412 55.4109 305.785 56.9174 300.256 58.3195C299.886 58.4133 299.529 58.5071 299.185 58.5983C298.896 58.6733 298.612 58.7538 298.34 58.8288C298.161 58.9307 297.97 59.0165 297.777 59.0862C296.907 59.869 295.984 60.5177 294.967 60.9976C294.292 62.3621 293.883 63.8579 293.948 65.3297C294.105 68.7959 298.213 69.0881 300.713 68.4742C303.079 67.8952 305.199 66.5682 307.234 65.2466C309.19 63.9759 311.178 62.7401 313.076 61.3755C314.872 60.0915 316.629 58.5902 317.75 56.6226C317.964 56.2526 318.149 55.8505 318.305 55.435C317.004 55.3519 315.68 55.4001 314.499 55.4055H314.502Z" fill="#ED8778"/>
<path d="M311.076 56.5362C311.06 56.1635 310.961 55.7775 310.904 55.4076C310.672 53.901 310.443 52.3917 310.211 50.8798C309.963 49.274 309.715 47.6709 309.47 46.0651C309.254 44.6551 309.04 43.245 308.821 41.8349C308.532 39.9637 308.37 37.9532 307.992 36.0311C307.792 35.0016 307.526 33.9937 307.148 33.0527C305.615 34.125 304.077 35.2 302.542 36.275C302.182 36.5243 301.752 36.7575 301.377 37.0337C300.834 37.4358 300.402 37.921 300.48 38.6528C300.571 39.5134 300.949 40.1889 300.816 41.0789C300.808 41.1406 300.777 41.1862 300.735 41.2183C301.278 45.0733 301.804 48.9335 302.265 52.7992C302.547 55.1475 302.797 57.4932 303.014 59.8469C304.789 59.6003 306.548 59.2464 308.287 58.7853C308.92 58.6138 309.726 58.5012 310.315 58.1929C310.886 58.1071 311.162 57.6809 311.139 56.9142C311.123 56.7908 311.102 56.6649 311.081 56.5362H311.076Z" fill="#ED8778"/>
<path d="M305.653 30.4178C301.769 26.5816 294.965 28.5278 291.712 32.3828C290.841 33.4149 290.231 34.4094 290.065 35.7605C289.999 36.2806 290.005 36.7899 290.065 37.2939C290.075 37.377 290.085 37.4601 290.098 37.5432C290.218 39.1115 290.794 40.8352 291.441 42.0549C292.056 43.2211 292.413 43.91 292.622 45.2156C292.807 46.3656 293.177 47.4057 293.664 48.4539C294.433 50.0999 295.437 51.7137 297.032 52.6493C298.7 53.6224 300.609 53.5447 302.259 52.7994C303.804 52.1078 305.118 50.8317 305.791 49.2903C306.596 47.4325 306.573 44.9046 306.263 42.9557C306.192 42.508 306.111 42.0549 306.023 41.6073C306.294 41.1837 306.547 40.7494 306.773 40.3071C307.331 39.2401 307.748 38.1249 307.907 36.9561C307.952 36.6452 307.978 36.3396 307.988 36.034C308.056 33.8599 307.211 31.9565 305.655 30.4204L305.653 30.4178Z" fill="#ED8778"/>
<path d="M344.057 125.196C343.95 124.791 343.843 124.389 343.734 123.982C341.807 116.709 339.563 109.055 338.413 105.5C332.23 86.3678 331.349 64.9191 327.64 58.0215C326.068 55.0994 320.456 54.0459 317.724 54.5204C315.613 54.885 313.345 55.3219 311.236 55.7053C309.271 63.9057 308.744 70.873 309.312 78.4006C310.48 93.8042 315.779 108.913 319.194 123.944C320.052 127.716 320.951 131.477 321.879 135.235C322.327 137.048 322.781 138.86 323.242 140.669C323.498 141.666 323.751 142.664 324.009 143.661C324.295 144.768 324.481 146.009 325.86 146.05C327.726 146.103 329.678 145.714 331.508 145.374C333.252 145.047 334.978 144.629 336.69 144.152C340.189 143.178 343.614 141.956 347.028 140.728C347.644 139.943 346.072 132.933 344.054 125.199L344.057 125.196Z" fill="#27C467"/>
<path d="M363.924 138.621C362.524 135.769 360.804 132.828 357.874 131.426C355.231 130.161 352.21 130.7 349.892 132.431C344.387 136.544 343.735 144.5 343.329 150.891C343.279 151.666 344.452 151.685 344.502 150.912C344.854 145.374 345.294 138.97 349.175 134.689C351.261 132.388 354.41 131.147 357.327 132.512C360.066 133.793 361.604 136.562 362.905 139.211C363.244 139.903 364.266 139.313 363.927 138.621H363.924Z" fill="#5D5F67"/>
<path d="M299.19 58.5974C299.041 58.6135 298.838 58.6564 298.59 58.7073C296.893 59.0505 293.234 60.037 292.238 60.2782C285.864 61.8465 283.107 64.4147 278.912 69.4652C274.02 75.3548 271.395 83.0218 268.793 90.1231C266.226 97.1199 264.237 104.28 260.645 110.853C260.507 111.103 260.366 111.357 260.222 111.612C258.095 115.36 255.231 119.373 253.025 122.968C251.706 125.118 251.057 126.745 249.882 128.983C249.014 130.64 248.203 132.329 247.494 134.058C246.793 135.768 245.575 138.39 247.58 139.698C249.061 140.658 251.185 140.929 252.869 141.358C252.994 141.387 253.122 141.422 253.247 141.454C253.682 141.562 254.115 141.671 254.55 141.771C255.885 142.095 257.225 142.398 258.567 142.679C258.656 142.698 258.742 142.714 258.833 142.733C258.963 142.658 259.094 142.586 259.219 142.508C260.96 141.46 262.534 140.162 263.697 138.452C264.86 136.736 265.623 134.79 266.364 132.854C267.964 128.654 269.552 124.442 271.15 120.236C274.374 111.725 277.604 103.211 280.834 94.7045C281.021 94.2059 281.209 93.7073 281.402 93.2087C282.549 90.1928 283.716 87.1582 284.96 84.1531C285.033 83.9708 285.111 83.7831 285.189 83.5982C288.857 74.7972 293.181 66.2697 299.456 59.214C299.714 58.9137 299.985 58.6135 300.264 58.3213C299.894 58.4151 299.537 58.5089 299.192 58.6001L299.19 58.5974Z" fill="#27C467"/>
<path d="M308.814 41.8354C308.525 39.9643 308.364 37.9537 307.986 36.0316C308.053 33.8575 307.297 31.7263 305.741 30.1902C301.857 26.3541 295.054 28.3003 291.801 32.1552C290.93 33.1873 290.231 34.4097 290.065 35.7608C289.999 36.2809 290.005 36.7903 290.065 37.2942C290.779 35.3292 293.013 34.088 295.004 33.7047C297.791 33.1766 300.311 34.2998 301.372 37.0342C301.38 37.0449 301.388 37.061 301.391 37.0744C301.67 37.8063 301.98 38.4765 302.702 38.8357C303.575 39.2673 304.623 39.1895 305.535 39.5407C306.02 39.723 306.427 39.9884 306.776 40.3101C307.331 40.8248 307.733 41.4977 308.051 42.2536C308.577 43.5029 309.013 44.795 309.469 46.071C309.252 44.661 309.039 43.2509 308.82 41.8408L308.814 41.8354Z" fill="#241F1A"/>
<path d="M278.525 66.6346C273.536 70.3983 268.169 77.3924 264.368 82.3277C257.573 91.1608 250.871 100.096 245.021 109.629C244.242 110.897 243.481 112.175 242.735 113.465C242.425 114.006 242.115 114.542 241.813 115.087C241.51 115.628 241.033 116.29 241.408 116.979C241.56 117.263 241.87 117.486 242.128 117.668C244.351 119.244 246.937 120.467 249.414 121.55C250.24 121.912 251.069 122.247 251.913 122.563C252.281 122.705 252.651 122.842 253.024 122.968C254.275 123.408 255.537 123.802 256.814 124.145C257.541 124.343 258.274 124.526 259.009 124.692C259.843 124.877 259.986 124.719 260.416 124.027C261.157 122.839 261.894 121.652 262.635 120.464C268.674 110.746 274.649 100.97 280.063 90.8632C284.844 81.9363 291.022 70.771 292.239 60.501C287.036 61.3776 282.785 63.423 278.528 66.6319L278.525 66.6346Z" fill="#27C467"/>
<path d="M356.889 129.276C355.546 127.188 353.573 124.22 352.95 123.333C351.886 121.821 351.25 119.96 350.505 118.274L347.927 112.446C345.377 114.677 343.837 116.291 341.52 118.77C342.346 120.724 343.608 122.572 344.434 124.528C345.166 126.26 345.969 128.169 345.278 130.086C344.942 131.016 344.64 131.858 344.606 132.831C344.554 132.938 344.535 133.067 344.562 133.214C344.585 133.343 344.611 133.471 344.637 133.603C344.697 134.185 344.825 134.761 345.002 135.319C345.143 135.919 345.297 136.52 345.466 137.112C345.742 138.077 345.977 139.224 346.548 140.061C347.559 141.543 349.371 140.967 350.142 139.562C350.15 139.549 350.158 139.53 350.166 139.517C350.247 139.562 350.333 139.602 350.427 139.632C351.37 139.919 352.28 139.149 352.809 138.345C353.474 138.72 354.347 138.385 354.814 137.779C355.04 137.485 355.241 137.16 355.408 136.817C355.564 136.954 355.755 137.072 355.987 137.158C357.081 137.568 357.686 136.678 358.004 135.68C358.838 133.072 358.301 131.472 356.889 129.276Z" fill="#ED8778"/>
<path d="M349.369 120.633C347.362 122.027 345.243 123.244 343.035 124.271C342.461 124.537 341.622 125.089 341.009 125.148C340.36 125.209 340.146 124.349 339.854 123.81C339.208 122.614 338.569 121.416 337.941 120.21C332.991 110.685 328.693 100.801 325.095 90.6544C323.088 84.9926 321.191 79.2478 320.231 73.2858C319.243 67.1629 316.926 60.6701 317.724 54.5205C325.632 53.5339 327.791 57.2441 330.384 60.4262C333.687 64.4768 335.916 69.4845 337.972 74.283C342.412 84.6441 353.297 109.961 354.116 112.562C354.567 113.996 355.244 115.516 354.21 116.859C353.388 117.923 350.456 119.88 349.372 120.633H349.369Z" fill="#27C467"/>
<path d="M372.446 154.607C372.266 156.489 370.491 157.837 365.39 161.041C359.275 164.882 349.51 168.568 347.787 169.137C345.678 169.831 343.056 170.161 341.75 167.968C340.822 166.408 340.822 164.166 340.572 162.381C340.129 159.204 339.722 156.022 339.339 152.838C339.227 151.368 339.208 149.859 340.183 148.674C341.273 147.35 343.202 146.594 344.662 145.766C347.779 143.994 360.304 138.332 363.31 137.008C365.32 136.12 367.585 135.319 369.058 137.664C369.98 139.136 370.04 139.836 370.596 141.479C371.633 144.549 372.762 151.32 372.446 154.604V154.607Z" fill="#5D5F67"/>
</svg>
