<svg width="16" height="16" viewBox="0 0 16 16" fill="none" xmlns="http://www.w3.org/2000/svg">
<path d="M13.1171 12.7014L2.88292 2.46721L2.88022 2.46451C2.6475 2.23314 2.27136 2.2345 2.04 2.46857C1.80863 2.70128 1.80999 3.07742 2.04406 3.30878L2.93975 4.20448C1.85328 4.94863 0.918354 5.89303 0.183671 6.98626C-0.0612236 7.34887 -0.0612236 7.82377 0.183671 8.18503C2.05759 10.9587 5.02879 12.5837 8 12.5634C8.96199 12.5674 9.91857 12.4064 10.8264 12.0898L12.2769 13.5402C12.5123 13.7689 12.8884 13.7621 13.1171 13.5267C13.339 13.298 13.3403 12.9341 13.1198 12.7027L13.1171 12.7V12.7014ZM8 10.9519C6.13961 10.9519 4.63236 9.44197 4.63236 7.58294C4.63236 7.10533 4.73384 6.63177 4.93138 6.1961L5.86766 7.13239C5.61735 8.3095 6.36962 9.46768 7.54809 9.71663C7.84711 9.78022 8.15424 9.78022 8.45326 9.71663L9.38954 10.6529C8.95387 10.8505 8.48032 10.9533 8.00135 10.9519H8Z" fill="#7E828E"/>
<path d="M15.8163 6.98523C13.9424 4.20886 10.9712 2.5839 8.00002 2.60419C7.03803 2.60013 6.08145 2.76114 5.17358 3.07774L6.61183 4.51599C8.30715 3.74884 10.3028 4.50111 11.0686 6.19643C11.4678 7.07859 11.4678 8.09064 11.0686 8.97416L13.0603 10.9658C14.1467 10.2216 15.083 9.27723 15.8163 8.184C16.0612 7.82139 16.0612 7.34649 15.8163 6.98523Z" fill="#7E828E"/>
<path d="M8.00001 5.40479C7.84847 5.40479 7.69558 5.42102 7.54675 5.45214L10.131 8.03639C10.3813 6.85927 9.62903 5.70245 8.45192 5.45214C8.30308 5.42102 8.15155 5.40479 8.00001 5.40479Z" fill="#7E828E"/>
</svg>
