<svg width="24" height="24" viewBox="0 0 24 24" fill="none" xmlns="http://www.w3.org/2000/svg">
<path d="M20.8818 17.5338C20.134 17.5338 19.4462 17.1246 19.1005 16.4615C18.6808 15.6608 18.4444 14.592 18.4444 12.4721C18.4444 10.726 18.0282 9.29392 17.2028 8.21808C16.5926 7.4209 15.7672 6.81773 14.6772 6.36976L14.6561 6.34507C14.2681 5.04348 13.2028 4.1687 12 4.1687C10.7972 4.1687 9.73545 5.03995 9.34391 6.34154L9.32275 6.36623C6.78659 7.40327 5.55555 9.39974 5.55555 12.4685C5.55555 14.5885 5.31922 15.6608 4.903 16.4615C4.55732 17.1246 3.86596 17.5338 3.11816 17.5338V20.6484H20.8783V17.5338H20.8818Z" fill="#151513"/>
<path d="M11.9998 24.0001C13.319 24.0001 14.5289 23.2734 15.1532 22.1129C15.1991 22.0248 15.1673 21.9154 15.0792 21.8696C15.0545 21.8554 15.0263 21.8484 14.9945 21.8484H9.00509C8.90632 21.8484 8.8252 21.9295 8.8252 22.0283C8.8252 22.0565 8.83225 22.0882 8.84636 22.1129C9.4707 23.2734 10.6806 23.9965 11.9998 24.0001Z" fill="#151513"/>
</svg>
