<svg width="1816" height="1196" viewBox="0 0 1816 1196" fill="none" xmlns="http://www.w3.org/2000/svg">
<g clip-path="url(#clip0_828_1253)">
<path d="M1443.73 792.032C1434.93 749.456 1394.5 722.576 1354.77 712.763C1336.95 708.363 1318.17 706.139 1299.7 706.794C1293.06 671.905 1273.91 639.995 1236.39 632.988C1208.4 627.76 1181.91 635.422 1160.02 653.293C1141.46 668.445 1129.61 690.901 1122.34 713.369C1121.4 716.298 1120.55 719.251 1119.76 722.218C1112.75 724.936 1106.2 728.879 1100.64 733.872C1090.01 730.139 1078.91 728.038 1067.42 728.718C1037.91 730.473 1011.55 747.862 999.138 774.989C986.816 801.931 985.988 831.036 998.322 858.163C1009.8 883.387 1039.88 894.436 1064.5 902.234C1085.64 908.92 1369.79 905.41 1386.71 899.429C1406.6 892.384 1423.97 881.237 1435.49 863.168C1447.03 845.063 1447.96 812.609 1443.72 792.056L1443.73 792.032Z" fill="#27C467"/>
<path d="M1142.81 895.042C1146.12 880.125 1150.93 865.591 1157.08 851.65C1156.55 851.119 1156.09 850.439 1155.72 849.574C1143.13 819.839 1142.16 786.322 1154.36 756.254C1157.61 748.245 1170.76 751.755 1167.48 759.862C1157.69 784.011 1156.46 811.064 1164.83 835.708C1179.07 809.038 1198.41 785.099 1221.79 765.733C1228.48 760.196 1238.15 769.762 1231.41 775.348C1191.15 808.679 1163.78 855.259 1154.28 906.647C1152.82 914.556 1141.37 912.097 1140.93 904.842C1140.83 903.31 1140.73 901.765 1140.64 900.232C1140.5 897.847 1141.41 896.117 1142.82 895.029L1142.81 895.042Z" fill="#5D5F67"/>
<path d="M1061.75 1137.12C1063.13 1138.59 1064.81 1139.72 1066.7 1140.52C1070.73 1142.26 1075.71 1142.6 1080.71 1142.25C1086.95 1141.83 1093.21 1140.32 1097.71 1139.18C1098.45 1138.98 1099.14 1138.79 1099.78 1138.64C1111.36 1135.63 1122.12 1133.43 1126.79 1122.22C1129.79 1114.98 1129.82 1108.4 1128.55 1101.27V1101.25C1128.05 1098.52 1127.37 1095.7 1126.58 1092.72C1126.48 1092.3 1126.36 1091.85 1126.25 1091.41C1123.91 1082.71 1123.63 1074.12 1123.49 1072.52C1122.91 1065.72 1123.91 1052.19 1127.64 1038.92C1128.01 1037.66 1118.54 1034.19 1111.37 1032.04C1107.38 1030.83 1104.13 1030.01 1103.63 1030.2C1103.33 1030.16 1103.01 1030.17 1102.69 1030.23C1092.38 1032.14 1079.99 1035 1075.82 1044.72C1071.52 1054.74 1083.12 1066.32 1089.31 1076.58C1090.01 1077.73 1090.64 1078.86 1091.19 1079.99C1093.44 1084.72 1087.44 1092.1 1083.72 1096.55C1083.05 1097.38 1082.45 1098.09 1082 1098.68C1081.53 1099.26 1081.22 1099.73 1081.11 1100.01C1080.79 1100.9 1080.48 1101.95 1080.14 1103.09C1078.58 1108.28 1076.55 1115.4 1071.89 1117.79C1071.67 1117.91 1071.45 1118 1071.21 1118.1C1067.31 1119.64 1062.18 1122.58 1059.92 1126.5C1058.14 1129.55 1058.09 1133.18 1061.8 1137.14L1061.75 1137.12Z" fill="#333439"/>
<path d="M1057.45 1060.36C1063.56 1080.85 1090.78 1076.75 1107.15 1074.61C1116.04 1073.45 1127.59 1075.09 1135.24 1069.95C1142.76 1064.91 1143.12 1053.69 1143.2 1045.56C1143.22 1044.09 1142.29 1043.25 1141.19 1043.01C1140.81 1042.1 1139.98 1041.39 1138.69 1041.42C1114.28 1041.87 1093.41 1027.23 1069.48 1025.29C1063.61 1024.82 1058.04 1025.76 1055.86 1031.89C1052.74 1040.7 1054.83 1051.59 1057.43 1060.35L1057.45 1060.36Z" fill="#EEF9FF"/>
<path d="M700.316 583.861C687.932 575.988 674.511 569.871 660.521 565.471C671.52 518.113 667.899 467.207 647.581 421.777C623.976 369.005 566.026 329.976 507.347 334.203C436.408 339.307 390.854 396.614 370.981 460.595C363.591 484.386 360.242 508.572 359.438 532.881C358.202 534.303 356.991 535.749 355.743 537.157C353.012 540.21 350.194 543.164 347.253 546.019C344.867 544.597 342.507 543.127 340.196 541.594C328.641 533.919 317.901 525.058 306.16 517.655C263.77 490.961 210.479 487.377 169.535 519.015C128.059 551.061 115.799 600.162 120.866 649.313C88.3999 656.295 58.22 670.384 35.6283 696.436C-19.4791 759.985 -6.29239 850.166 45.5276 911.131C87.3247 960.307 153.332 982.911 215.324 991.722C280.479 1000.98 347.389 1005.68 413.199 1005.24C485.868 1004.76 557.919 994.009 624.384 963.755C646.741 953.571 666.972 938.753 682.025 919.77C684.212 918.608 686.4 917.41 688.563 916.161C743.781 884.152 779.906 829.675 785.393 766.04C791.436 695.892 760.379 622.012 700.341 583.861H700.316ZM142.58 823.793C141.901 823.063 141.246 822.272 140.591 821.481C140.393 821.21 140.208 820.938 140.022 820.666C139.973 820.604 139.936 820.53 139.899 820.456C144.595 825.103 145.349 826.351 144.533 825.782C143.878 825.115 143.211 824.472 142.58 823.793ZM132.829 807.121C132.805 807.059 132.792 806.997 132.768 806.935C135.771 811.001 136.648 813.387 136.488 814.004C135.338 811.619 134.201 809.234 132.829 807.121ZM131.21 785.555C131.668 785.073 132.088 784.541 132.558 784.072C133.089 783.54 133.67 783.021 134.251 782.514C134.337 782.465 134.399 782.416 134.485 782.354C134.696 782.218 134.93 782.107 135.14 781.983C133.299 783.911 131.964 785.147 131.099 785.851C131.124 785.752 131.173 785.654 131.198 785.555H131.21ZM326.799 615.524C326.058 616.018 325.353 616.5 324.797 616.896C324.698 616.933 324.624 616.97 324.525 616.995C324.105 616.76 323.697 616.525 323.289 616.302C324.216 615.932 325.378 615.647 326.799 615.524Z" fill="#27C467"/>
<path d="M600.374 647.546C579.192 719.956 513.468 776.039 438.686 785.481C442.616 725.665 451.514 666.171 465.319 607.751C469.261 591.067 443.567 583.961 439.625 600.669C418.442 690.356 408.666 782.12 410.186 873.858C368.822 851.143 335.083 817.713 312.244 776.113C287.106 730.312 275.23 678.69 263.897 628.118C260.152 611.384 234.446 618.466 238.203 635.2C250.339 689.392 263.6 744.451 291.246 793.156C317.657 839.687 357.613 877.504 405.453 901.443C407.369 902.395 409.247 902.877 411.052 902.963C412.757 942.869 416.601 982.738 422.582 1022.39C425.128 1039.29 450.822 1032.11 448.276 1015.3C438.142 948.134 434.533 880.099 437.289 812.337C524.653 802.598 601.277 739.47 626.105 654.64C630.925 638.141 605.219 631.097 600.411 647.558L600.374 647.546Z" fill="#5D5F67"/>
<path d="M1006.75 1071.68C1008.53 1064.13 1016.87 1062.69 1023.67 1063.6C1023.68 1063.6 1023.71 1063.6 1023.71 1063.6C1024.78 1063.75 1025.81 1063.95 1026.77 1064.2C1029.28 1064.84 1031.8 1065.81 1034.27 1067.03C1042.63 1071.12 1050.44 1078 1055.96 1084.61C1059.92 1089.32 1062.84 1094.68 1065.26 1100.25C1065.29 1100.33 1065.33 1100.44 1065.39 1100.54C1065.5 1100.8 1065.63 1101.06 1065.73 1101.33C1068.01 1106.72 1069.89 1112.32 1071.86 1117.78C1071.92 1117.94 1071.97 1118.09 1072.03 1118.26C1074.91 1126.27 1077.81 1134.26 1080.69 1142.25C1083.33 1149.54 1085.96 1156.85 1088.59 1164.14C1089.06 1165.45 1088.54 1166.48 1087.66 1167.04C1088.15 1167.83 1088.62 1168.6 1089.13 1169.37C1091.17 1172.33 1086.43 1175.2 1084.39 1172.27C1080.82 1167.06 1078.09 1161.54 1074.49 1156.4C1074.49 1156.4 1074.49 1156.38 1074.46 1156.39C1070.78 1151.18 1066.05 1147.91 1062.13 1142.96C1059.02 1139.01 1058.37 1134.55 1056.8 1129.92C1054.34 1122.64 1048.75 1122.81 1043.41 1119.15C1041.66 1117.96 1040.43 1116.41 1039.38 1114.74C1037.76 1110.9 1037.99 1106.39 1036.18 1102.54C1034.64 1099.29 1032.19 1096.72 1029.16 1094.83C1024.84 1092.14 1020.36 1089.64 1016.01 1087.01C1015.44 1086.66 1014.88 1086.37 1014.33 1086.12C1010.76 1083.5 1007.64 1081.05 1006.69 1077.32C1006.27 1075.71 1006.26 1073.88 1006.75 1071.71V1071.68Z" fill="#333439"/>
<path d="M937.716 1014.23C942.499 1022.57 949.865 1025.2 956.922 1031.93C957.923 1032.88 959.072 1032.22 960.209 1031.34C961.668 1030.26 963.126 1028.82 964.238 1029.9C965.944 1033.05 968.094 1036.09 970.331 1039.09C971.777 1041.01 973.248 1042.91 974.669 1044.82C975.843 1046.41 977.005 1047.98 978.068 1049.57C979.242 1051.33 980.663 1053.19 982.282 1055.11C987.72 1061.59 995.431 1068.84 1004.22 1075.47C1005.02 1076.08 1005.85 1076.7 1006.68 1077.29C1018.78 1086.08 1032.62 1093.52 1045.21 1096.26C1045.5 1096.34 1045.76 1096.39 1046.03 1096.44C1048.31 1096.92 1050.56 1097.2 1052.73 1097.34C1058.15 1099.23 1061.72 1100.15 1065.25 1100.24C1065.32 1100.26 1065.41 1100.26 1065.48 1100.26C1069.39 1100.33 1073.27 1099.45 1079.57 1097.8C1080.18 1097.64 1080.82 1097.46 1081.47 1097.27C1082.19 1097.04 1082.91 1096.81 1083.66 1096.54C1090.77 1094.15 1098.85 1090.12 1104.69 1085.85C1105.76 1084.28 1106.55 1082.94 1107.18 1081.74C1109.96 1076.34 1108.98 1073.8 1110.79 1065.76C1112.43 1058.4 1112.17 1050.62 1111.94 1043.15C1111.81 1039.43 1111.6 1035.72 1111.32 1032.02C1110.96 1027.37 1110.45 1022.71 1109.85 1018.06C1109.75 1017.35 1109.06 1017.1 1108.54 1017.23C1107.5 1015.34 1106.35 1012.86 1105.09 1010.06C1098.69 995.838 1089.46 973.444 1079.54 979.673C1066.83 987.681 1057.86 992.056 1049.59 989.906C1048.22 989.56 1046.84 989.004 1045.5 988.287C1045.31 988.176 1045.1 988.077 1044.92 987.978C1037.82 984.172 1030.88 980.835 1024.19 978.066C1024.17 978.066 1024.15 978.054 1024.13 978.054C1007.18 970.96 992.058 967.401 981.145 968.427C968.897 969.588 958.158 975.669 950.396 985.148C943.537 993.49 939.595 1003.66 937.667 1014.2L937.716 1014.23Z" fill="#564B33"/>
<path d="M893.384 1101.1C903.135 1100.5 904.074 1098.32 909.846 1088.06C913.801 1081.04 916.94 1074.49 924.034 1070.45C929.916 1067.09 941.15 1065.34 947.256 1062.37C957.18 1057.51 968.55 1056.41 974.754 1058.47C974.865 1058.51 974.976 1058.55 975.075 1058.58C976.15 1058.97 978.721 1057.64 982.293 1055.12C984.851 1053.29 987.94 1050.86 991.376 1047.98C999.459 1041.18 1009.42 1031.99 1018.85 1022.95C1024.97 1017.11 1030.85 1011.31 1035.88 1006.28C1044.94 997.198 1051.2 990.561 1050.82 990.413C1050.43 990.277 1050.02 990.116 1049.62 989.956C1048.08 989.35 1046.51 988.72 1044.96 988.04C1038.15 985.098 1031.26 981.576 1024.24 978.128C1024.21 978.128 1024.2 978.116 1024.18 978.116C1004.44 968.427 983.726 959.491 961.171 966.659C960.615 966.832 960.109 967.03 959.565 967.203C949.542 970.046 941.398 971.726 933.748 978.833C929.175 983.059 924.157 992.489 921.648 998.261C919.053 1004.23 919.77 1010.11 919.411 1016.44C919.177 1021.11 917.755 1024.56 914.357 1027.72C912.515 1029.47 911.131 1030.8 910.661 1033.31C910.105 1036.23 911.354 1037.64 908.919 1040.66C908.091 1041.71 906.781 1042.59 905.805 1043.52C903.728 1045.53 901.874 1047.79 900.268 1050.19C897.982 1053.6 896.115 1057.27 894.533 1061.08C893.915 1062.59 893.322 1064.14 892.779 1065.69C888.688 1073.91 884.684 1079.17 882.817 1087.6C881.347 1094.3 885.512 1101.62 893.396 1101.16L893.384 1101.1Z" fill="#564B33"/>
<path d="M1034.27 1067.04V1067.26C1034.24 1069.98 1035.67 1074.55 1038.07 1080.42C1038.1 1080.51 1038.14 1080.61 1038.18 1080.69C1039.51 1083.93 1041.12 1087.55 1042.95 1091.48C1042.97 1091.52 1042.99 1091.56 1043.02 1091.61C1043.72 1093.13 1044.44 1094.67 1045.22 1096.28C1045.92 1097.75 1046.63 1099.23 1047.37 1100.78C1049.97 1106.18 1052.8 1111.95 1055.7 1117.92C1057.09 1120.75 1058.47 1123.62 1059.88 1126.5C1062.17 1131.19 1064.45 1135.91 1066.7 1140.52C1069.4 1146.05 1072.03 1151.41 1074.46 1156.39C1074.49 1156.39 1074.49 1156.4 1074.49 1156.4C1080.41 1168.39 1085.31 1178.09 1087.82 1182.27C1091.64 1188.67 1097.51 1199.21 1108.17 1195.05C1118.37 1191.07 1113.92 1178.5 1111.02 1171.25C1106.7 1160.48 1102.16 1149.84 1097.71 1139.18C1092.62 1126.98 1087.65 1114.77 1083.25 1102.35C1082.82 1101.13 1082.4 1099.9 1081.97 1098.69C1081.8 1098.23 1081.66 1097.75 1081.5 1097.29C1080.82 1095.23 1080.12 1093.16 1079.46 1091.1C1077.71 1085.58 1076.11 1080 1074.67 1074.38C1074.61 1074.12 1074.54 1073.92 1074.43 1073.71C1074.55 1073.28 1074.57 1072.8 1074.43 1072.29C1072.96 1066.42 1063.39 1063.87 1056.14 1064.28C1050.86 1058.97 1044.54 1054.36 1037.87 1052.82C1027.25 1050.34 1034.24 1058.79 1034.27 1067.04Z" fill="#333439"/>
<path d="M958.85 1026.54C959.245 1028.12 959.703 1029.73 960.209 1031.35C961.186 1034.51 962.36 1037.74 963.756 1040.9C966.537 1047.37 970.183 1053.59 974.755 1058.47C974.83 1058.56 974.904 1058.63 975.003 1058.73C976.041 1059.84 977.153 1060.88 978.302 1061.82C982.912 1065.63 985.569 1068.24 988.82 1073.14C990.229 1075.27 991.823 1077.26 993.776 1078.91C997.236 1081.86 1000.65 1083.05 1004.47 1083.93C1006.08 1084.32 1007.78 1084.64 1009.58 1084.99C1010.01 1085.08 1010.44 1085.18 1010.84 1085.3C1012.6 1085.27 1014.27 1085.95 1016.02 1087.01C1020.37 1089.65 1024.86 1092.15 1029.17 1094.86C1030.73 1095.83 1032.11 1096.97 1033.31 1098.28C1037.56 1099.7 1042.06 1100.37 1046.51 1100.73C1046.81 1100.76 1047.1 1100.78 1047.4 1100.79C1048.33 1100.89 1049.24 1100.94 1050.18 1100.97H1050.19C1055.07 1101.3 1060.04 1101.41 1064.92 1101.36C1065.2 1101.37 1065.48 1101.36 1065.74 1101.35C1067.01 1101.35 1068.27 1101.32 1069.53 1101.28C1073.88 1101.15 1076.79 1103.19 1080.11 1103.1C1081 1103.09 1081.93 1102.91 1082.92 1102.49C1083.03 1102.43 1083.15 1102.4 1083.26 1102.36C1089.1 1100.12 1094.55 1103.8 1100.55 1101.35C1103.19 1100.28 1103.85 1093.23 1105.44 1091.16C1108.69 1097.03 1113.33 1105.41 1118.73 1105.3C1123.9 1105.21 1128.87 1105.41 1128.57 1101.27V1101.25C1128.25 1096.82 1127.93 1093.32 1127.73 1090.42C1127.32 1085.37 1127.24 1082.15 1127.95 1079.14C1128.86 1075.35 1131.06 1072.45 1132.16 1068.77C1132.63 1067.22 1132.97 1065.64 1133.21 1064.02C1133.44 1062.48 1133.56 1060.88 1133.63 1059.29C1133.63 1059.02 1133.63 1058.76 1133.63 1058.5C1133.75 1053.63 1133.23 1048.61 1132.84 1043.82C1133.19 1043.46 1133.49 1043.01 1133.65 1042.52C1135.26 1038.01 1129.86 1030.34 1127.84 1026.23C1125.07 1020.52 1121.79 1015.91 1115.9 1013.19C1112.52 1011.62 1108.91 1010.64 1105.16 1010.09C1091.92 1008.1 1076.99 1011.18 1064.38 1011.32C1059.55 1011.37 1054.68 1010.79 1049.8 1009.8C1045.19 1008.89 1040.55 1007.63 1035.92 1006.26C1029.64 1004.4 1023.36 1002.29 1017.07 1000.5C1001.62 996.062 986.175 993.429 971.073 1000.49C966.438 1002.65 963.002 1005.7 960.84 1009.4C957.96 1014.23 957.256 1020.14 958.899 1026.55L958.85 1026.54Z" fill="#564B33"/>
<path d="M890.53 881.459C891.481 879.296 893.137 878.023 894.794 876.664C894.534 876.268 894.188 875.762 893.731 875.045C891.543 871.535 890.752 866.987 894.472 864.194C902.06 858.484 915.47 866.295 921.414 870.905C930.807 878.209 932.92 882.262 937.097 893.323C939.94 900.85 947.38 915.483 951.866 922.193C955.487 926.816 959.392 931.191 963.471 935.331C977.473 949.531 1009.94 970.615 1022.13 977.251C1025.26 978.957 1016.85 977.696 1013.35 976.93C1012.32 976.708 1011.32 976.436 1010.33 976.151C1010.14 976.547 1009.85 976.905 1009.43 977.214C991.636 990.006 966.536 983.863 947.837 976.176C933.451 970.269 912.269 954.425 920.895 936.777C912.602 930.14 903.272 922.033 901.628 911.021C901.331 909.068 901.43 907.153 901.788 905.373C896.82 900.875 891.271 895.869 889.899 889.381C889.343 886.761 889.442 883.943 890.542 881.471L890.53 881.459Z" fill="#564B33"/>
<path d="M960.777 1009.4C962.853 1017.78 968.575 1028.91 972.468 1038.7C973.296 1040.84 974.062 1042.88 974.668 1044.83C976.176 1049.62 976.83 1053.78 975.805 1056.68C975.57 1057.34 975.323 1057.95 975.063 1058.58C975.051 1058.62 975.026 1058.68 974.989 1058.73C973.271 1062.9 971.393 1067.26 975.731 1078.44C981.107 1092.38 981.873 1105.16 988.114 1118.91C991.031 1125.28 995.838 1135.52 1004.49 1134.57C1013.84 1133.55 1012.4 1123.9 1011.4 1116.76C1009.83 1105.65 1005.64 1094.93 1004.44 1083.92C1004.16 1081.13 1004.04 1078.31 1004.22 1075.48C1004.33 1073.55 1004.59 1071.6 1005.01 1069.63C1005.47 1067.42 1006.12 1065.22 1006.85 1063.02C1010.64 1051.58 1017.32 1040.18 1018.52 1028.35C1018.7 1026.54 1018.8 1024.73 1018.83 1022.94C1018.97 1015.33 1017.95 1007.94 1017 1000.5C1016.32 994.875 1015.69 989.239 1015.67 983.48C1015.66 980.625 1012.11 980.118 1010.69 981.861C1002.23 974.718 992.699 968.662 981.304 973.086C969.712 977.585 963.557 989.857 960.307 1001.09C959.677 1003.27 959.936 1006.12 960.752 1009.38L960.777 1009.4Z" fill="#564B33"/>
<path d="M893.384 1101.1C903.135 1100.5 904.074 1098.32 909.846 1088.06C913.801 1081.04 916.94 1074.49 924.034 1070.45C929.916 1067.09 941.15 1065.34 947.256 1062.37C957.18 1057.51 968.352 1056.77 974.556 1058.83C974.63 1058.92 974.704 1058.99 974.803 1059.09C974.791 1059.15 974.754 1059.2 974.729 1059.26C974.074 1060.83 973.456 1062.4 973.172 1064.37C972.69 1067.51 973.098 1071.67 975.742 1078.46C981.119 1092.4 981.885 1105.18 988.126 1118.92C991.043 1125.3 995.85 1135.53 1004.5 1134.58C1013.86 1133.56 1012.41 1123.91 1011.41 1116.77C1010.16 1107.9 1007.23 1099.27 1005.5 1090.56C1005.07 1088.42 1004.72 1086.27 1004.48 1084.1C1004.48 1084.06 1004.45 1083.99 1004.45 1083.94C1006.07 1084.33 1007.76 1084.65 1009.57 1085.01C1009.96 1085.09 1010.33 1085.22 1010.71 1085.32H1010.83C1012.58 1085.28 1014.25 1085.96 1016.01 1087.02C1020.36 1089.67 1024.84 1092.16 1029.16 1094.87C1030.71 1095.85 1032.1 1096.98 1033.3 1098.29C1034.47 1099.55 1035.43 1100.97 1036.19 1102.58C1037.99 1106.44 1037.76 1110.96 1039.4 1114.83C1039.43 1114.87 1039.44 1114.9 1039.46 1114.94C1040.49 1116.55 1041.73 1118.02 1043.41 1119.19C1048.75 1122.86 1054.34 1122.69 1056.8 1129.96C1058.37 1134.59 1059.02 1139.05 1062.13 1142.99C1066.05 1147.95 1070.78 1151.21 1074.46 1156.43C1074.49 1156.43 1074.49 1156.44 1074.49 1156.44C1080.41 1168.43 1085.31 1178.13 1087.82 1182.31C1091.64 1188.71 1097.51 1199.25 1108.17 1195.09C1118.37 1191.11 1113.93 1178.54 1111.02 1171.28C1106.7 1160.52 1102.16 1149.88 1097.71 1139.21C1098.45 1139.01 1099.14 1138.83 1099.77 1138.68C1100.92 1138.38 1102.05 1138.1 1103.15 1137.8C1113.41 1135.13 1122.58 1132.37 1126.79 1122.24C1129.79 1115 1129.82 1108.43 1128.55 1101.3V1101.27C1128.22 1096.85 1127.9 1093.35 1127.7 1090.44C1127.45 1091.3 1127.09 1092.06 1126.58 1092.74C1125.93 1093.66 1125.01 1094.39 1123.76 1094.81C1119.6 1096.25 1114.54 1093.11 1111.56 1090.32C1108.77 1087.69 1107.08 1082 1104.73 1079.87C1098.62 1074.3 1091.64 1075.34 1086.83 1081.63C1082 1087.92 1077.01 1087.49 1069.64 1088.22C1062.54 1088.92 1058.81 1096.34 1044.56 1090.3C1040.91 1088.75 1039.07 1082.98 1038.51 1081.55C1038.4 1081.27 1038.3 1080.99 1038.18 1080.72C1038.14 1080.63 1038.1 1080.53 1038.07 1080.45C1037.04 1077.95 1035.93 1075.66 1034.71 1073.64C1033.24 1071.14 1031.57 1069 1029.65 1067.28C1029.63 1067.27 1029.59 1067.25 1029.58 1067.23C1027.85 1065.68 1025.92 1064.47 1023.72 1063.65C1023.72 1063.65 1023.69 1063.65 1023.68 1063.65C1023.58 1063.61 1023.47 1063.58 1023.39 1063.54C1019.99 1062.34 1016.02 1062.04 1011.24 1062.75C1009.61 1063 1008.17 1063.09 1006.87 1063.05C999.273 1062.88 996.715 1058.2 992.933 1050.88C992.439 1049.93 991.932 1048.96 991.376 1048C989.745 1045.1 987.78 1042.34 984.925 1040.56C981.069 1038.15 976.781 1038.02 972.48 1038.72C971.874 1038.82 971.244 1038.93 970.614 1039.07C970.527 1039.09 970.428 1039.11 970.342 1039.13C968.142 1039.61 965.954 1040.35 963.755 1040.94C961.74 1041.45 959.713 1041.84 957.625 1041.8C952.434 1041.69 947.812 1038.96 943.313 1036.68C933.674 1031.8 921.735 1028.28 914.209 1038.44C910.971 1042.79 909.92 1048.23 907.337 1052.92C904.235 1058.53 899.625 1059.97 894.546 1061.06C893.928 1062.56 893.335 1064.12 892.791 1065.67C888.7 1073.88 884.696 1079.15 882.83 1087.58C881.359 1094.28 885.524 1101.59 893.409 1101.13L893.384 1101.1Z" fill="#F4EDE6"/>
<path d="M787.768 1133.09C785.37 1121.42 768.5 1110.08 754.881 1097.77C737.554 1082.11 723.07 1062.3 720.746 1037.1C719.918 1028.12 721.055 1016.16 721.574 1005.05C716.038 1006.53 710.452 1007.78 704.767 1008.68C684.387 1011.9 663.921 1010.74 643.542 1009.37C639.908 1039.39 628.303 1069.29 631.541 1099.69C632.394 1107.65 633.754 1114.22 639.525 1119.9C645.358 1125.63 672.313 1130.45 677.194 1131.22C683.893 1132.25 687.724 1137.44 692.507 1141.87C698.958 1147.83 712.849 1159.18 720.87 1162.46C755.833 1176.75 777.72 1163.27 782.824 1157.7C788.126 1151.9 789.251 1140.25 787.78 1133.07L787.768 1133.09Z" fill="#333439"/>
<path d="M827.503 79.8375C826.551 75.9816 825.575 72.1381 825.525 68.1462C825.463 63.5982 826.489 59.1491 827.367 54.7123C829.777 42.3907 830.802 31.169 823.251 20.7877C815.713 10.4188 805.01 8.00883 793.158 3.99226C779.65 -0.592818 758.566 -1.93992 746.034 4.30122C739.917 7.35382 734.355 11.5558 730.141 16.9689C725.111 23.4325 722.046 31.3915 718.573 38.7449C718.066 39.8201 719.673 40.7717 720.18 39.6842C720.662 38.6707 721.131 37.6573 721.613 36.6439C722.923 39.0292 727.397 39.2145 729.931 39.1033C733.49 38.955 736.988 37.9787 740.559 38.164C745.095 38.3989 749.297 40.0673 753.289 42.1559C760.111 45.7152 768.564 49.9666 770.282 58.1851C771.802 65.4644 769.306 72.8302 768.663 80.0724C767.489 93.2962 760.865 92.0974 768.885 102.676C772.754 107.781 767.217 125.923 773.322 127.171C780.008 128.543 800.388 130.459 807.284 129.458C819.42 127.69 828.85 111.661 828.85 101.033C828.85 93.4445 829.307 87.1786 827.503 79.8252V79.8375Z" fill="#333439"/>
<path d="M865.009 653.577C862.525 602.56 838.03 423.075 828.921 381.08C797.79 416.685 765.286 433.864 733.104 468.58C699.489 504.865 685.993 551 681.816 597.926C677.243 649.251 680.456 700.898 676.044 752.298C673.919 777.065 670.767 801.77 666.639 826.339C662.351 851.922 653.811 877.949 653.131 903.89C652.427 930.523 666.998 950.816 686.71 968.798C704.741 985.259 724.058 1000.67 743.226 1016.02C747.972 1009.41 753.83 1000.04 760.343 988.794C762.209 985.605 764.112 982.256 766.053 978.796C799.31 919.684 845.729 822.842 857.692 789.436C873.499 745.278 867.258 699.65 865.009 653.602V653.577Z" fill="#D8DDE4"/>
<path d="M772.062 436.818C753.635 433.011 734.838 430.503 716.324 428.167C682.288 423.878 647.845 423.779 613.599 421.901C604.552 453.996 586.509 439.438 581.948 476.885C575.695 528.186 585.693 609.79 598.744 689.652C603.526 718.905 611.436 801.263 611.659 880.495C611.782 926.593 604.379 967.006 605.121 1007.41C606.171 1064.32 613.759 1104.29 614.155 1113.63C614.217 1115.16 615.391 1116.4 616.96 1116.43C639.033 1116.82 660.896 1112.95 681.423 1104.77C690.68 1101.07 699.467 1096.52 707.995 1091.4C715.076 1087.13 723.9 1081.85 732.255 1081.85C740.424 1085.57 748.024 1090.64 754.723 1096.97C756.626 1098.76 759.234 1097.34 759.506 1094.99C761.273 1079.15 757.8 837.202 751.954 774.42C747.95 731.387 744.168 688.243 744.564 645.012C744.972 599.965 752.14 555.993 760.457 511.711C765.116 486.883 769.64 461.906 772.074 436.818H772.062Z" fill="#D8DDE4"/>
<path d="M862.042 265.292C853.75 283.769 844.765 301.936 837.745 320.944C827.784 347.91 820.912 375.89 813.559 403.648C809.79 417.873 805.773 431.962 802.955 446.409C800.1 461.017 797.419 495.646 796.887 498.97C776.446 500.898 753.051 503.654 732.511 504.161C723.365 504.384 714.195 504.458 705.062 504.408C700.168 504.371 695.299 504.309 690.405 504.198C687.031 504.124 678.763 505.483 675.772 503.729C674.462 502.987 673.585 501.269 672.954 499.082C665.675 501.393 657.951 502.567 649.942 502.443C644.752 502.344 637.843 502.295 634.074 498.056C630.317 493.817 630.02 486.13 628.908 480.927C624.916 462.488 621.727 443.875 619.28 425.177C614.09 385.678 612.1 345.525 614.238 305.73C617.525 245.074 635.569 179.968 686.561 143.127C687.327 140.89 688.057 138.628 688.724 136.354C689.811 136.107 690.887 135.884 691.974 135.687C731.114 127.901 771.638 132.98 809.814 145.685C821.085 149.442 832.171 153.854 842.948 158.81C843.826 163.716 844.604 168.623 845.445 173.418C848.151 188.78 850.709 204.154 853.539 219.503C856.357 234.729 859.36 250.005 862.03 265.305L862.042 265.292Z" fill="#EEF9FF"/>
<path d="M691.977 135.674C694.028 140.456 696.685 144.757 699.256 147.859C714.185 165.718 737.568 176.074 760.716 176.507C781.243 176.902 804.836 169.376 809.594 146.87C809.693 146.463 809.767 146.067 809.817 145.672C771.628 132.967 731.117 127.888 691.977 135.674Z" fill="#ED8778"/>
<path d="M785.022 92.3692C772.194 88.5875 759.328 84.7439 746.858 79.9117C746.166 79.6398 745.487 79.3555 744.795 79.0713C744.189 81.5925 743.583 84.1136 742.978 86.6224C740.877 95.3971 738.739 104.172 736.613 112.934C734.623 121.19 732.634 129.433 730.656 137.676C730.162 139.703 729.42 141.792 729.161 143.856C728.988 144.56 728.815 145.24 728.666 145.919C728.184 150.146 729.569 152.63 732.782 153.372C735.983 155.349 740.531 156.338 744.065 157.574C753.755 160.923 763.617 163.679 773.615 165.866C775.901 152.939 778.361 140.049 781.006 127.184C783.329 115.863 785.764 104.555 788.26 93.2714C787.185 92.9625 786.11 92.6659 785.034 92.3445L785.022 92.3692Z" fill="#ED8778"/>
<path d="M738.742 52.9946C739.039 54.3912 739.434 55.763 739.892 57.1472C741.622 62.3625 744.514 67.0959 748.024 71.4832C749.457 73.3123 749.025 81.432 749.062 83.5453C749.235 92.7155 754.796 103.888 760.147 111.686C764.597 118.15 771.839 122.858 779.674 124.687C788.041 126.677 797.075 125.392 804.107 119.509C810.83 113.861 814.192 105.63 816.429 97.4488C817.85 92.2335 818.715 87.1541 818.629 81.7533C818.518 75.611 819.617 72.1506 821.533 66.2926C823.56 60.1627 824.82 51.7958 824.067 44.5289C824.067 44.1458 824.042 43.738 824.017 43.3672C823.869 41.0067 823.473 38.6709 822.732 36.3598C820.816 30.3412 816.515 25.3482 811.56 21.3811C793.046 6.57539 759.443 3.53516 744.402 24.3966C738.371 32.7511 736.604 43.1448 738.73 53.0194L738.742 52.9946Z" fill="#ED8778"/>
<path d="M728.261 164.456C725.048 156.411 721.489 148.464 717.571 140.616C708.104 159.958 694.411 179.027 677.22 192.856C675.712 194.068 674.18 195.242 672.61 196.379C670.2 198.109 667.716 199.753 665.183 201.285C653.43 208.317 641.071 214.558 629.886 222.493C627.316 224.322 624.807 226.25 622.385 228.276C618.652 231.416 615.167 234.814 611.855 238.373C601.362 245.294 591.525 253.105 583.368 262.658C566.659 282.185 562.334 306.457 559.701 331.286C554.906 376.68 552.681 422.778 551.767 468.678C551.755 469.234 551.755 469.815 551.73 470.371C551.68 473.016 551.631 475.673 551.594 478.342C551.371 491.442 551.26 504.53 551.198 517.569C551.161 533.561 551.347 549.553 551.853 565.557C552.101 572.936 552.397 580.326 552.793 587.692C553.003 591.857 552.546 597.282 555.104 600.94C557.118 603.82 560.591 604.895 563.73 606.057C570.787 608.689 578.004 610.926 585.271 612.941C598.952 616.71 612.881 619.478 626.945 621.246C653.837 624.657 683.511 626.066 709.723 617.921C718.498 615.215 730.474 611.655 733.353 601.855C736.875 589.818 734.713 574.209 734.676 561.763C734.614 542.558 734.095 523.34 733.576 504.11C733.217 490.911 732.846 477.724 732.624 464.525C734.737 448.323 736.826 432.145 738.915 415.943C743.129 383.427 748.344 350.862 750.804 318.161C754.721 266.279 748.023 213.73 728.261 164.444V164.456Z" fill="#333439"/>
<path d="M728.261 164.458C725.258 153.199 720.314 142.546 713.035 132.733C712.998 132.671 712.936 132.597 712.899 132.547C683.164 134.191 655.728 137.404 633.111 149.788C630.949 150.949 628.823 152.21 626.747 153.594C621.692 156.882 616.909 160.725 612.435 165.199C588.299 189.311 519.992 303.913 513.294 339.63C506.595 375.408 512.812 408.22 531.869 440.168C537.974 450.401 544.635 460.423 551.742 470.36C566.053 490.381 582.144 510.13 598.816 530.769C599.211 530.324 599.866 529.682 600.744 528.903C606.812 523.453 623.459 510.501 636.077 499.712C644.741 492.297 651.513 485.919 651.637 483.72C652.144 475.155 610.371 386.593 623.644 358.674C629.354 346.674 637.004 335.564 645.729 325.17C649.709 320.412 653.911 315.814 658.236 311.378C666.826 302.516 675.909 294.174 684.808 286.24C697.933 274.561 710.897 262.672 719.35 247.026C726.531 233.716 730.584 218.786 731.635 203.721C732.574 190.114 731.635 176.915 728.273 164.433L728.261 164.458Z" fill="#333439"/>
<path d="M886.167 220.874C885.945 207.477 883.238 193.981 876.75 182.031C858.879 149.119 809.481 140.938 782.576 136.649C810.853 189.841 830.392 235.334 823.323 295.533C822.483 302.676 821.333 310.709 820.023 319.175C797.852 406.65 787.569 497.029 790.016 587.272C790.177 593.39 788.2 605.303 792.056 610.679C795.936 616.08 804.427 613.361 809.679 612.422C821.445 610.321 833.086 607.441 844.456 603.734C851.13 601.559 868.667 597.332 873.19 591.622C877.961 585.604 878.814 577.608 879.234 570.192C879.988 556.981 871.571 483.138 872.375 458.433C873.289 430.416 874.216 402.398 875.131 374.381C880.445 325.342 886.525 243.799 886.155 220.874H886.167Z" fill="#333439"/>
<path d="M811.002 18.7978C801.98 11.5927 787.619 8.32998 775.335 8.10752C774.161 7.84799 772.987 7.63789 771.825 7.47723C770.7 7.19298 769.6 6.97052 768.612 6.85929C765.361 6.50089 754.239 6.04362 751.001 6.71099C745.291 7.48959 737.579 11.259 730.745 17.8709C721.76 25.1625 716.903 35.0248 709.414 45.1342C701.665 55.5896 678.196 62.7824 683.151 79.5778C685.463 87.4133 694.052 89.4154 696.499 97.362C698.353 103.405 699.045 108.522 704.643 112.514C707.832 114.788 711.552 115.591 715.395 115.826C717.706 116.555 720.351 116.79 723.564 116.407C726.864 116.011 729.373 116.122 732.426 116.333C733.983 117.284 735.429 118.458 736.998 119.534C741.077 122.339 746.107 124.217 751.112 123.278C762.346 121.177 762.989 109.671 758.354 101.23C755.227 95.5329 751.124 90.7254 749.826 84.1629C749.505 82.5686 749.369 80.962 749.345 79.3678C749.406 78.9228 749.493 78.4779 749.592 78.0454C749.604 77.9589 749.629 77.8723 749.641 77.7858C749.728 77.3904 749.827 77.0072 749.938 76.6118C749.975 76.4758 750.012 76.3399 750.061 76.2039C750.16 75.8579 750.284 75.5118 750.395 75.1658C750.457 74.9928 750.519 74.8197 750.593 74.6344C750.716 74.3254 750.84 74.0288 750.964 73.7198C751.062 73.5097 751.161 73.2996 751.26 73.1019C751.384 72.8424 751.52 72.5705 751.656 72.3109C751.792 72.0761 751.927 71.8413 752.076 71.6065C752.212 71.384 752.335 71.1616 752.484 70.9515C752.669 70.6672 752.879 70.3953 753.077 70.1234C753.2 69.9628 753.312 69.7898 753.448 69.6291C753.794 69.1965 754.152 68.7763 754.548 68.3809C755.759 67.145 757.143 66.1439 758.552 65.1676C765.04 63.1037 771.565 61.3117 776.249 55.293C779.92 50.5844 781.65 44.887 784.517 39.7458C788.25 33.0474 807.492 25.3973 810.965 26.6579C814.079 27.7826 819.394 29.7105 821.631 31.6879C819.381 27.2264 814.969 21.9616 811.014 18.7978H811.002Z" fill="#333439"/>
<path d="M831.837 66.6747C830.218 56.9237 818.713 56.3922 810.988 56.5776C807.528 56.6518 804.253 58.9999 803.326 62.6334C800.842 61.7065 798.63 61.4346 796.207 61.6941C794.44 52.1408 781.167 51.733 773.504 51.9184C772.738 51.9307 772.021 52.1532 771.329 52.4498C758.105 45.9368 734.822 33.4421 724.366 49.7185C722.414 52.7588 727.258 55.5642 729.199 52.5487C736.589 41.0551 756.449 51.2139 766.905 56.4787C766.41 57.2326 765.99 57.9865 765.669 58.6786C764.198 61.8301 763.667 65.5747 764.136 68.6397C765.62 78.2795 777.991 79.1693 785.801 78.8233C792.141 78.5514 795.589 73.1012 796.331 67.2802C797.418 67.0701 798.518 66.9589 799.643 67.2061C800.595 67.4162 801.324 67.7746 802.102 67.997C801.67 69.8385 801.361 71.6305 801.608 73.2989C803.091 82.9387 813.571 83.9645 821.37 83.6184C829.687 83.26 833.049 74.0034 831.825 66.6747H831.837ZM790.448 67.7252C789.731 70.7283 788.669 73.0023 785.258 73.2248C781.538 73.4719 776.433 73.163 773.059 71.6923C769.414 70.1104 769.241 67.1937 770.081 63.8569C770.464 62.3244 771.403 57.591 774.431 57.4674C778.522 57.3191 783.787 57.4304 787.321 59.1606C791.041 60.9897 791.35 63.9805 790.46 67.7128L790.448 67.7252ZM826.029 72.5203C825.312 75.5235 824.249 77.7975 820.838 78.0199C817.118 78.2671 813.917 77.8222 810.543 76.3515C806.898 74.7696 807.231 71.9395 807.565 68.5161C807.936 64.6478 808.887 62.2503 811.915 62.1267C816.006 61.9784 819.812 62.2873 823.335 64.0175C827.055 65.8466 826.919 68.7756 826.029 72.5203Z" fill="#E7EBEF"/>
<path d="M1058.55 987.411C1009.12 933.403 954.486 884.636 900.738 835.04C845.68 784.246 792.402 731.598 739.766 678.307C724.837 663.193 709.957 648.029 695.077 632.865C680.84 618.355 665.676 604.217 657.297 585.333C655.838 582.046 651.006 584.888 652.464 588.163C659.113 603.142 669.927 615.13 681.248 626.759C694.274 640.131 707.386 653.417 720.487 666.715C747.317 693.966 774.235 721.13 801.461 747.986C854.875 800.659 910.452 850.897 965.226 902.111C995.987 930.882 1026.15 960.296 1054.6 991.378C1057.04 994.047 1060.99 990.068 1058.56 987.423L1058.55 987.411Z" fill="#EEF9FF"/>
<path d="M948.369 582.193C867.122 584.937 786.062 573.406 708.808 548.108C705.372 546.983 703.901 552.384 707.325 553.508C785.011 578.943 866.678 590.56 948.369 587.791C951.965 587.668 951.977 582.069 948.369 582.193Z" fill="#EEF9FF"/>
<path d="M994.577 594.911C994.75 591.265 994.762 587.594 994.577 583.887C994.391 580.303 988.793 580.278 988.978 583.887C989.052 585.395 989.077 586.902 989.089 588.398C988.756 588.83 988.558 589.399 988.607 590.115C988.706 591.673 988.817 593.218 988.966 594.762C987.779 618.676 979.252 641.367 972.751 664.379C969.204 676.935 956.994 710.081 975.779 716.953C997.37 724.862 1004.08 691.259 1004.95 677.442C1006.69 649.511 997.135 622.508 994.589 594.898L994.577 594.911ZM997.234 691.679C995.899 697.204 994.095 703.408 990.103 707.659C982.539 715.729 972.183 711.181 971.589 700.825C970.477 681.706 979.721 660.622 985.11 642.603C987.754 633.766 990.177 624.881 991.932 615.896C994.379 629.602 997.407 643.221 998.778 657.112C999.928 668.618 999.965 680.383 997.221 691.679H997.234Z" fill="#EEF9FF"/>
<path d="M725.369 554.275C725.047 548.899 724.936 543.424 724.207 538.085C723.095 529.916 719.634 523.613 711.651 520.573C708.746 519.473 705.422 519.003 701.937 518.731C698.835 517.953 695.609 517.471 692.544 516.915C686.254 515.765 680.902 513.318 675.983 510.08C674.537 509.153 673.153 508.152 671.781 507.089C669.446 508.807 667.098 510.463 664.861 512.156C662.587 513.874 660.276 515.53 657.989 517.211C657.866 517.261 657.767 517.31 657.668 517.384C654.887 519.386 651.563 521.771 648.09 524.293C646.891 525.145 645.692 525.986 644.506 526.826C645.322 527.988 646.236 529.582 647.175 531.498C648.09 533.339 649.054 535.477 650.03 537.764C650.277 542.967 650.846 565.163 651.872 569.822C654.714 582.663 659.027 593.056 670.163 601.04C675.168 604.624 681.52 604.76 684.696 598.816C685.277 597.728 685.673 596.554 685.994 595.367C688.948 597.295 692.594 597.827 696.264 596.146C700.219 594.329 701.912 591.054 702.518 587.359C702.876 587.223 703.247 587.1 703.617 586.988C706.917 588.545 710.711 588.113 713.813 584.306C716.285 581.279 716.94 577.287 716.718 573.097C720.734 574.123 723.379 570.527 724.813 566.683C724.813 566.646 724.8 566.596 724.788 566.559C726.172 562.741 725.591 558.155 725.356 554.3L725.369 554.275Z" fill="#ED8778"/>
<path d="M634.066 518.808C634.066 518.808 634.078 518.745 634.103 518.707C633.727 518.594 633.69 518.707 634.066 518.808Z" fill="#ED8778"/>
<path d="M951.631 475.278C946.144 486.5 939.816 497.326 933.019 507.695C931.807 509.536 930.547 511.353 929.274 513.157C933.847 518.904 938.358 524.7 941.769 530.929C943.227 533.598 944.141 536.33 944.71 539.11C943.239 546.884 938.172 553.669 937.567 562.382C936.899 571.935 938.469 582.996 941.905 591.932C943.474 596.01 946.465 599.137 950.234 598.395C952.063 606.886 961.332 610.173 967.87 604.822C972.183 608.665 978.993 605.724 982.824 601.324C986.445 604.154 991.03 601.238 993.848 597.493C996.345 598.63 999.249 598.222 1001.51 595.923C1006.96 590.362 1003.52 577.756 1002.38 571.033C997.024 539.852 953.559 477.861 951.618 475.303L951.631 475.278Z" fill="#ED8778"/>
<path d="M981.391 519.164C967.71 525.961 937.073 541.261 920.092 550.456C915.927 552.706 910.749 551.148 908.5 546.983C877.269 488.959 860.4 466.281 837.005 419.331C824.016 393.278 840.07 352.692 832.593 324.428C824.98 295.632 843.234 272.596 845.087 242.96C846.867 214.609 831.901 179.634 838.167 151.95C856.952 159.835 866.221 166.212 879.618 180.116C902.914 204.289 909.785 302.059 939.631 385.838C948.814 411.619 976.683 485.116 985.556 508.498C987.114 512.602 985.309 517.211 981.367 519.164H981.391Z" fill="#333439"/>
<path d="M1056.77 1022.56C1048.88 1040.63 1053.78 1056.36 1071.07 1061.78C1087.51 1066.93 1096.26 1061.17 1112.48 1061.44C1115.61 1061.5 1119.71 1060.35 1123.35 1059.76C1124.76 1059.54 1126.11 1059.4 1127.31 1059.42C1129.62 1059.51 1131.72 1059.46 1133.59 1059.28C1135.53 1059.12 1137.23 1058.77 1138.72 1058.28H1138.73C1146.08 1055.9 1148.34 1049.82 1148.73 1039.02C1148.99 1031.94 1145.82 1024.54 1143.88 1021.74C1143.51 1021.01 1143.12 1020.31 1142.68 1019.62C1142.68 1019.6 1142.7 1019.59 1142.7 1019.58C1142.71 1019.56 1142.73 1019.52 1142.73 1019.51C1143.76 1017.73 1144.39 1015.88 1144.66 1014.01C1144.7 1013.75 1144.72 1013.46 1144.76 1013.2V1013.18C1145.45 1006.22 1141.48 999.126 1135.64 994.257C1135.85 993.454 1136.03 992.638 1136.17 991.835C1137.34 986.014 1137.39 980.119 1136.39 974.026C1135.54 969.008 1134.21 958.973 1127.11 959.097C1122.13 959.183 1113.81 969.873 1111.65 982.306C1106.93 981.33 1097.41 981.416 1092.51 981.911C1092.1 980.601 1085.9 957.651 1077.57 959.035C1070.55 960.221 1068.87 968.798 1067.94 973.816C1067.21 977.845 1067.53 982.899 1067.74 986.792C1062.54 989.128 1058.68 991.303 1055.15 995.629C1051.19 1000.44 1051.9 1006.8 1051.81 1011.11C1051.77 1012.49 1052.22 1013.98 1052.84 1015.43C1053.11 1016.11 1053.43 1016.79 1053.78 1017.45C1054.73 1019.23 1055.8 1020.84 1056.44 1021.94C1056.58 1022.14 1056.65 1022.32 1056.75 1022.5C1056.75 1022.52 1056.78 1022.51 1056.78 1022.53L1056.77 1022.56Z" fill="#F4EDE6"/>
<path d="M1247.52 400.842C1246 400.496 1244.85 401.311 1244.32 402.411C1243.64 402.522 1242.99 402.893 1242.51 403.61C1232.71 418.07 1222.97 432.604 1212.8 446.804C1204.06 459.014 1190.3 466.454 1182.97 479.863C1171.32 501.207 1195.54 528.272 1218.28 521.351C1230.69 517.57 1243.57 507.089 1252.06 497.487C1260.74 487.662 1264.76 476.625 1263.96 463.562C1263.39 454.231 1263.6 445.988 1267.1 437.152C1269.55 430.985 1274.14 424.793 1274.66 417.971C1275.74 403.721 1257.51 403.079 1247.54 400.817L1247.52 400.842Z" fill="#ED8778"/>
<path d="M1524.04 56.0961C1523.46 42.0442 1521.13 25.7926 1512.32 14.3484C1502.98 2.22452 1486.75 -1.59431 1472.14 0.58082C1460.14 2.37283 1449.4 8.11962 1439.56 15.1146C1428.31 22.0602 1417.85 30.2046 1410.52 41.4139C1398.14 60.3845 1395.94 84.3357 1388.94 105.469C1376.3 143.707 1324.42 216.821 1322.16 220.776C1320.25 224.1 1317.28 227.758 1316.51 231.602C1315.38 237.188 1320.48 237.274 1324.59 237.621C1333.75 238.387 1343.35 240.092 1352.55 239.734C1360.3 239.437 1367.18 234.506 1373.64 230.7C1389.71 221.208 1405.03 210.543 1420.2 199.692C1433.5 190.176 1460.61 177.001 1472.29 165.47C1477.42 160.416 1482.12 154.842 1485.88 148.7C1490.3 141.507 1484.14 137.12 1487.92 129.643C1494.96 115.727 1505.65 109.893 1514.24 97.1764C1522.32 85.2379 1524.6 70.2468 1524.02 56.1084L1524.04 56.0961Z" fill="#333439"/>
<path d="M1363.72 1091.56C1351.95 1099.45 1340.19 1107.35 1328.42 1115.25C1316.76 1123.08 1301.67 1135.75 1288.28 1140.48C1275.55 1144.97 1263.55 1145.69 1250.75 1141.67C1236.76 1137.27 1228.69 1133.44 1232.59 1120.51C1236.31 1108.22 1277.64 1061.46 1287.4 1050.66C1295.75 1041.43 1304.92 1032.52 1312.15 1022.35C1320.58 1010.48 1321.53 988.523 1323.03 974.52C1324.75 958.664 1326.41 942.795 1328 926.927C1330.12 905.991 1332.08 885.031 1333.97 864.07C1345 861.759 1356.03 859.448 1367.06 857.137L1376.88 855.073C1380.02 854.418 1385.77 851.675 1387.62 855.728C1388.15 856.878 1387.58 859.967 1387.57 861.253C1387.56 863.094 1387.53 864.936 1387.52 866.777C1387.49 870.769 1387.44 874.761 1387.39 878.753C1387.2 893.188 1386.97 907.623 1386.67 922.07C1386.36 936.69 1385.95 951.31 1385.58 965.931C1385.26 978.648 1385.21 991.773 1389.45 1003.95C1393.16 1014.62 1396.66 1022.06 1400.42 1032.7C1404.99 1045.56 1404.95 1058.93 1395.49 1068.41C1386.29 1077.64 1374.48 1084.33 1363.73 1091.56H1363.72Z" fill="#7E828E"/>
<path d="M1468.82 151.369C1468.45 150.417 1468.07 149.466 1467.7 148.514C1467.67 148.514 1467.62 148.527 1467.58 148.527C1466.88 148.601 1465.91 148.798 1464.74 149.033C1459.32 150.158 1452.3 152.531 1447.74 153.618C1417.53 160.848 1391.33 175.345 1371.44 198.629C1348.24 225.781 1335.8 261.127 1323.47 293.865C1311.29 326.121 1301.86 359.131 1284.83 389.434C1284.18 390.584 1283.51 391.758 1282.83 392.932C1267.27 420.072 1248.68 445.469 1233.8 473.016C1229.69 480.654 1225.84 488.44 1222.48 496.411C1219.16 504.296 1213.39 516.383 1222.89 522.414C1229.91 526.838 1239.98 528.087 1247.97 530.064C1248.56 530.2 1249.17 530.361 1249.76 530.509C1251.82 531.003 1253.87 531.51 1255.94 531.967C1262.27 533.463 1268.62 534.859 1274.98 536.157C1275.4 536.243 1275.81 536.318 1276.24 536.404C1295.02 540.161 1313.95 543.115 1332.99 545.191C1337.75 545.698 1342.49 546.18 1347.23 546.588C1351.77 546.983 1357.84 548.478 1361.88 546.279C1366.2 543.906 1369.53 537.195 1372.37 533.24C1374.98 529.619 1377.57 525.998 1380.15 522.352C1419.59 466.812 1460.25 408.936 1477.76 342.78C1478.3 340.729 1478.81 338.69 1479.32 336.638C1494.07 275.438 1491.47 210.221 1468.87 151.357L1468.82 151.369Z" fill="#27C467"/>
<path d="M1766.11 862.192C1765.58 876.355 1765.04 890.518 1764.51 904.681C1763.98 918.72 1765.37 938.383 1761.31 951.99C1757.46 964.929 1751.62 976.769 1740.2 983.047C1727.35 990.116 1717.49 990.005 1709.33 979.241C1701.57 968.995 1691.15 914.135 1688.15 899.886C1685.58 887.712 1683.77 875.045 1679.79 863.23C1675.15 849.437 1657.94 835.756 1647.51 826.29C1635.7 815.575 1623.83 804.909 1611.95 794.281C1596.25 780.266 1580.46 766.35 1564.61 752.483C1569.22 742.201 1573.84 731.931 1578.45 721.648L1582.57 712.491C1583.88 709.562 1585.04 703.308 1589.42 704.186C1590.65 704.433 1592.83 706.707 1593.86 707.473C1595.35 708.573 1596.83 709.673 1598.3 710.773C1601.5 713.158 1604.72 715.543 1607.92 717.929C1619.48 726.567 1631.03 735.243 1642.52 743.981C1654.18 752.829 1665.76 761.765 1677.36 770.651C1687.46 778.387 1698.05 786.136 1710.37 789.881C1721.2 793.156 1729.25 794.713 1740.08 797.914C1753.16 801.782 1763.96 809.68 1766.06 822.891C1768.11 835.769 1766.59 849.252 1766.1 862.192H1766.11Z" fill="#7E828E"/>
<path d="M1714.73 734.947C1713.79 728.149 1713.36 720.03 1710.3 713.801C1707.56 708.289 1701.77 704.557 1697.11 700.8C1677.36 684.968 1656.03 671.225 1633.5 659.695C1631.56 658.694 1629.61 657.717 1627.67 656.753C1627.63 656.729 1627.58 656.716 1627.54 656.691C1618.01 558.563 1588.41 463.266 1554.56 370.934C1550.55 360.046 1543.96 348.515 1534.96 340.63C1529.09 335.489 1524.37 332.993 1516.98 332.09C1516.93 331.868 1516.89 331.646 1516.82 331.435C1515.61 327.777 1511.88 327.444 1508.35 326.986C1494.59 325.244 1480.63 324.44 1466.68 324.453C1455.21 324.453 1427.87 328.272 1426.66 328.556C1419 336.317 1413.8 344.783 1407.72 353.545C1388.14 381.723 1374.34 414.288 1365.07 446.668C1349.94 499.588 1340.2 553.781 1330.25 607.603C1310.17 716.545 1290.78 875.193 1278.26 984.914C1277.53 991.402 1276.81 997.89 1276.09 1004.38C1275.49 1009.9 1273.98 1016.26 1275.11 1021.74C1277.02 1031.02 1288.67 1032.45 1296.75 1034.24C1317.3 1038.81 1338.89 1039.27 1360 1035.95C1381.04 1032.66 1401.61 1025.6 1420.22 1015.13C1429.77 1009.78 1438.79 1003.49 1447.08 996.42C1455.36 989.326 1462.64 981.836 1464.63 971.097C1465.69 965.3 1465.59 959.356 1465.79 953.498C1466.01 946.355 1473.38 785.753 1474.76 757.773C1474.87 755.499 1475 753.225 1475.12 750.939C1475.47 744.203 1475.83 737.443 1476.2 730.708C1476.2 730.263 1476.23 729.843 1476.26 729.398C1495.9 788.781 1525.56 844.828 1563.83 894.411C1571.24 903.989 1578.95 913.332 1586.97 922.403C1590.98 926.939 1595.08 931.401 1599.24 935.788C1602.86 939.607 1606.57 944.649 1611.17 947.319C1620.19 952.534 1631.36 941.967 1638.13 936.9C1647.53 929.893 1656.18 921.934 1664.06 913.258C1697.36 876.553 1714.95 828.292 1716.92 779.055C1717.5 764.323 1716.72 749.542 1714.72 734.922L1714.73 734.947Z" fill="#D8DDE4"/>
<path d="M1581.03 141.741C1574.58 136.328 1565.59 134.499 1556.38 133.918C1549.87 133.523 1543.22 133.745 1537.3 133.77C1531.83 133.782 1493.61 140.815 1465.9 147.352C1464.05 147.785 1462.27 148.23 1460.53 148.65C1459.07 148.996 1457.66 149.367 1456.3 149.725C1453.58 150.43 1451.06 151.097 1448.82 151.752C1446.77 152.358 1444.97 152.926 1443.37 153.458C1442.37 153.791 1441.46 154.125 1440.65 154.446C1431.89 157.919 1423.13 161.688 1417.84 169.623C1412.61 177.483 1409.08 186.653 1404.97 195.094C1400.62 204.017 1396.17 212.94 1391.92 221.925C1387.52 231.169 1383.21 241.476 1384.82 251.857C1385.59 256.838 1387.72 261.324 1390.43 265.551C1392.56 268.863 1395.04 272.027 1397.47 275.092C1401.83 280.641 1407.05 286.338 1407.67 293.568C1408.46 302.874 1406.17 312.996 1405.26 322.265L1402.53 350.023C1423.84 342.076 1448.22 342.669 1471.43 345.796C1479.84 346.921 1488.11 348.391 1496.02 349.874C1504.04 351.394 1512.06 352.939 1520.13 354.224C1524.38 354.904 1528.65 355.485 1532.93 355.979C1534.62 356.165 1540.39 357.747 1541.75 356.461C1542.43 355.831 1542.45 351.901 1542.59 350.974C1544.69 337.305 1551.94 252.871 1562.15 226.09C1571.23 202.188 1606.7 163.32 1581.06 141.766L1581.03 141.741Z" fill="#333439"/>
<path d="M1540.19 133.808C1535.03 133.832 1498.86 140.778 1472.65 147.242C1470.9 147.674 1469.2 148.107 1467.57 148.527C1466.2 148.873 1464.85 149.244 1463.57 149.59C1462.71 150.059 1461.81 150.455 1460.9 150.776C1456.77 154.385 1452.4 157.376 1447.58 159.588C1444.37 165.879 1442.43 172.775 1442.74 179.56C1443.48 195.539 1462.96 196.887 1474.81 194.056C1486.04 191.387 1496.08 185.269 1505.74 179.177C1515 173.319 1524.43 167.621 1533.43 161.331C1541.95 155.411 1550.28 148.49 1555.59 139.419C1556.6 137.713 1557.48 135.859 1558.22 133.944C1552.06 133.561 1545.78 133.783 1540.18 133.808H1540.19Z" fill="#ED8778"/>
<path d="M1523.9 139.023C1523.83 137.305 1523.36 135.525 1523.09 133.82C1521.99 126.874 1520.9 119.916 1519.8 112.946C1518.62 105.543 1517.45 98.1527 1516.29 90.7498C1515.26 84.2492 1514.25 77.7485 1513.21 71.2478C1511.84 62.6215 1511.07 53.3524 1509.28 44.4912C1508.33 39.7455 1507.07 35.0986 1505.28 30.7607C1498.01 35.7042 1490.72 40.6601 1483.44 45.6159C1481.73 46.7652 1479.69 47.8405 1477.91 49.1134C1475.34 50.9672 1473.29 53.2041 1473.66 56.578C1474.1 60.5452 1475.89 63.6596 1475.26 67.7627C1475.22 68.0469 1475.07 68.257 1474.87 68.4053C1477.45 86.1771 1479.94 103.974 1482.13 121.795C1483.46 132.621 1484.65 143.435 1485.68 154.286C1494.09 153.149 1502.43 151.518 1510.68 149.392C1513.68 148.601 1517.5 148.082 1520.29 146.661C1523 146.265 1524.31 144.3 1524.2 140.765C1524.12 140.197 1524.02 139.616 1523.93 139.023H1523.9Z" fill="#ED8778"/>
<path d="M1498.22 18.6126C1479.8 0.927278 1447.55 9.89969 1432.12 27.6715C1428 32.4296 1425.1 37.0147 1424.31 43.2434C1424 45.641 1424.03 47.9892 1424.31 50.3126C1424.36 50.6957 1424.41 51.0789 1424.47 51.462C1425.04 58.6918 1427.77 66.6385 1430.84 72.2617C1433.76 77.6377 1435.45 80.8139 1436.44 86.8326C1437.31 92.1344 1439.07 96.9296 1441.38 101.762C1445.03 109.35 1449.78 116.79 1457.35 121.103C1465.26 125.589 1474.3 125.231 1482.13 121.795C1489.46 118.607 1495.68 112.724 1498.87 105.618C1502.69 97.0532 1502.58 85.399 1501.11 76.4142C1500.78 74.3503 1500.39 72.2617 1499.97 70.1978C1501.26 68.2451 1502.46 66.243 1503.53 64.2038C1506.18 59.285 1508.15 54.1438 1508.91 48.7554C1509.12 47.3218 1509.24 45.9129 1509.29 44.504C1509.61 34.4811 1505.61 25.7065 1498.23 18.6249L1498.22 18.6126Z" fill="#ED8778"/>
<path d="M1680.3 455.553C1679.79 453.687 1679.29 451.833 1678.77 449.955C1669.63 416.426 1658.99 381.142 1653.54 364.754C1624.23 276.55 1620.05 177.668 1602.46 145.869C1595.01 132.398 1568.4 127.541 1555.45 129.729C1545.44 131.41 1534.69 133.424 1524.69 135.191C1515.37 172.997 1512.88 205.117 1515.57 239.82C1521.11 310.833 1546.23 380.487 1562.42 449.782C1566.49 467.171 1570.75 484.51 1575.15 501.837C1577.28 510.191 1579.43 518.546 1581.62 526.888C1582.83 531.485 1584.03 536.083 1585.25 540.68C1586.61 545.784 1587.49 551.506 1594.02 551.692C1602.87 551.939 1612.13 550.147 1620.8 548.577C1629.07 547.069 1637.25 545.142 1645.37 542.942C1661.96 538.455 1678.2 532.82 1694.39 527.16C1697.3 523.539 1689.85 491.221 1680.29 455.566L1680.3 455.553Z" fill="#27C467"/>
<path d="M1774.48 517.446C1767.85 504.296 1759.69 490.739 1745.8 484.275C1733.27 478.442 1718.94 480.926 1707.96 488.909C1681.86 507.868 1678.77 544.548 1676.84 574.011C1676.6 577.583 1682.16 577.67 1682.4 574.11C1684.07 548.577 1686.16 519.052 1704.56 499.315C1714.45 488.712 1729.38 482.99 1743.2 489.28C1756.19 495.188 1763.49 507.954 1769.65 520.165C1771.26 523.353 1776.1 520.634 1774.5 517.446H1774.48Z" fill="#5D5F67"/>
<path d="M1467.57 148.527C1466.87 148.601 1465.9 148.799 1464.73 149.034C1456.68 150.615 1439.33 155.163 1434.61 156.276C1404.39 163.506 1391.32 175.345 1371.43 198.629C1348.23 225.781 1335.79 261.127 1323.46 293.865C1311.28 326.121 1301.85 359.131 1284.82 389.435C1284.17 390.584 1283.5 391.758 1282.82 392.932C1272.74 410.21 1259.15 428.711 1248.7 445.284C1242.44 455.195 1239.37 462.697 1233.79 473.017C1229.68 480.654 1225.83 488.44 1222.47 496.412C1219.15 504.297 1213.38 516.383 1222.88 522.414C1229.9 526.839 1239.97 528.087 1247.96 530.064C1248.55 530.2 1249.15 530.361 1249.75 530.509C1251.81 531.004 1253.86 531.51 1255.93 531.968C1262.25 533.463 1268.61 534.86 1274.97 536.157C1275.39 536.244 1275.8 536.318 1276.23 536.404C1276.85 536.058 1277.47 535.725 1278.06 535.366C1286.32 530.534 1293.78 524.552 1299.29 516.668C1304.81 508.758 1308.43 499.786 1311.94 490.863C1319.53 471.497 1327.05 452.081 1334.63 432.69C1349.92 393.451 1365.23 354.2 1380.54 314.986C1381.43 312.687 1382.32 310.389 1383.23 308.09C1388.67 294.186 1394.21 280.196 1400.1 266.342C1400.45 265.502 1400.82 264.637 1401.19 263.784C1418.58 223.21 1439.08 183.897 1468.83 151.369C1470.05 149.985 1471.34 148.601 1472.66 147.254C1470.91 147.686 1469.21 148.119 1467.58 148.539L1467.57 148.527Z" fill="#27C467"/>
<path d="M1513.21 71.2475C1511.84 62.6211 1511.07 53.3521 1509.28 44.4909C1509.6 34.468 1506.02 24.6428 1498.64 17.5613C1480.22 -0.123991 1447.97 8.84842 1432.54 26.6202C1428.42 31.3783 1425.1 37.0139 1424.31 43.2427C1424 45.6402 1424.03 47.9884 1424.31 50.3118C1427.7 41.2529 1438.29 35.5308 1447.73 33.7635C1460.94 31.3289 1472.9 36.5072 1477.93 49.113C1477.96 49.1625 1478 49.2366 1478.01 49.2984C1479.33 52.6723 1480.8 55.762 1484.23 57.4181C1488.37 59.4078 1493.34 59.0494 1497.66 60.6684C1499.96 61.5088 1501.89 62.7323 1503.54 64.2154C1506.18 66.5882 1508.08 69.6903 1509.59 73.1754C1512.08 78.9346 1514.15 84.8914 1516.31 90.7742C1515.29 84.2735 1514.27 77.7728 1513.23 71.2722L1513.21 71.2475Z" fill="#333439"/>
<path d="M1369.59 185.578C1345.94 202.93 1320.49 235.174 1302.47 257.926C1270.25 298.648 1238.48 339.84 1210.74 383.787C1207.05 389.633 1203.44 395.528 1199.9 401.472C1198.43 403.969 1196.96 406.441 1195.53 408.949C1194.1 411.446 1191.83 414.498 1193.61 417.675C1194.33 418.985 1195.8 420.01 1197.03 420.851C1207.57 428.118 1219.83 433.753 1231.57 438.746C1235.49 440.415 1239.42 441.96 1243.42 443.418C1245.16 444.073 1246.92 444.703 1248.68 445.284C1254.62 447.311 1260.6 449.128 1266.65 450.709C1270.1 451.624 1273.58 452.464 1277.06 453.231C1281.01 454.083 1281.69 453.354 1283.73 450.166C1287.24 444.691 1290.74 439.216 1294.25 433.741C1322.89 388.941 1351.21 343.869 1376.88 297.276C1399.55 256.122 1428.84 204.648 1434.61 157.302C1409.94 161.343 1389.78 170.773 1369.6 185.566L1369.59 185.578Z" fill="#27C467"/>
<path d="M1741.14 474.364C1734.78 464.736 1725.42 451.055 1722.47 446.965C1717.42 439.994 1714.41 431.417 1710.87 423.644L1698.65 396.776C1686.56 407.058 1679.26 414.498 1668.27 425.93C1672.19 434.94 1678.17 443.455 1682.09 452.477C1685.56 460.46 1689.37 469.26 1686.1 478.096C1684.5 482.385 1683.07 486.265 1682.91 490.751C1682.66 491.246 1682.57 491.839 1682.7 492.519C1682.81 493.112 1682.93 493.705 1683.05 494.311C1683.34 496.993 1683.94 499.65 1684.79 502.22C1685.45 504.989 1686.18 507.757 1686.99 510.488C1688.3 514.937 1689.41 520.227 1692.11 524.083C1696.91 530.917 1705.5 528.26 1709.16 521.784C1709.19 521.722 1709.23 521.636 1709.27 521.574C1709.65 521.784 1710.06 521.969 1710.5 522.105C1714.98 523.428 1719.29 519.881 1721.8 516.173C1724.95 517.903 1729.09 516.359 1731.3 513.566C1732.38 512.206 1733.33 510.711 1734.12 509.129C1734.86 509.759 1735.76 510.303 1736.86 510.698C1742.06 512.589 1744.92 508.486 1746.43 503.889C1750.39 491.864 1747.84 484.486 1741.14 474.364Z" fill="#ED8778"/>
<path d="M1705.49 434.52C1695.97 440.947 1685.92 446.558 1675.45 451.291C1672.74 452.514 1668.76 455.06 1665.85 455.332C1662.77 455.616 1661.76 451.649 1660.38 449.165C1657.31 443.653 1654.28 438.129 1651.31 432.567C1627.84 388.657 1607.46 343.091 1590.4 296.313C1580.89 270.211 1571.89 243.727 1567.34 216.241C1562.66 188.014 1551.67 158.081 1555.45 129.73C1592.95 125.182 1603.18 142.286 1615.48 156.956C1631.14 175.63 1641.7 198.716 1651.45 220.838C1672.5 268.605 1724.11 385.32 1727.99 397.308C1730.13 403.92 1733.34 410.927 1728.44 417.119C1724.54 422.026 1710.64 431.047 1705.5 434.52H1705.49Z" fill="#27C467"/>
<path d="M1814.87 591.141C1814.02 599.816 1805.61 606.033 1781.42 620.801C1752.43 638.511 1706.13 655.505 1697.96 658.125C1687.96 661.326 1675.53 662.846 1669.34 652.736C1664.94 645.544 1664.94 635.212 1663.75 626.981C1661.65 612.336 1659.72 597.666 1657.91 582.984C1657.38 576.211 1657.29 569.253 1661.91 563.791C1667.08 557.686 1676.22 554.2 1683.14 550.382C1697.92 542.213 1757.31 516.111 1771.56 510.006C1781.09 505.915 1791.83 502.22 1798.81 513.034C1803.18 519.819 1803.47 523.044 1806.1 530.62C1811.02 544.771 1816.37 575.989 1814.87 591.128V591.141Z" fill="#5D5F67"/>
<path d="M1507.3 34.8263C1503.22 26.4595 1496.54 20.9599 1488.16 17.1781C1480.76 13.8413 1471.44 10.0719 1463.14 10.8875C1452.49 11.938 1441.67 19.8105 1433.15 25.6809C1431.11 27.0898 1431.91 29.9447 1433.6 30.6615C1433.77 30.8592 1433.97 31.0322 1434.23 31.1929C1447.25 39.053 1454.09 53.9576 1467.72 61.0268C1472.64 63.5727 1478.04 64.9074 1483.57 64.0794C1493.18 62.6334 1499.99 57.1461 1509.55 62.9794C1511.42 64.1288 1513.41 62.6952 1513.63 60.7302C1514.61 52.388 1510.94 42.2539 1507.3 34.814V34.8263Z" fill="#333439"/>
</g>
<defs>
<clipPath id="clip0_828_1253">
<rect width="1815.13" height="1196" fill="white"/>
</clipPath>
</defs>
</svg>
