<svg width="35" height="35" viewBox="0 0 35 35" fill="none" xmlns="http://www.w3.org/2000/svg">
<rect width="35" height="35" rx="17.5" fill="#5D5F67"/>
<g clip-path="url(#clip0_2986_30395)">
<path d="M17.4999 20.9276C19.078 20.9276 20.3573 19.6483 20.3573 18.0703C20.3573 16.4922 19.078 15.2129 17.4999 15.2129C15.9219 15.2129 14.6426 16.4922 14.6426 18.0703C14.6426 19.6483 15.9219 20.9276 17.4999 20.9276Z" fill="#E7EBEF"/>
<path d="M23.7836 12.9284H22.2037C21.988 12.9284 21.7892 12.8057 21.6919 12.6133L21.1801 11.5917C20.8945 11.008 20.3002 10.64 19.6488 10.6421H15.3469C14.6976 10.64 14.1033 11.008 13.8135 11.5896L13.2996 12.6112C13.2044 12.8036 13.0077 12.9263 12.792 12.9263H11.2121C10.2666 12.9284 9.4989 13.6962 9.4989 14.6416V22.6426C9.4989 23.5901 10.2666 24.3579 11.2142 24.3579H23.7857C24.7333 24.3579 25.501 23.5901 25.501 22.6426V14.6416C25.501 13.694 24.7333 12.9263 23.7857 12.9263L23.7836 12.9284ZM17.5 22.0716C15.2898 22.0716 13.5005 20.2802 13.5005 18.0721C13.5005 15.864 15.2919 14.0726 17.5 14.0726C19.708 14.0726 21.4994 15.864 21.4994 18.0721C21.4973 20.2802 19.708 22.0695 17.5 22.0716ZM23.2126 15.7858C22.8974 15.7858 22.6415 15.5299 22.6415 15.2147C22.6415 14.8996 22.8974 14.6437 23.2126 14.6437C23.5277 14.6437 23.7836 14.8996 23.7836 15.2147C23.7836 15.5299 23.5277 15.7858 23.2126 15.7858Z" fill="#E7EBEF"/>
</g>
<defs>
<clipPath id="clip0_2986_30395">
<rect width="16" height="16" fill="white" transform="translate(9.5 9.5)"/>
</clipPath>
</defs>
</svg>
