<svg width="20" height="20" viewBox="0 0 20 20" fill="none" xmlns="http://www.w3.org/2000/svg">
<path d="M16.297 3.441H15.3981V1.8225C15.3981 1.54497 15.1746 1.32147 14.897 1.32147H14.0988C13.8213 1.32147 13.5978 1.54497 13.5978 1.8225V3.441H6.39927V1.8225C6.39927 1.54497 6.17578 1.32147 5.89825 1.32147H5.10005C4.82252 1.32147 4.59903 1.54497 4.59903 1.8225V3.441H3.70012C2.20933 3.441 1.00098 4.64936 1.00098 6.14015V7.03905H18.9986V6.14015C18.9986 4.64936 17.7902 3.441 16.2994 3.441H16.297Z" fill="#7E828E"/>
<path d="M1.00098 15.9794C1.00098 17.4702 2.20933 18.6785 3.70012 18.6785H16.2994C17.7902 18.6785 18.9986 17.4702 18.9986 15.9794V8.78082H1.00098V15.9794Z" fill="#7E828E"/>
</svg>
