<svg width="393" height="400" viewBox="0 0 393 400" fill="none" xmlns="http://www.w3.org/2000/svg">
<path d="M240.553 196.842C238.679 187.704 230.068 181.935 221.605 179.829C217.808 178.885 213.807 178.407 209.874 178.548C208.461 171.059 204.38 164.211 196.388 162.707C190.425 161.585 184.784 163.229 180.122 167.065C176.168 170.317 173.643 175.136 172.096 179.959C171.896 180.587 171.714 181.221 171.545 181.858C170.053 182.442 168.658 183.288 167.473 184.359C165.209 183.558 162.845 183.107 160.397 183.253C154.111 183.63 148.495 187.362 145.852 193.184C143.228 198.967 143.051 205.214 145.679 211.036C148.124 216.45 154.532 218.821 159.776 220.495C164.277 221.93 224.803 221.177 228.407 219.893C232.645 218.381 236.344 215.988 238.797 212.11C241.256 208.224 241.453 201.259 240.55 196.848L240.553 196.842Z" fill="#27C467"/>
<path d="M176.452 218.953C177.158 215.751 178.182 212.632 179.493 209.64C179.38 209.526 179.282 209.38 179.203 209.194C176.521 202.812 176.315 195.618 178.914 189.165C179.606 187.446 182.407 188.199 181.707 189.939C179.622 195.122 179.361 200.929 181.143 206.218C184.176 200.494 188.296 195.356 193.276 191.199C194.701 190.011 196.762 192.064 195.325 193.263C186.751 200.417 180.92 210.414 178.895 221.444C178.585 223.141 176.147 222.613 176.052 221.056C176.031 220.727 176.01 220.396 175.992 220.067C175.96 219.555 176.155 219.184 176.455 218.95L176.452 218.953Z" fill="#5D5F67"/>
<path d="M61.2383 85.3973C61.4699 85.1164 61.7832 84.9972 61.9912 84.9707C61.7937 85.0952 61.6016 85.2198 61.4462 85.3284C61.3778 85.3496 61.3094 85.3734 61.2383 85.3946V85.3973Z" fill="#27C467"/>
<path d="M17.7341 173.314C18.8345 167.895 20.4509 162.595 22.3436 157.407C24.21 152.298 25.9922 146.927 29.038 142.378C29.4723 141.728 29.9278 141.096 30.399 140.478C28.7932 138.818 27.2742 137.059 25.7843 135.21C22.4199 131.035 19.8533 126.17 18.824 120.865C16.8391 110.627 17.6078 97.7192 25.9554 90.3477C30.6175 86.231 36.3352 84.2495 42.5347 84.2177C45.3093 84.2044 48.0997 84.528 50.848 84.8941C52.0116 85.0479 53.1725 85.2389 54.3361 85.4007C54.7415 85.4564 55.1469 85.5121 55.5523 85.5652C55.7313 85.5891 55.9129 85.6076 56.0946 85.6288C57.2871 85.6739 58.4717 85.7296 59.6642 85.658C60.0248 85.6368 60.5698 85.4936 61.0199 85.4591C61.091 85.4379 61.1621 85.4193 61.2332 85.3954C61.2174 85.414 61.1989 85.4326 61.1858 85.4538C61.2121 85.4538 61.2411 85.4538 61.2674 85.4538C61.3174 85.4166 61.3779 85.3742 61.4411 85.3291C61.5385 85.2973 61.6386 85.2681 61.736 85.2336C62.352 85.0798 62.2704 84.9365 61.9887 84.971C62.2467 84.8092 62.5099 84.6527 62.71 84.5439C62.7179 84.536 62.7258 84.5307 62.731 84.5227C62.8863 84.3556 63.0311 84.154 63.1759 83.9524C62.9995 78.1301 63.6419 72.2706 64.9871 66.6419C67.5379 55.9786 72.2185 45.3949 80.9951 38.5248C85.6099 34.9093 91.9699 32.6043 97.8509 32.8854C99.2672 32.9544 100.689 33.1003 102.084 33.3682C102.826 33.4504 103.558 33.5698 104.269 33.7316C109.413 34.9146 113.662 38.0977 116.723 42.3498C122.275 50.0554 121.367 59.6524 122.425 68.565C122.42 68.5305 122.441 68.7188 122.467 68.9628C122.533 69.2679 122.599 69.5729 122.675 69.878C122.894 70.7294 123.217 71.5411 123.478 72.3793C123.494 72.4324 123.51 72.4801 123.523 72.5252C123.707 72.886 123.889 73.2467 124.081 73.6022C124.592 74.5571 125.134 75.4987 125.655 76.4483C128.256 81.2017 129.978 85.8278 130.791 91.1859C131.736 97.4168 130.47 103.717 127.345 108.942C133.134 113.998 137.63 120.55 140.407 127.757C144.58 138.587 144.048 152.248 137.612 162.11C134.534 166.824 130.609 170.739 125.745 173.312C131.984 186.771 133.189 202.641 126.661 216.063C122.122 225.395 113.833 232.822 104.614 237.262C99.1118 239.912 93.4941 241.809 87.4947 242.933C81.5032 244.058 75.3406 244.978 69.228 244.825C62.9232 244.665 56.9422 243.233 50.9876 241.249C44.9513 239.238 39.6205 236.724 34.6083 232.755C26.8004 226.572 21.2959 217.209 18.4844 207.705C15.1806 196.535 15.4281 184.654 17.7315 173.314H17.7341Z" fill="#27C467"/>
<path d="M73.7335 156.733C74.8839 144.947 76.287 133.191 77.9271 121.467C78.3456 118.478 82.884 119.555 82.4681 122.533C76.7109 163.72 73.9941 205.32 74.3548 246.912C74.3811 249.962 74.4259 253.01 74.4864 256.06C85.6534 242.246 90.3708 224.362 94.4722 207.296C95.9779 201.033 97.4574 194.765 98.95 188.5C99.6476 185.566 104.194 186.616 103.491 189.566C100.94 200.28 98.5762 211.065 95.6041 221.67C92.9243 231.227 89.6284 240.739 84.6952 249.373C81.9021 254.262 78.5773 258.845 74.7049 262.92C74.6891 262.938 74.6707 262.952 74.6549 262.968C74.8313 269.336 75.0787 275.702 75.3946 282.063C75.5447 285.082 70.8878 285.273 70.7378 282.252C68.6502 240.405 69.669 198.436 73.7414 156.738L73.7335 156.733Z" fill="#5D5F67"/>
<path d="M208.965 91.8382C208.936 91.1087 208.618 90.3262 208.249 89.8275C206.986 88.1113 204.764 88.1538 202.903 88.6657C200.936 89.2068 199.388 90.2042 198.248 91.9177C197.069 93.6923 196.327 95.756 194.658 97.1565C194.458 97.3237 194.745 97.6101 194.945 97.4457C195.126 97.2945 195.295 97.1327 195.455 96.9656C195.487 97.069 195.545 97.1088 195.611 97.1221C196.269 98.2361 196.99 99.3025 197.777 100.329C197.764 100.334 197.751 100.337 197.738 100.342C197.501 100.448 197.706 100.799 197.943 100.695C198.293 100.541 198.841 100.748 199.22 100.767C199.565 100.783 199.917 100.759 200.257 100.695C200.931 100.568 201.563 100.281 202.108 99.8648C203.479 98.8224 204.192 97.1194 205.648 96.1698C206.762 95.443 208.294 95.1247 208.899 93.8011C209.192 93.1645 209.189 92.4668 208.968 91.8382H208.965Z" fill="#ED8778"/>
<path d="M83.5521 75.1835C83.273 74.3559 82.4359 74.4434 81.97 75.0482C81.5251 75.6212 81.275 76.5841 81.0223 77.2525C80.8143 77.8016 80.6221 78.3533 80.4405 78.9077C80.4352 78.7936 80.4273 78.6769 80.4221 78.5629C80.3563 76.8758 80.4984 75.1782 80.5379 73.4859C80.6353 72.5707 80.7459 71.6583 80.8485 70.7458C80.9091 70.1941 81.1671 69.263 80.8591 68.7537C80.451 68.08 79.9377 68.4964 79.6507 68.9871C79.4296 69.3691 79.2454 69.7723 79.0874 70.1861C79.119 69.8492 79.1453 69.5123 79.1506 69.1728C79.1585 68.7351 79.3085 67.6556 78.7189 67.4566C77.8712 67.1728 77.3473 68.6874 77.0815 69.8439C76.9472 69.3293 76.6866 69.0296 76.2075 69.2444C75.6389 69.4991 75.2966 70.7537 75.1097 71.3055C74.7754 72.3002 74.649 73.3294 74.6727 74.3745C74.4595 73.1092 74.0541 71.897 73.2222 72.4938C72.6457 72.9076 72.6852 74.1304 72.6484 74.7618C72.5747 76.0403 72.7405 77.3241 73.0169 78.5708C73.983 82.929 76.1285 88.1969 80.9854 89.1678C81.296 89.2288 81.4303 88.7513 81.117 88.6877C81.0565 88.6744 81.0012 88.6558 80.9433 88.6426C81.1671 88.5179 81.3592 88.3481 81.5145 88.1465C81.6435 88.3057 81.9594 88.2606 81.9542 88.0006C81.891 85.5205 81.9621 83.0749 82.5939 80.6637C82.8466 79.6928 83.1625 78.7379 83.3652 77.7538C83.5179 77.0138 83.7995 75.913 83.5521 75.1809V75.1835Z" fill="#ED8778"/>
<path d="M176.869 63.8932C176.842 63.3786 176.416 63.0762 175.926 63.169C171.691 63.978 167.421 64.8083 163.396 66.4131C159.75 67.8693 156.812 69.9808 153.945 72.6307C152.066 74.3681 150.257 75.7501 147.735 76.3867C145.59 76.9278 143.355 77.0127 141.201 77.5326C137.468 78.4318 133.875 80.1798 131.051 82.8271C128.115 85.5778 126.336 89.2118 124.712 92.8405C122.869 96.9599 120.979 100.631 118.212 104.207C115.793 107.337 114.761 110.472 114.777 114.448C114.792 119.008 115.464 123.594 116.414 128.043C116.543 128.645 117.177 128.692 117.562 128.403C117.638 128.406 117.717 128.401 117.804 128.377C123.456 126.751 130.108 124.592 132.49 118.552C133.783 115.273 132.959 111.724 133.851 108.384C134.868 104.589 139.303 100.955 142.839 99.6178C145.187 98.7292 147.324 98.2172 148.622 95.8883C149.178 94.8909 149.357 93.9095 150.454 93.3206C151.4 92.814 152.553 92.6919 153.6 92.6468C155.332 92.5752 157.062 92.8564 158.789 92.9545C161.7 93.119 164.172 92.5991 166.499 90.7715C169.901 88.103 172.625 85.7502 177.137 85.3921C177.524 85.3603 177.903 85.0738 177.882 84.6414C177.543 77.7262 177.203 70.8084 176.866 63.8932H176.869Z" fill="#E7EBEF"/>
<path d="M104.397 311.441C104.244 312.073 104.526 312.794 105.039 312.884C106.105 313.073 107.016 313.439 107.938 314.073C108.343 314.351 109.051 314.126 109.288 313.508C112.226 305.895 115.035 298.221 117.68 290.476C117.925 289.762 117.633 289.295 117.204 289.155C117.18 289.027 117.141 288.897 117.067 288.767C116.338 287.478 114.732 285.972 113.274 286.388C111.536 286.884 110.825 290.42 110.202 292.141C107.917 298.449 105.984 304.892 104.394 311.439L104.397 311.441Z" fill="#ED8778"/>
<path d="M96.0404 314.542C94.9242 315.362 93.7317 316.887 95.556 318.219C96.6696 319.03 98.7124 319.468 101.661 318.314C103.688 317.524 104.338 317.118 106.404 316.431C107.381 316.107 109.492 315.42 110.369 314.818C111.206 314.242 112.754 308.465 112.641 305.839C112.625 305.441 112.217 305.21 111.985 305.216C110.074 305.25 107.149 304.95 105.212 305.067C104.27 305.123 104.333 308.091 103.485 309.335C102.537 310.728 97.2803 313.635 96.043 314.545L96.0404 314.542Z" fill="#7E828E"/>
<path d="M106.407 307.635C106.704 307.542 106.62 307.057 106.317 307.15C105.583 307.378 104.756 307.471 104.124 307.012C104.085 307.171 104.045 307.341 104.006 307.513C104.719 307.932 105.593 307.89 106.407 307.635ZM103.54 309.272C104.251 309.68 105.117 309.638 105.925 309.383C106.223 309.29 106.138 308.805 105.836 308.898C105.122 309.12 104.322 309.211 103.695 308.794C103.648 308.959 103.595 309.118 103.54 309.269V309.272Z" fill="#333439"/>
<path d="M94.6531 316.335C96.1142 317.144 96.9724 317.611 98.7967 317.447C100.539 317.29 103.238 316.664 104.846 315.98C106.81 315.147 108.753 314.211 110.817 313.712C110.701 314.274 110.551 314.672 110.361 314.802C109.487 315.404 107.373 316.091 106.397 316.415C104.33 317.102 103.677 317.508 101.653 318.298C98.7045 319.449 96.6617 319.014 95.5482 318.203C94.7111 317.593 94.5136 316.94 94.6479 316.333L94.6531 316.335Z" fill="#5D5F67"/>
<path d="M181.019 239.026C181.664 239.034 182.298 238.594 182.269 238.071C182.211 236.984 182.361 236.005 182.764 234.96C182.943 234.498 182.567 233.856 181.914 233.761C173.893 232.591 165.837 231.562 157.753 230.711C157.008 230.631 156.621 231.024 156.582 231.474C156.463 231.525 156.347 231.594 156.239 231.695C155.157 232.703 154.062 234.615 154.794 235.955C155.665 237.549 159.246 237.448 161.049 237.673C167.662 238.496 174.327 238.941 181.016 239.026H181.019Z" fill="#ED8778"/>
<path d="M186.367 246.759C187.412 247.669 189.155 248.499 190.031 246.406C190.566 245.131 190.526 243.027 188.749 240.393C187.528 238.581 186.988 238.035 185.859 236.16C185.324 235.274 184.184 233.356 183.405 232.632C182.66 231.939 176.727 231.722 174.213 232.425C173.831 232.531 173.699 232.982 173.757 233.21C174.221 235.077 174.592 238.016 175.139 239.894C175.408 240.807 178.261 240.075 179.654 240.627C181.215 241.245 185.211 245.749 186.369 246.759H186.367Z" fill="#7E828E"/>
<path d="M176.882 237.908C176.724 237.638 176.274 237.832 176.432 238.105C176.819 238.773 177.092 239.564 176.792 240.29C176.955 240.293 177.129 240.296 177.303 240.293C177.545 239.497 177.308 238.651 176.879 237.908H176.882ZM179.109 240.354C179.343 239.564 179.109 238.723 178.68 237.988C178.522 237.717 178.072 237.911 178.23 238.184C178.606 238.834 178.874 239.601 178.614 240.309C178.785 240.317 178.948 240.333 179.109 240.354Z" fill="#333439"/>
<path d="M188.417 247.719C188.87 246.104 189.128 245.157 188.559 243.401C188.017 241.727 186.801 239.218 185.779 237.79C184.531 236.05 183.189 234.355 182.241 232.44C182.812 232.427 183.228 232.485 183.397 232.642C184.176 233.366 185.316 235.284 185.85 236.17C186.98 238.045 187.519 238.592 188.741 240.403C190.518 243.037 190.557 245.141 190.023 246.417C189.62 247.377 189.036 247.716 188.417 247.722V247.719Z" fill="#5D5F67"/>
<path d="M168.2 231.527C165.436 230.689 158.958 229.551 156.138 229.076C153.645 228.655 151.152 228.244 148.662 227.803C149.505 225.466 150.278 223.1 150.95 220.7C152.219 216.167 153.124 211.533 153.706 206.845C153.964 204.771 154.156 202.689 154.277 200.601C154.377 198.877 154.698 196.779 153.782 195.227C151.982 192.177 146.017 192.28 143.068 192.317C138.538 192.378 134.173 193.546 130.085 195.58C129.698 195.774 129.461 196.052 129.34 196.363C128.869 196.503 128.45 196.856 128.25 197.479C128.087 197.986 127.929 198.498 127.768 199.004C126.863 197.742 125.528 196.965 124.02 196.294C118.931 194.028 113.413 193.137 107.917 193.58C107.548 193.609 107.219 193.71 106.94 193.864C105.645 193.572 103.926 194.729 104.205 196.607C105.782 207.243 108.633 217.628 112.581 227.546C113.913 230.894 115.375 234.183 116.954 237.406C112.237 256.61 108.454 276.072 105.603 295.685C105.497 296.414 105.663 297.292 106.361 297.658C109.049 299.067 111.734 300.475 114.422 301.884C115.164 302.274 116.283 302.16 116.68 301.255C123.798 285.144 130.906 269.027 138.016 252.91C139.046 252.583 140.054 252.244 141.015 251.96C146.243 250.411 161.74 245.085 164.296 244.119C166.081 243.445 169.243 242.979 170.033 240.904C171.675 236.596 169.022 231.777 168.2 231.527Z" fill="#E7EBEF"/>
<path d="M201.667 100.085C201.088 99.093 200.172 98.1699 199.406 97.3185C198.282 96.0718 197.069 94.1513 195.228 95.0452C194.096 95.5943 192.999 96.3476 191.946 97.162C191.269 96.7243 190.551 96.406 189.792 96.2681C187.952 95.9312 186.391 96.9869 184.972 98.0161C182.464 99.8384 179.973 101.687 177.472 103.52C173.023 106.785 168.577 110.053 164.126 113.316C159.145 116.966 154.241 120.963 148.947 124.138C148.584 124.356 148.218 124.558 147.849 124.746C147.786 124.449 147.657 124.17 147.607 123.873C146.738 118.703 140.813 120.319 132.296 119.947C128.914 119.799 120.719 117.592 118.918 121.027C118.408 121.998 118.115 123.157 117.986 124.382C115.343 123.841 112.914 123.184 111.008 121.032C109.331 119.141 108.172 116.844 106.572 114.889C104.669 112.568 102.252 110.778 100.159 108.645C96.0183 104.425 94.9417 98.544 91.8722 93.65C90.498 91.4616 88.3736 89.321 86.0281 88.6101C85.2489 86.7931 84.2907 85.0425 83.0955 83.4748C82.7349 83.0026 82.5032 82.7692 81.8977 82.9496C80.8026 83.2732 79.6891 83.9443 78.6835 84.4854C77.2093 85.2785 75.0665 86 75.4771 88.016C75.8483 89.8383 76.6591 91.6977 77.491 93.4484C76.2853 96.7561 76.5591 100.65 77.7911 103.96C80.2051 110.443 85.3252 115.518 88.1314 121.852C90.8455 127.974 93.3516 133.332 98.7745 137.489C99.8407 138.306 100.946 139.072 102.055 139.831C102.139 143.401 102.976 146.908 103.023 150.547C103.089 155.921 99.688 159.977 98.4376 164.996C97.1345 170.232 98.2323 175.654 96.7107 180.885C95.3602 185.519 93.7702 190.235 96.2474 194.787C96.4185 195.1 96.6422 195.301 96.8923 195.415C101.515 203.206 112.074 201.813 120.027 202.089C125.8 202.291 131.541 202.986 137.261 203.765C142.482 204.476 144.732 205.328 150.002 205.521C152.316 205.606 154.601 205.37 156.789 204.577C157.758 204.224 158.692 203.76 159.69 203.49C160.94 203.147 162.296 203.208 163.512 202.731C167.387 201.211 167.598 195.354 167.437 191.845C167.219 187.057 165.795 182.434 164.8 177.776C164.268 175.288 163.849 172.77 163.844 170.216C163.836 167.465 164.386 164.765 164.663 162.038C164.947 159.237 164.921 156.404 163.915 153.741C163.031 151.401 161.509 149.417 160.324 147.237C159.132 145.046 163.052 139.55 163.676 139.136C167.206 136.781 169.683 133.282 172.779 130.441C174.556 128.81 176.409 127.764 178.691 127.019C180.697 126.364 182.664 125.696 184.175 124.141C185.525 122.749 186.328 120.985 187.305 119.335C188.724 116.945 190.643 114.979 193.065 113.621C194.67 112.719 196.531 112.191 197.371 110.388C198.087 108.846 197.811 106.984 197.371 105.385C198.874 104.207 200.278 102.881 201.457 101.38C201.825 100.91 201.991 100.629 201.67 100.082L201.667 100.085Z" fill="#46C0FF"/>
<path d="M125.675 133.5C123.745 133.192 121.587 132.869 120.113 131.447C118.33 129.725 118.654 127.296 119.052 125.078C119.107 124.768 118.636 124.632 118.578 124.945C118.191 127.046 117.841 129.42 119.246 131.229C120.747 133.16 123.282 133.619 125.541 133.975C125.851 134.023 125.983 133.548 125.672 133.497L125.675 133.5Z" fill="#564B33"/>
<path d="M147.801 126.346C147.672 127.566 147.535 128.877 146.853 129.935C146.132 131.057 144.847 131.598 143.623 131.951C141.146 132.667 138.55 133.068 135.997 133.367C135.686 133.405 135.683 133.898 135.997 133.861C138.942 133.521 142.217 133.192 144.966 132.009C147.419 130.954 148.03 128.847 148.288 126.346C148.319 126.03 147.832 126.033 147.798 126.346H147.801Z" fill="#564B33"/>
<path d="M157.932 99.972C158.229 99.3221 158.487 99.0489 158.248 98.2797C157.627 96.2929 155.184 96.6377 153.541 96.6006C153.512 96.59 153.483 96.582 153.446 96.582C153.396 96.582 153.344 96.59 153.291 96.59C153.262 96.59 153.228 96.59 153.199 96.5847C153.154 96.582 153.12 96.5926 153.08 96.6006C149.927 96.8101 146.462 99.6006 144.83 102.142C144.477 102.691 144.212 103.28 144.156 103.94C144.104 104.548 144.277 105.137 144.148 105.744C144.03 106.296 143.706 106.797 143.353 107.224C142.148 108.68 140.763 109.569 140.031 111.389C139.086 113.736 138.067 118.909 141.284 120.047C142.814 120.588 143.869 119.283 144.77 118.235C145.825 117.004 146.665 115.535 147.952 114.564C148.144 114.447 151.967 111.741 154.247 109.251C155.634 107.736 156.595 107.123 156.587 104.988C156.584 104.15 156.437 103.317 156.576 102.481C156.755 101.428 157.529 100.853 157.932 99.972Z" fill="#F9F9F9"/>
<path d="M160.621 84.0967C158.376 83.7599 156.101 83.8766 153.845 83.6803C152.168 83.5344 150.723 83.2002 149.196 82.5105C148.106 82.0198 147.148 81.4946 145.948 81.3407C141.828 80.8155 137.598 84.0516 134.799 86.7652C131.509 89.9589 129.647 93.7892 127.965 97.9908C127.394 99.4205 126.762 100.927 125.749 102.108C124.954 103.036 123.901 103.593 122.961 104.344C121.289 105.681 120.344 107.543 119.931 109.636C119.081 113.93 119.747 119.116 123.856 121.431C124.006 121.516 124.156 121.561 124.301 121.583C124.496 121.774 124.754 121.909 125.088 121.935C126.757 122.065 128.81 122.612 130.427 121.949C131.306 120.962 132.043 119.832 132.564 118.506C133.857 115.227 133.033 111.678 133.925 108.338C134.941 104.543 139.377 100.909 142.913 99.5717C145.261 98.6831 147.398 98.1712 148.696 95.8423C149.252 94.8449 149.431 93.8634 150.528 93.2746C151.473 92.7679 152.626 92.6459 153.674 92.6008C155.406 92.5292 157.136 92.8104 158.863 92.9085C161.774 93.073 164.246 92.5531 166.573 90.7255C167.231 90.2082 167.866 89.7042 168.49 89.2241C167.181 86.2002 163.809 84.5689 160.619 84.0914L160.621 84.0967Z" fill="#D8DDE4"/>
<path d="M141.979 90.3619C141.811 89.8155 141.587 89.3141 141.069 89.0064C140.774 88.8314 139.186 88.7598 138.707 88.5661C138.268 88.391 137.825 87.842 137.644 87.4229C136.093 83.8976 131.9 89.1497 130.562 91.667C129.646 93.3885 128.446 94.3805 126.985 95.606C126.237 96.2346 125.627 96.9721 125.237 97.8766C124.392 99.8342 124.729 101.893 125.848 103.654C125.942 103.802 126.074 103.866 126.211 103.877C126.379 103.975 126.587 103.975 126.756 103.779C128.483 101.749 132.308 102.084 134.54 100.497C135.356 99.919 135.946 99.1896 136.557 98.4071C137.731 96.9084 138.871 95.911 140.345 94.781C141.735 93.7147 142.538 92.1444 141.985 90.3592L141.979 90.3619Z" fill="#333439"/>
<path d="M142.677 97.9157C140.41 96.1226 137.822 95.226 135.153 95.8706C134.903 95.7194 134.587 95.6664 134.221 95.7884C131.412 96.7062 129.359 96.4966 127.919 98.9582C125.7 102.754 124.91 109.897 124.786 113.972C124.686 117.24 125.663 120.439 127.561 123.24C129.314 125.826 134.074 125.176 136.998 124.03C140.439 122.685 142.026 121.067 143.801 117.706C145.535 114.42 147.354 110.85 147.407 107.133C147.462 103.162 145.749 100.345 142.677 97.9131V97.9157Z" fill="#ED8778"/>
<path d="M152.414 89.881C151.206 89.6741 151.535 89.3902 150.682 88.7006C150.445 88.5096 150.169 88.369 149.887 88.255C148.808 87.8173 147.663 88.0507 146.623 88.4778C143.859 89.6184 141.232 92.3293 139.668 94.8412C139.007 95.8996 136.151 98.8307 137.393 99.3002C139.368 100.046 140.563 101.621 140.668 102.932C140.921 106.091 140.347 107.924 142.343 109.979C142.635 110.438 142.887 110.9 142.887 111.539C142.887 112.621 142.256 113.131 141.755 113.99C141.005 115.277 141.2 116.144 141.763 117.417C142.011 117.979 141.99 119.672 142.856 119.762C143.835 119.863 144.651 117.68 144.967 117.086C146.554 114.078 147.963 111.046 147.994 107.571C148 106.913 148.166 105.489 147.557 104.942C148.474 103.871 149.819 103.152 150.416 101.892C150.732 101.229 150.464 100.921 150.637 100.279C150.608 100.046 150.577 99.8121 150.548 99.5787C151.038 98.8466 151.688 98.4142 152.499 98.2763C153.512 97.8201 154.589 97.698 155.21 96.6397C155.373 96.3585 155.452 96.0322 155.539 95.7245C155.544 95.446 155.526 95.1702 155.486 94.8943C155.568 94.2762 155.879 93.8571 156.421 93.6317C156.834 93.0587 157.29 92.9341 157.308 92.1012C157.358 89.4592 153.939 90.1409 152.417 89.881H152.414Z" fill="#333439"/>
<path d="M142.168 98.5304C141.965 97.2518 141.399 96.0874 140.365 95.2943C137.753 93.2995 134.01 94.273 131.167 95.1404C128.398 95.9839 125.273 98.1882 126.313 101.528C126.328 101.576 126.355 101.61 126.384 101.637C126.147 102.117 125.973 102.642 125.884 103.217C125.834 103.53 126.307 103.666 126.357 103.35C127.055 99.0184 132.07 98.1776 135.661 98.7956C136.524 98.9442 137.398 99.1882 138.161 99.6259C138.991 100.101 139.486 100.782 140.117 101.464C140.578 101.96 141.357 102.552 141.939 101.881C142.573 101.148 142.302 99.3792 142.168 98.5304Z" fill="#333439"/>
<path d="M151.03 128.608C150.883 126.141 150.743 122.666 148.424 120.942C145.712 118.926 140.637 118.441 137.273 117.905C133.329 117.279 124.963 116.205 124.384 116.218C121.644 116.287 119.367 117.563 117.842 119.536C116.021 121.897 114.473 125.502 114.723 128.377C115.228 134.173 122.583 135.083 127.833 135.08C131.958 135.078 136.025 135.308 140.105 135.841C143.043 136.223 146.326 136.637 148.856 134.916C151.125 133.369 151.167 130.945 151.03 128.613V128.608Z" fill="#E7EBEF"/>
<path d="M152.889 242.87C152.065 240.225 151.809 237.703 152.512 235.008C153.002 233.135 153.797 231.355 153.963 229.405C153.984 229.156 153.992 228.912 153.989 228.673C152.215 228.376 150.44 228.076 148.669 227.763C149.511 225.427 137.065 255.04 138.02 252.875C139.05 252.549 140.058 252.209 141.019 251.926C143.817 251.095 149.551 249.188 154.671 247.443C154.123 245.88 153.349 244.35 152.889 242.872V242.87ZM127.517 207.912C127.906 207.044 126.63 206.283 126.237 207.158C124.516 210.999 120.878 213.039 117.719 215.535C115.044 217.649 112.512 220.1 110.945 223.182C111.469 224.633 112.014 226.074 112.583 227.503C113.915 230.851 115.376 234.14 116.955 237.363C116.331 239.899 127.464 208.026 127.517 207.909V207.912Z" fill="#D8DDE4"/>
<path d="M326.162 162.176C327.552 160.893 327.768 158.874 327.539 157.089C327.207 154.513 325.986 151.964 324.735 149.728C323.882 148.2 323.153 147.028 323.092 145.203C323.053 144.004 323.108 142.879 322.721 141.723C320.944 136.399 314.69 135.797 310.085 137.057C309.419 137.24 308.959 138.091 309.512 138.677C319.918 149.68 318.599 166.98 307.19 176.365C300.34 178.566 293.093 183.442 288.325 186.747C284.608 189.325 280.894 192.057 276.713 193.837C275.05 194.545 273.826 195.103 272.028 194.171C271.241 193.766 270.725 193.095 269.859 192.782C269.279 192.569 266.236 193.065 263.04 192.516C259.573 191.919 255.933 190.27 255.254 189.816C255.23 189.805 255.204 189.805 255.18 189.792C255.08 189.742 254.982 189.691 254.882 189.641C254.864 189.633 254.853 189.62 254.838 189.612C253.771 189.209 252.666 189.012 251.547 189.01C250.294 189.275 249.025 189.474 247.801 189.853C246.132 190.373 244.637 191.37 243.12 192.248C243.12 192.267 243.12 192.286 243.12 192.304C242.528 192.705 241.312 193.752 240.625 194.851C239.575 196.532 239.788 198.514 238.901 200.222C238.174 201.62 238.082 201.853 236.976 202.933C235.755 204.127 229.179 208.883 231.646 210.58C234.023 212.214 237.376 212.763 239.838 211.965C241.767 211.341 243.205 209.962 245.248 210.243C246.316 210.392 253.024 215.997 253.8 216.395C258.41 218.758 255.354 219.265 256.178 220.769C257.657 223.477 259.208 225.758 261.635 226.79C258.518 232.657 255.254 238.472 251.181 243.721C248.804 246.785 246.145 249.634 243.123 252.058C241.573 253.302 239.896 254.292 238.248 255.387C237.54 255.859 236.695 256.44 236.697 257.39C236.708 259.965 240.972 259.005 242.336 258.536C245.761 257.361 248.212 254.639 250.573 252.008C256.472 245.435 263.462 240.161 270.106 234.405C271.949 232.809 273.765 231.175 275.487 229.445C278.622 229.196 282.544 228.164 285.282 226.594C293.511 221.867 303.388 212.994 309.396 205.944C311.673 203.272 311.02 203.031 313.15 199.681C315.224 196.418 317.172 193.052 318.707 189.492C319.965 186.569 321.721 182.62 320.676 179.378C320.028 177.37 318.315 175.922 316.295 175.872C320.215 174.373 324.864 172.248 324.498 167.927C324.411 166.89 323.764 165.993 323.653 164.985C323.44 163.046 325.077 163.171 326.159 162.174L326.162 162.176Z" fill="#F4EDE6"/>
<path d="M362.935 198.765C355.138 195.535 353.277 191.901 350.121 186.972C349.26 185.63 348.328 184.77 346.646 184.802C343.961 184.853 341.154 188.16 338.459 186.98C338.374 185.885 337.772 184.598 337.553 183.76C337.085 181.948 336.532 179.975 335.126 178.651C334.476 178.038 333.77 177.688 332.899 177.465C332.328 177.319 331.754 177.349 331.185 177.229C329.811 176.937 328.903 176.327 327.697 175.67C325.425 174.431 323.29 174.64 320.805 175.139C320.284 175.242 313.292 175.296 313.687 175.436C309.367 183.136 307.016 185.598 306.079 194.402C306.056 194.614 309.351 203.46 307.675 204.646C307.156 205.012 307.738 205.805 308.256 205.442C314.54 201.049 321.274 199.2 328.808 198.516C335.089 197.946 341.404 194.436 346.496 190.967C348.717 195.959 352.195 199.744 357.402 201.444C359.368 202.086 362.051 202.829 363.699 201.089C364.612 200.123 364.307 199.328 362.938 198.76L362.935 198.765Z" fill="#F4EDE6"/>
<path d="M250.072 192.238C249.94 191.988 249.835 191.742 249.74 191.495C249.932 189.089 249.845 186.681 249.369 184.307C249.195 183.439 249.013 180.946 247.721 180.829C246.252 180.697 246.044 183.254 245.823 184.129C245.146 186.819 244.567 189.532 244.077 192.264C243.951 192.973 245.051 193.057 245.18 192.36C245.249 191.986 245.325 191.614 245.396 191.24C245.52 191.567 245.699 191.845 245.965 192.044C246.249 192.256 246.702 192.121 246.815 191.779C246.823 191.75 246.831 191.723 246.842 191.694C246.868 191.683 246.892 191.673 246.915 191.66C247.071 192.002 247.308 192.278 247.66 192.437C247.895 192.543 248.166 192.421 248.313 192.233C248.421 192.092 248.513 191.941 248.597 191.784C248.6 191.813 248.603 191.84 248.608 191.869C248.626 192.039 248.713 192.156 248.824 192.23C248.898 192.394 248.971 192.556 249.061 192.726C249.4 193.365 250.414 192.885 250.074 192.24L250.072 192.238Z" fill="#F4EDE6"/>
<path d="M256.541 192.402C256.67 190.004 256.797 187.585 256.484 185.195C256.315 183.929 256.27 181.834 254.859 181.372C254.683 181.314 254.443 181.327 254.306 181.47C251.782 184.094 251.724 188.524 250.302 191.736C250.013 192.394 251.05 192.773 251.34 192.123C251.421 191.94 251.492 191.752 251.566 191.566C251.685 191.858 252.061 191.99 252.337 191.871C252.293 192.402 252.938 192.532 253.275 192.213C253.572 192.107 253.798 191.887 253.983 191.603C254.07 192.049 254.185 192.494 254.351 192.953C254.48 193.309 254.83 193.327 255.099 193.181C255.086 193.386 255.067 193.59 255.036 193.792C254.97 194.513 256.078 194.609 256.147 193.887C256.181 193.529 256.194 193.189 256.197 192.855C256.378 192.784 256.528 192.63 256.539 192.402H256.541Z" fill="#F4EDE6"/>
<path d="M258.23 218.233C257.856 218.06 257.517 218.363 257.48 218.671C257.335 218.633 257.177 218.655 257.037 218.79C249.888 225.779 240.466 229.074 231.102 231.862C229.099 232.458 226.861 232.851 224.953 233.711C224.055 234.114 223.142 234.663 222.981 235.748C222.591 238.387 226.377 238.249 227.993 237.896C230.26 237.403 232.332 236.185 234.538 235.482C236.73 234.782 238.979 234.254 241.193 233.634C245.12 232.533 249.029 231.331 252.794 229.74C254.905 228.848 256.966 227.84 258.935 226.66C260.144 225.936 261.963 225.068 262.681 223.748C264.187 220.973 260.16 219.121 258.23 218.235V218.233Z" fill="#F4EDE6"/>
<path d="M369.786 182.015C363.976 181.779 358.548 181.416 353.201 178.917C349.234 177.063 345.804 175.835 341.368 176.299C338.051 176.646 334.855 177.301 331.599 176.193C329.153 175.36 326.903 174.007 324.286 173.758C319.329 173.286 314.232 175.694 310.344 178.575C309.678 179.068 310.529 180.262 311.205 179.766C312.871 178.54 314.785 177.386 316.815 176.543C316.791 176.731 316.849 176.93 317.028 177.105C323.033 183.034 328.956 190.275 338.133 186.203C340.178 185.296 342.113 184.087 344.28 183.485C347.262 182.657 349.863 183.691 352.653 184.649C357.368 186.27 362.272 186.766 367.235 186.792C369.554 186.803 372.115 187.005 374.408 186.599C375.451 186.413 376.722 185.936 376.954 184.76C377.593 181.522 371.373 182.087 369.791 182.02L369.786 182.015Z" fill="#F4EDE6"/>
<path d="M272.837 170.545C273.342 168.935 274.008 167.386 274.693 165.848C275.94 163.046 277.365 160.28 278.165 157.304C279.281 153.147 279.415 148.192 276.601 144.659C273.513 140.778 268.156 140.181 263.549 140.293C257.058 140.452 251.174 142.717 244.835 143.696C237.617 144.81 231.351 141.927 229.469 134.481C227.885 128.205 228.848 121.064 230.42 114.897C231.828 109.372 234.608 103.839 233.787 97.9872C233.034 92.6344 229.396 89.0481 224.033 88.5972C221.172 88.3558 218.26 88.8226 215.436 89.2656C212.198 89.7749 209.089 90.5203 206.306 92.3346C205.774 92.6821 206.269 93.5442 206.806 93.194C211.363 90.2258 218.3 89.2258 223.657 89.5733C231.043 90.0508 233.794 96.6371 232.665 103.287C231.652 109.258 229.082 114.791 228.258 120.842C227.621 125.507 227.35 130.494 228.598 135.086C229.672 139.033 232.049 142.463 235.929 143.988C240.921 145.951 246.288 144.545 251.248 143.245C257.031 141.73 263.46 140.444 269.422 141.712C275.961 143.102 278.718 148.537 277.673 154.908C276.635 161.237 272.45 166.492 271.231 172.773C271.068 173.612 270.82 174.675 271.11 175.495C271.478 176.537 271.992 176.492 272.681 177.108C274.445 178.686 274.603 178.834 273.861 180.45C273.511 181.208 273.068 181.941 272.644 182.659C271.789 184.11 265.503 194.588 264.507 195.943C264.126 196.461 264.989 196.959 265.366 196.447C266.948 194.299 274.142 182.779 275.053 180.23C275.817 178.092 275.114 177.707 273.674 176.442C272.4 175.325 271.878 174.739 272.192 173.039C272.347 172.195 272.581 171.362 272.837 170.545Z" fill="#46C0FF"/>
<path d="M268.19 192.137C267.282 192.095 266.416 192.095 265.507 192.14C265.076 192.161 264.944 192.596 265.099 192.864C261.967 200.957 258.729 209.074 253.114 215.975C252.961 216.164 253.072 216.514 253.293 216.612C254.219 217.031 255.064 217.501 255.901 218.066C256.136 218.225 256.433 218.084 256.581 217.899C262.517 210.413 266.618 201.861 268.672 192.726C268.74 192.418 268.529 192.15 268.193 192.134L268.19 192.137Z" fill="#46C0FF"/>
<path d="M256.503 179.657C256.463 179.596 256.416 179.549 256.368 179.503C256.258 179.074 255.797 178.724 255.305 179.018C253.136 180.313 252.146 182.435 251.398 184.782C250.314 188.193 249.163 190.838 246.465 193.265C244.883 194.687 243.135 196.352 243.39 198.705C243.588 200.522 244.991 201.623 246.762 201.652C248.094 201.674 249.211 200.992 250.429 200.589C251.941 200.087 253.409 200.554 254.852 200.132C256.837 199.551 257.819 197.225 258.472 195.44C260.391 190.196 259.569 184.267 256.5 179.657H256.503Z" fill="#564B33"/>
<path d="M276.714 193.834C275.05 194.543 273.826 195.1 272.028 194.169C271.241 193.763 270.725 193.092 269.859 192.779C269.772 192.747 269.622 192.734 269.43 192.726C269.022 196.394 266.258 199.389 265.855 203.134C265.586 205.625 266.587 208.485 268.985 209.575C270.541 210.283 271.896 209.76 273.487 209.498C275.932 209.095 277.941 210.551 280.347 210.729C283.761 210.981 287.146 209.546 289.334 206.893C291.624 204.116 291.866 201.026 291.89 197.561C291.911 194.694 292.719 192.914 295.152 191.378C296.56 190.49 297.913 189.681 299.008 188.394C300.785 186.304 302.183 182.779 300.738 180.134C300.58 179.845 300.39 179.596 300.18 179.37C295.699 181.699 291.472 184.561 288.326 186.742C284.609 189.32 280.894 192.052 276.714 193.832V193.834Z" fill="#564B33"/>
<path d="M315.693 172.76C317.962 170.15 318.199 166.985 319.273 163.847C320.271 160.94 322.026 158.794 321.8 155.555C321.626 153.107 320.576 150.693 318.804 148.993C317.509 147.749 315.985 147.144 314.592 146.346C318.854 156.285 316.48 168.163 308.188 175.654C308.369 175.72 308.561 175.776 308.78 175.81C311.352 176.206 314.05 174.648 315.69 172.762L315.693 172.76Z" fill="#564B33"/>
<path d="M231.66 210.598C232.071 210.882 232.513 211.129 232.974 211.346C233.185 210.996 233.158 210.479 233.369 210.123C233.598 209.739 233.911 209.484 233.859 208.993C233.751 207.991 232.753 207.784 231.905 207.794C231.073 208.924 230.75 209.969 231.66 210.595V210.598Z" fill="#564B33"/>
<path d="M360.852 287.087C358.645 285.681 356.252 284.589 353.758 283.803C355.719 275.344 355.073 266.252 351.451 258.137C347.242 248.711 336.911 241.74 326.449 242.495C313.802 243.407 305.681 253.643 302.138 265.071C300.82 269.32 300.223 273.64 300.08 277.982C299.859 278.236 299.643 278.494 299.421 278.745C298.934 279.291 298.432 279.818 297.907 280.328C297.482 280.074 297.061 279.812 296.649 279.538C294.589 278.167 292.674 276.584 290.581 275.262C283.024 270.494 273.523 269.854 266.223 275.505C258.829 281.229 256.643 289.999 257.546 298.778C251.758 300.025 246.378 302.541 242.35 307.195C232.525 318.545 234.876 334.653 244.115 345.542C251.566 354.325 263.334 358.362 274.386 359.936C286.002 361.59 297.931 362.428 309.664 362.351C322.62 362.265 335.465 360.345 347.315 354.941C351.301 353.122 354.908 350.475 357.591 347.085C357.981 346.877 358.371 346.663 358.757 346.44C368.602 340.723 375.042 330.993 376.02 319.627C377.098 307.097 371.561 293.902 360.857 287.087H360.852ZM261.418 329.942C261.296 329.812 261.18 329.67 261.063 329.529C261.028 329.481 260.995 329.432 260.961 329.383C260.953 329.372 260.946 329.359 260.939 329.346C261.777 330.176 261.911 330.399 261.766 330.297C261.649 330.178 261.53 330.063 261.418 329.942ZM259.679 326.964C259.675 326.953 259.672 326.942 259.668 326.931C260.204 327.657 260.36 328.083 260.331 328.194C260.126 327.768 259.924 327.342 259.679 326.964ZM259.39 323.112C259.472 323.026 259.547 322.931 259.631 322.847C259.725 322.752 259.829 322.66 259.932 322.569C259.948 322.56 259.959 322.552 259.974 322.54C260.012 322.516 260.054 322.496 260.091 322.474C259.763 322.819 259.525 323.039 259.371 323.165C259.375 323.148 259.384 323.13 259.388 323.112H259.39ZM294.261 292.74C294.128 292.829 294.003 292.915 293.904 292.985C293.886 292.992 293.873 292.999 293.855 293.003C293.78 292.961 293.708 292.919 293.635 292.88C293.8 292.813 294.007 292.763 294.261 292.74Z" fill="#27C467"/>
<path d="M341.035 298.462C337.259 311.395 325.541 321.412 312.209 323.099C312.909 312.415 314.496 301.788 316.957 291.354C317.66 288.374 313.079 287.105 312.376 290.089C308.6 306.108 306.857 322.498 307.128 338.884C299.753 334.827 293.738 328.856 289.666 321.425C285.185 313.245 283.067 304.024 281.047 294.992C280.379 292.003 275.796 293.268 276.466 296.257C278.63 305.936 280.994 315.77 285.923 324.469C290.631 332.78 297.755 339.535 306.284 343.811C306.625 343.981 306.96 344.067 307.282 344.082C307.586 351.21 308.271 358.331 309.338 365.412C309.792 368.432 314.372 367.15 313.919 364.148C312.112 352.15 311.468 339.999 311.96 327.895C327.535 326.156 341.196 314.88 345.622 299.729C346.482 296.782 341.899 295.524 341.042 298.464L341.035 298.462Z" fill="#5D5F67"/>
</svg>
