<svg width="20" height="18" viewBox="0 0 20 18" fill="none" xmlns="http://www.w3.org/2000/svg">
<g clip-path="url(#clip0_702_2210)">
<path d="M16.6268 5.1831C15.7526 2.24822 13.0675 0.25 10.0077 0.25C6.94794 0.25 4.26284 2.24822 3.38862 5.1831C3.0764 6.30709 3.0764 7.49353 3.32618 8.67997C3.76328 10.1162 5.01217 12.614 8.25927 16.4855C8.38416 16.6728 8.57149 16.8602 8.69638 16.9851C8.88371 17.2348 9.13349 17.4222 9.38327 17.6095C9.75793 17.7968 10.195 17.7968 10.5697 17.6095C10.8195 17.4222 11.0693 17.2348 11.2566 16.9851C11.3815 16.7977 11.5688 16.6104 11.6937 16.4855C14.9408 12.6764 16.1897 10.1162 16.5644 8.67997C16.939 7.49353 16.939 6.30709 16.6268 5.1831ZM13.1299 7.11887C13.1299 8.86731 11.7561 10.2411 10.0077 10.2411C8.25927 10.2411 6.8855 8.86731 6.8855 7.11887C6.8855 5.37043 8.25927 3.99665 10.0077 3.99665C11.7561 3.99665 13.1299 5.37043 13.1299 7.11887Z" fill="#7E828E"/>
</g>
<defs>
<clipPath id="clip0_702_2210">
<rect width="13.7077" height="17.5" fill="white" transform="translate(3.146 0.25)"/>
</clipPath>
</defs>
</svg>
