<svg width="16" height="16" viewBox="0 0 16 16" fill="none" xmlns="http://www.w3.org/2000/svg">
<path d="M0.255083 6.74993C0.402654 2.96388 3.39312 0 7.06503 0C10.7369 0 13.8815 3.15654 13.8815 7.03668C13.8815 8.47494 13.454 9.87959 12.6662 11.049L15.4505 13.921C15.8498 14.3332 15.8498 15.0053 15.4505 15.4175L15.1858 15.6908C14.9861 15.8969 14.7235 16 14.4609 16C14.1983 16 13.9357 15.8969 13.7361 15.6908L10.954 12.8188C9.79292 13.6522 8.39534 14.098 6.96738 14.0734C5.17266 14.0465 3.41266 13.2377 2.14312 11.8555C0.871403 10.4688 0.183468 8.60935 0.255083 6.75217V6.74993ZM7.06503 2.50014C4.64313 2.50014 2.67046 4.5343 2.67046 7.03668C2.67046 9.53907 4.64096 11.571 7.06503 11.571C9.48909 11.571 11.4574 9.53682 11.4574 7.03668C11.4574 4.53654 9.48692 2.50014 7.06503 2.50014Z" fill="#333439"/>
</svg>
