<svg width="90" height="80" viewBox="0 0 90 80" fill="none" xmlns="http://www.w3.org/2000/svg">
<path d="M79.6652 28.2464C78.2671 27.3557 76.7505 26.6679 75.1663 26.1661C76.4066 20.816 76.0007 15.06 73.7062 9.92971C71.0396 3.96508 64.4886 -0.443562 57.8588 0.0356379C49.842 0.610678 44.6949 7.08833 42.4511 14.3158C41.6167 17.005 41.239 19.7392 41.1488 22.4847C41.0079 22.6426 40.8726 22.8117 40.7316 22.9696C40.4215 23.3135 40.1058 23.6461 39.7732 23.9731C39.5026 23.8096 39.2376 23.6461 38.9727 23.4713C37.6647 22.6031 36.4526 21.5996 35.1278 20.7653C30.3358 17.7491 24.3148 17.3432 19.6863 20.9175C15.0014 24.5368 13.6145 30.0899 14.1839 35.643C10.5138 36.4323 7.10304 38.0221 4.54919 40.9706C-1.68041 48.1529 -0.186427 58.3402 5.66545 65.2294C10.3898 70.7881 17.8484 73.3419 24.8504 74.3342C32.2131 75.3828 39.7732 75.9127 47.2093 75.862C55.4233 75.8056 63.5641 74.5935 71.0734 71.1714C73.5991 70.0214 75.888 68.347 77.5849 66.1991C77.8329 66.0694 78.081 65.9341 78.3234 65.7931C84.5643 62.1738 88.646 56.0175 89.2661 48.8295C89.9483 40.9029 86.4416 32.5536 79.6539 28.2464H79.6652ZM16.6419 55.3579C16.563 55.2733 16.4897 55.1887 16.4164 55.0985C16.3939 55.0703 16.3713 55.0365 16.3544 55.0083C16.3544 55.0027 16.3431 54.9914 16.3375 54.9858C16.8674 55.5101 16.952 55.651 16.8618 55.589C16.7885 55.5157 16.7152 55.4424 16.6419 55.3635V55.3579ZM15.537 53.4749C15.537 53.4749 15.537 53.4636 15.5313 53.4523C15.8696 53.9146 15.9711 54.1796 15.9485 54.2529C15.8188 53.9823 15.6892 53.7117 15.537 53.4749ZM15.3566 51.0394C15.4073 50.983 15.458 50.9267 15.5088 50.8703C15.5708 50.8083 15.6328 50.7519 15.7005 50.6955C15.7117 50.6899 15.7174 50.6842 15.7287 50.6786C15.7512 50.6617 15.7794 50.6504 15.8019 50.6391C15.5933 50.859 15.4411 50.9943 15.3453 51.0789C15.3453 51.0676 15.3509 51.0563 15.3566 51.0451V51.0394ZM37.4561 31.8263C37.3716 31.8827 37.2926 31.9391 37.2306 31.9785C37.2193 31.9785 37.2081 31.9842 37.2024 31.9898C37.1573 31.9616 37.1066 31.9391 37.0615 31.9109C37.163 31.8714 37.2983 31.8376 37.4561 31.8207V31.8263Z" fill="#27C467"/>
<path d="M68.3668 35.4454C66.0046 43.5185 58.7489 49.7819 50.439 50.9771L50.2586 48.863C50.7604 42.8363 51.7131 36.8435 53.1 30.9521C53.5454 29.0692 50.642 28.263 50.1966 30.1516C48.2122 38.5517 47.1298 47.1096 46.9099 55.6958L46.4758 60.7866C41.9826 58.2271 38.3068 54.5401 35.8037 49.9736C32.9623 44.7982 31.6206 38.9632 30.3408 33.2523C29.918 31.3637 27.0146 32.1642 27.4375 34.0529C28.8074 40.1753 30.307 46.3993 33.4303 51.9016C36.39 57.1165 40.855 61.3616 46.1995 64.0677L45.4215 73.2627C45.1284 76.7242 45.9966 79.9997 47.4173 79.9997H50.3432C51.7583 79.9997 52.6321 76.7298 52.3389 73.2627L50.704 53.9707C60.2598 52.5951 68.5472 45.5875 71.2814 36.2515C71.8283 34.3855 68.9192 33.5906 68.378 35.451L68.3668 35.4454Z" fill="#5D5F67"/>
</svg>
