<svg width="19" height="19" viewBox="0 0 19 19" fill="none" xmlns="http://www.w3.org/2000/svg">
<path d="M9.49888 6.22758C7.69017 6.22758 6.22534 7.69241 6.22534 9.50112C6.22534 11.3098 7.69017 12.7747 9.49888 12.7747C11.3076 12.7747 12.7724 11.3098 12.7724 9.50112C12.7724 7.69241 11.3076 6.22758 9.49888 6.22758ZM16.8141 8.68161C16.4367 5.26963 13.7304 2.56103 10.3184 2.18589V1.00688C10.3184 0.727763 10.0906 0.5 9.8115 0.5H9.1885C8.90938 0.5 8.68161 0.727763 8.68161 1.00688V2.18589C5.26963 2.56327 2.56103 5.26963 2.18589 8.68161H1.00688C0.727761 8.68161 0.5 8.90938 0.5 9.1885V9.8115C0.5 10.0906 0.727761 10.3184 1.00688 10.3184H2.18589C2.56327 13.7304 5.26963 16.439 8.68161 16.8141V17.9931C8.68161 18.2722 8.90938 18.5 9.1885 18.5H9.8115C10.0906 18.5 10.3184 18.2722 10.3184 17.9931V16.8141C13.7304 16.4367 16.439 13.7304 16.8141 10.3184H17.9931C18.2722 10.3184 18.5 10.0906 18.5 9.8115V9.1885C18.5 8.90938 18.2722 8.68161 17.9931 8.68161H16.8141ZM9.49888 15.2265C6.33699 15.2265 3.77131 12.6608 3.77131 9.49888C3.77131 6.33699 6.33699 3.7713 9.49888 3.7713C12.6608 3.7713 15.2265 6.33699 15.2265 9.49888C15.2265 12.6608 12.6608 15.2265 9.49888 15.2265Z" fill="#46C0FF"/>
</svg>
