<svg width="393" height="400" viewBox="0 0 393 400" fill="none" xmlns="http://www.w3.org/2000/svg">
<path d="M372.001 58.9535L348.325 100L324.652 58.9535H339.395V21.3658H357.259V58.9535H372.001Z" fill="#E7EBEF"/>
<path d="M303.046 127.194L252.979 214L202.916 127.194H234.09V47.7046H271.869V127.194H303.046Z" fill="#D8DDE4"/>
<path d="M101.655 65.0271L61.3261 134.951L21 65.0271H46.1128V1.00012H76.5426V65.0271H101.655Z" fill="#E7EBEF"/>
<g clip-path="url(#clip0_3576_7176)">
<path d="M283.286 229.104V210.015C283.286 196.276 272.167 185.139 258.448 185.139H92.2492C80.1291 185.139 70.3018 194.982 70.3018 207.122C70.3018 219.263 80.1291 229.106 92.2492 229.106H283.283L283.286 229.104Z" fill="#5D5F67"/>
<path d="M225.415 207.238L185.178 162.727C181.892 159.094 176.194 159.094 172.908 162.727L132.669 207.241H225.415V207.238Z" fill="#27C467"/>
<path d="M318.574 249.973V374.126C318.574 387.865 307.455 399.003 293.736 399.003H95.1395C81.421 399.003 70.3018 387.865 70.3018 374.126V203.133C70.3018 209.194 72.7835 214.684 76.7154 218.675C80.6985 222.612 86.1802 225.099 92.2313 225.099H293.736C307.455 225.099 318.574 236.236 318.574 249.975V249.973Z" fill="#46C0FF"/>
<path d="M325.302 290.68V336.529C325.302 339.478 322.914 341.871 319.968 341.871H278.075C262.487 341.871 249.852 329.214 249.852 313.603C249.852 297.993 262.487 285.336 278.075 285.336H319.968C322.914 285.336 325.302 287.728 325.302 290.677V290.68Z" fill="#E7EBEF"/>
<path d="M287.488 313.603C287.488 319.3 282.831 323.965 277.143 323.965C271.454 323.965 266.797 319.3 266.797 313.603C266.797 307.907 271.454 303.242 277.143 303.242C282.831 303.242 287.488 307.846 287.488 313.603Z" fill="#7E828E"/>
<path d="M239.711 210.867H118.379C116.38 210.867 114.759 209.243 114.759 207.239C114.759 205.234 116.38 203.61 118.379 203.61H239.713C241.712 203.61 243.334 205.234 243.334 207.239C243.334 209.243 241.712 210.867 239.713 210.867H239.711Z" fill="#7E828E"/>
<path d="M209.128 270.891V356.314C209.128 364.898 202.181 371.856 193.612 371.856H115.923C107.355 371.856 100.407 364.898 100.407 356.314V270.891C100.407 262.307 107.355 255.35 115.923 255.35H193.612C202.181 255.35 209.128 262.307 209.128 270.891Z" fill="#E7EBEF"/>
</g>
<defs>
<clipPath id="clip0_3576_7176">
<rect width="255" height="239" fill="white" transform="translate(70.3018 160)"/>
</clipPath>
</defs>
</svg>
