<svg width="338" height="200" viewBox="0 0 338 200" fill="none" xmlns="http://www.w3.org/2000/svg">
<path d="M122.069 81.4912C119.911 80.1067 117.571 79.0308 115.133 78.2571C117.05 69.9284 116.419 60.976 112.877 52.9864C108.762 43.7058 98.6611 36.842 88.4328 37.5854C76.0674 38.483 68.1268 48.5613 64.6628 59.8132C63.3746 63.9971 62.7908 68.2505 62.6507 72.5257C62.4353 72.7757 62.2242 73.03 62.0066 73.2777C61.5305 73.8146 61.0394 74.334 60.5267 74.8361C60.1109 74.5861 59.6994 74.3275 59.2966 74.058C57.2824 72.7083 55.4103 71.1499 53.3638 69.848C45.9747 65.1534 36.6856 64.5231 29.5486 70.0871C22.3189 75.7229 20.1819 84.358 21.0652 93.0018C15.406 94.2298 10.1453 96.7075 6.20733 101.289C-3.39845 112.465 -1.09987 128.325 7.93289 139.046C15.2185 147.694 26.7244 151.67 37.5301 153.219C48.8873 154.847 60.5504 155.673 72.0217 155.597C84.6887 155.512 97.2479 153.621 108.833 148.301C112.731 146.51 116.257 143.904 118.881 140.565C119.262 140.361 119.644 140.15 120.021 139.931C129.646 134.302 135.943 124.721 136.899 113.53C137.952 101.193 132.539 88.2006 122.073 81.4912H122.069ZM24.8502 123.687C24.7317 123.558 24.6175 123.419 24.5034 123.28C24.4689 123.232 24.4366 123.184 24.4043 123.137C24.3956 123.126 24.3892 123.113 24.3827 123.1C25.2013 123.917 25.3327 124.136 25.1906 124.036C25.0764 123.919 24.9601 123.806 24.8502 123.687ZM23.1505 120.755C23.1462 120.744 23.144 120.733 23.1397 120.722C23.6632 121.437 23.8161 121.856 23.7881 121.965C23.5878 121.546 23.3896 121.126 23.1505 120.755ZM22.8683 116.962C22.948 116.877 23.0212 116.784 23.1031 116.701C23.1957 116.608 23.297 116.516 23.3982 116.427C23.4133 116.418 23.4241 116.41 23.4392 116.399C23.4758 116.375 23.5167 116.355 23.5533 116.334C23.2323 116.673 22.9997 116.89 22.8489 117.014C22.8532 116.997 22.8618 116.979 22.8661 116.962H22.8683ZM56.9614 87.0574C56.8321 87.1443 56.7093 87.2291 56.6124 87.2986C56.5952 87.3052 56.5822 87.3117 56.565 87.316C56.4918 87.2747 56.4207 87.2334 56.3496 87.1943C56.5111 87.1291 56.7136 87.0791 56.9614 87.0574Z" fill="#27C467"/>
<path d="M337.101 151.34C335.567 143.852 328.521 139.125 321.595 137.399C318.489 136.626 315.214 136.234 311.996 136.349C310.839 130.214 307.5 124.602 300.96 123.37C296.08 122.45 291.464 123.798 287.648 126.941C284.413 129.605 282.347 133.554 281.08 137.506C280.916 138.021 280.768 138.54 280.63 139.062C279.408 139.54 278.267 140.233 277.297 141.111C275.445 140.455 273.51 140.086 271.507 140.205C266.362 140.514 261.767 143.572 259.604 148.343C257.457 153.081 257.312 158.199 259.462 162.97C261.464 167.406 266.707 169.349 270.998 170.72C274.682 171.896 324.212 171.279 327.162 170.227C330.63 168.988 333.657 167.028 335.664 163.85C337.677 160.666 337.838 154.959 337.099 151.344L337.101 151.34Z" fill="#27C467"/>
<path d="M169.909 194.348C169.297 192.477 164.594 191.166 162.399 190.412C160.652 189.812 158.86 189.358 157.095 188.804C155.409 188.273 153.379 187.1 151.966 184.724C151.468 183.889 149.646 178.417 149.51 177.804C148.547 177.825 148.16 177.849 147.197 177.884C145.381 177.949 143.556 178.03 141.744 178.193C141.742 179.351 141.703 180.505 141.615 181.651C141.337 185.235 139.342 187.352 137.989 190.551C137.126 192.592 135.327 197.443 140.157 199.34C141.789 199.982 143.886 199.847 145.607 199.59C149.443 199.019 152.455 199.484 156.322 199.762C160.867 200.09 164.816 199.669 166.367 199.077C168.313 198.338 170.626 196.55 169.907 194.348H169.909Z" fill="#7E828E"/>
<path d="M90.2751 193.929C89.7818 192.451 88.4247 191.654 87.0976 191.058C85.1394 190.182 83.5345 189.313 82.4832 187.333C80.3484 183.307 81.6646 178.706 83.4117 174.814C83.416 174.805 83.4225 174.792 83.4268 174.783C82.8667 174.064 82.2894 173.357 81.6775 172.681C80.6672 171.569 79.5319 170.441 78.192 169.726C75.7232 171.79 72.6577 173.229 69.6978 174.44C67.0394 175.527 60.1976 177.302 60.8503 181.421C61.0032 182.395 61.7508 183.153 62.3712 183.857C63.2738 184.885 64.2152 185.879 65.1717 186.855C67.2247 188.948 69.3682 190.947 71.5138 192.942C73.2588 194.564 75.0446 196.2 77.2527 197.154C79.4716 198.113 81.8908 198.465 84.2756 198.593C87.8258 198.787 91.3781 197.241 90.2751 193.931V193.929Z" fill="#7E828E"/>
<path d="M125.129 126.028C124.961 126.552 124.791 127.076 124.616 127.6C122.32 134.492 120.086 140.669 117.632 145.266C114.575 150.995 109.747 156.461 106.826 160.106C104.317 163.24 102.134 166.933 98.8577 169.284C97.0008 170.617 94.9607 171.673 92.7526 172.262C90.9021 172.76 89.9413 172.534 88.1641 173.297C86.32 174.09 83.862 176.398 82.3842 177.913C79.2584 176.539 76.2317 174.905 74.043 172.403C77.1688 168.335 79.0042 167.322 80.6177 162.342C81.5376 159.495 81.669 156.522 82.2313 153.603C82.8194 150.573 85.1826 146.837 87.1839 144.501C90.9452 140.108 99.8271 126.163 100.764 123.751C101.828 121.006 102.356 118.095 102.955 115.224C103.869 110.866 104.997 106.57 106.335 102.334C106.458 101.947 106.583 101.558 106.708 101.171C107.231 99.5711 107.778 97.9823 108.358 96.4044C112.18 95.6893 116.092 95.0873 119.978 95.4937C124.414 95.9566 126.572 96.4696 129.396 99.9232C131.066 101.964 128.918 114.146 125.124 126.028H125.129Z" fill="#151513"/>
<path d="M151.646 172.972C150.573 177.639 150.997 175.757 150.902 181.216C148.41 181.503 144.168 181.91 141.714 182.433C140.256 177.941 139.767 175.383 137.456 172.316C136.383 170.892 133.018 169.662 132.016 167.73C130.103 164.033 128.927 156.661 128.518 152.496C128.102 148.247 125.978 129.886 125.129 126.028C124.278 122.157 108.804 104.113 106.63 100.61C102.27 93.5807 100.999 85.1499 101.141 76.969C109.636 73.8893 118.358 71.5137 127.236 69.8662C129.304 83.9654 139.274 95.5694 146.204 107.699C149.886 114.142 151.4 117.745 153.287 127.602C154.858 135.798 152.352 145.144 153.91 153.287C154.356 155.622 154.972 158.473 154.808 160.851C154.313 168.052 152.175 170.651 151.641 172.972H151.646Z" fill="#151513"/>
<path d="M128.427 20.4483C128.154 21.0091 128.222 21.4198 128.625 21.6828C128.968 22.1132 129.541 22.4761 129.965 22.8217C131.129 23.7628 132.346 24.6322 133.608 25.4255C134.554 23.7498 135.521 22.0914 136.514 20.4418C138.147 17.7272 139.827 15.0386 141.519 12.3587C141.497 12.3218 141.488 12.2761 141.503 12.2283C141.699 11.5198 142.208 11.1481 142.563 10.5396C142.865 10.0223 142.699 9.5137 142.421 9.02684C142.229 8.69213 141.98 8.37046 141.79 8.06183C140.982 6.73386 140.174 5.40371 139.369 4.08008C138.77 4.65169 138.235 5.30808 137.74 6.00358C136.816 7.3033 136.025 8.74212 135.185 10.0332C134.552 11.0069 133.923 11.9806 133.289 12.9543C132.572 14.0627 131.85 15.1712 131.131 16.2796C130.454 17.3229 129.778 18.3661 129.104 19.4072C128.938 19.6615 128.733 19.9158 128.597 20.1875C128.539 20.2766 128.483 20.3614 128.429 20.4483H128.427Z" fill="#ED8778"/>
<path d="M133.959 8.64857C134.004 8.89417 134.067 9.1376 134.14 9.38103C134.418 10.3026 134.898 11.148 135.491 11.9327C135.732 12.2587 135.995 12.576 136.27 12.8825C136.253 13.2563 136.245 13.6301 136.24 13.9996C136.23 15.6101 135.947 17.3663 136.843 18.7573C137.589 19.9114 139.067 21.0546 140.424 21.4111C141.871 21.7979 144.133 21.5697 145.183 20.3591C147.24 17.9835 147.94 12.3695 148.3 11.3523C148.679 10.2852 148.935 8.82245 148.838 7.54446C148.838 7.47709 148.838 7.40753 148.834 7.34016C148.819 6.92503 148.761 6.51425 148.642 6.10347C148.336 5.03848 147.61 4.14519 146.766 3.42578C143.612 0.745917 137.783 0.0612807 135.073 3.65399C133.987 5.09281 133.631 6.90764 133.961 8.65075L133.959 8.64857Z" fill="#ED8778"/>
<path d="M148.968 5.26935C145.109 0.709455 141.079 0.126971 137.371 1.42017C132.97 2.95463 133.328 8.65993 133.315 12.4895C133.315 12.8221 133.625 13.0307 133.931 12.9634C135.489 12.6156 137.339 12.2222 138.595 11.179C139.745 10.2226 140.611 9.30544 142.285 9.69666C143.123 9.89227 143.884 10.3161 144.754 10.3835C147.626 10.6008 150.734 7.35803 148.97 5.27152L148.968 5.26935Z" fill="#333439"/>
<path d="M130.717 0.289782C127.973 1.54169 127.372 5.21916 129.487 7.197C128.641 8.78144 130.448 10.1746 132.133 9.96597C132.408 9.9312 132.686 9.87469 132.962 9.80296C132.516 10.2703 131.997 10.6745 131.4 10.9853C129.552 11.9482 127.54 11.4439 125.571 11.7569C123.358 12.109 124.278 13.9629 125.825 14.3672C125.678 16.3037 129.95 14.9345 130.773 14.5541C133.356 13.3587 135.332 11.1701 136.127 8.40761C136.176 8.23156 136.133 8.08594 136.043 7.98161C136.693 7.25351 137.12 6.35805 137.143 5.32566C137.146 5.21264 137.115 5.11918 137.066 5.04746C137.109 5.00182 137.148 4.94531 137.174 4.87793C138.503 1.56777 133.255 -0.864319 130.717 0.291955V0.289782Z" fill="#333439"/>
<path d="M148.61 5.01507C146.396 3.90009 143.955 6.38 143.162 8.23178C143.158 8.23178 143.153 8.2296 143.151 8.22743C142.561 8.01008 142.307 8.95988 142.893 9.17505C143.847 9.52715 144.467 10.4726 143.733 11.5832C143.595 11.7919 143.356 11.9592 143.205 12.1679C142.929 12.5461 142.675 12.9981 142.606 13.4698C142.511 14.111 142.712 14.8825 143.414 15.0694C145.618 15.6563 146.714 11.1442 147.518 9.93141C148.384 8.62517 151.243 6.3387 148.61 5.0129V5.01507Z" fill="#333439"/>
<path d="M141.35 56.0516C140.066 44.7997 136.699 25.2865 136.302 24.5714C136.458 24.3627 137.341 23.4738 137.498 23.2608C137.903 22.7066 138.274 22.3306 138.041 21.6329C137.808 20.9243 136.695 20.1528 136.16 19.6833C135.24 18.877 134.26 18.138 133.235 17.4729C132.033 16.697 130.1 15.0452 128.679 16.1536C127.851 16.7948 127.22 17.9641 126.598 18.79C126.182 19.3377 125.77 19.8833 125.355 20.431C123.877 20.5027 122.442 20.7809 121.059 21.2178C120.001 21.5481 118.967 21.9785 117.966 22.4784C115.589 23.6607 113.381 25.2604 111.354 27.01C106.496 31.2026 101.983 35.9755 97.6811 40.7397C93.7195 45.13 90.0874 50.0246 88.28 55.7473C87.4291 58.4402 86.8388 61.4744 87.4205 64.2846C87.9633 66.9188 89.4928 69.3879 91.1452 71.4657C93.0258 73.8282 95.3783 75.7213 98.1529 76.9102C98.7173 77.1536 99.2968 77.3644 99.8763 77.5709C99.8742 77.8143 99.8699 78.0599 99.8699 78.3012C99.8699 78.6359 99.8763 78.9684 99.8892 79.3032C100.012 83.1632 100.798 86.995 102.237 90.6355C102.358 90.9398 102.647 91.0854 102.953 90.9311C112.069 86.2799 122.47 85.9126 132.571 87.471C132.866 87.5166 133.205 87.3471 133.187 86.995C133.026 83.4305 133.125 84.1673 135.35 81.4657C136.919 79.5596 138.179 77.6231 138.985 75.2671C140.833 69.8726 142.563 66.6428 141.352 56.0516H141.35Z" fill="#5D5F67"/>
<path d="M276.981 138.995C276.854 139.053 276.725 139.099 276.598 139.149C276.113 141.805 275.637 144.463 275.146 147.117C275.146 147.134 275.144 147.149 275.139 147.167C275.077 147.488 275.019 147.812 274.96 148.134C274.603 150.051 274.239 151.968 273.864 153.881C273.205 157.206 272.233 160.34 270.374 163.005C269.665 164.02 268.829 164.967 267.832 165.832C265.264 168.056 262.339 169.514 259.237 170.347C258.636 170.51 258.026 170.649 257.412 170.762C254.275 171.355 251.005 171.355 247.791 170.892C246.417 170.697 245.053 170.414 243.715 170.06C243.536 170.014 243.358 169.964 243.179 169.916C238.853 168.703 234.743 166.823 230.71 164.852C229.659 164.337 226.888 163.639 226.927 162.09C226.944 161.496 227.444 161.016 227.791 160.592C228.495 159.738 229.226 158.906 229.969 158.086C235.712 151.77 242.571 146.371 250.118 142.413C253.037 140.883 256.134 139.579 259.362 138.908C259.956 138.784 260.553 138.682 261.158 138.606H261.162C261.606 138.547 262.054 138.501 262.502 138.471C266.85 138.175 271.52 139.91 275.734 138.445C275.837 137.875 275.945 137.304 276.048 136.734C276.165 136.113 277.104 136.378 276.99 136.997C276.921 137.367 276.854 137.738 276.785 138.108C277.201 138.184 277.446 138.786 276.979 138.995H276.981Z" fill="#F4EDE6"/>
<path d="M283.473 191.927C281.833 190.654 280.254 189.813 279.087 187.998C277.941 186.22 277.249 184.194 276.601 182.19C273.246 171.838 269.996 161.453 266.698 151.084C266.773 151.082 266.848 151.08 266.922 151.077C267.549 151.066 267.551 150.084 266.922 150.095C266.719 150.099 266.514 150.106 266.31 150.117C266.107 149.949 265.788 149.988 265.616 150.164C263.169 150.375 260.61 151.108 258.929 152.951C256.433 155.689 255.98 159.591 256.751 162.781C258.613 170.478 262.559 178.254 267.424 184.627C268.563 186.12 269.871 187.426 271.174 188.771C272.831 190.482 273.727 192.521 275.144 194.388C276.95 196.765 280.205 198.017 283.106 197.135C285.875 196.294 285.433 193.449 283.475 191.927H283.473Z" fill="#F4EDE6"/>
<path d="M261.023 164.235C259.84 166.426 258.623 168.601 257.401 170.773C257.201 171.129 256.999 171.488 256.798 171.844C256.005 173.25 255.213 174.654 254.429 176.063C252.348 179.795 248.933 186.004 246.322 189.393C244.058 192.325 240.753 194.335 237.539 196.052C235.512 197.13 231.406 198.654 230.144 195.685C228.881 192.709 232.229 190.545 234.362 189.351C236.014 188.423 237.865 187.549 238.894 185.863C239.9 184.215 241.656 179.871 242.042 178.015C242.46 175.991 242.869 173.963 243.304 171.938C243.373 171.614 243.44 171.29 243.511 170.964C244.67 165.663 246.031 160.418 248.196 155.432C248.035 155.463 247.871 155.491 247.709 155.528C247.119 155.659 246.869 154.746 247.46 154.613C247.858 154.524 248.261 154.457 248.664 154.4C248.72 154.283 248.772 154.157 248.825 154.039C249.049 153.563 249.676 153.852 249.685 154.291C252.615 154.076 255.555 154.687 258.166 156.137C259.541 156.897 261.365 158.047 261.975 159.579C262.608 161.181 261.775 162.842 261.021 164.231L261.023 164.235Z" fill="#F4EDE6"/>
<path d="M273.246 111.071C272.143 112.045 271.372 113.405 270.515 114.587C269.267 116.307 267.824 117.672 265.971 118.713C265.424 119.021 265.915 119.869 266.462 119.56C266.693 119.432 266.917 119.295 267.139 119.156C267.552 120.953 271.305 120.158 272.481 119.978C273.634 119.799 274.216 119.695 274.651 118.595C275.288 116.983 275.963 114.955 276.161 113.227C276.396 111.177 275.14 109.397 273.244 111.073L273.246 111.071Z" fill="#F4EDE6"/>
<path d="M291.385 127.263C289.265 123.227 283.093 125.798 280.887 122.142C280.335 121.225 280.182 120.121 279.605 119.204C279.159 118.502 278.58 117.9 277.916 117.402C277.88 117.376 277.845 117.35 277.806 117.324C277.27 116.848 276.611 116.531 275.904 116.318C275.038 115.994 274.12 115.802 273.203 115.731C272.332 115.661 271.486 115.713 270.667 115.859C266.104 115.829 262.494 116.287 258.896 120.097C258.308 120.723 256.85 122.358 256.665 122.653C255.947 123.792 255.428 124.557 254.215 125.185C253.351 125.633 252.416 126.22 251.434 126.337C250.312 126.472 249.185 125.955 248.065 125.911C247.757 125.898 247.453 125.905 247.151 125.926C246.962 125.981 246.783 126.031 246.621 126.072C243.272 126.92 240.338 128.828 237.003 129.693C233.545 130.591 229.905 130.578 226.356 130.541C218.84 130.458 211.434 129.643 204.017 128.454C201.318 128.022 198.379 127.68 195.874 129.041C193.862 130.132 192.543 132.201 191.981 134.396C190.488 140.241 199.144 147.15 202.164 151.84C205.45 156.941 209.56 161.482 214.958 164.325C220.54 167.267 221.839 167.528 227.985 168.615C234.993 169.86 242.076 170.908 249.207 170.902C252.572 170.897 255.747 170.558 258.362 168.232C260.717 166.139 262.632 163.336 264.185 160.604C266.152 157.148 267.559 153.403 268.379 149.528C269.767 149.339 271.169 148.83 272.335 148.424C274.991 147.5 277.451 145.987 278.5 143.231C279.435 140.788 279.366 137.956 278.896 135.303C281.055 135.109 283.211 134.883 285.344 134.568C287.391 134.27 289.493 133.599 290.784 131.866C291.762 130.554 292.173 128.771 291.385 127.263Z" fill="#F4EDE6"/>
<path d="M223.483 148.958C223.165 146.07 220.758 143.99 218.615 142.334C215.997 140.312 213.13 138.639 210.088 137.356C207.21 136.141 203.641 135.37 202.053 132.368C201.95 132.175 201.781 132.11 201.618 132.129C201.504 131.894 201.245 131.751 200.978 131.949C192.484 138.26 186.741 148.002 185.465 158.591C185.131 161.36 185.026 164.285 185.875 166.978C186.256 168.182 186.872 169.206 187.542 170.262C187.882 170.799 188.253 171.345 188.436 171.96C188.918 173.596 186.152 176.055 185.095 176.607C182.753 177.828 182.548 180.347 181.781 182.647C180.786 185.631 179.252 188.241 177.467 190.797C176.213 192.59 176.598 193.207 178.259 195.194C179.556 196.744 181.887 196.518 183.425 195.498C185.541 194.094 185.228 193.488 186.499 191.36C188.029 188.802 191.131 184.155 193.096 181.901C195.237 179.439 216.286 160.988 220.418 156.074C222.092 154.083 223.789 151.71 223.483 148.956V148.958Z" fill="#F4EDE6"/>
<path d="M224.108 196.991C220.519 198.993 217.621 194.452 215.857 192.064C214.233 189.866 212.593 187.68 210.986 185.472C209.743 183.759 209.138 182.255 209.502 180.118C209.963 177.426 209.707 175.385 209.625 172.607C209.607 171.994 209.108 170.825 208.343 169.371C208.194 169.088 208.037 168.801 207.869 168.499C205.06 163.435 199.859 155.952 199.803 155.861C199.478 155.317 203.823 145.256 205.129 143.944C206.314 142.748 207.86 141.92 209.48 141.503C213.069 140.586 216.863 141.685 219.153 144.678C221.482 147.719 221.975 151.774 222.046 155.498C222.147 160.736 218.748 175.585 217.964 180.738C217.729 182.288 219.745 184.717 222.623 189.638C224 191.99 227.826 194.92 224.108 196.989V196.991Z" fill="#F4EDE6"/>
<path d="M208.136 123.852C209.43 125.474 209.639 127.695 208.853 129.647C207.744 132.398 204.738 132.759 203.228 135.07C201.137 138.264 202.593 144.861 199.101 147.141C199.084 147.271 199.019 147.399 198.881 147.491C195.404 149.756 191.595 149.556 188.248 147.975C187.953 147.841 187.66 147.691 187.371 147.528C184.844 146.128 182.636 143.957 181.121 141.522C177.748 136.115 175.708 128.808 177.112 122.459C177.754 119.54 179.282 116.595 181.781 114.878C183.19 113.909 184.586 113.659 186.255 113.748C187.573 113.813 188.315 113.657 189.217 112.637C189.676 112.122 190.1 111.605 190.63 111.159C195.105 107.402 202.985 108.145 207.44 111.555C211.203 114.43 212.502 120.977 208.138 123.85L208.136 123.852Z" fill="#F4EDE6"/>
<path d="M255.488 123.52C253.761 123.992 252.119 124.633 250.523 125.448C250.234 125.596 250.228 125.891 250.361 126.104C250.355 126.191 252.699 130.258 254.006 132.092C254.28 132.477 254.9 132.36 254.913 131.845C254.982 129.215 255.374 126.652 256.085 124.122C256.186 123.759 255.842 123.42 255.486 123.518L255.488 123.52Z" fill="#7E828E"/>
<path d="M278.134 122.053C277.473 121.966 277.158 122.451 277.128 123.235C277.104 123.911 277.281 124.759 278.08 124.894C278.836 125.022 279.116 124.244 279.129 123.627C279.144 122.948 278.903 122.153 278.132 122.053H278.134Z" fill="#151513"/>
<path d="M129.972 72.1531C130.396 71.7358 130.698 71.112 130.799 70.6143C131.148 68.8995 129.907 67.5541 128.582 66.6912C127.182 65.7784 125.726 65.3372 124.073 65.6067C120.299 66.2261 119.457 66.7803 119.485 66.8282C119.17 67.841 118.918 68.869 118.726 69.9145C118.716 69.9101 118.81 70.4948 119.248 71.0403C119.427 71.262 119.633 71.4641 119.857 71.638C120.301 71.9814 120.82 72.214 121.37 72.3226C122.751 72.5965 124.168 72.1031 125.538 72.4791C126.587 72.766 127.615 73.5354 128.746 73.1833C129.291 73.0138 129.711 72.6313 129.969 72.1531H129.972Z" fill="#ED8778"/>
<path d="M144.92 88.1733C141.219 79.7338 137.169 71.1965 130.321 64.8609C129.86 64.4349 129.168 65.1282 129.632 65.5564C136.2 71.6312 140.149 79.7577 143.72 87.8538C135.478 87.0649 126.18 78.2993 121.872 71.7073C121.529 71.1835 120.862 71.8594 121.183 72.4028C125.51 79.7403 135.691 88.2342 144.5 88.9123C144.907 88.9427 145.056 88.4798 144.92 88.1733Z" fill="#7E828E"/>
<path d="M252.636 125.559C221.591 129.858 190.29 120.549 164.452 103.222C157.392 98.4885 150.734 93.1679 144.465 87.4148C143.999 86.9888 143.362 87.7299 143.825 88.1559C166.576 109.041 195.036 124.055 225.943 127.052C234.853 127.915 243.834 127.767 252.703 126.539C253.321 126.454 253.259 125.472 252.636 125.559Z" fill="#7E828E"/>
</svg>
