<svg width="37" height="35" viewBox="0 0 37 35" fill="none" xmlns="http://www.w3.org/2000/svg">
<path id="Vector" d="M35.7186 15.6895C36.4277 14.9959 36.6762 13.98 36.3732 13.031C36.0641 12.088 35.2701 11.4127 34.2883 11.2667L25.5729 9.99527C25.2032 9.94052 24.882 9.70934 24.7123 9.36866L20.8152 1.4418C20.3788 0.553603 19.4879 0 18.5 0C17.5121 0 16.6212 0.553603 16.1848 1.4418L12.2877 9.36866C12.1241 9.70934 11.8029 9.94052 11.4271 9.99527L2.71173 11.2667C1.72989 11.4067 0.935929 12.0819 0.62683 13.031C0.323793 13.9739 0.572284 14.9959 1.28139 15.6895L7.58458 21.8582C7.85125 22.1198 7.97853 22.503 7.91186 22.8681L6.42697 31.5797C6.29364 32.3462 6.49364 33.0945 6.99062 33.6785C7.76034 34.5971 9.09977 34.877 10.1725 34.3112L17.9667 30.1987C18.2939 30.0284 18.7 30.0284 19.0273 30.1987L26.8214 34.3112C27.2032 34.512 27.6033 34.6154 28.0214 34.6154C28.7851 34.6154 29.5063 34.2747 30.0033 33.6846C30.5003 33.0945 30.7003 32.3462 30.567 31.5858L29.076 22.8741C29.0154 22.503 29.1366 22.1259 29.4033 21.8643L35.7065 15.6956L35.7186 15.6895Z" fill="#E7EBEF"/>
</svg>
