<svg width="89" height="80" viewBox="0 0 89 80" fill="none" xmlns="http://www.w3.org/2000/svg">
<path d="M39.5351 66C46.7148 66 52.5352 60.6274 52.5352 54C52.5352 47.3726 46.7148 42 39.5351 42C32.3554 42 26.5352 47.3726 26.5352 54C26.5352 60.6274 32.3554 66 39.5351 66Z" fill="#27C467"/>
<path d="M46.0587 50.1408C54.2837 50.1408 60.9513 43.4731 60.9513 35.2481C60.9513 27.0231 54.2837 20.3555 46.0587 20.3555C37.8337 20.3555 31.166 27.0231 31.166 35.2481C31.166 43.4731 37.8337 50.1408 46.0587 50.1408Z" fill="#27C467"/>
<path d="M88.5352 29.6168C88.5352 21.5483 80.1669 15.0069 69.845 15.0069C66.7908 15.0069 63.9124 15.5822 61.3661 16.6003C61.4377 16.0759 61.4768 15.5465 61.4768 15.0069C61.4768 8.08888 55.3162 2.29584 47.0522 0.789034C45.1506 0.27998 43.1123 0 40.9893 0C30.6673 0 22.2991 6.54135 22.2991 14.6099C22.2991 15.3276 22.3707 16.0352 22.4945 16.7275C10.1928 17.5624 0.535156 25.6309 0.535156 35.4658C0.535156 45.8556 11.3129 54.2754 24.5979 54.2754C33.2918 54.2754 40.9046 50.6713 45.131 45.2753V61C47.7294 60.6997 50.1259 59.9106 52.1643 58.7551C52.822 58.8111 53.4928 58.8416 54.17 58.8416C64.492 58.8416 72.8602 52.3003 72.8602 44.2317C72.8602 44.1656 72.8602 44.1045 72.8602 44.0383C81.7429 42.9082 88.5287 36.8861 88.5287 29.6219L88.5352 29.6168Z" fill="#27C467"/>
<path d="M47.2806 52H42.0007C40.6973 52 39.6406 52.87 39.6406 53.9432V78.0568C39.6406 79.13 40.6973 80 42.0007 80H47.2806C48.584 80 49.6406 79.13 49.6406 78.0568V53.9432C49.6406 52.87 48.584 52 47.2806 52Z" fill="#5D5F67"/>
<path d="M42.8607 54C41.8025 54 41.1391 53.9399 41.0338 53.9299C40.1809 53.8448 39.5597 53.119 39.6492 52.303C39.7387 51.4921 40.5021 50.9014 41.355 50.9865C41.4971 51.0015 50.3787 51.7674 56.8017 46.6415C60.7766 43.4678 63.0405 38.6673 63.5301 32.3701C63.5933 31.5541 64.3409 30.9484 65.199 31.0035C66.0572 31.0635 66.6995 31.7744 66.6363 32.5903C66.0783 39.7235 63.4353 45.2199 58.776 48.9291C53.1322 53.4193 46.1248 54 42.8607 54Z" fill="#5D5F67"/>
<path d="M39.9362 47C37.5608 47 32.4678 46.5789 28.3654 43.3374C24.9683 40.654 23.0442 36.6927 22.6448 31.5562C22.5826 30.7581 23.2153 30.0627 24.0607 30.004C24.9061 29.9452 25.6426 30.5426 25.7048 31.3408C26.0419 35.6546 27.5926 38.9353 30.3155 41.0996C34.7342 44.6056 40.8904 44.0767 40.9527 44.0669C41.7929 43.9886 42.5449 44.5664 42.633 45.3596C42.716 46.1529 42.1092 46.8629 41.269 46.9461C41.1964 46.951 40.7141 46.9951 39.9465 46.9951L39.9362 47Z" fill="#5D5F67"/>
<path d="M44.3285 30C42.7284 30 39.2921 29.7164 36.5216 27.5289C34.2182 25.7111 32.9188 23.0476 32.645 19.6093C32.5806 18.7839 33.2356 18.0649 34.1108 18.0041C34.986 17.9434 35.7484 18.5611 35.8129 19.3865C36.0169 21.9892 36.9404 23.954 38.5565 25.23C41.1606 27.2859 44.8547 26.9871 44.8869 26.9871C45.7621 26.901 46.5406 27.4985 46.6319 28.3189C46.7232 29.1392 46.0896 29.8785 45.2198 29.9646C45.1714 29.9646 44.8439 30 44.3285 30Z" fill="#5D5F67"/>
<path d="M65.668 37C65.2754 37 65.0255 36.9747 64.9898 36.9747C64.1639 36.8885 63.5623 36.1534 63.6489 35.3272C63.7356 34.5059 64.4749 33.9129 65.2958 33.9889C65.3366 33.9889 67.9267 34.2069 69.7418 32.6861C70.8533 31.7534 71.4855 30.3086 71.6283 28.3874C71.6895 27.5611 72.4185 26.9478 73.2445 27.0035C74.0756 27.0643 74.6977 27.7842 74.6365 28.6105C74.4325 31.3782 73.4281 33.5276 71.6589 35.0027C69.5327 36.7719 66.8967 37 65.6731 37H65.668Z" fill="#5D5F67"/>
<path d="M26.668 39C26.2754 39 26.0256 38.9747 25.9899 38.9747C25.1639 38.8885 24.5623 38.1535 24.6489 37.3273C24.7356 36.5061 25.4698 35.908 26.2958 35.9891C26.3519 35.9891 28.9318 36.207 30.7418 34.6864C31.8533 33.7537 32.4855 32.3091 32.6283 30.3879C32.6895 29.5617 33.4186 28.9433 34.2446 29.0041C35.0756 29.065 35.6977 29.7847 35.6365 30.611C35.4325 33.3786 34.4281 35.5278 32.6589 36.9978C30.5328 38.7668 27.8968 38.9949 26.6731 38.9949L26.668 39Z" fill="#5D5F67"/>
<path d="M41.1754 55C40.3302 55 39.6406 54.3489 39.6406 53.54V43.0785C39.6406 35.4531 42.6012 28.1384 47.9729 22.481C48.538 21.8842 49.5076 21.8348 50.135 22.3774C50.7624 22.915 50.8143 23.8374 50.2439 24.4342C45.3804 29.554 42.705 36.1781 42.705 43.0785V53.54C42.705 54.344 42.0205 55 41.1702 55H41.1754Z" fill="#5D5F67"/>
</svg>
