<svg width="24" height="24" viewBox="0 0 24 24" fill="none" xmlns="http://www.w3.org/2000/svg">
<g clip-path="url(#clip0_3351_10117)">
<path d="M15.5042 11.7783H9.50364C9.19111 11.7783 8.91689 11.5692 8.83425 11.2673C8.75162 10.9654 8.88134 10.6459 9.15048 10.4871C11.7648 8.94241 13.123 7.14013 13.3021 4.97777C13.3644 4.22759 14.0329 3.62791 14.7918 3.63807C15.566 3.65053 16.2913 3.96076 16.8346 4.51197C17.3784 5.06364 17.6781 5.79443 17.6781 6.56907V6.80221C17.6781 8.69496 17.1176 9.90171 16.0831 11.4667C15.9547 11.6611 15.7373 11.7779 15.5042 11.7779V11.7783Z" fill="#FEBEB5"/>
<path d="M22.8574 12.5648C22.8574 11.3663 21.8824 10.3909 20.6835 10.3909H9.50282C9.37864 10.3909 9.25676 10.4241 9.14966 10.4874C8.36486 10.9513 7.57221 11.3336 6.93559 11.6406C6.71354 11.7477 6.50395 11.8488 6.31283 11.9443C6.07785 12.062 5.9292 12.3021 5.9292 12.5648V21.445C5.9292 21.7077 6.07785 21.9482 6.31283 22.0655C9.11596 23.4671 11.4464 23.6365 14.1636 23.6365C14.5842 23.6365 15.0149 23.6323 15.4572 23.6282C15.9465 23.6236 16.4525 23.6189 16.9829 23.6189H19.1762C20.3746 23.6189 21.3501 22.6439 21.3501 21.445C21.3501 21.042 21.2398 20.6644 21.0477 20.3403C21.6723 19.9581 22.0901 19.2693 22.0901 18.485C22.0901 18.0819 21.9798 17.7043 21.7878 17.3802C22.4124 16.998 22.8302 16.3092 22.8302 15.5249C22.8302 14.9612 22.6146 14.4469 22.2614 14.0601C22.646 13.6547 22.8569 13.1261 22.8569 12.5648H22.8574Z" fill="#FEBEB5"/>
<path d="M21.4151 6.51442H19.9351C19.5519 6.51442 19.2412 6.20373 19.2412 5.82057C19.2412 5.4374 19.5519 5.12671 19.9351 5.12671H21.4151C21.7983 5.12671 22.109 5.4374 22.109 5.82057C22.109 6.20373 21.7983 6.51442 21.4151 6.51442Z" fill="#333439"/>
<path d="M11.0548 6.51442H9.57472C9.19155 6.51442 8.88086 6.20373 8.88086 5.82057C8.88086 5.4374 9.19155 5.12671 9.57472 5.12671H11.0548C11.4379 5.12671 11.7486 5.4374 11.7486 5.82057C11.7486 6.20373 11.4379 6.51442 11.0548 6.51442Z" fill="#333439"/>
<path d="M13.275 2.66956C13.0349 2.66956 12.8022 2.54537 12.6734 2.3224L11.9334 1.04086C11.7418 0.708934 11.8554 0.284679 12.1873 0.0930952C12.5193 -0.0984889 12.9435 0.0150766 13.1351 0.347002L13.8751 1.62854C14.0667 1.96046 13.9531 2.38472 13.6212 2.5763C13.5118 2.63955 13.3927 2.66956 13.275 2.66956Z" fill="#333439"/>
<path d="M17.7133 2.66956C17.5955 2.66956 17.4764 2.63955 17.367 2.5763C17.0351 2.38472 16.9215 1.96046 17.1131 1.62854L17.8531 0.347002C18.0447 0.0150766 18.469 -0.0984889 18.8009 0.0930952C19.1328 0.284679 19.2464 0.708934 19.0548 1.04086L18.3148 2.3224C18.1864 2.54491 17.9533 2.66956 17.7133 2.66956Z" fill="#333439"/>
<path d="M4.34816 19.9734V23.6273H2.96045V19.9734C2.96045 19.5902 3.27114 19.2795 3.65431 19.2795C4.03748 19.2795 4.34816 19.5902 4.34816 19.9734Z" fill="#333439"/>
<path d="M21.4151 6.51442H19.9351C19.5519 6.51442 19.2412 6.20373 19.2412 5.82057C19.2412 5.4374 19.5519 5.12671 19.9351 5.12671H21.4151C21.7983 5.12671 22.109 5.4374 22.109 5.82057C22.109 6.20373 21.7983 6.51442 21.4151 6.51442Z" fill="#F9F9F9"/>
<path d="M11.0548 6.51442H9.57472C9.19155 6.51442 8.88086 6.20373 8.88086 5.82057C8.88086 5.4374 9.19155 5.12671 9.57472 5.12671H11.0548C11.4379 5.12671 11.7486 5.4374 11.7486 5.82057C11.7486 6.20373 11.4379 6.51442 11.0548 6.51442Z" fill="#F9F9F9"/>
<path d="M13.275 2.66956C13.0349 2.66956 12.8022 2.54537 12.6734 2.3224L11.9334 1.04086C11.7418 0.708934 11.8554 0.284679 12.1873 0.0930952C12.5193 -0.0984889 12.9435 0.0150766 13.1351 0.347002L13.8751 1.62854C14.0667 1.96046 13.9531 2.38472 13.6212 2.5763C13.5118 2.63955 13.3927 2.66956 13.275 2.66956Z" fill="#F9F9F9"/>
<path d="M17.7133 2.66956C17.5955 2.66956 17.4764 2.63955 17.367 2.5763C17.0351 2.38472 16.9215 1.96046 17.1131 1.62854L17.8531 0.347002C18.0447 0.0150766 18.469 -0.0984889 18.8009 0.0930952C19.1328 0.284679 19.2464 0.708934 19.0548 1.04086L18.3148 2.3224C18.1864 2.54491 17.9533 2.66956 17.7133 2.66956Z" fill="#F9F9F9"/>
<path d="M4.34816 19.9734V23.6273H2.96045V19.9734C2.96045 19.5902 3.27114 19.2795 3.65431 19.2795C4.03748 19.2795 4.34816 19.5902 4.34816 19.9734Z" fill="#333439"/>
<path d="M6.61453 10.3909H0.694346C0.311178 10.3909 0.000488281 10.7016 0.000488281 11.0847V22.9251C0.000488281 23.3083 0.311178 23.6189 0.694346 23.6277H5.13448C5.98484 23.6189 6.72255 23.1282 7.07941 22.415C7.22621 22.1232 7.30838 21.7936 7.30838 21.445V11.0847C7.30838 10.7016 6.9977 10.3909 6.61453 10.3909Z" fill="#E7EBEF"/>
</g>
<defs>
<clipPath id="clip0_3351_10117">
<rect width="22.8571" height="23.6364" fill="white"/>
</clipPath>
</defs>
</svg>
