<svg width="78" height="80" viewBox="0 0 78 80" fill="none" xmlns="http://www.w3.org/2000/svg">
<g clip-path="url(#clip0_3576_21168)">
<path d="M76.3787 42.9481C71.2085 33.9924 51.3014 40.4152 44.2856 51.7968C43.9495 52.3441 43.9394 53.0289 44.2601 53.5839L51.1079 65.4467C51.444 66.022 52.0498 66.3351 52.6684 66.3173C66.1503 65.9278 81.493 51.8044 76.3813 42.9481H76.3787Z" fill="#46C0FF"/>
<path d="M47.7153 66.5464L41.6108 55.9743C41.1297 55.1393 40.0631 54.8542 39.2281 55.3353L35.4529 57.5144C31.7057 59.6782 30.4176 64.487 32.5814 68.2342C34.7274 71.9636 39.5208 73.2873 43.3012 71.1057L47.0764 68.9266C47.9063 68.448 48.199 67.3839 47.7153 66.5439V66.5464Z" fill="#46C0FF"/>
<path d="M20.9757 67.2435C28.0679 62.8726 33.844 52.8452 34.0171 44.5107C34.2055 35.4405 27.5307 31.4133 19.6239 36.2017C12.4986 40.5141 6.69704 50.5287 6.45775 58.8632C6.43993 59.4843 6.75559 60.0877 7.32836 60.4237L19.1912 67.2715C19.7461 67.5923 20.4334 67.5821 20.9782 67.2461L20.9757 67.2435Z" fill="#46C0FF"/>
<path d="M17.4367 72.2993C17.9178 71.4669 17.6327 70.3977 16.7977 69.9165L6.22557 63.812C5.3906 63.3284 4.32396 63.616 3.84283 64.451L1.66375 68.2262C-0.489886 71.9556 0.770217 76.7669 4.53525 78.946C8.29265 81.1149 13.0861 79.8319 15.255 76.0745L17.4341 72.2993H17.4367Z" fill="#46C0FF"/>
<path d="M56.8743 30.6197C64.9262 28.4814 73.3498 20.5491 75.921 12.6193C78.7186 3.98955 73.4924 -1.79165 64.5393 0.509629C56.4721 2.5818 48.0256 10.4937 45.3908 18.4056C45.1948 18.9937 45.3221 19.6657 45.7752 20.1494L55.156 30.1284C55.5938 30.5968 56.2557 30.7852 56.8743 30.6197Z" fill="#46C0FF"/>
<path d="M52.0296 34.4407C52.7296 33.7814 52.7653 32.6766 52.106 31.9765L43.746 23.082C43.0867 22.3794 41.9819 22.3463 41.2818 23.0056L38.1048 25.9917C34.966 28.9421 34.7827 33.9112 37.7611 37.0831C40.7319 40.2448 45.6934 40.3976 48.8526 37.4268L52.0296 34.4407Z" fill="#46C0FF"/>
</g>
<defs>
<clipPath id="clip0_3576_21168">
<rect width="76.7696" height="80" fill="white" transform="translate(0.615234)"/>
</clipPath>
</defs>
</svg>
