<svg width="297" height="187" viewBox="0 0 297 187" fill="none" xmlns="http://www.w3.org/2000/svg">
<path d="M201.306 142.676C199.642 142.676 198.29 143.196 197.25 144.132C196.106 145.12 195.586 146.368 195.586 147.824C195.586 149.28 196.106 150.476 197.25 151.412C198.29 152.452 199.642 152.92 201.306 152.92C202.866 152.92 204.218 152.452 205.362 151.412C206.454 150.476 207.026 149.28 207.026 147.824C207.026 146.368 206.454 145.12 205.362 144.132C204.218 143.196 202.866 142.676 201.306 142.676ZM201.306 159.368C199.434 159.368 197.718 159.056 196.158 158.432C194.546 157.86 193.142 157.028 191.998 155.988C190.75 154.948 189.814 153.752 189.138 152.296C188.41 150.944 188.098 149.436 188.098 147.824C188.098 146.212 188.41 144.704 189.138 143.248C189.814 141.896 190.75 140.648 191.998 139.608C193.142 138.568 194.546 137.736 196.158 137.112C197.718 136.54 199.434 136.228 201.306 136.228C203.074 136.228 204.79 136.54 206.454 137.112C208.014 137.736 209.418 138.568 210.666 139.608C211.81 140.648 212.694 141.896 213.422 143.248C214.098 144.704 214.462 146.212 214.462 147.824C214.462 149.436 214.098 150.944 213.422 152.296C212.694 153.752 211.81 154.948 210.666 155.988C209.418 157.028 208.014 157.86 206.454 158.432C204.79 159.056 203.074 159.368 201.306 159.368ZM220.65 160.72V167.48H181.91V160.72H220.65ZM215.866 170.236V186.356H186.798V170.236H215.866ZM208.222 176.164H194.39V180.48H208.222V176.164Z" fill="white"/>
<path d="M153.07 162.747V148.395H137.99V141.635H160.506V148.655H169.086V138.203H176.73V162.903H169.086V155.519H160.506V162.747H153.07ZM158.114 180.687H178.134V186.355H150.782V173.199H168.15V171.327H152.186V165.763H175.482V178.867H158.114V180.687Z" fill="white"/>
<path d="M116.617 163.579H92.957V140.283H100.133V147.043H109.441V141.999H116.617V163.579ZM109.441 153.283H100.133V157.339H109.441V153.283ZM130.553 148.395H137.989V155.259H130.553V162.903H122.961V138.203H130.553V148.395ZM111.937 180.687H131.957V186.355H104.553V173.199H121.921V171.327H106.009V165.763H129.253V178.867H111.937V180.687Z" fill="white"/>
<path d="M296.695 93.9676V100.624H257.955V93.9676H296.695ZM271.007 103.068V112.064H292.483V118.356H263.467V103.068H271.007ZM292.067 89.8596H263.051V70.5156H270.383V82.9436H292.067V89.8596Z" fill="white"/>
<path d="M227.438 82.5791H237.266V89.3391H233.574C234.822 91.4191 235.498 93.6551 235.498 96.0991C235.498 97.8671 235.186 99.4791 234.562 100.987C233.938 102.547 233.106 103.847 232.066 104.939C230.974 106.083 229.726 106.967 228.27 107.591C226.814 108.267 225.254 108.579 223.694 108.579C222.03 108.579 220.47 108.267 219.014 107.591C217.558 106.967 216.31 106.083 215.27 104.939C214.178 103.847 213.346 102.547 212.722 100.987C212.098 99.4791 211.786 97.8671 211.786 96.0991C211.786 93.6551 212.41 91.4191 213.71 89.3391H210.018V82.5791H219.846V74.6231H227.438V82.5791ZM248.654 85.9591H256.038V92.8751H248.654V109.515H241.01V70.2031H248.654V85.9591ZM223.694 101.819C224.37 101.819 225.046 101.663 225.67 101.351C226.294 101.039 226.814 100.623 227.334 99.9991C227.75 99.4791 228.062 98.8031 228.374 98.0751C228.582 97.3471 228.738 96.5671 228.738 95.7351C228.738 94.9031 228.582 94.1231 228.374 93.3951C228.062 92.7191 227.75 92.0951 227.334 91.5231C226.814 90.9511 226.294 90.4831 225.67 90.1711C225.046 89.8591 224.37 89.7031 223.694 89.7031C222.914 89.7031 222.238 89.8591 221.666 90.1711C221.042 90.4831 220.47 90.9511 220.054 91.5231C219.534 92.0951 219.17 92.7191 218.962 93.3951C218.65 94.1231 218.546 94.9031 218.546 95.7351C218.546 96.5671 218.65 97.3471 218.962 98.0751C219.17 98.8031 219.534 99.4791 220.054 99.9991C220.47 100.623 221.042 101.039 221.666 101.351C222.238 101.663 222.914 101.819 223.694 101.819Z" fill="white"/>
<path d="M163.354 73.5831H187.326V80.0831H179.786L190.03 92.8751L183.946 97.2431L175.366 86.0631L166.734 97.2431L160.702 92.8751L170.894 80.0831H163.354V73.5831ZM200.69 98.1271H193.046V70.2031H200.69V81.0191H208.074V87.9351H200.69V98.1271ZM199.39 118.667H191.746V107.123H174.066V100.935H199.39V118.667Z" fill="white"/>
<path d="M129.665 75.5591L145.369 103.223L139.337 107.539L129.665 90.2751L119.941 107.539L113.909 103.223L129.665 75.5591ZM155.925 109.515H148.281V70.2031H155.925V109.515Z" fill="white"/>
<path d="M72.0652 108.319H64.7332V87.7791H60.3652V108.319H53.0332V85.5431H46.7412V78.7831H60.3652V81.0191H72.0652V92.7191H76.4852V72.6991H83.7132V109.515H76.4852V99.6351H72.0652V108.319ZM93.1772 70.2031V109.515H85.8972V70.2031H93.1772Z" fill="white"/>
<path d="M16.7291 75.4034H26.1931V81.9034H22.9171C23.4371 82.7874 23.9051 83.7233 24.2691 84.6593C24.5811 85.6993 24.7371 86.7394 24.7371 87.7794C24.7371 89.3393 24.4251 90.7953 23.8531 92.1473C23.2291 93.4993 22.3971 94.6953 21.3571 95.6833C20.2651 96.6713 19.0171 97.4514 17.6651 98.0234C16.2091 98.6474 14.7011 98.9073 13.0891 98.9073C11.4771 98.9073 9.96911 98.6474 8.61711 98.0234C7.16111 97.4514 5.96511 96.6713 4.92511 95.6833C3.83311 94.6953 3.00111 93.4993 2.42911 92.1473C1.80511 90.7953 1.49311 89.3393 1.49311 87.7794C1.49311 85.6993 2.06511 83.7234 3.31311 81.9034H0.0371094V75.4034H9.44911V69.7354H16.7291V75.4034ZM10.1251 101.559H36.6971V118.355H10.1251V101.559ZM37.9971 98.1273H30.4051V70.2034H37.9971V81.0193H45.4331V87.9353H37.9971V98.1273ZM13.0891 92.1473C14.3371 92.1473 15.4291 91.6793 16.3651 90.6394C17.2491 89.7034 17.7171 88.4553 17.7171 86.9994C17.7171 85.6474 17.2491 84.4513 16.4171 83.4633C15.5331 82.5273 14.4931 82.0074 13.2971 81.9034H13.0891C11.7891 81.9034 10.6971 82.4234 9.86511 83.3594C8.92911 84.3994 8.51311 85.5954 8.51311 86.9994C8.51311 88.4553 8.92911 89.7034 9.86511 90.6394C10.6971 91.6793 11.7891 92.1473 13.0891 92.1473ZM17.5091 112.635H29.3131V107.279H17.5091V112.635Z" fill="white"/>
<path d="M208.456 17.9591H215.892V24.8751H208.456V41.5151H200.864V2.20312H208.456V17.9591ZM196.704 30.0751H189.372V14.2151H172.992V7.45512H196.704V30.0751ZM199.096 33.8191V40.5791H171.276V33.8191H177.724V23.2631H185.316V33.8191H199.096Z" fill="white"/>
<path d="M164.812 45.7275L159.04 50.6155L146.716 41.5675L134.34 50.6155L128.568 45.7275L143.596 34.1835H142.92V30.3875H127.32V23.9395H166.06V30.3875H150.512V34.1835H149.836L164.812 45.7275ZM146.716 22.7955C144.844 22.7955 143.128 22.5355 141.568 21.9115C139.956 21.3395 138.552 20.5075 137.408 19.4675C136.16 18.4275 135.224 17.2315 134.548 15.8275C133.82 14.4755 133.508 13.0195 133.508 11.4595C133.508 9.89954 133.82 8.44354 134.548 7.09154C135.224 5.73954 136.16 4.54354 137.408 3.50354C138.552 2.51554 139.956 1.73554 141.568 1.11154C143.128 0.539541 144.844 0.227539 146.716 0.227539C148.484 0.227539 150.2 0.539541 151.864 1.11154C153.424 1.73554 154.828 2.51554 156.076 3.50354C157.22 4.54354 158.104 5.73954 158.832 7.09154C159.508 8.44354 159.872 9.89954 159.872 11.4595C159.872 13.0195 159.508 14.4755 158.832 15.8275C158.104 17.2315 157.22 18.4275 156.076 19.4675C154.828 20.5075 153.424 21.3395 151.864 21.9115C150.2 22.5355 148.484 22.7955 146.716 22.7955ZM146.716 6.46754C145.884 6.46754 145.104 6.62354 144.428 6.83154C143.7 7.14354 143.076 7.50754 142.556 7.92354C142.036 8.39154 141.62 8.91154 141.308 9.48354C140.996 10.1075 140.84 10.7835 140.84 11.4595C140.84 12.1875 140.996 12.8115 141.308 13.4355C141.62 14.1115 142.036 14.6315 142.556 15.0475C143.076 15.5675 143.7 15.9315 144.428 16.1395C145.104 16.4515 145.884 16.5555 146.716 16.5555C147.496 16.5555 148.276 16.4515 149.004 16.1395C149.732 15.9315 150.356 15.5675 150.876 15.0475C151.396 14.6315 151.812 14.1115 152.124 13.4355C152.384 12.8115 152.54 12.1875 152.54 11.4595C152.54 10.7835 152.384 10.1075 152.124 9.48354C151.812 8.91154 151.396 8.39154 150.876 7.92354C150.356 7.50754 149.732 7.14354 149.004 6.83154C148.276 6.62354 147.496 6.46754 146.716 6.46754Z" fill="white"/>
<path d="M95.9919 30.6991C96.7199 30.6991 97.4999 30.5431 98.2799 30.1791C99.0079 29.8671 99.6319 29.3991 100.204 28.7751C100.724 28.2551 101.14 27.5271 101.504 26.6951C101.816 25.8631 101.972 25.0311 101.972 24.0951C101.972 23.2111 101.816 22.3271 101.504 21.4951C101.14 20.7151 100.724 20.0391 100.204 19.4151C99.6319 18.8951 99.0079 18.4271 98.2799 18.0631C97.4999 17.7511 96.7199 17.5431 95.9919 17.5431C95.1599 17.5431 94.4319 17.7511 93.7559 18.0631C93.0279 18.4271 92.4039 18.8951 91.8839 19.4151C91.3119 20.0391 90.8959 20.7151 90.5839 21.4951C90.2199 22.3271 90.0639 23.2111 90.0639 24.0951C90.0639 25.0311 90.2199 25.8631 90.5839 26.6951C90.8959 27.5271 91.3119 28.2551 91.8839 28.7751C92.4039 29.3991 93.0279 29.8671 93.7559 30.1791C94.4319 30.5431 95.1599 30.6991 95.9919 30.6991ZM95.9919 10.3151C97.7599 10.3151 99.4759 10.6791 101.14 11.3551C102.7 12.0831 104.104 13.0711 105.352 14.3191C106.496 15.6191 107.38 17.0751 108.108 18.7391C108.784 20.4031 109.148 22.2231 109.148 24.0951C109.148 26.0191 108.784 27.7871 108.108 29.4511C107.38 31.1671 106.496 32.6751 105.352 33.9231C104.104 35.1711 102.7 36.1591 101.14 36.8351C99.4759 37.5631 97.7599 37.9271 95.9919 37.9271C94.1199 37.9271 92.4559 37.5631 90.8959 36.8351C89.2839 36.1591 87.8799 35.1711 86.7359 33.9231C85.4879 32.6751 84.5519 31.1671 83.8759 29.4511C83.1479 27.7871 82.8359 26.0191 82.8359 24.0951C82.8359 22.2231 83.1479 20.4031 83.8759 18.7391C84.5519 17.0751 85.4879 15.6191 86.7359 14.3191C87.8799 13.0711 89.2839 12.0831 90.8959 11.3551C92.4559 10.6791 94.1199 10.3151 95.9919 10.3151ZM122.148 41.5151H114.556V2.20312H122.148V41.5151Z" fill="white"/>
</svg>
