<svg width="20" height="20" viewBox="0 0 20 20" fill="none" xmlns="http://www.w3.org/2000/svg">
<path d="M7.9995 15.076L8.35303 15.4239L8.70378 15.0732L17.0378 6.73918L17.3914 6.38562L17.0378 6.03207L15.6055 4.59983L15.252 4.24628L14.8984 4.59983L8.3461 11.1522L5.67299 8.54112L5.31948 8.19582L4.97006 8.54524L3.53782 9.97748L3.18145 10.3339L3.54064 10.6874L7.9995 15.076ZM2.22133 0.5H17.7787C18.724 0.5 19.5 1.27601 19.5 2.22132V17.7787C19.5 18.724 18.724 19.5 17.7787 19.5H2.22133C1.27601 19.5 0.5 18.724 0.5 17.7787V2.22132C0.5 1.27601 1.27601 0.5 2.22133 0.5Z" stroke="#D8DDE4"/>
</svg>
