<svg width="125" height="180" viewBox="0 0 125 180" fill="none" xmlns="http://www.w3.org/2000/svg">
<g clip-path="url(#clip0_3351_9918)">
<path d="M35.3259 106.079C35.0742 104.879 34.4138 103.382 33.0188 103.27C31.3824 103.137 30.6168 104.852 30.297 106.164C29.2115 110.608 25.8334 113.987 21.0665 113.939C20.6373 113.935 20.5403 114.452 20.7735 114.691C20.2823 115.912 20.0058 117.153 19.913 118.47C19.8964 118.717 20.1255 118.889 20.3442 118.904C24.3187 119.197 28.5223 118.42 31.6486 115.783C34.3746 113.482 36.0771 109.665 35.3259 106.079Z" fill="#5D5F67"/>
<path d="M23.3614 110.978C23.3469 110.824 23.2458 110.691 23.0436 110.658C22.8269 110.623 22.6123 110.602 22.3956 110.585C22.2078 110.382 21.8859 110.397 21.7208 110.556C20.8067 110.548 19.8966 110.664 18.9948 110.837C18.9659 110.801 18.9391 110.764 18.9102 110.729C18.7946 110.581 18.6791 110.438 18.5676 110.303C18.0064 109.63 17.4863 109.105 17.2098 108.885C16.8322 108.586 16.4236 108.285 15.9882 107.992C14.2279 106.806 12.0632 105.774 9.9542 105.606C9.56419 105.571 9.17623 105.571 8.79034 105.604C8.66446 105.616 8.53445 105.631 8.40651 105.648C8.29095 105.29 7.6925 105.201 7.57694 105.656C7.5625 105.72 7.54599 105.782 7.52742 105.847C7.51091 105.853 7.49027 105.859 7.4717 105.863C7.09612 105.982 7.10232 106.437 7.32725 106.634C7.29217 106.771 7.25708 106.91 7.22407 107.045C7.03009 107.807 6.83405 108.573 6.64213 109.338C6.44609 110.104 6.25211 110.868 6.05814 111.634C6.04988 111.651 6.04369 111.669 6.0375 111.686C5.97353 111.827 5.93432 114.402 5.87241 114.545C5.0738 115.671 4.13487 116.703 3.52198 117.955C2.53145 119.99 2.23017 120.038 1.92888 122.251C1.7122 123.83 0.416267 134.308 1.07043 137.161C1.50585 139.065 1.85459 140.936 2.45716 142.778C2.5459 143.054 2.64495 143.328 2.74607 143.602C2.84718 143.872 2.95449 144.142 3.06799 144.408C3.06799 144.414 3.06799 144.416 3.07005 144.421C3.45594 147.774 4.85919 166.195 4.8303 169.164C4.81585 170.707 4.49393 170.516 3.21037 172.192C2.61606 172.969 2.62019 174.379 3.00814 175.355C3.59008 176.804 5.42874 177.226 6.78246 176.92C8.46222 176.538 8.65001 176.567 9.5291 175.172C10.4866 173.652 10.1956 169.297 10.1812 166.874C10.1647 163.836 10.5815 151.304 10.7404 148.275C11.0603 142.105 12.2902 144.989 13.1404 138.887C13.5779 135.749 13.9535 132.599 14.0277 129.418C14.1 126.28 13.8977 123.007 15.4991 120.212C16.1532 119.07 17.0344 118.076 18.0745 117.28C19.1723 116.441 20.3774 116.086 21.6094 115.532C21.7765 115.457 21.9272 115.376 22.0613 115.283C23.3346 114.427 23.2376 112.905 22.7671 111.487C22.7877 111.489 22.8083 111.489 22.8248 111.493C23.1674 111.545 23.38 111.235 23.3552 110.976L23.3614 110.978Z" fill="#5D5F67"/>
<path d="M24.4617 102.317C23.9623 101.74 23.3473 101.395 22.7736 100.907C22.233 100.448 22.1731 98.0516 21.7295 96.9926C20.7823 94.7375 18.081 95.0635 16.4405 96.3572C15.388 97.1857 14.1086 98.7888 13.5762 99.254C12.8849 99.8541 11.9398 99.7461 11.102 99.7669C10.0454 99.7938 8.31197 99.798 7.35652 101.692C7.0346 102.333 7.09445 103.029 6.79935 103.654C6.49601 104.296 5.63342 104.686 5.14641 105.176C4.51289 105.807 4.03207 106.655 4.15176 107.583C4.25907 108.397 4.75433 108.715 4.5294 109.632C4.40558 110.15 4.12287 110.534 4.127 111.103C4.13319 111.74 4.34368 112.305 4.68623 112.756C4.88021 113.005 5.10927 113.219 5.37135 113.385C5.38373 113.393 5.39405 113.399 5.4023 113.406C6.10186 113.844 6.99746 113.962 7.86004 113.609C8.92898 113.171 9.17455 112.253 9.74204 111.35C10.0103 110.926 10.4375 110.642 10.8337 110.355C11.6694 111.067 13.2027 111.476 14.4677 111.651C15.1796 111.746 15.8049 111.769 16.1763 111.726C16.3022 111.711 16.424 111.694 16.5416 111.676C17.1173 111.593 17.6085 111.539 18.0377 112.158C18.2337 112.442 18.2915 112.934 18.438 113.271C18.7022 113.873 19.0365 114.604 19.5524 115.046C20.1776 115.586 21.1744 115.509 22.07 115.281C22.5219 115.164 22.9491 115.009 23.2916 114.872C24.5298 114.381 25.3944 113.503 25.5368 112.128C25.5678 111.8 25.5574 111.478 25.5224 111.155C25.4935 110.862 25.4481 110.569 25.4006 110.276C25.3862 110.189 25.3717 110.102 25.3593 110.015C25.1406 108.524 25.3242 107.579 25.6008 106.144C25.8752 104.719 25.3923 103.395 24.4596 102.315L24.4617 102.317Z" fill="#5D5F67"/>
<path d="M22.1293 109.832C21.8734 109.306 21.6361 108.412 21.0913 108.098C20.4371 107.72 19.0834 107.938 18.3694 107.938C17.577 107.938 16.7845 107.951 15.9921 107.994C14.7044 108.061 13.4188 108.206 12.158 108.492C9.87562 109.014 7.69234 110.064 6.04352 111.69C5.85367 112.12 5.68033 112.552 5.51318 112.99C5.51524 112.992 5.51318 112.999 5.51112 113.003C5.46159 113.129 5.41619 113.258 5.37079 113.389C5.20364 113.848 5.04887 114.309 4.89823 114.772C4.69393 115.416 4.49996 116.061 4.31836 116.716C6.07861 114.519 8.19173 112.764 11.0065 111.944C13.5447 111.204 16.248 110.955 18.9162 110.735C19.8696 110.656 20.823 110.581 21.7599 110.488C22.0942 110.457 22.2881 110.145 22.1313 109.836L22.1293 109.832Z" fill="#27C467"/>
<path d="M32.2083 140.488C33.3329 136.534 34.2678 123.624 31.81 116.72C31.713 116.444 31.6078 116.176 31.4984 115.92C31.389 115.663 31.2714 115.414 31.1497 115.179C30.1818 113.304 28.2998 111.796 25.0992 111.03C22.7653 110.472 20.1032 110.224 17.9447 110.557C12.1501 111.458 7.7134 116.24 7.8723 128.982C7.895 130.896 8.80505 132.699 9.12284 134.586C9.50254 136.835 9.04855 138.897 8.77616 141.121C8.32423 144.859 10.2372 147.604 11.4568 150.983C12.1997 153.045 13.6586 155.595 13.768 157.742C13.865 159.656 15.1217 170.888 13.0767 174.499C12.4638 175.581 11.5785 176.578 11.7147 177.897C11.8385 179.097 12.7857 179.757 13.931 179.946C16.6075 180.39 18.9208 178.036 19.641 175.712C20.2539 173.743 20.0124 171.63 19.8288 169.617C19.6204 167.315 19.6265 165.039 19.7421 162.732C19.9629 158.354 20.2167 153.979 20.4602 149.6C20.8668 149.797 21.2733 151.057 21.3827 151.379C21.5725 151.942 21.7438 152.511 21.8986 153.082C22.1875 154.145 22.4165 155.221 22.5981 156.307C22.9819 158.626 23.1367 160.975 23.1821 163.323C23.2255 165.564 23.1656 167.807 23.0934 170.045C23.0294 172.049 22.7735 174.144 23.0191 176.14C23.1986 177.602 23.8342 179.037 25.3179 179.593C26.3848 179.996 27.6023 179.834 28.2895 178.875C29.1913 177.61 28.6981 175.727 28.5722 174.321C28.3535 171.914 28.1863 169.507 28.0728 167.096C27.8479 162.347 27.3217 157.11 28.6899 152.492C29.9693 148.169 30.9743 144.846 32.2103 140.492L32.2083 140.488Z" fill="#5D5F67"/>
<path d="M53.8993 84.6704C51.9472 84.1098 49.8114 83.9976 47.8035 83.7194C47.399 83.6633 47.1658 84.1139 47.2979 84.3776C44.9083 86.5248 42.0667 89.6063 40.3374 92.555C38.8248 95.1341 42.1781 96.868 44.5533 97.6924C46.8955 98.5043 50.1085 97.9914 50.9484 95.2815C51.4726 93.5912 50.5274 91.9237 51.1795 90.2044C51.8481 88.4414 53.0574 86.8259 54.1552 85.31C54.3244 85.0774 54.1428 84.741 53.8973 84.6704H53.8993Z" fill="#ED8778"/>
<path d="M113.32 84.197C112.309 83.0072 111.232 81.8526 110.446 80.4904C109.556 78.9496 109.276 77.17 108.578 75.5462C108.514 75.3967 108.279 75.3053 108.128 75.3614C106.68 75.9054 105.231 76.4474 103.782 76.9915C103.597 76.8752 103.337 76.9915 103.233 77.197C103.231 77.197 103.229 77.197 103.227 77.1991C102.761 77.3735 102.951 78.1211 103.413 77.9778C104.288 80.017 104.855 82.1745 105.763 84.2012C106.449 85.7316 107.363 87.127 108.337 88.483C107.835 90.8315 107.02 93.8757 110.035 94.7167C112.421 95.3833 115.14 93.7636 116.096 91.55C117.245 88.8879 114.932 86.095 113.318 84.195L113.32 84.197Z" fill="#ED8778"/>
<path d="M99.9999 161.943C99.8741 162.946 99.6698 164.003 99.0837 164.848C98.5203 165.66 97.6392 166.042 96.855 166.586C96.1101 167.101 95.7035 167.774 95.1938 168.504C94.1166 170.049 92.3523 170.575 90.5611 170.716C88.9845 170.841 86.8177 171.015 85.3979 170.203C83.582 169.165 83.7079 166.162 84.2114 164.472C85.6249 159.725 85.9345 155.219 85.0843 150.551C85.0719 150.484 85.0265 150.453 84.977 150.447C85.1132 150.387 85.2494 150.329 85.3856 150.268C85.9448 150.023 86.5061 149.778 87.0653 149.533C88.1755 149.047 89.2837 148.564 90.3939 148.078C91.3824 151.13 90.8871 154.075 93.7431 155.713C95.2929 156.602 99.5501 157.181 100.025 159.183C100.237 160.074 100.115 161.046 100.004 161.943H99.9999Z" fill="#D8DDE4"/>
<path d="M98.1034 89.1685C98.0002 84.6583 97.8248 80.1502 97.5772 75.6462C97.4554 73.4409 97.3192 71.2377 97.1645 69.0366C97.0902 67.9838 97.0118 66.931 96.9313 65.8782C96.8549 64.9022 96.8549 63.8805 96.6548 62.9212C96.5392 62.3626 96.2978 61.7438 95.7303 61.5133C94.9544 61.1977 94.1764 61.8414 93.5676 62.2339C91.6196 63.4902 89.6282 64.6779 87.5956 65.793C85.565 66.9081 83.4952 67.9505 81.3903 68.9203C79.9066 69.6035 78.233 70.5192 76.5326 70.9034C76.5265 70.1496 76.5182 69.3979 76.512 68.6441C76.512 68.4572 76.2231 68.4572 76.2231 68.6441C76.2293 69.4166 76.2376 70.189 76.2437 70.9615C75.507 71.1006 74.7662 71.1359 74.0357 70.9947C73.8541 70.9594 73.7777 71.2398 73.9593 71.2751C74.7414 71.4246 75.5029 71.3851 76.2479 71.2335C76.3572 82.5839 76.5801 93.9716 78.3321 105.206C79.2814 111.286 80.9137 117.227 81.8856 123.301C82.8493 129.32 83.229 135.413 83.7243 141.483C84.2402 147.808 85.3339 152.44 85.1213 158.782C86.9084 159.702 89.3909 159.463 91.2378 159.193C91.991 159.083 92.6844 158.851 93.3324 158.533C93.5594 155.948 94.1723 146.792 94.5066 142.957C94.8945 138.499 96.4422 134.121 96.9829 129.686C97.5256 125.228 97.6886 120.717 97.8702 116.232C98.2334 107.218 98.3118 98.1911 98.1034 89.1706V89.1685Z" fill="#333439"/>
<path d="M73.0291 169.37C72.0014 170.19 70.5301 170.352 69.2692 170.458C66.5473 170.689 63.78 170.433 61.0582 170.321C59.6384 170.263 58.2187 170.203 56.7989 170.145C55.4514 170.089 53.848 170.232 52.5995 169.64C50.5235 168.66 50.4678 165.701 51.8834 164.146C53.3898 162.493 55.8558 161.853 57.8307 160.962C59.9665 159.999 61.929 158.716 62.9691 156.527C63.6872 155.017 63.9493 153.354 64.0545 151.684C64.8325 151.597 65.596 151.412 66.3307 151.118C66.537 151.034 66.7413 150.943 66.9394 150.845C67.0839 150.775 67.2324 150.652 67.3851 150.609C67.5358 150.567 68.0785 150.584 68.2085 150.725C68.3096 150.833 68.3158 151.423 68.3447 151.57C68.4046 151.871 68.4789 152.17 68.5655 152.467C69.2197 154.691 70.5321 158.292 72.1624 159.864C73.2169 160.879 73.6069 162.011 73.7617 163.442C73.9082 164.798 74.0052 164.162 74.0609 165.527C74.1166 166.885 74.1991 168.436 73.0291 169.37Z" fill="#D8DDE4"/>
<path d="M88.8072 69.9187C88.0437 69.5968 87.1873 69.4951 86.3804 69.3456C85.328 69.1504 84.2735 68.9614 83.2169 68.7953C81.0976 68.461 78.9618 68.2055 76.8157 68.1785C74.7975 68.1516 72.8329 68.3904 70.8519 68.7558C68.9162 69.1109 66.9331 69.4577 65.0181 68.9427C65.1563 67.8878 65.2925 66.8309 65.437 65.776C65.4618 65.5933 65.1832 65.5144 65.1584 65.6992C65.014 66.7541 64.8757 67.8089 64.7374 68.8638C64.6219 68.8264 64.5063 68.789 64.3928 68.7454C64.2607 68.6956 64.1452 68.897 64.2525 68.9884C64.3928 69.1068 64.5331 69.2272 64.6735 69.3456C63.2393 80.2951 62.0465 91.2779 61.1117 102.281C60.8476 105.382 60.6041 108.486 60.3812 111.588C60.1563 114.703 59.8983 117.826 59.9148 120.952C59.9458 127.044 61.2623 133.07 61.8814 139.115C62.5913 146.044 62.1456 151.171 61.4976 157.912C61.4976 157.928 61.5636 158.053 61.6668 158.232C63.2496 159.386 65.373 159.695 67.2963 159.617C67.3809 159.612 67.4655 159.608 67.5522 159.602C68.8667 159.313 70.1585 158.911 71.4111 158.385C71.4648 158.362 71.5246 158.312 71.5163 158.246C70.6373 150.496 71.1181 142.614 72.9815 135.041C73.4499 133.141 74.0298 131.274 74.5209 129.382C75.0183 127.474 75.3588 125.541 75.6208 123.587C76.1491 119.674 76.696 115.858 77.8557 112.074C78.9845 108.391 80.3279 104.769 81.5949 101.133C82.9157 97.3476 84.2343 93.56 85.555 89.7745C86.8468 86.0699 88.2666 82.3799 89.3087 78.5944C89.7957 76.819 90.1898 75.002 90.3467 73.1643C90.4663 71.7647 90.2022 70.5126 88.8093 69.9249L88.8072 69.9187Z" fill="#333439"/>
<path d="M85.7906 23.2572C85.772 22.9872 85.6936 22.7111 85.6441 22.4453C85.4501 21.3613 85.2561 20.2774 85.0621 19.1913C84.8537 18.0368 84.6453 16.8843 84.4389 15.7298C84.2553 14.7164 84.0757 13.7031 83.8941 12.6877C83.6506 11.3441 83.5 9.89472 83.1904 8.51383C83.0254 7.77458 82.8128 7.05195 82.5198 6.37915C81.4054 7.17654 80.2911 7.97808 79.1747 8.77962C78.9147 8.96651 78.5989 9.14094 78.3286 9.34651C77.9345 9.64553 77.6249 10.0027 77.693 10.5301C77.7735 11.1489 78.0624 11.6307 77.9799 12.2744C77.9737 12.3201 77.953 12.3533 77.9221 12.3762C78.3823 15.1483 78.8321 17.9247 79.2345 20.7072C79.478 22.3954 79.7009 24.0857 79.8969 25.7802C81.2032 25.5725 82.493 25.2901 83.7683 24.9267C84.2326 24.7938 84.8248 24.6983 85.254 24.4657C85.675 24.3931 85.8711 24.0816 85.8401 23.5292C85.8257 23.4399 85.8091 23.3506 85.7906 23.2572Z" fill="#ED8778"/>
<path d="M85.0386 4.95665C83.2 1.41409 77.9997 1.13583 74.8445 3.00056C73.9984 3.501 73.2328 4.17172 72.8077 5.05425C72.6426 5.3948 72.5312 5.74365 72.4569 6.10289C72.4445 6.16104 72.4321 6.22126 72.4239 6.28148C72.1494 7.38204 72.1577 8.69648 72.331 9.68491C72.494 10.6277 72.5869 11.1842 72.4342 12.1269C72.3001 12.9575 72.3207 13.7549 72.4218 14.5897C72.5828 15.8979 72.915 17.2393 73.8168 18.2568C74.7599 19.3179 76.1115 19.7166 77.4343 19.5962C78.6724 19.4903 79.8838 18.9276 80.7051 18.0305C81.6935 16.9507 82.2548 15.2147 82.4839 13.8089C82.5355 13.485 82.585 13.1569 82.6242 12.8288C82.9111 12.6045 83.1876 12.3678 83.4455 12.1186C84.0791 11.5226 84.6259 10.8582 85.0056 10.094C85.1067 9.89256 85.1955 9.68906 85.2718 9.48141C85.8166 8.01123 85.7753 6.37284 85.0386 4.95457V4.95665Z" fill="#ED8778"/>
<path d="M84.7148 12.6149C84.915 11.587 85.142 10.5321 85.272 9.48349C85.8167 8.0133 85.7755 6.37492 85.0388 4.95665C83.2001 1.41409 77.9998 1.13583 74.8446 3.00056C73.9985 3.501 73.2329 4.17172 72.8078 5.05425C72.6428 5.3948 72.5313 5.74365 72.457 6.10289C72.6056 5.92016 72.7769 5.76027 72.9626 5.61699C76.1591 5.26813 75.3853 9.199 76.1591 11.0886C76.5409 12.0189 77.29 12.4675 78.1237 12.9471C79.2958 13.6241 80.1893 14.5751 80.8951 15.7297C81.3429 16.4606 81.4997 17.4844 82.5067 17.3992C83.0391 17.3535 83.716 17.2393 84.2051 17.0171C84.4465 16.9071 84.5497 16.8489 84.6219 16.5811C84.6983 16.2987 84.6095 15.8854 84.6075 15.5926C84.6034 15.2209 84.6075 14.8492 84.6157 14.4755C84.6302 13.8525 84.6673 13.2316 84.7169 12.6107L84.7148 12.6149Z" fill="#333439"/>
<path d="M105.616 44.9629C105.297 41.4743 104.496 38.0107 103.02 34.7796C102.317 33.243 101.398 31.3616 99.1017 28.3423C99.046 28.2697 98.9923 28.2011 98.9325 28.1326C98.8231 27.9956 98.7055 27.8627 98.5837 27.736C98.5631 27.5263 98.5404 27.3207 98.5136 27.113C98.4702 26.7455 98.4186 26.3759 98.3588 26.0104C98.2329 25.2255 98.0699 24.4447 97.8738 23.6764C97.1598 20.8731 95.996 18.1819 94.4276 15.7586C93.8519 14.8636 93.2225 13.8544 92.2031 13.4308C90.9938 12.9262 89.5039 13.2273 88.2554 13.4079C85.3623 13.8274 82.5393 14.6891 79.8958 15.9454C77.2338 17.2121 74.6027 18.8775 72.7929 21.2593C72.0149 22.2789 70.9893 24.6046 70.8015 25.429C70.7726 25.5619 70.7644 25.6574 70.785 25.6989C70.5436 25.7944 70.3042 25.8962 70.0669 26.0062C68.5832 26.6645 67.1861 27.5055 65.9356 28.5438C60.888 32.7363 59.8356 39.1112 59.9574 44.9463C60.0296 48.2687 60.3267 51.614 60.8158 54.8887C61.0923 56.7451 61.5484 58.5496 61.9136 60.3853C62.2789 62.2376 62.3222 64.0753 62.0829 65.9691C61.8497 67.7985 61.4308 69.6051 61.1315 71.4262C60.8282 73.2847 60.6755 75.1515 60.5929 77.0183C60.5517 77.9133 60.5269 78.8104 60.5063 79.7054C60.4918 80.4134 60.3391 81.2648 60.5909 81.9376C60.6796 82.1764 61.3255 82.5398 62.2129 82.9344C62.4605 83.0465 62.7308 83.1607 63.0115 83.2728C64.7346 83.9768 66.9034 84.6911 67.8465 84.8988C71.3752 85.6899 74.9308 86.4146 78.538 86.832C82.0502 87.2349 85.612 87.3366 89.1263 86.9192C90.8184 86.7199 92.4941 86.4001 94.1284 85.937C94.8981 85.719 95.6575 85.4698 96.4066 85.1853C96.9803 84.9652 97.5251 84.7513 97.7954 84.1969C98.0988 83.5698 98.1669 82.7828 98.2886 82.11C98.4351 81.2856 98.5631 80.4612 98.7529 79.6431C98.9655 78.7273 99.2977 77.8572 99.6774 77.0017C100.012 76.2479 100.385 75.5024 100.748 74.7528C102.201 71.7481 103.004 68.5481 103.658 65.3233C105.012 58.6348 106.238 51.7864 105.612 44.9608L105.616 44.9629Z" fill="#46C0FF"/>
<path d="M111.407 80.5135C111.147 79.2925 110.766 78.0964 110.601 76.8546C110.427 75.5547 110.555 74.2569 110.747 72.9674C110.937 71.6861 111.178 70.4153 111.249 69.1195C111.315 67.8487 111.263 66.5799 111.193 65.3133C111.071 63.0602 110.931 60.8113 110.755 58.5645C110.405 54.0522 109.891 49.542 108.896 45.1231C107.916 40.7645 106.455 36.5014 104.263 32.6037C103.069 30.4815 101.544 28.3448 99.5955 26.8455C99.3623 26.6628 99.1229 26.4925 98.8753 26.3326C98.7061 26.2226 98.5327 26.1146 98.3573 26.017C97.6289 25.5975 96.8468 25.2653 96.009 25.0535C95.6148 27.0926 94.7852 28.9843 93.8401 30.8408C93.6812 31.1564 93.5182 31.472 93.351 31.7897C92.408 33.5693 91.4113 35.3323 90.6436 37.17C87.1004 45.634 87.2469 55.5058 90.7509 63.9552C91.6981 66.2456 92.8764 68.4322 94.1662 70.542C95.4229 72.604 96.7642 74.639 98.638 76.1881C99.0094 76.4954 99.3561 76.7612 99.6842 77.0083C101.845 78.6342 103.203 79.4129 105.576 85.1213C106.861 84.7413 108.116 84.2803 109.334 83.7155C109.895 83.4538 110.557 83.2026 111.059 82.835C111.872 82.2411 111.589 81.3586 111.41 80.5176L111.407 80.5135Z" fill="#46C0FF"/>
<path d="M81.115 55.8543C80.5186 58.9151 79.5838 61.924 78.1682 64.7045C76.7216 67.5452 74.7529 69.9456 72.4891 72.1613C71.3665 73.2598 70.213 74.3251 69.1172 75.4505C68.0194 76.576 67.0206 77.7846 66.0115 78.991C65.0189 80.1788 64.0036 81.3562 62.8439 82.382C61.7853 83.3164 62.5591 82.8347 61.3829 83.603C60.2665 84.3339 57.5198 84.5125 56.7129 85.5965C55.7926 86.832 51.3166 90.2022 51.3166 90.2022C51.3166 90.2022 46.6364 87.4321 45.0186 86.3939C46.0545 84.2675 47.6455 82.9759 48.1428 80.6751C48.6752 78.2144 47.3669 75.8638 48.4049 73.565C50.3591 69.2375 51.7417 66.7333 53.7826 62.4514C55.9329 57.9412 58.1224 52.9015 58.758 47.9822C59.3812 43.1563 59.9755 38.2453 61.9896 33.7662C63.0007 31.5173 69.1977 26.9365 69.6641 27.2605C71.0487 28.226 72.3323 29.3266 73.5684 30.4729C75.8528 32.5909 78.4467 34.7941 79.9717 37.558C81.5112 40.3447 81.9652 43.5924 81.9879 46.7404C82.0085 49.7887 81.699 52.8682 81.115 55.8564V55.8543Z" fill="#46C0FF"/>
<path d="M85.6395 2.6724C85.2412 2.22387 84.6841 2.0889 84.1888 2.27163C83.4046 0.591717 81.7104 0.0808903 79.9275 0.710079C79.1062 1.00079 79.0587 0.975875 78.4025 0.421441C78.1177 0.180564 77.8804 0.0248239 77.4842 0.00198206C76.7041 -0.0437016 76.1779 0.49412 75.7879 1.09631C74.2072 -0.255508 71.8609 1.0797 72.1436 3.05448C70.7218 2.81361 69.2442 3.66291 69.335 5.36359C69.4135 6.82754 70.6475 7.49203 71.832 7.26569C71.9372 8.01532 72.7771 8.7068 73.5551 8.95599C75.1296 9.46058 76.4111 8.75456 77.5234 7.76198C77.9051 8.07761 78.4066 8.18767 78.8998 8.10046C81.2172 8.64243 84.7666 8.86877 85.9036 6.433C86.3762 5.42173 86.4237 3.557 85.6374 2.67033L85.6395 2.6724Z" fill="#333439"/>
<path d="M49.7962 92.7754C49.7322 92.2251 48.8675 92.2189 48.9315 92.7754C49.3525 96.4197 47.194 100.355 45.3656 103.362C43.5042 106.424 40.8608 108.449 37.4786 109.56C31.1536 111.641 23.1655 111.441 17.342 108.04C16.8591 107.758 16.4237 108.509 16.9066 108.792C23.1159 112.419 31.8676 112.644 38.5331 110.108C41.7873 108.871 44.3008 106.784 46.1126 103.8C48.0091 100.679 50.2336 96.5588 49.7962 92.7733V92.7754Z" fill="#27C467"/>
</g>
<defs>
<clipPath id="clip0_3351_9918">
<rect width="115.512" height="180" fill="white" transform="translate(0.893555)"/>
</clipPath>
</defs>
</svg>
