<svg width="690" height="1068" viewBox="0 0 690 1068" fill="none" xmlns="http://www.w3.org/2000/svg">
<g clip-path="url(#clip0_830_1220)">
<path d="M205.551 629.305C204.049 622.185 200.107 613.303 191.779 612.638C182.01 611.849 177.44 622.025 175.531 629.81C169.051 656.173 148.885 676.215 120.429 675.932C117.866 675.907 117.287 678.975 118.679 680.391C115.747 687.635 114.097 695.001 113.542 702.811C113.444 704.277 114.811 705.3 116.117 705.386C139.843 707.123 164.936 702.516 183.599 686.871C199.872 673.222 210.035 650.58 205.551 629.305Z" fill="#564B33"/>
<path d="M134.127 658.365C134.041 657.454 133.437 656.665 132.23 656.468C130.937 656.259 129.655 656.136 128.362 656.037C127.241 654.83 125.319 654.916 124.334 655.865C118.877 655.815 113.444 656.505 108.061 657.528C107.888 657.318 107.728 657.097 107.556 656.887C106.866 656.013 106.176 655.163 105.511 654.362C102.16 650.371 99.0556 647.254 97.4049 645.948C95.1505 644.174 92.7114 642.388 90.1121 640.651C79.6042 633.617 66.6818 627.495 54.092 626.497C51.7637 626.287 49.4478 626.287 47.1442 626.484C46.3927 626.558 45.6167 626.645 44.8529 626.743C44.163 624.624 40.5906 624.095 39.9007 626.792C39.8145 627.174 39.716 627.544 39.6051 627.926C39.5065 627.963 39.3833 628 39.2725 628.024C37.0305 628.726 37.0674 631.424 38.4102 632.595C38.2007 633.408 37.9913 634.233 37.7942 635.034C36.6363 639.555 35.466 644.1 34.3203 648.634C33.15 653.179 31.9921 657.713 30.8341 662.258C30.7848 662.357 30.7479 662.468 30.7109 662.566C30.329 663.404 30.095 678.679 29.7254 679.529C24.958 686.206 19.353 692.328 15.6943 699.757C9.78128 711.829 7.98274 712.112 6.1842 725.244C4.89072 734.606 -2.84548 796.767 1.05958 813.693C3.65884 824.99 5.74072 836.089 9.33781 847.015C9.86752 848.654 10.4588 850.28 11.0624 851.906C11.6661 853.507 12.3066 855.109 12.9842 856.686C12.9842 856.723 12.9842 856.735 12.9965 856.76C15.3001 876.654 23.6769 985.935 23.5044 1003.55C23.4182 1012.7 21.4965 1011.57 13.8342 1021.51C10.2864 1026.12 10.311 1034.48 12.6269 1040.27C16.1008 1048.87 27.0769 1051.37 35.158 1049.56C45.1855 1047.29 46.3065 1047.47 51.5543 1039.19C57.2702 1030.17 55.5333 1004.34 55.4471 989.963C55.3485 971.94 57.8369 897.596 58.7854 879.623C60.6949 843.024 68.0369 860.135 73.1122 823.93C75.7238 805.316 77.9658 786.629 78.4093 767.756C78.8404 749.143 77.6332 729.728 87.1926 713.147C91.0976 706.372 96.3578 700.471 102.566 695.753C109.12 690.776 116.314 688.67 123.669 685.381C124.666 684.937 125.566 684.457 126.366 683.902C133.967 678.827 133.388 669.797 130.579 661.384C130.703 661.396 130.826 661.396 130.924 661.42C132.969 661.728 134.238 659.893 134.09 658.353L134.127 658.365Z" fill="#564B33"/>
<path d="M140.693 606.984C137.712 603.559 134.041 601.514 130.616 598.619C127.389 595.897 127.032 581.681 124.383 575.398C118.729 562.02 102.603 563.954 92.81 571.629C86.5274 576.544 78.8897 586.054 75.7115 588.813C71.5847 592.374 65.9427 591.733 60.9413 591.856C54.634 592.016 44.2862 592.041 38.5826 603.276C36.6609 607.082 37.0182 611.209 35.2566 614.917C33.4457 618.723 28.2965 621.039 25.3892 623.947C21.6073 627.691 18.7371 632.718 19.4516 638.224C20.0921 643.053 23.0486 644.938 21.7059 650.383C20.9668 653.45 19.2791 655.729 19.3037 659.104C19.3407 662.886 20.5972 666.237 22.6421 668.91C23.8001 670.388 25.1675 671.657 26.732 672.643C26.8059 672.692 26.8675 672.729 26.9167 672.766C31.0928 675.365 36.4392 676.067 41.5884 673.973C47.9696 671.374 49.4355 665.929 52.8232 660.57C54.4246 658.057 56.9746 656.37 59.3398 654.67C64.3289 658.895 73.4818 661.322 81.0332 662.357C85.2832 662.923 89.0158 663.059 91.2332 662.8C91.9846 662.714 92.7114 662.615 93.4136 662.504C96.8505 662.012 99.7824 661.691 102.345 665.362C103.515 667.05 103.86 669.97 104.735 671.965C106.311 675.538 108.307 679.874 111.387 682.498C115.119 685.701 121.069 685.245 126.416 683.89C129.113 683.2 131.663 682.276 133.708 681.463C141.1 678.556 146.261 673.345 147.111 665.19C147.296 663.243 147.234 661.334 147.025 659.412C146.853 657.675 146.582 655.938 146.298 654.202C146.212 653.684 146.126 653.167 146.052 652.649C144.746 643.804 145.842 638.199 147.493 629.687C149.132 621.236 146.249 613.377 140.681 606.971L140.693 606.984Z" fill="#564B33"/>
<path d="M126.773 651.565C125.245 648.449 123.829 643.139 120.577 641.279C116.672 639.037 108.59 640.331 104.328 640.331C99.5977 640.331 94.8673 640.405 90.1369 640.663C82.45 641.058 74.7753 641.92 67.2486 643.62C53.624 646.712 40.5907 652.945 30.748 662.591C29.6146 665.141 28.5799 667.703 27.582 670.302C27.5944 670.315 27.582 670.352 27.5697 670.376C27.2741 671.128 27.0031 671.891 26.732 672.668C25.7342 675.39 24.8103 678.125 23.911 680.872C22.6915 684.691 21.5335 688.522 20.4495 692.402C30.9574 679.369 43.5718 668.96 60.3747 664.094C75.5268 659.708 91.6644 658.23 107.593 656.924C113.284 656.456 118.975 656.013 124.568 655.458C126.564 655.273 127.722 653.426 126.785 651.59L126.773 651.565Z" fill="#27C467"/>
<path d="M186.938 833.428C193.652 809.973 199.232 733.387 184.56 692.427C183.981 690.788 183.353 689.199 182.7 687.684C182.047 686.157 181.345 684.678 180.618 683.286C174.841 672.162 163.606 663.219 144.5 658.673C130.567 655.36 114.676 653.894 101.79 655.865C67.1993 661.211 40.7138 689.581 41.6624 765.169C41.7979 776.527 47.2305 787.22 49.1276 798.418C51.3942 811.759 48.6841 823.992 47.058 837.185C44.3602 859.359 55.7797 875.644 63.0601 895.687C67.4949 907.92 76.2043 923.047 76.8572 935.785C77.4362 947.143 84.9383 1013.77 72.7304 1035.2C69.0717 1041.62 63.7869 1047.53 64.6 1055.35C65.3391 1062.47 70.9934 1066.39 77.8304 1067.51C93.8078 1070.15 107.617 1056.18 111.916 1042.39C115.575 1030.71 114.134 1018.17 113.037 1006.24C111.793 992.574 111.83 979.073 112.52 965.387C113.838 939.419 115.353 913.463 116.807 887.483C119.234 888.653 121.661 896.13 122.314 898.04C123.447 901.378 124.469 904.754 125.393 908.141C127.118 914.448 128.485 920.83 129.569 927.272C131.861 941.032 132.785 954.965 133.056 968.898C133.314 982.19 132.957 995.494 132.526 1008.77C132.144 1020.66 130.616 1033.09 132.082 1044.93C133.154 1053.6 136.948 1062.11 145.805 1065.42C152.174 1067.81 159.442 1066.84 163.545 1061.15C168.928 1053.65 165.984 1042.48 165.232 1034.14C163.926 1019.86 162.929 1005.58 162.251 991.281C160.908 963.108 157.767 932.04 165.934 904.643C173.572 878.995 179.571 859.285 186.95 833.452L186.938 833.428Z" fill="#564B33"/>
<path d="M316.42 502.299C304.767 498.973 292.017 498.307 280.031 496.657C277.616 496.324 276.224 498.997 277.013 500.562C262.747 513.299 245.784 531.581 235.461 549.073C226.432 564.373 246.45 574.659 260.629 579.55C274.61 584.367 293.791 581.324 298.805 565.248C301.934 555.22 296.292 545.328 300.184 535.128C304.176 524.67 311.394 515.086 317.948 506.093C318.958 504.713 317.874 502.718 316.408 502.299H316.42Z" fill="#ED8778"/>
<path d="M671.14 499.49C665.104 492.432 658.674 485.582 653.98 477.501C648.671 468.361 646.995 457.804 642.832 448.17C642.45 447.283 641.045 446.741 640.146 447.074C631.498 450.301 622.851 453.517 614.203 456.744C613.094 456.054 611.542 456.744 610.926 457.964C610.914 457.964 610.901 457.964 610.889 457.976C608.105 459.011 609.238 463.446 611.998 462.596C617.221 474.693 620.609 487.492 626.029 499.515C630.119 508.594 635.576 516.872 641.39 524.916C638.397 538.849 633.531 556.908 651.529 561.897C665.769 565.852 682.005 556.243 687.709 543.111C694.571 527.319 680.761 510.75 671.128 499.478L671.14 499.49Z" fill="#ED8778"/>
<path d="M591.622 960.706C590.871 966.656 589.651 972.926 586.153 977.94C582.79 982.756 577.53 985.023 572.848 988.251C568.401 991.306 565.975 995.297 562.932 999.633C556.501 1008.8 545.969 1011.91 535.276 1012.75C525.865 1013.49 512.93 1014.53 504.454 1009.71C493.614 1003.55 494.365 985.738 497.371 975.71C505.81 947.549 507.657 920.817 502.582 893.125C502.508 892.731 502.237 892.546 501.941 892.509C502.754 892.152 503.568 891.807 504.381 891.45C507.719 889.996 511.07 888.542 514.408 887.089C521.036 884.206 527.651 881.336 534.278 878.453C540.179 896.562 537.222 914.03 554.272 923.749C563.523 929.022 588.937 932.459 591.77 944.334C593.039 949.619 592.312 955.384 591.647 960.706H591.622Z" fill="#D8DDE4"/>
<path d="M580.302 528.981C579.686 502.225 578.639 475.481 577.16 448.761C576.434 435.679 575.621 422.609 574.697 409.551C574.253 403.305 573.785 397.06 573.305 390.814C572.849 385.024 572.849 378.963 571.654 373.272C570.964 369.958 569.523 366.287 566.135 364.92C561.503 363.047 556.859 366.866 553.225 369.194C541.596 376.647 529.708 383.694 517.574 390.309C505.453 396.924 493.097 403.108 480.532 408.861C471.675 412.914 461.684 418.346 451.533 420.625C451.496 416.154 451.447 411.694 451.41 407.223C451.41 406.114 449.686 406.114 449.686 407.223C449.723 411.805 449.772 416.388 449.809 420.97C445.411 421.796 440.988 422.005 436.628 421.167C435.544 420.958 435.088 422.621 436.172 422.83C440.841 423.717 445.386 423.483 449.833 422.584C450.486 489.919 451.817 557.475 462.275 624.12C467.942 660.189 477.686 695.433 483.488 731.466C489.241 767.178 491.508 803.321 494.464 839.329C497.544 876.852 504.073 904.335 502.804 941.957C513.472 947.414 528.292 945.997 539.317 944.396C543.813 943.743 547.953 942.363 551.821 940.478C553.176 925.142 556.834 870.828 558.83 848.075C561.146 821.627 570.385 795.659 573.613 769.346C576.852 742.897 577.826 716.141 578.91 689.532C581.078 636.056 581.546 582.507 580.302 528.994V528.981Z" fill="#333439"/>
<path d="M430.616 1004.77C424.481 1009.64 415.698 1010.6 408.171 1011.23C391.922 1012.59 375.403 1011.08 359.154 1010.41C350.679 1010.07 342.204 1009.71 333.728 1009.37C325.684 1009.03 316.113 1009.88 308.66 1006.37C296.267 1000.56 295.934 983.003 304.385 973.776C313.378 963.97 328.099 960.176 339.888 954.892C352.638 949.176 364.353 941.563 370.562 928.579C374.849 919.623 376.413 909.755 377.041 899.851C381.686 899.334 386.243 898.237 390.629 896.488C391.861 895.995 393.08 895.453 394.263 894.874C395.125 894.456 396.012 893.729 396.924 893.47C397.823 893.224 401.063 893.322 401.839 894.16C402.443 894.8 402.48 898.299 402.652 899.174C403.009 900.96 403.453 902.734 403.97 904.495C407.875 917.689 415.71 939.05 425.442 948.375C431.737 954.399 434.065 961.113 434.989 969.6C435.864 977.644 436.443 973.875 436.775 981.968C437.108 990.025 437.601 999.227 430.616 1004.77Z" fill="#D8DDE4"/>
<path d="M524.805 414.786C520.247 412.877 515.135 412.273 510.318 411.386C504.036 410.228 497.741 409.107 491.434 408.122C478.782 406.138 466.032 404.623 453.221 404.463C441.173 404.303 429.446 405.719 417.62 407.888C406.065 409.994 394.226 412.051 382.794 408.996C383.62 402.738 384.433 396.468 385.295 390.21C385.443 389.126 383.78 388.658 383.632 389.754C382.77 396.012 381.944 402.27 381.119 408.528C380.429 408.306 379.739 408.085 379.062 407.826C378.273 407.53 377.583 408.725 378.224 409.267C379.062 409.969 379.899 410.684 380.737 411.386C372.176 476.343 365.055 541.497 359.475 606.774C357.898 625.166 356.444 643.583 355.114 661.987C353.771 680.466 352.231 698.993 352.33 717.533C352.515 753.676 360.374 789.425 364.07 825.285C368.307 866.393 365.647 896.808 361.778 936.795C361.778 936.894 362.173 937.633 362.789 938.692C372.237 945.541 384.913 947.377 396.394 946.909C396.899 946.884 397.404 946.859 397.922 946.822C405.769 945.11 413.48 942.72 420.958 939.604C421.278 939.468 421.635 939.172 421.586 938.778C416.338 892.805 419.209 846.042 430.333 801.116C433.129 789.844 436.59 778.77 439.522 767.547C442.491 756.226 444.524 744.757 446.088 733.165C449.242 709.957 452.506 687.315 459.43 664.87C466.168 643.016 474.187 621.532 481.751 599.962C489.635 577.505 497.507 555.036 505.391 532.578C513.103 510.602 521.578 488.711 527.799 466.254C530.706 455.721 533.059 444.942 533.995 434.04C534.71 425.737 533.133 418.309 524.818 414.823L524.805 414.786Z" fill="#333439"/>
<path d="M506.795 137.97C506.684 136.369 506.216 134.731 505.921 133.154C504.763 126.723 503.605 120.293 502.447 113.85C501.202 107.001 499.958 100.164 498.726 93.3148C497.63 87.3032 496.558 81.2916 495.474 75.2678C494.021 67.2975 493.121 58.699 491.273 50.507C490.288 46.1215 489.019 41.8346 487.27 37.8433C480.618 42.5737 473.966 47.3287 467.301 52.0838C465.749 53.1925 463.864 54.2273 462.25 55.4468C459.898 57.2207 458.05 59.3396 458.456 62.4685C458.937 66.1395 460.661 68.9975 460.169 72.8163C460.132 73.0873 460.008 73.2844 459.824 73.4199C462.571 89.8655 465.256 106.336 467.658 122.843C469.112 132.858 470.442 142.886 471.613 152.938C479.41 151.706 487.11 150.031 494.723 147.875C497.494 147.086 501.03 146.52 503.592 145.14C506.105 144.709 507.276 142.861 507.091 139.584C507.005 139.054 506.906 138.525 506.795 137.97Z" fill="#ED8551"/>
<path d="M502.311 29.4048C491.335 8.3889 460.292 6.73818 441.456 17.8005C436.406 20.7693 431.835 24.7483 429.298 29.9837C428.312 32.004 427.647 34.0736 427.204 36.2047C427.13 36.5497 427.056 36.9069 427.006 37.2641C425.368 43.7931 425.417 51.5909 426.452 57.4546C427.425 63.0474 427.98 66.3488 427.068 71.9416C426.267 76.8691 426.39 81.5995 426.994 86.5516C427.955 94.3125 429.938 102.27 435.322 108.307C440.951 114.602 449.02 116.967 456.916 116.252C464.308 115.624 471.539 112.286 476.442 106.964C482.342 100.558 485.693 90.2596 487.061 81.9198C487.369 79.998 487.664 78.0517 487.898 76.1053C489.611 74.7749 491.261 73.3705 492.801 71.8923C496.583 68.3568 499.847 64.4148 502.114 59.8815C502.718 58.6865 503.247 57.4793 503.703 56.2474C506.955 47.5257 506.709 37.8062 502.311 29.3924V29.4048Z" fill="#ED8778"/>
<path d="M500.377 74.8365C501.572 68.7387 502.927 62.4807 503.703 56.2597C506.955 47.538 506.709 37.8185 502.311 29.4048C491.335 8.3889 460.292 6.73818 441.456 17.8005C436.406 20.7693 431.835 24.7483 429.298 29.9837C428.312 32.004 427.647 34.0736 427.204 36.2047C428.091 35.1207 429.113 34.1721 430.222 33.3221C449.304 31.2526 444.684 54.5721 449.304 65.7822C451.583 71.301 456.054 73.9618 461.031 76.8075C468.028 80.8234 473.362 86.4654 477.575 93.3147C480.248 97.6509 481.185 103.724 487.196 103.219C490.374 102.948 494.415 102.27 497.334 100.952C498.776 100.299 499.392 99.9545 499.823 98.3654C500.279 96.69 499.749 94.2386 499.737 92.5016C499.712 90.2966 499.737 88.0915 499.786 85.8741C499.872 82.1785 500.094 78.4952 500.39 74.8118L500.377 74.8365Z" fill="#333439"/>
<path d="M625.154 266.739C623.245 246.043 618.465 225.496 609.657 206.328C605.456 197.212 599.975 186.051 586.264 168.139C585.931 167.708 585.611 167.302 585.254 166.895C584.601 166.082 583.899 165.294 583.172 164.542C583.049 163.298 582.913 162.078 582.753 160.847C582.494 158.666 582.186 156.473 581.829 154.305C581.078 149.649 580.104 145.017 578.934 140.459C574.672 123.829 567.724 107.863 558.362 93.4874C554.925 88.178 551.168 82.1911 545.082 79.6781C537.863 76.6846 528.969 78.4708 521.516 79.5426C504.245 82.031 487.393 87.1433 471.613 94.5961C455.721 102.111 440.015 111.99 429.211 126.12C424.567 132.168 418.445 145.965 417.324 150.856C417.151 151.644 417.102 152.211 417.225 152.457C415.784 153.024 414.355 153.628 412.938 154.281C404.081 158.186 395.741 163.175 388.276 169.334C358.144 194.206 351.862 232.025 352.589 266.64C353.02 286.35 354.794 306.196 357.713 325.623C359.364 336.636 362.086 347.341 364.267 358.231C366.447 369.219 366.706 380.121 365.277 391.356C363.885 402.209 361.384 412.926 359.598 423.73C357.787 434.755 356.875 445.83 356.383 456.904C356.136 462.214 355.989 467.535 355.865 472.845C355.779 477.045 354.868 482.096 356.37 486.087C356.9 487.504 360.756 489.66 366.053 492C367.531 492.666 369.145 493.343 370.82 494.008C381.107 498.184 394.054 502.422 399.683 503.654C420.748 508.347 441.974 512.647 463.507 515.123C484.474 517.513 505.736 518.116 526.715 515.64C536.816 514.458 546.819 512.56 556.575 509.813C561.17 508.52 565.704 507.042 570.175 505.354C573.6 504.048 576.852 502.779 578.466 499.49C580.277 495.77 580.683 491.101 581.41 487.11C582.285 482.219 583.049 477.329 584.182 472.475C585.451 467.043 587.434 461.881 589.701 456.806C591.696 452.334 593.926 447.911 596.094 443.464C604.767 425.639 609.559 406.656 613.464 387.525C621.545 347.846 628.862 307.219 625.13 266.727L625.154 266.739Z" fill="#46C0FF"/>
<path d="M659.721 477.637C658.169 470.393 655.89 463.298 654.904 455.931C653.869 448.22 654.633 440.52 655.779 432.87C656.912 425.27 658.354 417.73 658.772 410.044C659.167 402.504 658.859 394.978 658.44 387.463C657.713 374.097 656.875 360.756 655.828 347.427C653.734 320.658 650.667 293.902 644.729 267.688C638.877 241.83 630.156 216.54 617.073 193.418C609.941 180.828 600.837 168.152 589.208 159.258C587.816 158.174 586.387 157.163 584.909 156.215C583.899 155.562 582.864 154.921 581.817 154.342C577.468 151.854 572.799 149.883 567.798 148.626C565.445 160.724 560.493 171.946 554.851 182.959C553.902 184.831 552.929 186.704 551.931 188.589C546.302 199.146 540.352 209.604 535.769 220.507C514.618 270.718 515.492 329.282 536.41 379.407C542.064 392.994 549.098 405.966 556.797 418.482C564.299 430.715 572.307 442.787 583.492 451.977C585.71 453.8 587.779 455.377 589.738 456.843C602.636 466.488 610.741 471.108 624.908 504.972C632.583 502.718 640.072 499.983 647.34 496.632C650.691 495.08 654.645 493.59 657.639 491.409C662.493 487.886 660.805 482.651 659.733 477.661L659.721 477.637Z" fill="#46C0FF"/>
<path d="M478.893 331.351C475.333 349.509 469.753 367.359 461.302 383.854C452.666 400.706 440.914 414.946 427.401 428.091C420.699 434.607 413.813 440.927 407.272 447.604C400.718 454.28 394.756 461.45 388.732 468.607C382.807 475.653 376.746 482.638 369.823 488.724C363.503 494.267 368.123 491.409 361.101 495.967C354.436 500.303 338.04 501.363 333.223 507.793C327.729 515.123 301.01 535.116 301.01 535.116C301.01 535.116 273.071 518.683 263.413 512.524C269.597 499.909 279.095 492.247 282.063 478.598C285.242 464 277.432 450.055 283.628 436.418C295.294 410.746 303.547 395.889 315.731 370.488C328.567 343.731 341.637 313.834 345.431 284.651C349.152 256.022 352.699 226.888 364.723 200.316C370.759 186.975 407.752 159.8 410.536 161.721C418.802 167.45 426.464 173.979 433.843 180.778C447.48 193.344 462.965 206.414 472.069 222.81C481.258 239.342 483.969 258.609 484.104 277.284C484.227 295.368 482.379 313.637 478.893 331.363V331.351Z" fill="#46C0FF"/>
<path d="M505.896 15.8542C503.518 13.1933 500.192 12.3926 497.236 13.4766C492.555 3.51073 482.441 0.480311 471.797 4.21291C466.895 5.93754 466.611 5.78971 462.694 2.50059C460.994 1.07161 459.577 0.147704 457.212 0.0121971C452.555 -0.258816 449.414 2.93175 447.086 6.5042C437.65 -1.51533 423.643 6.40565 425.331 18.1208C416.843 16.6918 408.023 21.7302 408.565 31.8193C409.033 40.5041 416.4 44.4461 423.471 43.1033C424.099 47.5504 429.113 51.6526 433.757 53.1308C443.156 56.1243 450.806 51.9359 457.446 46.0475C459.725 47.92 462.718 48.5729 465.663 48.0555C479.497 51.2707 500.685 52.6134 507.473 38.1635C510.294 32.1642 510.577 21.102 505.884 15.8418L505.896 15.8542Z" fill="#333439"/>
<path d="M291.931 550.379C291.549 547.115 286.387 547.078 286.769 550.379C289.282 571.999 276.397 595.343 265.482 613.18C254.371 631.351 238.59 643.361 218.4 649.952C180.643 662.295 132.957 661.113 98.1932 640.935C95.3106 639.259 92.7113 643.719 95.5939 645.394C132.661 666.915 184.905 668.245 224.695 653.204C244.122 645.862 259.126 633.482 269.942 615.78C281.263 597.265 294.542 572.824 291.931 550.367V550.379Z" fill="#27C467"/>
</g>
<defs>
<clipPath id="clip0_830_1220">
<rect width="689.557" height="1067.83" fill="white"/>
</clipPath>
</defs>
</svg>
