<svg width="1372" height="1015" viewBox="0 0 1372 1015" fill="none" xmlns="http://www.w3.org/2000/svg">
<g clip-path="url(#clip0_796_1692)">
<path d="M853.01 618.2C845.89 583.75 813.18 562 781.03 554.06C766.61 550.5 751.41 548.7 736.47 549.23C731.1 521 715.6 495.18 685.24 489.51C662.59 485.28 641.16 491.48 623.45 505.94C608.43 518.2 598.84 536.37 592.96 554.55C592.2 556.92 591.51 559.31 590.87 561.71C585.2 563.91 579.9 567.1 575.4 571.14C566.8 568.12 557.82 566.42 548.52 566.97C524.64 568.39 503.31 582.46 493.27 604.41C483.3 626.21 482.63 649.76 492.61 671.71C501.9 692.12 526.24 701.06 546.16 707.37C563.26 712.78 793.18 709.94 806.87 705.1C822.97 699.4 837.02 690.38 846.34 675.76C855.68 661.11 856.43 634.85 853 618.22L853.01 618.2Z" fill="#04CB55"/>
<path d="M609.52 701.55C612.2 689.48 616.09 677.72 621.07 666.44C620.64 666.01 620.27 665.46 619.97 664.76C609.78 640.7 609 613.58 618.87 589.25C621.5 582.77 632.14 585.61 629.48 592.17C621.56 611.71 620.57 633.6 627.34 653.54C638.86 631.96 654.51 612.59 673.43 596.92C678.84 592.44 686.67 600.18 681.21 604.7C648.64 631.67 626.49 669.36 618.8 710.94C617.62 717.34 608.36 715.35 608 709.48C607.92 708.24 607.84 706.99 607.77 705.75C607.65 703.82 608.39 702.42 609.53 701.54L609.52 701.55Z" fill="#5D5F67"/>
<path d="M171.82 198.06C172.7 197 173.89 196.55 174.68 196.45C173.93 196.92 173.2 197.39 172.61 197.8C172.35 197.88 172.09 197.97 171.82 198.05V198.06Z" fill="#04CB55"/>
<path d="M6.58 529.5C10.76 509.07 16.9 489.09 24.09 469.53C31.18 450.27 37.95 430.02 49.52 412.87C51.17 410.42 52.9 408.04 54.69 405.71C48.59 399.45 42.82 392.82 37.16 385.85C24.38 370.11 14.63 351.77 10.72 331.77C3.18 293.17 6.1 244.51 37.81 216.72C55.52 201.2 77.24 193.73 100.79 193.61C111.33 193.56 121.93 194.78 132.37 196.16C136.79 196.74 141.2 197.46 145.62 198.07C147.16 198.28 148.7 198.49 150.24 198.69C150.92 198.78 151.61 198.85 152.3 198.93C156.83 199.1 161.33 199.31 165.86 199.04C167.23 198.96 169.3 198.42 171.01 198.29C171.28 198.21 171.55 198.14 171.82 198.05C171.76 198.12 171.69 198.19 171.64 198.27C171.74 198.27 171.85 198.27 171.95 198.27C172.14 198.13 172.37 197.97 172.61 197.8C172.98 197.68 173.36 197.57 173.73 197.44C176.07 196.86 175.76 196.32 174.69 196.45C175.67 195.84 176.67 195.25 177.43 194.84C177.46 194.81 177.49 194.79 177.51 194.76C178.1 194.13 178.65 193.37 179.2 192.61C178.53 170.66 180.97 148.57 186.08 127.35C195.77 87.1501 213.55 47.2501 246.89 21.3501C264.42 7.72015 288.58 -0.969851 310.92 0.090149C316.3 0.350149 321.7 0.900149 327 1.91015C329.82 2.22015 332.6 2.67015 335.3 3.28015C354.84 7.74015 370.98 19.7401 382.61 35.7701C403.7 64.8201 400.25 101 404.27 134.6C404.25 134.47 404.33 135.18 404.43 136.1C404.68 137.25 404.93 138.4 405.22 139.55C406.05 142.76 407.28 145.82 408.27 148.98C408.33 149.18 408.39 149.36 408.44 149.53C409.14 150.89 409.83 152.25 410.56 153.59C412.5 157.19 414.56 160.74 416.54 164.32C426.42 182.24 432.96 199.68 436.05 219.88C439.64 243.37 434.83 267.12 422.96 286.82C444.95 305.88 462.03 330.58 472.58 357.75C488.43 398.58 486.41 450.08 461.96 487.26C450.27 505.03 435.36 519.79 416.88 529.49C440.58 580.23 445.16 640.06 420.36 690.66C403.12 725.84 371.63 753.84 336.61 770.58C315.71 780.57 294.37 787.72 271.58 791.96C248.82 796.2 225.41 799.67 202.19 799.09C178.24 798.49 155.52 793.09 132.9 785.61C109.97 778.03 89.72 768.55 70.68 753.59C41.02 730.28 20.11 694.98 9.43 659.15C-3.12 617.04 -2.18 572.25 6.57 529.5H6.58Z" fill="#04CB55"/>
<path d="M219.32 466.99C223.69 422.56 229.02 378.24 235.25 334.04C236.84 322.77 254.08 326.83 252.5 338.06C230.63 493.33 220.31 650.16 221.68 806.96C221.78 818.46 221.95 829.95 222.18 841.45C264.6 789.37 282.52 721.95 298.1 657.61C303.82 634 309.44 610.37 315.11 586.75C317.76 575.69 335.03 579.65 332.36 590.77C322.67 631.16 313.69 671.82 302.4 711.8C292.22 747.83 279.7 783.69 260.96 816.24C250.35 834.67 237.72 851.95 223.01 867.31C222.95 867.38 222.88 867.43 222.82 867.49C223.49 891.5 224.43 915.5 225.63 939.48C226.2 950.86 208.51 951.58 207.94 940.19C200.01 782.43 203.88 624.21 219.35 467.01L219.32 466.99Z" fill="#5D5F67"/>
<path d="M733 222.34C732.89 219.59 731.68 216.64 730.28 214.76C725.48 208.29 717.04 208.45 709.97 210.38C702.5 212.42 696.62 216.18 692.29 222.64C687.81 229.33 684.99 237.11 678.65 242.39C677.89 243.02 678.98 244.1 679.74 243.48C680.43 242.91 681.07 242.3 681.68 241.67C681.8 242.06 682.02 242.21 682.27 242.26C684.77 246.46 687.51 250.48 690.5 254.35C690.45 254.37 690.4 254.38 690.35 254.4C689.45 254.8 690.23 256.12 691.13 255.73C692.46 255.15 694.54 255.93 695.98 256C697.29 256.06 698.63 255.97 699.92 255.73C702.48 255.25 704.88 254.17 706.95 252.6C712.16 248.67 714.87 242.25 720.4 238.67C724.63 235.93 730.45 234.73 732.75 229.74C733.86 227.34 733.85 224.71 733.01 222.34H733Z" fill="#ED8778"/>
<path d="M256.61 159.55C255.55 156.43 252.37 156.76 250.6 159.04C248.91 161.2 247.96 164.83 247 167.35C246.21 169.42 245.48 171.5 244.79 173.59C244.77 173.16 244.74 172.72 244.72 172.29C244.47 165.93 245.01 159.53 245.16 153.15C245.53 149.7 245.95 146.26 246.34 142.82C246.57 140.74 247.55 137.23 246.38 135.31C244.83 132.77 242.88 134.34 241.79 136.19C240.95 137.63 240.25 139.15 239.65 140.71C239.77 139.44 239.87 138.17 239.89 136.89C239.92 135.24 240.49 131.17 238.25 130.42C235.03 129.35 233.04 135.06 232.03 139.42C231.52 137.48 230.53 136.35 228.71 137.16C226.55 138.12 225.25 142.85 224.54 144.93C223.27 148.68 222.79 152.56 222.88 156.5C222.07 151.73 220.53 147.16 217.37 149.41C215.18 150.97 215.33 155.58 215.19 157.96C214.91 162.78 215.54 167.62 216.59 172.32C220.26 188.75 228.41 208.61 246.86 212.27C248.04 212.5 248.55 210.7 247.36 210.46C247.13 210.41 246.92 210.34 246.7 210.29C247.55 209.82 248.28 209.18 248.87 208.42C249.36 209.02 250.56 208.85 250.54 207.87C250.3 198.52 250.57 189.3 252.97 180.21C253.93 176.55 255.13 172.95 255.9 169.24C256.48 166.45 257.55 162.3 256.61 159.54V159.55Z" fill="#ED8778"/>
<path d="M611.1 116.99C611 115.05 609.38 113.91 607.52 114.26C591.43 117.31 575.21 120.44 559.92 126.49C546.07 131.98 534.91 139.94 524.02 149.93C516.88 156.48 510.01 161.69 500.43 164.09C492.28 166.13 483.79 166.45 475.61 168.41C461.43 171.8 447.78 178.39 437.05 188.37C425.9 198.74 419.14 212.44 412.97 226.12C405.97 241.65 398.79 255.49 388.28 268.97C379.09 280.77 375.17 292.59 375.23 307.58C375.29 324.77 377.84 342.06 381.45 358.83C381.94 361.1 384.35 361.28 385.81 360.19C386.1 360.2 386.4 360.18 386.73 360.09C408.2 353.96 433.47 345.82 442.52 323.05C447.43 310.69 444.3 297.31 447.69 284.72C451.55 270.41 468.4 256.71 481.83 251.67C490.75 248.32 498.87 246.39 503.8 237.61C505.91 233.85 506.59 230.15 510.76 227.93C514.35 226.02 518.73 225.56 522.71 225.39C529.29 225.12 535.86 226.18 542.42 226.55C553.48 227.17 562.87 225.21 571.71 218.32C584.63 208.26 594.98 199.39 612.12 198.04C613.59 197.92 615.03 196.84 614.95 195.21C613.66 169.14 612.37 143.06 611.09 116.99H611.1Z" fill="#E7EBEF"/>
<path d="M626.85 777.23C629.3 777.26 631.71 775.6 631.6 773.63C631.38 769.53 631.95 765.84 633.48 761.9C634.16 760.16 632.73 757.74 630.25 757.38C599.78 752.97 569.18 749.09 538.47 745.88C535.64 745.58 534.17 747.06 534.02 748.76C533.57 748.95 533.13 749.21 532.72 749.59C528.61 753.39 524.45 760.6 527.23 765.65C530.54 771.66 544.14 771.28 550.99 772.13C576.11 775.23 601.43 776.91 626.84 777.23H626.85Z" fill="#ED8778"/>
<path d="M647.19 806.38C651.16 809.81 657.78 812.94 661.11 805.05C663.14 800.24 662.99 792.31 656.24 782.38C651.6 775.55 649.55 773.49 645.26 766.42C643.23 763.08 638.9 755.85 635.94 753.12C633.11 750.51 610.57 749.69 601.02 752.34C599.57 752.74 599.07 754.44 599.29 755.3C601.05 762.34 602.46 773.42 604.54 780.5C605.56 783.94 616.4 781.18 621.69 783.26C627.62 785.59 642.8 802.57 647.2 806.38H647.19Z" fill="#7E828E"/>
<path d="M611.15 773.02C610.55 772 608.84 772.73 609.44 773.76C610.91 776.28 611.95 779.26 610.81 782C611.43 782.01 612.09 782.02 612.75 782.01C613.67 779.01 612.77 775.82 611.14 773.02H611.15ZM619.61 782.24C620.5 779.26 619.61 776.09 617.98 773.32C617.38 772.3 615.67 773.03 616.27 774.06C617.7 776.51 618.72 779.4 617.73 782.07C618.38 782.1 619 782.16 619.61 782.24Z" fill="#333439"/>
<path d="M654.97 810C656.69 803.91 657.67 800.34 655.51 793.72C653.45 787.41 648.83 777.95 644.95 772.57C640.21 766.01 635.11 759.62 631.51 752.4C633.68 752.35 635.26 752.57 635.9 753.16C638.86 755.89 643.19 763.12 645.22 766.46C649.51 773.53 651.56 775.59 656.2 782.42C662.95 792.35 663.1 800.28 661.07 805.09C659.54 808.71 657.32 809.99 654.97 810.01V810Z" fill="#5D5F67"/>
<path d="M578.17 748.96C567.67 745.8 543.06 741.51 532.35 739.72C522.88 738.13 513.41 736.58 503.95 734.92C507.15 726.11 510.09 717.19 512.64 708.14C517.46 691.05 520.9 673.58 523.11 655.91C524.09 648.09 524.82 640.24 525.28 632.37C525.66 625.87 526.88 617.96 523.4 612.11C516.56 600.61 493.9 601 482.7 601.14C465.49 601.37 448.91 605.77 433.38 613.44C431.91 614.17 431.01 615.22 430.55 616.39C428.76 616.92 427.17 618.25 426.41 620.6C425.79 622.51 425.19 624.44 424.58 626.35C421.14 621.59 416.07 618.66 410.34 616.13C391.01 607.59 370.05 604.23 349.17 605.9C347.77 606.01 346.52 606.39 345.46 606.97C340.54 605.87 334.01 610.23 335.07 617.31C341.06 657.41 351.89 696.56 366.89 733.95C371.95 746.57 377.5 758.97 383.5 771.12C365.58 843.52 351.21 916.89 340.38 990.83C339.98 993.58 340.61 996.89 343.26 998.27C353.47 1003.58 363.67 1008.89 373.88 1014.2C376.7 1015.67 380.95 1015.24 382.46 1011.83C409.5 951.09 436.5 890.33 463.51 829.57C467.42 828.34 471.25 827.06 474.9 825.99C494.76 820.15 553.63 800.07 563.34 796.43C570.12 793.89 582.13 792.13 585.13 784.31C591.37 768.07 581.29 749.9 578.17 748.96Z" fill="#E7EBEF"/>
<path d="M705.29 253.43C703.09 249.69 699.61 246.21 696.7 243C692.43 238.3 687.82 231.06 680.83 234.43C676.53 236.5 672.36 239.34 668.36 242.41C665.79 240.76 663.06 239.56 660.18 239.04C653.19 237.77 647.26 241.75 641.87 245.63C632.34 252.5 622.88 259.47 613.38 266.38C596.48 278.69 579.59 291.01 562.68 303.31C543.76 317.07 525.13 332.14 505.02 344.11C503.64 344.93 502.25 345.69 500.85 346.4C500.61 345.28 500.12 344.23 499.93 343.11C496.63 323.62 474.12 329.71 441.77 328.31C428.92 327.75 397.79 319.43 390.95 332.38C389.01 336.04 387.9 340.41 387.41 345.03C377.37 342.99 368.14 340.51 360.9 332.4C354.53 325.27 350.13 316.61 344.05 309.24C336.82 300.49 327.64 293.74 319.69 285.7C303.96 269.79 299.87 247.62 288.21 229.17C282.99 220.92 274.92 212.85 266.01 210.17C263.05 203.32 259.41 196.72 254.87 190.81C253.5 189.03 252.62 188.15 250.32 188.83C246.16 190.05 241.93 192.58 238.11 194.62C232.51 197.61 224.37 200.33 225.93 207.93C227.34 214.8 230.42 221.81 233.58 228.41C229 240.88 230.04 255.56 234.72 268.04C243.89 292.48 263.34 311.61 274 335.49C284.31 358.57 293.83 378.77 314.43 394.44C318.48 397.52 322.68 400.41 326.89 403.27C327.21 416.73 330.39 429.95 330.57 443.67C330.82 463.93 317.9 479.22 313.15 498.14C308.2 517.88 312.37 538.32 306.59 558.04C301.46 575.51 295.42 593.29 304.83 610.45C305.48 611.63 306.33 612.39 307.28 612.82C324.84 642.19 364.95 636.94 395.16 637.98C417.09 638.74 438.9 641.36 460.63 644.3C480.46 646.98 489.01 650.19 509.03 650.92C517.82 651.24 526.5 650.35 534.81 647.36C538.49 646.03 542.04 644.28 545.83 643.26C550.58 641.97 555.73 642.2 560.35 640.4C575.07 634.67 575.87 612.59 575.26 599.36C574.43 581.31 569.02 563.88 565.24 546.32C563.22 536.94 561.63 527.45 561.61 517.82C561.58 507.45 563.67 497.27 564.72 486.99C565.8 476.43 565.7 465.75 561.88 455.71C558.52 446.89 552.74 439.41 548.24 431.19C543.71 422.93 558.6 402.21 560.97 400.65C574.38 391.77 583.79 378.58 595.55 367.87C602.3 361.72 609.34 357.78 618.01 354.97C625.63 352.5 633.1 349.98 638.84 344.12C643.97 338.87 647.02 332.22 650.73 326C656.12 316.99 663.41 309.58 672.61 304.46C678.71 301.06 685.78 299.07 688.97 292.27C691.69 286.46 690.64 279.44 688.97 273.41C694.68 268.97 700.01 263.97 704.49 258.31C705.89 256.54 706.52 255.48 705.3 253.42L705.29 253.43Z" fill="#4DC3FF"/>
<path d="M416.63 379.4C409.3 378.24 401.1 377.02 395.5 371.66C388.73 365.17 389.96 356.01 391.47 347.65C391.68 346.48 389.89 345.97 389.67 347.15C388.2 355.07 386.87 364.02 392.21 370.84C397.91 378.12 407.54 379.85 416.12 381.19C417.3 381.37 417.8 379.58 416.62 379.39L416.63 379.4Z" fill="#593434"/>
<path d="M500.65 352.43C500.16 357.03 499.64 361.97 497.05 365.96C494.31 370.19 489.43 372.23 484.78 373.56C475.37 376.26 465.51 377.77 455.81 378.9C454.63 379.04 454.62 380.9 455.81 380.76C467 379.48 479.44 378.24 489.88 373.78C499.2 369.8 501.52 361.86 502.5 352.43C502.62 351.24 500.77 351.25 500.64 352.43H500.65Z" fill="#593434"/>
<path d="M539.14 253C540.27 250.55 541.25 249.52 540.34 246.62C537.98 239.13 528.7 240.43 522.46 240.29C522.35 240.25 522.24 240.22 522.1 240.22C521.91 240.22 521.71 240.25 521.51 240.25C521.4 240.25 521.27 240.25 521.16 240.23C520.99 240.22 520.86 240.26 520.71 240.29C508.73 241.08 495.57 251.6 489.37 261.18C488.03 263.25 487.02 265.47 486.81 267.96C486.61 270.25 487.27 272.47 486.78 274.76C486.33 276.84 485.1 278.73 483.76 280.34C479.18 285.83 473.92 289.18 471.14 296.04C467.55 304.89 463.68 324.39 475.9 328.68C481.71 330.72 485.72 325.8 489.14 321.85C493.15 317.21 496.34 311.67 501.23 308.01C501.96 307.57 516.48 297.37 525.14 287.98C530.41 282.27 534.06 279.96 534.03 271.91C534.02 268.75 533.46 265.61 533.99 262.46C534.67 258.49 537.61 256.32 539.14 253Z" fill="#E7EBEF"/>
<path d="M549.38 193.15C540.85 191.88 532.21 192.32 523.64 191.58C517.27 191.03 511.78 189.77 505.98 187.17C501.84 185.32 498.2 183.34 493.64 182.76C477.99 180.78 461.92 192.98 451.29 203.21C438.79 215.25 431.72 229.69 425.33 245.53C423.16 250.92 420.76 256.6 416.91 261.05C413.89 264.55 409.89 266.65 406.32 269.48C399.97 274.52 396.38 281.54 394.81 289.43C391.58 305.62 394.11 325.17 409.72 333.9C410.29 334.22 410.86 334.39 411.41 334.47C412.15 335.19 413.13 335.7 414.4 335.8C420.74 336.29 428.54 338.35 434.68 335.85C438.02 332.13 440.82 327.87 442.8 322.87C447.71 310.51 444.58 297.13 447.97 284.54C451.83 270.23 468.68 256.53 482.11 251.49C491.03 248.14 499.15 246.21 504.08 237.43C506.19 233.67 506.87 229.97 511.04 227.75C514.63 225.84 519.01 225.38 522.99 225.21C529.57 224.94 536.14 226 542.7 226.37C553.76 226.99 563.15 225.03 571.99 218.14C574.49 216.19 576.9 214.29 579.27 212.48C574.3 201.08 561.49 194.93 549.37 193.13L549.38 193.15Z" fill="#D8DDE4"/>
<path d="M478.56 216.77C477.92 214.71 477.07 212.82 475.1 211.66C473.98 211 467.95 210.73 466.13 210C464.46 209.34 462.78 207.27 462.09 205.69C456.2 192.4 440.27 212.2 435.19 221.69C431.71 228.18 427.15 231.92 421.6 236.54C418.76 238.91 416.44 241.69 414.96 245.1C411.75 252.48 413.03 260.24 417.28 266.88C417.64 267.44 418.14 267.68 418.66 267.72C419.3 268.09 420.09 268.09 420.73 267.35C427.29 259.7 441.82 260.96 450.3 254.98C453.4 252.8 455.64 250.05 457.96 247.1C462.42 241.45 466.75 237.69 472.35 233.43C477.63 229.41 480.68 223.49 478.58 216.76L478.56 216.77Z" fill="#333439"/>
<path d="M481.22 245.25C472.61 238.49 462.78 235.11 452.64 237.54C451.69 236.97 450.49 236.77 449.1 237.23C438.43 240.69 430.63 239.9 425.16 249.18C416.73 263.49 413.73 290.42 413.26 305.78C412.88 318.1 416.59 330.16 423.8 340.72C430.46 350.47 448.54 348.02 459.65 343.7C472.72 338.63 478.75 332.53 485.49 319.86C492.08 307.47 498.99 294.01 499.19 280C499.4 265.03 492.89 254.41 481.22 245.24V245.25Z" fill="#ED8778"/>
<path d="M518.2 214.96C513.61 214.18 514.86 213.11 511.62 210.51C510.72 209.79 509.67 209.26 508.6 208.83C504.5 207.18 500.15 208.06 496.2 209.67C485.7 213.97 475.72 224.19 469.78 233.66C467.27 237.65 456.42 248.7 461.14 250.47C468.64 253.28 473.18 259.22 473.58 264.16C474.54 276.07 472.36 282.98 479.94 290.73C481.05 292.46 482.01 294.2 482.01 296.61C482.01 300.69 479.61 302.61 477.71 305.85C474.86 310.7 475.6 313.97 477.74 318.77C478.68 320.89 478.6 327.27 481.89 327.61C485.61 327.99 488.71 319.76 489.91 317.52C495.94 306.18 501.29 294.75 501.41 281.65C501.43 279.17 502.06 273.8 499.75 271.74C503.23 267.7 508.34 264.99 510.61 260.24C511.81 257.74 510.79 256.58 511.45 254.16C511.34 253.28 511.22 252.4 511.11 251.52C512.97 248.76 515.44 247.13 518.52 246.61C522.37 244.89 526.46 244.43 528.82 240.44C529.44 239.38 529.74 238.15 530.07 236.99C530.09 235.94 530.02 234.9 529.87 233.86C530.18 231.53 531.36 229.95 533.42 229.1C534.99 226.94 536.72 226.47 536.79 223.33C536.98 213.37 523.99 215.94 518.21 214.96H518.2Z" fill="#333439"/>
<path d="M479.28 247.57C478.51 242.75 476.36 238.36 472.43 235.37C462.51 227.85 448.29 231.52 437.49 234.79C426.97 237.97 415.1 246.28 419.05 258.87C419.11 259.05 419.21 259.18 419.32 259.28C418.42 261.09 417.76 263.07 417.42 265.24C417.23 266.42 419.03 266.93 419.22 265.74C421.87 249.41 440.92 246.24 454.56 248.57C457.84 249.13 461.16 250.05 464.06 251.7C467.21 253.49 469.09 256.06 471.49 258.63C473.24 260.5 476.2 262.73 478.41 260.2C480.82 257.44 479.79 250.77 479.28 247.57Z" fill="#333439"/>
<path d="M512.95 360.96C512.39 351.66 511.86 338.56 503.05 332.06C492.75 324.46 473.47 322.63 460.69 320.61C445.71 318.25 413.93 314.2 411.73 314.25C401.32 314.51 392.67 319.32 386.88 326.76C379.96 335.66 374.08 349.25 375.03 360.09C376.95 381.94 404.89 385.37 424.83 385.36C440.5 385.35 455.95 386.22 471.45 388.23C482.61 389.67 495.08 391.23 504.69 384.74C513.31 378.91 513.47 369.77 512.95 360.98V360.96Z" fill="#E7EBEF"/>
<path d="M519.99 791.72C516.86 781.75 515.89 772.24 518.56 762.08C520.42 755.02 523.44 748.31 524.07 740.96C524.15 740.02 524.18 739.1 524.17 738.2C517.43 737.08 510.69 735.95 503.96 734.77C507.16 725.96 459.88 837.6 463.51 829.44C467.42 828.21 471.25 826.93 474.9 825.86C485.53 822.73 507.31 815.54 526.76 808.96C524.68 803.07 521.74 797.3 519.99 791.73V791.72ZM423.61 659.93C425.09 656.66 420.24 653.79 418.75 657.09C412.21 671.57 398.39 679.26 386.39 688.67C376.23 696.64 366.61 705.88 360.66 717.5C362.65 722.97 364.72 728.4 366.88 733.79C371.94 746.41 377.49 758.81 383.49 770.96C381.12 780.52 423.41 660.36 423.61 659.92V659.93Z" fill="#D8DDE4"/>
<path d="M1178.22 487.51C1183.5 482.67 1184.32 475.06 1183.45 468.33C1182.19 458.62 1177.55 449.01 1172.8 440.58C1169.56 434.82 1166.79 430.4 1166.56 423.52C1166.41 419 1166.62 414.76 1165.15 410.4C1158.4 390.33 1134.64 388.06 1117.15 392.81C1114.62 393.5 1112.87 396.71 1114.97 398.92C1154.5 440.4 1149.49 505.62 1106.15 541C1080.13 549.3 1052.6 567.68 1034.49 580.14C1020.37 589.86 1006.26 600.16 990.38 606.87C984.06 609.54 979.41 611.64 972.58 608.13C969.59 606.6 967.63 604.07 964.34 602.89C962.14 602.09 950.58 603.96 938.44 601.89C925.27 599.64 911.44 593.42 908.86 591.71C908.77 591.67 908.67 591.67 908.58 591.62C908.2 591.43 907.83 591.24 907.45 591.05C907.38 591.02 907.34 590.97 907.28 590.94C903.23 589.42 899.03 588.68 894.78 588.67C890.02 589.67 885.2 590.42 880.55 591.85C874.21 593.81 868.53 597.57 862.77 600.88C862.77 600.95 862.77 601.02 862.77 601.09C860.52 602.6 855.9 606.55 853.29 610.69C849.3 617.03 850.11 624.5 846.74 630.94C843.98 636.21 843.63 637.09 839.43 641.16C834.79 645.66 809.81 663.59 819.18 669.99C828.21 676.15 840.95 678.22 850.3 675.21C857.63 672.86 863.09 667.66 870.85 668.72C874.91 669.28 900.39 690.41 903.34 691.91C920.85 700.82 909.24 702.73 912.37 708.4C917.99 718.61 923.88 727.21 933.1 731.1C921.26 753.22 908.86 775.14 893.39 794.93C884.36 806.48 874.26 817.22 862.78 826.36C856.89 831.05 850.52 834.78 844.26 838.91C841.57 840.69 838.36 842.88 838.37 846.46C838.41 856.17 854.61 852.55 859.79 850.78C872.8 846.35 882.11 836.09 891.08 826.17C913.49 801.39 940.04 781.51 965.28 759.81C972.28 753.79 979.18 747.63 985.72 741.11C997.63 740.17 1012.53 736.28 1022.93 730.36C1054.19 712.54 1091.71 679.09 1114.53 652.51C1123.18 642.44 1120.7 641.53 1128.79 628.9C1136.67 616.6 1144.07 603.91 1149.9 590.49C1154.68 579.47 1161.35 564.58 1157.38 552.36C1154.92 544.79 1148.41 539.33 1140.74 539.14C1155.63 533.49 1173.29 525.48 1171.9 509.19C1171.57 505.28 1169.11 501.9 1168.69 498.1C1167.88 490.79 1174.1 491.26 1178.21 487.5L1178.22 487.51Z" fill="#F4EDE6"/>
<path d="M1317.9 625.45C1288.28 613.27 1281.21 599.57 1269.22 580.99C1265.95 575.93 1262.41 572.69 1256.02 572.81C1245.82 573 1235.16 585.47 1224.92 581.02C1224.6 576.89 1222.31 572.04 1221.48 568.88C1219.7 562.05 1217.6 554.61 1212.26 549.62C1209.79 547.31 1207.11 545.99 1203.8 545.15C1201.63 544.6 1199.45 544.71 1197.29 544.26C1192.07 543.16 1188.62 540.86 1184.04 538.38C1175.41 533.71 1167.3 534.5 1157.86 536.38C1155.88 536.77 1129.32 536.97 1130.82 537.5C1114.41 566.53 1105.48 575.81 1101.92 609C1101.83 609.8 1114.35 643.15 1107.98 647.62C1106.01 649 1108.22 651.99 1110.19 650.62C1134.06 634.06 1159.64 627.09 1188.26 624.51C1212.12 622.36 1236.11 609.13 1255.45 596.05C1263.89 614.87 1277.1 629.14 1296.88 635.55C1304.35 637.97 1314.54 640.77 1320.8 634.21C1324.27 630.57 1323.11 627.57 1317.91 625.43L1317.9 625.45Z" fill="#F4EDE6"/>
<path d="M889.16 600.84C888.66 599.9 888.26 598.97 887.9 598.04C888.63 588.97 888.3 579.89 886.49 570.94C885.83 567.67 885.14 558.27 880.23 557.83C874.65 557.33 873.86 566.97 873.02 570.27C870.45 580.41 868.25 590.64 866.39 600.94C865.91 603.61 870.09 603.93 870.58 601.3C870.84 599.89 871.13 598.49 871.4 597.08C871.87 598.31 872.55 599.36 873.56 600.11C874.64 600.91 876.36 600.4 876.79 599.11C876.82 599 876.85 598.9 876.89 598.79C876.99 598.75 877.08 598.71 877.17 598.66C877.76 599.95 878.66 600.99 880 601.59C880.89 601.99 881.92 601.53 882.48 600.82C882.89 600.29 883.24 599.72 883.56 599.13C883.57 599.24 883.58 599.34 883.6 599.45C883.67 600.09 884 600.53 884.42 600.81C884.7 601.43 884.98 602.04 885.32 602.68C886.61 605.09 890.46 603.28 889.17 600.85L889.16 600.84Z" fill="#F5E9E4"/>
<path d="M913.76 601.46C914.25 592.42 914.73 583.3 913.54 574.29C912.9 569.52 912.73 561.62 907.37 559.88C906.7 559.66 905.79 559.71 905.27 560.25C895.68 570.14 895.46 586.84 890.06 598.95C888.96 601.43 892.9 602.86 894 600.41C894.31 599.72 894.58 599.01 894.86 598.31C895.31 599.41 896.74 599.91 897.79 599.46C897.62 601.46 900.07 601.95 901.35 600.75C902.48 600.35 903.34 599.52 904.04 598.45C904.37 600.13 904.81 601.81 905.44 603.54C905.93 604.88 907.26 604.95 908.28 604.4C908.23 605.17 908.16 605.94 908.04 606.7C907.79 609.42 912 609.78 912.26 607.06C912.39 605.71 912.44 604.43 912.45 603.17C913.14 602.9 913.71 602.32 913.75 601.46H913.76Z" fill="#E5E3E4"/>
<path d="M920.17 698.84C918.75 698.19 917.46 699.33 917.32 700.49C916.77 700.35 916.17 700.43 915.64 700.94C888.48 727.29 852.69 739.71 817.12 750.22C809.51 752.47 801.01 753.95 793.76 757.19C790.35 758.71 786.88 760.78 786.27 764.87C784.79 774.82 799.17 774.3 805.31 772.97C813.92 771.11 821.79 766.52 830.17 763.87C838.5 761.23 847.04 759.24 855.45 756.9C870.37 752.75 885.22 748.22 899.52 742.22C907.54 738.86 915.37 735.06 922.85 730.61C927.44 727.88 934.35 724.61 937.08 719.63C942.8 709.17 927.5 702.19 920.17 698.85V698.84Z" fill="#F5E9E4"/>
<path d="M1343.95 562.3C1321.88 561.41 1301.26 560.04 1280.95 550.62C1265.88 543.63 1252.85 539 1236 540.75C1223.4 542.06 1211.26 544.53 1198.89 540.35C1189.6 537.21 1181.05 532.11 1171.11 531.17C1152.28 529.39 1132.92 538.47 1118.15 549.33C1115.62 551.19 1118.85 555.69 1121.42 553.82C1127.75 549.2 1135.02 544.85 1142.73 541.67C1142.64 542.38 1142.86 543.13 1143.54 543.79C1166.35 566.14 1188.85 593.44 1223.71 578.09C1231.48 574.67 1238.83 570.11 1247.06 567.84C1258.39 564.72 1268.27 568.62 1278.87 572.23C1296.78 578.34 1315.41 580.21 1334.26 580.31C1343.07 580.35 1352.8 581.11 1361.51 579.58C1365.47 578.88 1370.3 577.08 1371.18 572.65C1373.61 560.44 1349.98 562.57 1343.97 562.32L1343.95 562.3Z" fill="#F4EDE6"/>
<path d="M975.66 519.06C977.58 512.99 980.11 507.15 982.71 501.35C987.45 490.79 992.86 480.36 995.9 469.14C1000.14 453.47 1000.65 434.79 989.96 421.47C978.23 406.84 957.88 404.59 940.38 405.01C915.72 405.61 893.37 414.15 869.29 417.84C841.87 422.04 818.07 411.17 810.92 383.1C804.9 359.44 808.56 332.52 814.53 309.27C819.88 288.44 830.44 267.58 827.32 245.52C824.46 225.34 810.64 211.82 790.27 210.12C779.4 209.21 768.34 210.97 757.61 212.64C745.31 214.56 733.5 217.37 722.93 224.21C720.91 225.52 722.79 228.77 724.83 227.45C742.14 216.26 768.49 212.49 788.84 213.8C816.9 215.6 827.35 240.43 823.06 265.5C819.21 288.01 809.45 308.87 806.32 331.68C803.9 349.27 802.87 368.07 807.61 385.38C811.69 400.26 820.72 413.19 835.46 418.94C854.42 426.34 874.81 421.04 893.65 416.14C915.62 410.43 940.04 405.58 962.69 410.36C987.53 415.6 998 436.09 994.03 460.11C990.09 483.97 974.19 503.78 969.56 527.46C968.94 530.62 968 534.63 969.1 537.72C970.5 541.65 972.45 541.48 975.07 543.8C981.77 549.75 982.37 550.31 979.55 556.4C978.22 559.26 976.54 562.02 974.93 564.73C971.68 570.2 947.8 609.7 944.02 614.81C942.57 616.76 945.85 618.64 947.28 616.71C953.29 608.61 980.62 565.18 984.08 555.57C986.98 547.51 984.31 546.06 978.84 541.29C974 537.08 972.02 534.87 973.21 528.46C973.8 525.28 974.69 522.14 975.66 519.06Z" fill="#4DC3FF"/>
<path d="M957.96 600.46C954.51 600.3 951.22 600.3 947.77 600.47C946.13 600.55 945.63 602.19 946.22 603.2C934.32 633.71 922.02 664.31 900.69 690.33C900.11 691.04 900.53 692.36 901.37 692.73C904.89 694.31 908.1 696.08 911.28 698.21C912.17 698.81 913.3 698.28 913.86 697.58C936.41 669.36 951.99 637.12 959.79 602.68C960.05 601.52 959.25 600.51 957.97 600.45L957.96 600.46Z" fill="#4DC3FF"/>
<path d="M913.59 553.41C913.44 553.18 913.26 553 913.08 552.83C912.66 551.21 910.91 549.89 909.04 551C900.8 555.88 897.04 563.88 894.2 572.73C890.08 585.59 885.71 595.56 875.46 604.71C869.45 610.07 862.81 616.35 863.78 625.22C864.53 632.07 869.86 636.22 876.59 636.33C881.65 636.41 885.89 633.84 890.52 632.32C896.26 630.43 901.84 632.19 907.32 630.6C914.86 628.41 918.59 619.64 921.07 612.91C928.36 593.14 925.24 570.79 913.58 553.41H913.59Z" fill="#564B33"/>
<path d="M990.38 606.86C984.06 609.53 979.41 611.63 972.58 608.12C969.59 606.59 967.63 604.06 964.34 602.88C964.01 602.76 963.44 602.71 962.71 602.68C961.16 616.51 950.66 627.8 949.13 641.92C948.11 651.31 951.91 662.09 961.02 666.2C966.93 668.87 972.08 666.9 978.12 665.91C987.41 664.39 995.04 669.88 1004.18 670.55C1017.15 671.5 1030.01 666.09 1038.32 656.09C1047.02 645.62 1047.94 633.97 1048.03 620.91C1048.11 610.1 1051.18 603.39 1060.42 597.6C1065.77 594.25 1070.91 591.2 1075.07 586.35C1081.82 578.47 1087.13 565.18 1081.64 555.21C1081.04 554.12 1080.32 553.18 1079.52 552.33C1062.5 561.11 1046.44 571.9 1034.49 580.12C1020.37 589.84 1006.26 600.14 990.38 606.85V606.86Z" fill="#564B33"/>
<path d="M1138.43 527.41C1147.05 517.57 1147.95 505.64 1152.03 493.81C1155.82 482.85 1162.49 474.76 1161.63 462.55C1160.97 453.32 1156.98 444.22 1150.25 437.81C1145.33 433.12 1139.54 430.84 1134.25 427.83C1150.44 465.3 1141.42 510.08 1109.92 538.32C1110.61 538.57 1111.34 538.78 1112.17 538.91C1121.94 540.4 1132.19 534.53 1138.42 527.42L1138.43 527.41Z" fill="#564B33"/>
<path d="M819.23 670.06C820.79 671.13 822.47 672.06 824.22 672.88C825.02 671.56 824.92 669.61 825.72 668.27C826.59 666.82 827.78 665.86 827.58 664.01C827.17 660.23 823.38 659.45 820.16 659.49C817 663.75 815.77 667.69 819.23 670.05V670.06Z" fill="#593434"/>
</g>
<defs>
<clipPath id="clip0_796_1692">
<rect width="1371.33" height="1015.01" fill="white"/>
</clipPath>
</defs>
</svg>
