<svg width="20" height="20" viewBox="0 0 20 20" fill="none" xmlns="http://www.w3.org/2000/svg">
<g clip-path="url(#clip0_710_1529)">
<path d="M17.5737 5.63782C16.5746 2.28368 13.506 0 10.0091 0C6.5122 0 3.44351 2.28368 2.4444 5.63782C2.08757 6.92239 2.08757 8.27832 2.37303 9.63426C2.87259 11.2756 4.29988 14.1302 8.01086 18.5549C8.15359 18.769 8.36768 18.9831 8.51041 19.1258C8.72451 19.4112 9.00996 19.6253 9.29542 19.8394C9.72361 20.0535 10.2232 20.0535 10.6514 19.8394C10.9368 19.6253 11.2223 19.4112 11.4364 19.1258C11.5791 18.9117 11.7932 18.6976 11.9359 18.5549C15.6469 14.2016 17.0742 11.2756 17.5024 9.63426C17.9306 8.27832 17.9306 6.92239 17.5737 5.63782ZM13.5773 7.85013C13.5773 9.84835 12.0073 11.4184 10.0091 11.4184C8.01086 11.4184 6.44083 9.84835 6.44083 7.85013C6.44083 5.85192 8.01086 4.28189 10.0091 4.28189C12.0073 4.28189 13.5773 5.85192 13.5773 7.85013Z" fill="#46C0FF"/>
</g>
<defs>
<clipPath id="clip0_710_1529">
<rect width="15.6659" height="20" fill="white" transform="translate(2.16699)"/>
</clipPath>
</defs>
</svg>
