<svg width="12" height="13" viewBox="0 0 12 13" fill="none" xmlns="http://www.w3.org/2000/svg">
<path d="M6 0.5C2.68664 0.5 0 3.18664 0 6.5C0 9.81336 2.68664 12.5 6 12.5C9.31336 12.5 12 9.81336 12 6.5C12 3.18664 9.31336 0.5 6 0.5ZM5.97691 10.3329C5.60912 10.3329 5.31061 10.0344 5.31061 9.66657C5.31061 9.29879 5.60912 9.00027 5.97691 9.00027C6.34469 9.00027 6.64321 9.29879 6.64321 9.66657C6.64321 10.0344 6.34469 10.3329 5.97691 10.3329ZM6.64321 7.55552C6.64321 7.76168 6.47499 7.92991 6.26883 7.92991H5.68334C5.47718 7.92991 5.30896 7.76168 5.30896 7.55552V3.14871C5.30896 2.94255 5.47718 2.77433 5.68334 2.77433H6.26883C6.47499 2.77433 6.64321 2.94255 6.64321 3.14871V7.55552Z" fill="#ED8778"/>
</svg>
